<?xml version="1.0" encoding="UTF-8"?>
<svg xmlns="http://www.w3.org/2000/svg" xmlns:xlink="http://www.w3.org/1999/xlink" width="150pt" height="149.999998pt" viewBox="0 0 150 149.999998" version="1.2">
<g id="surface1">
<rect x="0" y="0" width="150" height="149.999998" style="fill:rgb(100%,100%,100%);fill-opacity:1;stroke:none;"/>
<rect x="0" y="0" width="150" height="149.999998" style="fill:rgb(100%,100%,100%);fill-opacity:1;stroke:none;"/>
<rect x="0" y="0" width="150" height="149.999998" style="fill:rgb(100%,100%,100%);fill-opacity:1;stroke:none;"/>
<path style=" stroke:none;fill-rule:nonzero;fill:rgb(94.119263%,94.119263%,94.119263%);fill-opacity:1;" d="M -11.007812 124.03125 L 161.769531 124.03125 L 161.769531 124.097656 L -11.007812 124.097656 Z M -11.007812 124.03125 "/>
<path style=" stroke:none;fill-rule:nonzero;fill:rgb(94.119263%,94.119263%,94.119263%);fill-opacity:1;" d="M 108.078125 128.402344 L 111.71875 128.402344 L 111.71875 128.464844 L 108.078125 128.464844 Z M 108.078125 128.402344 "/>
<path style=" stroke:none;fill-rule:nonzero;fill:rgb(94.119263%,94.119263%,94.119263%);fill-opacity:1;" d="M 11.484375 126.121094 L 14.996094 126.121094 L 14.996094 126.183594 L 11.484375 126.183594 Z M 11.484375 126.121094 "/>
<path style=" stroke:none;fill-rule:nonzero;fill:rgb(94.119263%,94.119263%,94.119263%);fill-opacity:1;" d="M 42.035156 128.402344 L 52.632812 128.402344 L 52.632812 128.464844 L 42.035156 128.464844 Z M 42.035156 128.402344 "/>
<path style=" stroke:none;fill-rule:nonzero;fill:rgb(94.119263%,94.119263%,94.119263%);fill-opacity:1;" d="M 63.097656 126.378906 L 69.921875 126.378906 L 69.921875 126.445312 L 63.097656 126.445312 Z M 63.097656 126.378906 "/>
<path style=" stroke:none;fill-rule:nonzero;fill:rgb(94.119263%,94.119263%,94.119263%);fill-opacity:1;" d="M 119.386719 126.96875 L 137.523438 126.96875 L 137.523438 127.03125 L 119.386719 127.03125 Z M 119.386719 126.96875 "/>
<path style=" stroke:none;fill-rule:nonzero;fill:rgb(94.119263%,94.119263%,94.119263%);fill-opacity:1;" d="M 16.621094 126.121094 L 31.503906 126.121094 L 31.503906 126.183594 L 16.621094 126.183594 Z M 16.621094 126.121094 "/>
<path style=" stroke:none;fill-rule:nonzero;fill:rgb(94.119263%,94.119263%,94.119263%);fill-opacity:1;" d="M 139.539062 126.96875 L 145.257812 126.96875 L 145.257812 127.03125 L 139.539062 127.03125 Z M 139.539062 126.96875 "/>
<path style=" stroke:none;fill-rule:nonzero;fill:rgb(94.119263%,94.119263%,94.119263%);fill-opacity:1;" d="M 70.960938 108.578125 L 4.203125 108.578125 C 3.097656 108.578125 2.253906 107.664062 2.253906 106.621094 L 2.253906 12.527344 C 2.253906 11.417969 3.164062 10.570312 4.203125 10.570312 L 70.960938 10.570312 C 72.066406 10.570312 72.910156 11.484375 72.910156 12.527344 L 72.910156 106.621094 C 72.910156 107.730469 72 108.578125 70.960938 108.578125 Z M 4.203125 10.636719 C 3.164062 10.636719 2.320312 11.484375 2.320312 12.527344 L 2.320312 106.621094 C 2.320312 107.664062 3.164062 108.511719 4.203125 108.511719 L 70.960938 108.511719 C 72 108.511719 72.847656 107.664062 72.847656 106.621094 L 72.847656 12.527344 C 72.847656 11.484375 72 10.636719 70.960938 10.636719 Z M 4.203125 10.636719 "/>
<path style=" stroke:none;fill-rule:nonzero;fill:rgb(94.119263%,94.119263%,94.119263%);fill-opacity:1;" d="M 145.714844 108.578125 L 78.957031 108.578125 C 77.851562 108.578125 77.007812 107.664062 77.007812 106.621094 L 77.007812 12.527344 C 77.007812 11.417969 77.917969 10.570312 78.957031 10.570312 L 145.714844 10.570312 C 146.820312 10.570312 147.664062 11.417969 147.664062 12.527344 L 147.664062 106.621094 C 147.664062 107.730469 146.753906 108.578125 145.714844 108.578125 Z M 78.957031 10.636719 C 77.917969 10.636719 77.070312 11.484375 77.070312 12.527344 L 77.070312 106.621094 C 77.070312 107.664062 77.917969 108.511719 78.957031 108.511719 L 145.714844 108.511719 C 146.753906 108.511719 147.597656 107.664062 147.597656 106.621094 L 147.597656 12.527344 C 147.597656 11.484375 146.753906 10.636719 145.714844 10.636719 Z M 78.957031 10.636719 "/>
<path style=" stroke:none;fill-rule:nonzero;fill:rgb(90.19928%,90.19928%,90.19928%);fill-opacity:1;" d="M 130.179688 103.230469 L 139.667969 103.230469 L 139.667969 124.03125 L 130.179688 124.03125 Z M 130.179688 103.230469 "/>
<path style=" stroke:none;fill-rule:nonzero;fill:rgb(96.078491%,96.078491%,96.078491%);fill-opacity:1;" d="M 137.847656 124.03125 L 139.667969 124.03125 L 139.667969 118.882812 L 135.964844 118.882812 Z M 137.847656 124.03125 "/>
<path style=" stroke:none;fill-rule:nonzero;fill:rgb(92.158508%,92.158508%,92.158508%);fill-opacity:1;" d="M 75.902344 103.230469 L 85.390625 103.230469 L 85.390625 124.03125 L 75.902344 124.03125 Z M 75.902344 103.230469 "/>
<path style=" stroke:none;fill-rule:nonzero;fill:rgb(96.078491%,96.078491%,96.078491%);fill-opacity:1;" d="M 83.832031 103.230469 L 139.667969 103.230469 L 139.667969 120.902344 L 83.832031 120.902344 Z M 83.832031 103.230469 "/>
<path style=" stroke:none;fill-rule:nonzero;fill:rgb(90.19928%,90.19928%,90.19928%);fill-opacity:1;" d="M 85.71875 104.925781 L 102.292969 104.925781 L 102.292969 114.445312 L 85.71875 114.445312 Z M 85.71875 104.925781 "/>
<path style=" stroke:none;fill-rule:nonzero;fill:rgb(94.119263%,94.119263%,94.119263%);fill-opacity:1;" d="M 95.597656 106.359375 L 92.347656 106.359375 C 90.917969 106.359375 89.550781 105.773438 88.578125 104.730469 L 99.367188 104.730469 C 98.394531 105.773438 97.027344 106.359375 95.597656 106.359375 Z M 95.597656 106.359375 "/>
<path style=" stroke:none;fill-rule:nonzero;fill:rgb(90.19928%,90.19928%,90.19928%);fill-opacity:1;" d="M 103.460938 104.925781 L 120.039062 104.925781 L 120.039062 114.445312 L 103.460938 114.445312 Z M 103.460938 104.925781 "/>
<path style=" stroke:none;fill-rule:nonzero;fill:rgb(94.119263%,94.119263%,94.119263%);fill-opacity:1;" d="M 113.539062 106.359375 L 110.289062 106.359375 C 108.859375 106.359375 107.492188 105.773438 106.519531 104.730469 L 117.308594 104.730469 C 116.332031 105.773438 114.96875 106.359375 113.539062 106.359375 Z M 113.539062 106.359375 "/>
<path style=" stroke:none;fill-rule:nonzero;fill:rgb(90.19928%,90.19928%,90.19928%);fill-opacity:1;" d="M 121.273438 104.925781 L 137.847656 104.925781 L 137.847656 114.445312 L 121.273438 114.445312 Z M 121.273438 104.925781 "/>
<path style=" stroke:none;fill-rule:nonzero;fill:rgb(94.119263%,94.119263%,94.119263%);fill-opacity:1;" d="M 131.347656 106.359375 L 128.097656 106.359375 C 126.667969 106.359375 125.304688 105.773438 124.328125 104.730469 L 135.117188 104.730469 C 134.144531 105.773438 132.777344 106.359375 131.347656 106.359375 Z M 131.347656 106.359375 "/>
<path style=" stroke:none;fill-rule:nonzero;fill:rgb(96.078491%,96.078491%,96.078491%);fill-opacity:1;" d="M 85.652344 124.03125 L 83.832031 124.03125 L 83.832031 118.882812 L 87.539062 118.882812 Z M 85.652344 124.03125 "/>
<path style=" stroke:none;fill-rule:nonzero;fill:rgb(90.19928%,90.19928%,90.19928%);fill-opacity:1;" d="M 10.769531 17.15625 L 95.597656 17.15625 L 95.597656 63.0625 L 10.769531 63.0625 Z M 10.769531 17.15625 "/>
<path style=" stroke:none;fill-rule:nonzero;fill:rgb(92.158508%,92.158508%,92.158508%);fill-opacity:1;" d="M 11.550781 17.15625 L 97.351562 17.15625 L 97.351562 63.0625 L 11.550781 63.0625 Z M 11.550781 17.15625 "/>
<path style=" stroke:none;fill-rule:nonzero;fill:rgb(90.19928%,90.19928%,90.19928%);fill-opacity:1;" d="M 10.769531 63.0625 L 95.597656 63.0625 L 95.597656 66.324219 L 10.769531 66.324219 Z M 10.769531 63.0625 "/>
<path style=" stroke:none;fill-rule:nonzero;fill:rgb(90.19928%,90.19928%,90.19928%);fill-opacity:1;" d="M 14.472656 63.0625 L 100.277344 63.0625 L 100.277344 66.324219 L 14.472656 66.324219 Z M 14.472656 63.0625 "/>
<path style=" stroke:none;fill-rule:nonzero;fill:rgb(98.039246%,98.039246%,98.039246%);fill-opacity:1;" d="M 14.019531 19.570312 L 94.882812 19.570312 L 94.882812 60.585938 L 14.019531 60.585938 Z M 14.019531 19.570312 "/>
<path style=" stroke:none;fill-rule:nonzero;fill:rgb(100%,100%,100%);fill-opacity:1;" d="M 18.699219 60.585938 L 33.128906 19.570312 L 39.957031 19.570312 L 25.523438 60.585938 Z M 18.699219 60.585938 "/>
<path style=" stroke:none;fill-rule:nonzero;fill:rgb(90.19928%,90.19928%,90.19928%);fill-opacity:1;" d="M 15.191406 46.695312 C 15.058594 46.695312 14.996094 46.628906 14.996094 46.5 L 14.996094 21.199219 C 14.996094 21.070312 15.058594 21.003906 15.191406 21.003906 C 15.320312 21.003906 15.382812 21.070312 15.382812 21.199219 L 15.382812 46.5 C 15.382812 46.628906 15.253906 46.695312 15.191406 46.695312 Z M 15.191406 46.695312 "/>
<path style=" stroke:none;fill-rule:nonzero;fill:rgb(100%,100%,100%);fill-opacity:1;" d="M 27.019531 60.585938 L 41.449219 19.570312 L 44.050781 19.570312 L 29.683594 60.585938 Z M 27.019531 60.585938 "/>
<path style=" stroke:none;fill-rule:nonzero;fill:rgb(90.19928%,90.19928%,90.19928%);fill-opacity:1;" d="M 94.621094 19.570312 L 94.949219 19.570312 L 94.949219 60.585938 L 94.621094 60.585938 Z M 94.621094 19.570312 "/>
<path style=" stroke:none;fill-rule:nonzero;fill:rgb(92.158508%,92.158508%,92.158508%);fill-opacity:1;" d="M 97.9375 22.765625 L 13.109375 22.765625 L 12.847656 20.546875 L 97.742188 20.546875 Z M 97.9375 22.765625 "/>
<path style=" stroke:none;fill-rule:nonzero;fill:rgb(92.158508%,92.158508%,92.158508%);fill-opacity:1;" d="M 97.9375 24.328125 L 13.109375 24.328125 L 12.847656 22.175781 L 97.742188 22.175781 Z M 97.9375 24.328125 "/>
<path style=" stroke:none;fill-rule:nonzero;fill:rgb(92.158508%,92.158508%,92.158508%);fill-opacity:1;" d="M 97.9375 26.285156 L 13.109375 26.285156 L 12.847656 24.070312 L 97.742188 24.070312 Z M 97.9375 26.285156 "/>
<path style=" stroke:none;fill-rule:nonzero;fill:rgb(92.158508%,92.158508%,92.158508%);fill-opacity:1;" d="M 97.9375 28.4375 L 13.109375 28.4375 L 12.847656 26.21875 L 97.742188 26.21875 Z M 97.9375 28.4375 "/>
<path style=" stroke:none;fill-rule:nonzero;fill:rgb(90.19928%,90.19928%,90.19928%);fill-opacity:1;" d="M 97.9375 30.980469 L 13.109375 30.980469 L 12.847656 28.828125 L 97.742188 28.828125 Z M 97.9375 30.980469 "/>
<path style=" stroke:none;fill-rule:nonzero;fill:rgb(90.19928%,90.19928%,90.19928%);fill-opacity:1;" d="M 97.9375 33.914062 L 13.109375 33.914062 L 12.847656 31.699219 L 97.742188 31.699219 Z M 97.9375 33.914062 "/>
<path style=" stroke:none;fill-rule:nonzero;fill:rgb(92.158508%,92.158508%,92.158508%);fill-opacity:1;" d="M 107.296875 36.523438 L 119.128906 36.523438 L 119.128906 50.21875 L 107.296875 50.21875 Z M 107.296875 36.523438 "/>
<path style=" stroke:none;fill-rule:nonzero;fill:rgb(96.078491%,96.078491%,96.078491%);fill-opacity:1;" d="M 108.726562 36.523438 L 121.535156 36.523438 L 121.535156 50.21875 L 108.726562 50.21875 Z M 108.726562 36.523438 "/>
<path style=" stroke:none;fill-rule:nonzero;fill:rgb(100%,100%,100%);fill-opacity:1;" d="M 109.769531 37.632812 L 120.429688 37.632812 L 120.429688 49.171875 L 109.769531 49.171875 Z M 109.769531 37.632812 "/>
<path style=" stroke:none;fill-rule:nonzero;fill:rgb(98.039246%,98.039246%,98.039246%);fill-opacity:1;" d="M 117.894531 41.347656 L 117.894531 45.390625 C 117.894531 45.914062 117.503906 46.371094 116.917969 46.371094 L 113.277344 46.371094 C 112.757812 46.371094 112.304688 45.980469 112.304688 45.390625 L 112.304688 41.347656 C 112.304688 40.828125 112.691406 40.371094 113.277344 40.371094 L 116.917969 40.371094 C 117.4375 40.4375 117.894531 40.828125 117.894531 41.347656 Z M 117.894531 41.347656 "/>
<path style=" stroke:none;fill-rule:nonzero;fill:rgb(92.158508%,92.158508%,92.158508%);fill-opacity:1;" d="M 125.171875 30.523438 L 137.003906 30.523438 L 137.003906 44.21875 L 125.171875 44.21875 Z M 125.171875 30.523438 "/>
<path style=" stroke:none;fill-rule:nonzero;fill:rgb(96.078491%,96.078491%,96.078491%);fill-opacity:1;" d="M 126.539062 30.523438 L 139.34375 30.523438 L 139.34375 44.21875 L 126.539062 44.21875 Z M 126.539062 30.523438 "/>
<path style=" stroke:none;fill-rule:nonzero;fill:rgb(100%,100%,100%);fill-opacity:1;" d="M 127.644531 31.632812 L 138.304688 31.632812 L 138.304688 43.175781 L 127.644531 43.175781 Z M 127.644531 31.632812 "/>
<path style=" stroke:none;fill-rule:nonzero;fill:rgb(98.039246%,98.039246%,98.039246%);fill-opacity:1;" d="M 135.703125 35.351562 L 135.703125 39.390625 C 135.703125 39.914062 135.3125 40.371094 134.730469 40.371094 L 131.089844 40.371094 C 130.570312 40.371094 130.113281 39.980469 130.113281 39.390625 L 130.113281 35.351562 C 130.113281 34.828125 130.503906 34.371094 131.089844 34.371094 L 134.730469 34.371094 C 135.3125 34.4375 135.703125 34.828125 135.703125 35.351562 Z M 135.703125 35.351562 "/>
<path style=" stroke:none;fill-rule:nonzero;fill:rgb(90.19928%,90.19928%,90.19928%);fill-opacity:1;" d="M 59.78125 83.605469 L 78.957031 83.605469 L 78.957031 124.097656 L 59.78125 124.097656 Z M 59.78125 83.605469 "/>
<path style=" stroke:none;fill-rule:nonzero;fill:rgb(90.19928%,90.19928%,90.19928%);fill-opacity:1;" d="M 77.070312 124.03125 L 79.023438 124.03125 L 79.023438 118.554688 L 75.058594 118.554688 Z M 77.070312 124.03125 "/>
<path style=" stroke:none;fill-rule:nonzero;fill:rgb(90.19928%,90.19928%,90.19928%);fill-opacity:1;" d="M 12.589844 83.605469 L 31.765625 83.605469 L 31.765625 124.097656 L 12.589844 124.097656 Z M 12.589844 83.605469 "/>
<path style=" stroke:none;fill-rule:nonzero;fill:rgb(96.078491%,96.078491%,96.078491%);fill-opacity:1;" d="M 30.074219 83.605469 L 79.023438 83.605469 L 79.023438 120.707031 L 30.074219 120.707031 Z M 30.074219 83.605469 "/>
<path style=" stroke:none;fill-rule:nonzero;fill:rgb(90.19928%,90.19928%,90.19928%);fill-opacity:1;" d="M 31.179688 85.234375 L 77.070312 85.234375 L 77.070312 95.40625 L 31.179688 95.40625 Z M 31.179688 85.234375 "/>
<path style=" stroke:none;fill-rule:nonzero;fill:rgb(96.078491%,96.078491%,96.078491%);fill-opacity:1;" d="M 56.726562 88.363281 L 52.371094 88.363281 C 50.484375 88.363281 48.664062 87.125 47.367188 84.90625 L 61.667969 84.90625 C 60.367188 87.125 58.609375 88.363281 56.726562 88.363281 Z M 56.726562 88.363281 "/>
<path style=" stroke:none;fill-rule:nonzero;fill:rgb(90.19928%,90.19928%,90.19928%);fill-opacity:1;" d="M 32.023438 124.03125 L 30.074219 124.03125 L 30.074219 118.554688 L 34.039062 118.554688 Z M 32.023438 124.03125 "/>
<path style=" stroke:none;fill-rule:nonzero;fill:rgb(90.19928%,90.19928%,90.19928%);fill-opacity:1;" d="M 31.179688 97.035156 L 77.070312 97.035156 L 77.070312 107.207031 L 31.179688 107.207031 Z M 31.179688 97.035156 "/>
<path style=" stroke:none;fill-rule:nonzero;fill:rgb(96.078491%,96.078491%,96.078491%);fill-opacity:1;" d="M 56.726562 100.167969 L 52.371094 100.167969 C 50.484375 100.167969 48.664062 98.925781 47.367188 96.710938 L 61.667969 96.710938 C 60.367188 98.925781 58.609375 100.167969 56.726562 100.167969 Z M 56.726562 100.167969 "/>
<path style=" stroke:none;fill-rule:nonzero;fill:rgb(90.19928%,90.19928%,90.19928%);fill-opacity:1;" d="M 31.179688 108.839844 L 77.070312 108.839844 L 77.070312 119.011719 L 31.179688 119.011719 Z M 31.179688 108.839844 "/>
<path style=" stroke:none;fill-rule:nonzero;fill:rgb(96.078491%,96.078491%,96.078491%);fill-opacity:1;" d="M 56.726562 112.035156 L 52.371094 112.035156 C 50.484375 112.035156 48.664062 110.796875 47.367188 108.578125 L 61.667969 108.578125 C 60.367188 110.730469 58.609375 112.035156 56.726562 112.035156 Z M 56.726562 112.035156 "/>
<path style=" stroke:none;fill-rule:nonzero;fill:rgb(90.19928%,90.19928%,90.19928%);fill-opacity:1;" d="M 121.207031 99.515625 L 121.792969 99.515625 C 121.792969 98.339844 121.792969 95.339844 121.859375 88.429688 C 121.988281 75.972656 122.183594 75.191406 122.183594 75.191406 L 120.820312 80.929688 C 119.910156 87.320312 121.011719 93.777344 121.207031 99.515625 Z M 121.207031 99.515625 "/>
<path style=" stroke:none;fill-rule:nonzero;fill:rgb(90.19928%,90.19928%,90.19928%);fill-opacity:1;" d="M 118.671875 78.84375 C 115.683594 75.84375 109.832031 75.453125 103.789062 75.191406 C 101.449219 75.125 110.351562 79.625 114.839844 83.015625 C 118.285156 85.625 120.429688 86.277344 121.597656 89.144531 C 121.726562 85.429688 121.273438 81.386719 118.671875 78.84375 Z M 118.671875 78.84375 "/>
<path style=" stroke:none;fill-rule:nonzero;fill:rgb(90.19928%,90.19928%,90.19928%);fill-opacity:1;" d="M 121.988281 72.324219 C 124.003906 68.476562 129.140625 64.757812 134.925781 63.390625 C 137.199219 62.867188 129.722656 70.5625 126.863281 75.519531 C 124.652344 79.363281 121.726562 83.929688 121.273438 87.191406 C 120.558594 80.734375 119.972656 76.234375 121.988281 72.324219 Z M 121.988281 72.324219 "/>
<path style=" stroke:none;fill-rule:nonzero;fill:rgb(94.119263%,94.119263%,94.119263%);fill-opacity:1;" d="M 121.726562 103.230469 C 119.714844 103.230469 118.089844 101.667969 117.957031 99.644531 L 117.632812 96.253906 L 125.824219 96.253906 L 125.5 99.644531 C 125.367188 101.667969 123.742188 103.230469 121.726562 103.230469 Z M 121.726562 103.230469 "/>
<path style=" stroke:none;fill-rule:nonzero;fill:rgb(96.078491%,96.078491%,96.078491%);fill-opacity:1;" d="M 126.34375 97.558594 L 117.113281 97.558594 L 116.851562 93.777344 L 126.605469 93.777344 Z M 126.34375 97.558594 "/>
<path style=" stroke:none;fill-rule:nonzero;fill:rgb(96.078491%,96.078491%,96.078491%);fill-opacity:1;" d="M 142.464844 135.769531 C 142.464844 135.898438 142.355469 136.027344 142.140625 136.152344 C 141.925781 136.28125 141.605469 136.40625 141.175781 136.535156 C 140.75 136.660156 140.214844 136.78125 139.578125 136.90625 C 138.941406 137.027344 138.203125 137.148438 137.363281 137.265625 C 136.523438 137.386719 135.585938 137.5 134.550781 137.613281 C 133.515625 137.726562 132.390625 137.835938 131.167969 137.945312 C 129.949219 138.050781 128.644531 138.152344 127.253906 138.253906 C 125.859375 138.351562 124.386719 138.445312 122.835938 138.535156 C 121.285156 138.628906 119.660156 138.714844 117.960938 138.792969 C 116.265625 138.875 114.503906 138.953125 112.679688 139.023438 C 110.855469 139.09375 108.972656 139.160156 107.039062 139.21875 C 105.101562 139.28125 103.121094 139.335938 101.09375 139.382812 C 99.066406 139.433594 97 139.476562 94.902344 139.515625 C 92.800781 139.550781 90.675781 139.582031 88.519531 139.605469 C 86.367188 139.632812 84.199219 139.652344 82.015625 139.664062 C 79.832031 139.675781 77.640625 139.683594 75.445312 139.683594 C 73.25 139.683594 71.0625 139.675781 68.878906 139.664062 C 66.695312 139.652344 64.523438 139.632812 62.371094 139.605469 C 60.21875 139.582031 58.09375 139.550781 55.992188 139.515625 C 53.890625 139.476562 51.828125 139.433594 49.800781 139.382812 C 47.773438 139.335938 45.789062 139.28125 43.855469 139.21875 C 41.917969 139.160156 40.039062 139.09375 38.214844 139.023438 C 36.390625 138.953125 34.628906 138.875 32.929688 138.792969 C 31.234375 138.714844 29.609375 138.628906 28.058594 138.535156 C 26.507812 138.445312 25.035156 138.351562 23.640625 138.253906 C 22.25 138.152344 20.941406 138.050781 19.722656 137.945312 C 18.503906 137.835938 17.378906 137.726562 16.34375 137.613281 C 15.308594 137.5 14.371094 137.386719 13.53125 137.265625 C 12.691406 137.148438 11.953125 137.027344 11.316406 136.90625 C 10.679688 136.78125 10.144531 136.660156 9.71875 136.535156 C 9.289062 136.40625 8.96875 136.28125 8.753906 136.152344 C 8.535156 136.027344 8.429688 135.898438 8.429688 135.769531 C 8.429688 135.640625 8.535156 135.515625 8.753906 135.386719 C 8.96875 135.257812 9.289062 135.132812 9.71875 135.007812 C 10.144531 134.882812 10.679688 134.757812 11.316406 134.632812 C 11.953125 134.511719 12.691406 134.390625 13.53125 134.273438 C 14.371094 134.152344 15.308594 134.039062 16.34375 133.925781 C 17.378906 133.8125 18.503906 133.703125 19.722656 133.597656 C 20.941406 133.488281 22.25 133.386719 23.640625 133.289062 C 25.035156 133.1875 26.507812 133.09375 28.058594 133.003906 C 29.609375 132.914062 31.234375 132.828125 32.929688 132.746094 C 34.628906 132.664062 36.390625 132.589844 38.214844 132.515625 C 40.039062 132.445312 41.917969 132.378906 43.855469 132.320312 C 45.789062 132.257812 47.773438 132.203125 49.800781 132.15625 C 51.828125 132.105469 53.890625 132.0625 55.992188 132.027344 C 58.09375 131.988281 60.21875 131.957031 62.371094 131.933594 C 64.523438 131.90625 66.695312 131.890625 68.878906 131.875 C 71.0625 131.863281 73.25 131.859375 75.445312 131.859375 C 77.640625 131.859375 79.832031 131.863281 82.015625 131.875 C 84.199219 131.890625 86.367188 131.90625 88.519531 131.933594 C 90.675781 131.957031 92.800781 131.988281 94.902344 132.027344 C 97 132.0625 99.066406 132.105469 101.09375 132.15625 C 103.121094 132.203125 105.101562 132.257812 107.039062 132.320312 C 108.972656 132.378906 110.855469 132.445312 112.679688 132.515625 C 114.503906 132.589844 116.265625 132.664062 117.960938 132.746094 C 119.660156 132.828125 121.285156 132.914062 122.835938 133.003906 C 124.386719 133.09375 125.859375 133.1875 127.253906 133.289062 C 128.644531 133.386719 129.949219 133.488281 131.167969 133.597656 C 132.390625 133.703125 133.515625 133.8125 134.550781 133.925781 C 135.585938 134.039062 136.523438 134.152344 137.363281 134.273438 C 138.203125 134.390625 138.941406 134.511719 139.578125 134.632812 C 140.214844 134.757812 140.75 134.882812 141.175781 135.007812 C 141.605469 135.132812 141.925781 135.257812 142.140625 135.386719 C 142.355469 135.515625 142.464844 135.640625 142.464844 135.769531 Z M 142.464844 135.769531 "/>
<path style=" stroke:none;fill-rule:nonzero;fill:rgb(10.198975%,39.99939%,69.40918%);fill-opacity:1;" d="M 73.820312 40.957031 C 74.277344 46.828125 81.101562 54.519531 83.246094 56.804688 C 83.570312 57.195312 84.15625 57.195312 84.546875 56.867188 C 84.546875 56.867188 84.546875 56.867188 84.613281 56.804688 C 86.757812 54.457031 93.582031 46.828125 94.039062 40.957031 C 94.101562 40.566406 93.90625 40.242188 93.582031 40.042969 L 84.417969 35.089844 C 84.15625 34.957031 83.832031 34.957031 83.570312 35.089844 L 74.40625 40.042969 C 74.015625 40.242188 73.820312 40.632812 73.820312 40.957031 Z M 73.820312 40.957031 "/>
<path style=" stroke:none;fill-rule:nonzero;fill:rgb(100%,100%,100%);fill-opacity:0.298;" d="M 83.246094 54.652344 C 80.453125 51.519531 76.488281 46.304688 75.511719 42.132812 C 75.445312 41.738281 75.578125 41.347656 75.96875 41.089844 L 83.507812 36.785156 C 83.765625 36.652344 84.15625 36.652344 84.417969 36.785156 L 91.957031 41.089844 C 92.347656 41.285156 92.476562 41.738281 92.414062 42.132812 C 91.4375 46.304688 87.472656 51.519531 84.675781 54.652344 C 84.351562 55.042969 83.765625 55.042969 83.378906 54.714844 C 83.3125 54.652344 83.3125 54.652344 83.246094 54.652344 Z M 83.246094 54.652344 "/>
<path style=" stroke:none;fill-rule:nonzero;fill:rgb(100%,100%,100%);fill-opacity:1;" d="M 82.921875 48.261719 C 82.792969 48.261719 82.660156 48.195312 82.53125 48.128906 L 79.996094 45.523438 C 79.800781 45.328125 79.800781 45 79.996094 44.804688 C 80.191406 44.609375 80.515625 44.609375 80.710938 44.804688 L 82.921875 47.023438 L 88.121094 41.871094 C 88.316406 41.675781 88.640625 41.675781 88.835938 41.871094 C 89.03125 42.066406 89.03125 42.390625 88.835938 42.585938 L 83.3125 48.128906 C 83.183594 48.261719 83.050781 48.261719 82.921875 48.261719 Z M 82.921875 48.261719 "/>
<path style=" stroke:none;fill-rule:nonzero;fill:rgb(14.898682%,19.60907%,21.958923%);fill-opacity:1;" d="M 56.792969 62.347656 L 104.699219 62.347656 C 106.972656 62.347656 108.859375 64.238281 108.859375 66.519531 L 108.859375 129.574219 C 108.859375 131.859375 106.972656 133.75 104.699219 133.75 L 56.792969 133.75 C 54.515625 133.75 52.632812 131.859375 52.632812 129.574219 L 52.632812 66.519531 C 52.632812 64.171875 54.449219 62.347656 56.792969 62.347656 Z M 56.792969 62.347656 "/>
<path style=" stroke:none;fill-rule:nonzero;fill:rgb(92.939758%,15.289307%,16.468811%);fill-opacity:1;" d="M 59.976562 62.347656 L 107.882812 62.347656 C 110.15625 62.347656 112.042969 64.238281 112.042969 66.519531 L 112.042969 129.574219 C 112.042969 131.859375 110.15625 133.75 107.882812 133.75 L 59.976562 133.75 C 57.699219 133.75 55.816406 131.859375 55.816406 129.574219 L 55.816406 66.519531 C 55.816406 64.171875 57.699219 62.347656 59.976562 62.347656 Z M 59.976562 62.347656 "/>
<path style=" stroke:none;fill-rule:nonzero;fill:rgb(14.898682%,19.60907%,21.958923%);fill-opacity:1;" d="M 61.015625 133.683594 L 65.695312 133.683594 C 65.828125 133.683594 65.957031 133.8125 65.957031 133.945312 L 65.957031 134.726562 C 65.957031 134.855469 65.828125 134.988281 65.695312 134.988281 L 61.015625 134.988281 C 60.886719 134.988281 60.757812 134.855469 60.757812 134.726562 L 60.757812 133.945312 C 60.757812 133.8125 60.886719 133.683594 61.015625 133.683594 Z M 61.015625 133.683594 "/>
<path style=" stroke:none;fill-rule:nonzero;fill:rgb(14.898682%,19.60907%,21.958923%);fill-opacity:1;" d="M 102.226562 133.683594 L 106.90625 133.683594 C 107.039062 133.683594 107.167969 133.8125 107.167969 133.945312 L 107.167969 134.726562 C 107.167969 134.855469 107.039062 134.988281 106.90625 134.988281 L 102.226562 134.988281 C 102.097656 134.988281 101.96875 134.855469 101.96875 134.726562 L 101.96875 133.945312 C 101.96875 133.8125 102.097656 133.683594 102.226562 133.683594 Z M 102.226562 133.683594 "/>
<path style=" stroke:none;fill-rule:nonzero;fill:rgb(0%,0%,0%);fill-opacity:0.2;" d="M 59.976562 62.347656 L 107.882812 62.347656 C 110.15625 62.347656 112.042969 64.238281 112.042969 66.519531 L 112.042969 129.574219 C 112.042969 131.859375 110.15625 133.75 107.882812 133.75 L 59.976562 133.75 C 57.699219 133.75 55.816406 131.859375 55.816406 129.574219 L 55.816406 66.519531 C 55.816406 64.171875 57.699219 62.347656 59.976562 62.347656 Z M 59.976562 62.347656 "/>
<path style=" stroke:none;fill-rule:nonzero;fill:rgb(90.19928%,90.19928%,90.19928%);fill-opacity:0.4;" d="M 102.292969 125.46875 L 65.632812 125.46875 C 64.785156 125.46875 64.070312 124.75 64.070312 123.902344 L 64.070312 72.191406 C 64.070312 71.34375 64.785156 70.628906 65.632812 70.628906 L 102.292969 70.628906 C 103.136719 70.628906 103.851562 71.34375 103.851562 72.191406 L 103.851562 123.902344 C 103.851562 124.75 103.136719 125.46875 102.292969 125.46875 Z M 65.632812 70.691406 C 64.851562 70.691406 64.203125 71.34375 64.203125 72.125 L 64.203125 123.835938 C 64.203125 124.621094 64.851562 125.269531 65.632812 125.269531 L 102.292969 125.269531 C 103.074219 125.269531 103.722656 124.621094 103.722656 123.835938 L 103.722656 72.125 C 103.722656 71.34375 103.074219 70.691406 102.292969 70.691406 Z M 65.632812 70.691406 "/>
<path style=" stroke:none;fill-rule:nonzero;fill:rgb(92.939758%,15.289307%,16.468811%);fill-opacity:1;" d="M 103.074219 72.128906 L 103.074219 123.902344 C 103.074219 124.359375 102.683594 124.683594 102.292969 124.683594 L 65.632812 124.683594 C 65.175781 124.683594 64.851562 124.292969 64.851562 123.902344 L 64.851562 72.128906 C 64.851562 71.671875 65.242188 71.34375 65.632812 71.34375 L 102.292969 71.34375 C 102.683594 71.34375 103.074219 71.671875 103.074219 72.128906 Z M 103.074219 72.128906 "/>
<path style=" stroke:none;fill-rule:nonzero;fill:rgb(100%,100%,100%);fill-opacity:0.098;" d="M 103.074219 72.128906 L 103.074219 123.902344 C 103.074219 124.359375 102.683594 124.683594 102.292969 124.683594 L 65.632812 124.683594 C 65.175781 124.683594 64.851562 124.292969 64.851562 123.902344 L 64.851562 72.128906 C 64.851562 71.671875 65.242188 71.34375 65.632812 71.34375 L 102.292969 71.34375 C 102.683594 71.34375 103.074219 71.671875 103.074219 72.128906 Z M 103.074219 72.128906 "/>
<path style=" stroke:none;fill-rule:nonzero;fill:rgb(14.898682%,19.60907%,21.958923%);fill-opacity:1;" d="M 112.886719 77.015625 L 113.214844 77.015625 L 113.214844 79.953125 L 112.886719 79.953125 Z M 112.886719 77.015625 "/>
<path style=" stroke:none;fill-rule:nonzero;fill:rgb(14.898682%,19.60907%,21.958923%);fill-opacity:1;" d="M 112.886719 66.453125 L 113.214844 66.453125 L 113.214844 73.953125 L 112.886719 73.953125 Z M 112.886719 66.453125 "/>
<path style=" stroke:none;fill-rule:nonzero;fill:rgb(0%,0%,0%);fill-opacity:0.098;" d="M 95.726562 98.992188 C 95.726562 99.769531 95.652344 100.535156 95.5 101.296875 C 95.351562 102.054688 95.128906 102.792969 94.832031 103.507812 C 94.535156 104.226562 94.175781 104.90625 93.746094 105.550781 C 93.316406 106.195312 92.828125 106.789062 92.28125 107.339844 C 91.734375 107.886719 91.140625 108.375 90.5 108.804688 C 89.855469 109.238281 89.179688 109.601562 88.464844 109.898438 C 87.75 110.195312 87.015625 110.417969 86.257812 110.570312 C 85.5 110.71875 84.734375 110.796875 83.960938 110.796875 C 83.191406 110.796875 82.425781 110.71875 81.667969 110.570312 C 80.910156 110.417969 80.171875 110.195312 79.460938 109.898438 C 78.746094 109.601562 78.066406 109.238281 77.425781 108.804688 C 76.785156 108.375 76.1875 107.886719 75.644531 107.339844 C 75.097656 106.789062 74.609375 106.195312 74.179688 105.550781 C 73.75 104.90625 73.386719 104.226562 73.09375 103.507812 C 72.796875 102.792969 72.574219 102.054688 72.421875 101.296875 C 72.273438 100.535156 72.195312 99.769531 72.195312 98.992188 C 72.195312 98.21875 72.273438 97.449219 72.421875 96.691406 C 72.574219 95.929688 72.796875 95.191406 73.09375 94.476562 C 73.386719 93.761719 73.75 93.078125 74.179688 92.433594 C 74.609375 91.792969 75.097656 91.195312 75.644531 90.648438 C 76.1875 90.097656 76.785156 89.609375 77.425781 89.179688 C 78.066406 88.75 78.746094 88.386719 79.460938 88.089844 C 80.171875 87.792969 80.910156 87.566406 81.667969 87.417969 C 82.425781 87.265625 83.191406 87.191406 83.960938 87.191406 C 84.734375 87.191406 85.5 87.265625 86.257812 87.417969 C 87.015625 87.566406 87.75 87.792969 88.464844 88.089844 C 89.179688 88.386719 89.855469 88.75 90.5 89.179688 C 91.140625 89.609375 91.734375 90.097656 92.28125 90.648438 C 92.828125 91.195312 93.316406 91.792969 93.746094 92.433594 C 94.175781 93.078125 94.535156 93.761719 94.832031 94.476562 C 95.128906 95.191406 95.351562 95.929688 95.5 96.691406 C 95.652344 97.449219 95.726562 98.21875 95.726562 98.992188 Z M 95.726562 98.992188 "/>
<path style=" stroke:none;fill-rule:nonzero;fill:rgb(92.939758%,15.289307%,16.468811%);fill-opacity:1;" d="M 86.820312 78.582031 C 86.820312 78.964844 86.75 79.328125 86.605469 79.679688 C 86.460938 80.03125 86.253906 80.34375 85.984375 80.613281 C 85.714844 80.878906 85.40625 81.085938 85.054688 81.234375 C 84.707031 81.378906 84.339844 81.453125 83.960938 81.453125 C 83.582031 81.453125 83.21875 81.378906 82.867188 81.234375 C 82.515625 81.085938 82.207031 80.878906 81.941406 80.613281 C 81.671875 80.34375 81.464844 80.03125 81.320312 79.679688 C 81.175781 79.328125 81.101562 78.964844 81.101562 78.582031 C 81.101562 78.203125 81.175781 77.835938 81.320312 77.484375 C 81.464844 77.132812 81.671875 76.824219 81.941406 76.554688 C 82.207031 76.285156 82.515625 76.078125 82.867188 75.933594 C 83.21875 75.785156 83.582031 75.714844 83.960938 75.714844 C 84.339844 75.714844 84.707031 75.785156 85.054688 75.933594 C 85.40625 76.078125 85.714844 76.285156 85.984375 76.554688 C 86.253906 76.824219 86.460938 77.132812 86.605469 77.484375 C 86.75 77.835938 86.820312 78.203125 86.820312 78.582031 Z M 86.820312 78.582031 "/>
<path style=" stroke:none;fill-rule:nonzero;fill:rgb(100%,100%,100%);fill-opacity:0.6;" d="M 86.820312 78.582031 C 86.820312 78.964844 86.75 79.328125 86.605469 79.679688 C 86.460938 80.03125 86.253906 80.34375 85.984375 80.613281 C 85.714844 80.878906 85.40625 81.085938 85.054688 81.234375 C 84.707031 81.378906 84.339844 81.453125 83.960938 81.453125 C 83.582031 81.453125 83.21875 81.378906 82.867188 81.234375 C 82.515625 81.085938 82.207031 80.878906 81.941406 80.613281 C 81.671875 80.34375 81.464844 80.03125 81.320312 79.679688 C 81.175781 79.328125 81.101562 78.964844 81.101562 78.582031 C 81.101562 78.203125 81.175781 77.835938 81.320312 77.484375 C 81.464844 77.132812 81.671875 76.824219 81.941406 76.554688 C 82.207031 76.285156 82.515625 76.078125 82.867188 75.933594 C 83.21875 75.785156 83.582031 75.714844 83.960938 75.714844 C 84.339844 75.714844 84.707031 75.785156 85.054688 75.933594 C 85.40625 76.078125 85.714844 76.285156 85.984375 76.554688 C 86.253906 76.824219 86.460938 77.132812 86.605469 77.484375 C 86.75 77.835938 86.820312 78.203125 86.820312 78.582031 Z M 86.820312 78.582031 "/>
<path style=" stroke:none;fill-rule:nonzero;fill:rgb(92.939758%,15.289307%,16.468811%);fill-opacity:1;" d="M 83.960938 80.863281 C 82.726562 80.863281 81.6875 79.820312 81.6875 78.582031 C 81.6875 77.34375 82.726562 76.300781 83.960938 76.300781 C 85.195312 76.300781 86.238281 77.34375 86.238281 78.582031 C 86.238281 79.820312 85.195312 80.863281 83.960938 80.863281 Z M 83.960938 76.496094 C 82.792969 76.496094 81.882812 77.410156 81.882812 78.582031 C 81.882812 79.757812 82.792969 80.667969 83.960938 80.667969 C 85.132812 80.667969 86.042969 79.757812 86.042969 78.582031 C 86.042969 77.410156 85.132812 76.496094 83.960938 76.496094 Z M 83.960938 76.496094 "/>
<path style=" stroke:none;fill-rule:nonzero;fill:rgb(92.939758%,15.289307%,16.468811%);fill-opacity:1;" d="M 63.488281 78.125 L 64.785156 78.125 C 65.046875 78.125 65.304688 78.386719 65.304688 78.648438 L 65.304688 85.691406 C 65.304688 85.949219 65.046875 86.210938 64.785156 86.210938 L 63.488281 86.210938 C 63.226562 86.210938 62.964844 85.949219 62.964844 85.691406 L 62.964844 78.648438 C 62.964844 78.386719 63.226562 78.125 63.488281 78.125 Z M 63.488281 78.125 "/>
<path style=" stroke:none;fill-rule:nonzero;fill:rgb(100%,100%,100%);fill-opacity:0.6;" d="M 63.488281 78.125 L 64.785156 78.125 C 65.046875 78.125 65.304688 78.386719 65.304688 78.648438 L 65.304688 85.691406 C 65.304688 85.949219 65.046875 86.210938 64.785156 86.210938 L 63.488281 86.210938 C 63.226562 86.210938 62.964844 85.949219 62.964844 85.691406 L 62.964844 78.648438 C 62.964844 78.386719 63.226562 78.125 63.488281 78.125 Z M 63.488281 78.125 "/>
<path style=" stroke:none;fill-rule:nonzero;fill:rgb(92.939758%,15.289307%,16.468811%);fill-opacity:1;" d="M 63.488281 109.816406 L 64.785156 109.816406 C 65.046875 109.816406 65.304688 110.078125 65.304688 110.339844 L 65.304688 117.382812 C 65.304688 117.640625 65.046875 117.902344 64.785156 117.902344 L 63.488281 117.902344 C 63.226562 117.902344 62.964844 117.640625 62.964844 117.382812 L 62.964844 110.339844 C 62.964844 110.078125 63.226562 109.816406 63.488281 109.816406 Z M 63.488281 109.816406 "/>
<path style=" stroke:none;fill-rule:nonzero;fill:rgb(100%,100%,100%);fill-opacity:0.6;" d="M 63.488281 109.816406 L 64.785156 109.816406 C 65.046875 109.816406 65.304688 110.078125 65.304688 110.339844 L 65.304688 117.382812 C 65.304688 117.640625 65.046875 117.902344 64.785156 117.902344 L 63.488281 117.902344 C 63.226562 117.902344 62.964844 117.640625 62.964844 117.382812 L 62.964844 110.339844 C 62.964844 110.078125 63.226562 109.816406 63.488281 109.816406 Z M 63.488281 109.816406 "/>
<path style=" stroke:none;fill-rule:nonzero;fill:rgb(92.939758%,15.289307%,16.468811%);fill-opacity:1;" d="M 95.726562 98.015625 C 95.726562 98.789062 95.652344 99.558594 95.5 100.316406 C 95.351562 101.078125 95.128906 101.816406 94.832031 102.53125 C 94.535156 103.246094 94.175781 103.925781 93.746094 104.570312 C 93.316406 105.214844 92.828125 105.8125 92.28125 106.359375 C 91.734375 106.910156 91.140625 107.398438 90.5 107.828125 C 89.855469 108.257812 89.179688 108.621094 88.464844 108.917969 C 87.75 109.214844 87.015625 109.4375 86.257812 109.589844 C 85.5 109.742188 84.734375 109.816406 83.960938 109.816406 C 83.191406 109.816406 82.425781 109.742188 81.667969 109.589844 C 80.910156 109.4375 80.171875 109.214844 79.460938 108.917969 C 78.746094 108.621094 78.066406 108.257812 77.425781 107.828125 C 76.785156 107.398438 76.1875 106.910156 75.644531 106.359375 C 75.097656 105.8125 74.609375 105.214844 74.179688 104.570312 C 73.75 103.925781 73.386719 103.246094 73.09375 102.53125 C 72.796875 101.816406 72.574219 101.078125 72.421875 100.316406 C 72.273438 99.558594 72.195312 98.789062 72.195312 98.015625 C 72.195312 97.238281 72.273438 96.472656 72.421875 95.710938 C 72.574219 94.953125 72.796875 94.214844 73.09375 93.496094 C 73.386719 92.78125 73.75 92.101562 74.179688 91.457031 C 74.609375 90.8125 75.097656 90.214844 75.644531 89.667969 C 76.1875 89.121094 76.785156 88.632812 77.425781 88.199219 C 78.066406 87.769531 78.746094 87.40625 79.460938 87.109375 C 80.171875 86.8125 80.910156 86.589844 81.667969 86.4375 C 82.425781 86.289062 83.191406 86.210938 83.960938 86.210938 C 84.734375 86.210938 85.5 86.289062 86.257812 86.4375 C 87.015625 86.589844 87.75 86.8125 88.464844 87.109375 C 89.179688 87.40625 89.855469 87.769531 90.5 88.199219 C 91.140625 88.632812 91.734375 89.121094 92.28125 89.667969 C 92.828125 90.214844 93.316406 90.8125 93.746094 91.457031 C 94.175781 92.101562 94.535156 92.78125 94.832031 93.496094 C 95.128906 94.214844 95.351562 94.953125 95.5 95.710938 C 95.652344 96.472656 95.726562 97.238281 95.726562 98.015625 Z M 95.726562 98.015625 "/>
<path style=" stroke:none;fill-rule:nonzero;fill:rgb(100%,100%,100%);fill-opacity:0.6;" d="M 95.726562 98.015625 C 95.726562 98.789062 95.652344 99.558594 95.5 100.316406 C 95.351562 101.078125 95.128906 101.816406 94.832031 102.53125 C 94.535156 103.246094 94.175781 103.925781 93.746094 104.570312 C 93.316406 105.214844 92.828125 105.8125 92.28125 106.359375 C 91.734375 106.910156 91.140625 107.398438 90.5 107.828125 C 89.855469 108.257812 89.179688 108.621094 88.464844 108.917969 C 87.75 109.214844 87.015625 109.4375 86.257812 109.589844 C 85.5 109.742188 84.734375 109.816406 83.960938 109.816406 C 83.191406 109.816406 82.425781 109.742188 81.667969 109.589844 C 80.910156 109.4375 80.171875 109.214844 79.460938 108.917969 C 78.746094 108.621094 78.066406 108.257812 77.425781 107.828125 C 76.785156 107.398438 76.1875 106.910156 75.644531 106.359375 C 75.097656 105.8125 74.609375 105.214844 74.179688 104.570312 C 73.75 103.925781 73.386719 103.246094 73.09375 102.53125 C 72.796875 101.816406 72.574219 101.078125 72.421875 100.316406 C 72.273438 99.558594 72.195312 98.789062 72.195312 98.015625 C 72.195312 97.238281 72.273438 96.472656 72.421875 95.710938 C 72.574219 94.953125 72.796875 94.214844 73.09375 93.496094 C 73.386719 92.78125 73.75 92.101562 74.179688 91.457031 C 74.609375 90.8125 75.097656 90.214844 75.644531 89.667969 C 76.1875 89.121094 76.785156 88.632812 77.425781 88.199219 C 78.066406 87.769531 78.746094 87.40625 79.460938 87.109375 C 80.171875 86.8125 80.910156 86.589844 81.667969 86.4375 C 82.425781 86.289062 83.191406 86.210938 83.960938 86.210938 C 84.734375 86.210938 85.5 86.289062 86.257812 86.4375 C 87.015625 86.589844 87.75 86.8125 88.464844 87.109375 C 89.179688 87.40625 89.855469 87.769531 90.5 88.199219 C 91.140625 88.632812 91.734375 89.121094 92.28125 89.667969 C 92.828125 90.214844 93.316406 90.8125 93.746094 91.457031 C 94.175781 92.101562 94.535156 92.78125 94.832031 93.496094 C 95.128906 94.214844 95.351562 94.953125 95.5 95.710938 C 95.652344 96.472656 95.726562 97.238281 95.726562 98.015625 Z M 95.726562 98.015625 "/>
<path style=" stroke:none;fill-rule:nonzero;fill:rgb(92.939758%,15.289307%,16.468811%);fill-opacity:1;" d="M 77.664062 92.148438 L 78.167969 91.640625 L 90.304688 103.816406 L 89.796875 104.320312 Z M 77.664062 92.148438 "/>
<path style=" stroke:none;fill-rule:nonzero;fill:rgb(92.939758%,15.289307%,16.468811%);fill-opacity:1;" d="M 77.664062 103.859375 L 89.796875 91.6875 L 90.304688 92.195312 L 78.167969 104.367188 Z M 77.664062 103.859375 "/>
<path style=" stroke:none;fill-rule:nonzero;fill:rgb(0%,0%,0%);fill-opacity:0.2;" d="M 77.589844 103.820312 L 89.722656 91.648438 L 90.226562 92.15625 L 78.09375 104.328125 Z M 77.589844 103.820312 "/>
<path style=" stroke:none;fill-rule:nonzero;fill:rgb(0%,0%,0%);fill-opacity:0.2;" d="M 77.585938 92.113281 L 78.09375 91.605469 L 90.226562 103.777344 L 89.722656 104.285156 Z M 77.585938 92.113281 "/>
<path style=" stroke:none;fill-rule:nonzero;fill:rgb(92.939758%,15.289307%,16.468811%);fill-opacity:1;" d="M 83.898438 106.949219 C 78.957031 106.949219 74.925781 102.90625 74.925781 97.949219 C 74.925781 92.992188 78.957031 88.949219 83.898438 88.949219 C 88.835938 88.949219 92.867188 92.992188 92.867188 97.949219 C 92.867188 102.90625 88.835938 106.949219 83.898438 106.949219 Z M 83.898438 89.667969 C 79.347656 89.667969 75.640625 93.382812 75.640625 97.949219 C 75.640625 102.515625 79.347656 106.230469 83.898438 106.230469 C 88.445312 106.230469 92.152344 102.515625 92.152344 97.949219 C 92.152344 93.382812 88.445312 89.667969 83.898438 89.667969 Z M 83.898438 89.667969 "/>
<path style=" stroke:none;fill-rule:nonzero;fill:rgb(92.939758%,15.289307%,16.468811%);fill-opacity:1;" d="M 87.667969 97.949219 C 87.667969 98.449219 87.570312 98.933594 87.378906 99.398438 C 87.1875 99.859375 86.917969 100.269531 86.5625 100.625 C 86.210938 100.976562 85.800781 101.25 85.339844 101.445312 C 84.878906 101.636719 84.398438 101.730469 83.898438 101.730469 C 83.398438 101.730469 82.917969 101.636719 82.453125 101.445312 C 81.992188 101.25 81.585938 100.976562 81.230469 100.625 C 80.878906 100.269531 80.605469 99.859375 80.414062 99.398438 C 80.222656 98.933594 80.125 98.449219 80.125 97.949219 C 80.125 97.449219 80.222656 96.964844 80.414062 96.503906 C 80.605469 96.039062 80.878906 95.628906 81.230469 95.273438 C 81.585938 94.921875 81.992188 94.648438 82.453125 94.457031 C 82.917969 94.261719 83.398438 94.167969 83.898438 94.167969 C 84.398438 94.167969 84.878906 94.261719 85.339844 94.457031 C 85.800781 94.648438 86.210938 94.921875 86.5625 95.273438 C 86.917969 95.628906 87.1875 96.039062 87.378906 96.503906 C 87.570312 96.964844 87.667969 97.449219 87.667969 97.949219 Z M 87.667969 97.949219 "/>
<path style=" stroke:none;fill-rule:nonzero;fill:rgb(0%,0%,0%);fill-opacity:0.2;" d="M 83.898438 106.949219 C 78.957031 106.949219 74.925781 102.90625 74.925781 97.949219 C 74.925781 92.992188 78.957031 88.949219 83.898438 88.949219 C 88.835938 88.949219 92.867188 92.992188 92.867188 97.949219 C 92.867188 102.90625 88.835938 106.949219 83.898438 106.949219 Z M 83.898438 89.667969 C 79.347656 89.667969 75.640625 93.382812 75.640625 97.949219 C 75.640625 102.515625 79.347656 106.230469 83.898438 106.230469 C 88.445312 106.230469 92.152344 102.515625 92.152344 97.949219 C 92.152344 93.382812 88.445312 89.667969 83.898438 89.667969 Z M 83.898438 89.667969 "/>
<path style=" stroke:none;fill-rule:nonzero;fill:rgb(0%,0%,0%);fill-opacity:0.2;" d="M 87.667969 97.949219 C 87.667969 98.449219 87.570312 98.933594 87.378906 99.398438 C 87.1875 99.859375 86.917969 100.269531 86.5625 100.625 C 86.210938 100.976562 85.800781 101.25 85.339844 101.445312 C 84.878906 101.636719 84.398438 101.730469 83.898438 101.730469 C 83.398438 101.730469 82.917969 101.636719 82.453125 101.445312 C 81.992188 101.25 81.585938 100.976562 81.230469 100.625 C 80.878906 100.269531 80.605469 99.859375 80.414062 99.398438 C 80.222656 98.933594 80.125 98.449219 80.125 97.949219 C 80.125 97.449219 80.222656 96.964844 80.414062 96.503906 C 80.605469 96.039062 80.878906 95.628906 81.230469 95.273438 C 81.585938 94.921875 81.992188 94.648438 82.453125 94.457031 C 82.917969 94.261719 83.398438 94.167969 83.898438 94.167969 C 84.398438 94.167969 84.878906 94.261719 85.339844 94.457031 C 85.800781 94.648438 86.210938 94.921875 86.5625 95.273438 C 86.917969 95.628906 87.1875 96.039062 87.378906 96.503906 C 87.570312 96.964844 87.667969 97.449219 87.667969 97.949219 Z M 87.667969 97.949219 "/>
<path style=" stroke:none;fill-rule:nonzero;fill:rgb(100%,65.879822%,65.489197%);fill-opacity:1;" d="M 55.035156 47.933594 C 55.882812 49.890625 56.726562 51.847656 57.570312 53.738281 C 58.417969 55.695312 59.328125 57.585938 60.300781 59.410156 C 60.5625 59.867188 60.757812 60.324219 61.015625 60.78125 L 61.210938 61.105469 L 61.277344 61.238281 C 61.277344 61.238281 61.277344 61.238281 61.210938 61.171875 C 61.144531 61.171875 61.210938 61.171875 61.277344 61.238281 C 61.601562 61.433594 61.925781 61.5 62.316406 61.5625 C 62.769531 61.628906 63.226562 61.695312 63.679688 61.757812 C 64.65625 61.824219 65.695312 61.824219 66.738281 61.824219 L 68.296875 61.757812 L 69.855469 61.628906 L 70.246094 63.519531 C 68.101562 64.238281 65.890625 64.691406 63.679688 64.824219 C 63.097656 64.890625 62.445312 64.890625 61.859375 64.824219 C 61.144531 64.757812 60.429688 64.628906 59.78125 64.300781 C 59.328125 64.105469 58.9375 63.78125 58.546875 63.453125 C 58.417969 63.324219 58.351562 63.257812 58.285156 63.128906 L 58.15625 62.933594 L 57.894531 62.605469 C 57.570312 62.148438 57.3125 61.628906 56.984375 61.171875 C 55.882812 59.214844 54.839844 57.324219 53.929688 55.304688 C 53.019531 53.347656 52.109375 51.324219 51.265625 49.304688 Z M 55.035156 47.933594 "/>
<path style=" stroke:none;fill-rule:nonzero;fill:rgb(48.239136%,76.469421%,100%);fill-opacity:1;" d="M 50.421875 47.609375 C 49.640625 49.890625 54.257812 56.671875 54.257812 56.671875 L 58.675781 54.261719 C 57.894531 52.171875 57.050781 50.085938 56.011719 48.066406 C 54.449219 45.128906 51.332031 45.128906 50.421875 47.609375 Z M 50.421875 47.609375 "/>
<path style=" stroke:none;fill-rule:nonzero;fill:rgb(92.939758%,15.289307%,16.468811%);fill-opacity:1;" d="M 50.355469 47.933594 C 51.332031 47.476562 52.5 47.871094 53.671875 49.761719 C 54.839844 51.652344 55.882812 54.847656 56.011719 55.757812 L 54.257812 56.738281 C 54.257812 56.738281 50.03125 50.476562 50.355469 47.933594 Z M 50.355469 47.933594 "/>
<path style=" stroke:none;fill-rule:nonzero;fill:rgb(37.249756%,70.199585%,92.939758%);fill-opacity:1;" d="M 50.355469 47.933594 C 51.332031 47.476562 52.5 47.871094 53.671875 49.761719 C 54.839844 51.652344 55.882812 54.847656 56.011719 55.757812 L 54.257812 56.738281 C 54.257812 56.738281 50.03125 50.476562 50.355469 47.933594 Z M 50.355469 47.933594 "/>
<path style=" stroke:none;fill-rule:nonzero;fill:rgb(48.239136%,76.469421%,100%);fill-opacity:1;" d="M 53.410156 45.847656 C 53.410156 45.847656 56.726562 53.609375 54.320312 68.085938 L 40.671875 68.085938 C 40.476562 65.996094 41.449219 55.695312 39.109375 45.71875 C 40.605469 45.390625 42.164062 45.261719 43.660156 45.128906 C 45.609375 45 47.5625 45 49.511719 45.128906 C 50.8125 45.328125 52.109375 45.523438 53.410156 45.847656 Z M 53.410156 45.847656 "/>
<path style=" stroke:none;fill-rule:nonzero;fill:rgb(92.939758%,15.289307%,16.468811%);fill-opacity:1;" d="M 42.101562 48.195312 C 42.359375 49.824219 42.035156 53.738281 40.605469 58.304688 C 40.476562 54.457031 40.019531 50.542969 39.242188 46.761719 C 40.214844 46.628906 41.839844 46.695312 42.101562 48.195312 Z M 42.101562 48.195312 "/>
<path style=" stroke:none;fill-rule:nonzero;fill:rgb(37.249756%,70.199585%,92.939758%);fill-opacity:1;" d="M 42.101562 48.195312 C 42.359375 49.824219 42.035156 53.738281 40.605469 58.304688 C 40.476562 54.457031 40.019531 50.542969 39.242188 46.761719 C 40.214844 46.628906 41.839844 46.695312 42.101562 48.195312 Z M 42.101562 48.195312 "/>
<path style=" stroke:none;fill-rule:nonzero;fill:rgb(100%,65.879822%,65.489197%);fill-opacity:1;" d="M 35.796875 129.707031 L 37.808594 131.53125 L 41.710938 127.488281 L 39.628906 125.664062 Z M 35.796875 129.707031 "/>
<path style=" stroke:none;fill-rule:nonzero;fill:rgb(14.898682%,19.60907%,21.958923%);fill-opacity:1;" d="M 38.394531 130.75 L 35.925781 129.117188 C 35.859375 129.054688 35.730469 129.054688 35.664062 129.117188 L 33.78125 131.007812 C 33.648438 131.140625 33.648438 131.402344 33.84375 131.53125 C 33.84375 131.53125 33.910156 131.53125 33.910156 131.597656 C 35.46875 132.835938 36.640625 133.75 37.550781 134.726562 C 38.589844 135.898438 39.175781 136.097656 41.582031 136.097656 C 42.6875 136.097656 43.335938 135.117188 42.878906 134.988281 C 38.851562 133.683594 39.957031 133.160156 38.914062 131.269531 C 38.71875 131.074219 38.589844 130.878906 38.394531 130.75 Z M 38.394531 130.75 "/>
<path style=" stroke:none;fill-rule:nonzero;fill:rgb(94.898987%,56.079102%,56.079102%);fill-opacity:1;" d="M 41.710938 127.488281 L 39.695312 129.574219 L 37.679688 127.75 L 39.628906 125.664062 Z M 41.710938 127.488281 "/>
<path style=" stroke:none;fill-rule:nonzero;fill:rgb(94.898987%,56.079102%,56.079102%);fill-opacity:1;" d="M 43.074219 127.554688 L 45.609375 127.554688 L 45.480469 130.617188 L 42.878906 130.617188 Z M 43.074219 127.554688 "/>
<path style=" stroke:none;fill-rule:nonzero;fill:rgb(10.198975%,39.99939%,69.40918%);fill-opacity:1;" d="M 54.320312 68.085938 C 54.320312 68.085938 57.050781 86.796875 57.960938 97.035156 C 58.675781 105.253906 41.058594 129.640625 41.058594 129.640625 L 37.679688 126.445312 C 37.679688 126.445312 50.550781 104.535156 49.574219 95.472656 C 48.601562 86.667969 45.351562 68.148438 45.351562 68.148438 Z M 54.320312 68.085938 "/>
<path style=" stroke:none;fill-rule:nonzero;fill:rgb(100%,65.879822%,65.489197%);fill-opacity:1;" d="M 42.75 133.488281 L 45.285156 133.488281 L 45.609375 127.554688 L 43.074219 127.554688 Z M 42.75 133.488281 "/>
<path style=" stroke:none;fill-rule:nonzero;fill:rgb(14.898682%,19.60907%,21.958923%);fill-opacity:1;" d="M 45.414062 133.160156 L 42.554688 133.160156 C 42.425781 133.160156 42.359375 133.226562 42.359375 133.355469 L 42.230469 135.640625 C 42.230469 135.898438 42.425781 136.097656 42.6875 136.097656 C 43.660156 136.097656 44.179688 136.03125 45.480469 136.03125 C 46.261719 136.03125 49.574219 136.097656 50.617188 136.097656 C 51.722656 136.097656 51.65625 135.050781 51.199219 134.921875 C 49.1875 134.464844 46.652344 133.878906 45.871094 133.292969 C 45.742188 133.226562 45.609375 133.160156 45.414062 133.160156 Z M 45.414062 133.160156 "/>
<path style=" stroke:none;fill-rule:nonzero;fill:rgb(100%,65.879822%,65.489197%);fill-opacity:1;" d="M 69.402344 61.824219 L 71.742188 60.910156 L 72.328125 63.324219 C 72.328125 63.324219 69.660156 64.105469 69.207031 63.324219 Z M 69.402344 61.824219 "/>
<path style=" stroke:none;fill-rule:nonzero;fill:rgb(100%,65.879822%,65.489197%);fill-opacity:1;" d="M 73.757812 61.367188 L 74.472656 62.738281 L 72.328125 63.324219 L 71.742188 60.910156 Z M 73.757812 61.367188 "/>
<path style=" stroke:none;fill-rule:nonzero;fill:rgb(90.19928%,90.19928%,90.19928%);fill-opacity:1;" d="M 50.03125 45.195312 L 49.445312 45.128906 C 47.496094 45 45.546875 45 43.59375 45.128906 L 43.269531 45.128906 L 43.269531 45.195312 C 43.269531 45.261719 43.921875 46.957031 47.625 46.957031 C 49.25 46.957031 50.097656 46.695312 50.289062 46.109375 C 50.421875 45.847656 50.289062 45.457031 50.03125 45.195312 Z M 50.03125 45.195312 "/>
<path style=" stroke:none;fill-rule:nonzero;fill:rgb(100%,65.879822%,65.489197%);fill-opacity:1;" d="M 43.984375 38.609375 C 44.441406 40.5 44.894531 43.957031 43.660156 45.195312 C 43.660156 45.195312 44.179688 46.761719 47.691406 46.761719 C 51.527344 46.761719 49.511719 45.195312 49.511719 45.195312 C 47.429688 44.675781 47.429688 43.109375 47.691406 41.675781 Z M 43.984375 38.609375 "/>
<path style=" stroke:none;fill-rule:nonzero;fill:rgb(94.898987%,56.079102%,56.079102%);fill-opacity:1;" d="M 45.480469 39.847656 L 47.691406 41.675781 C 47.625 42 47.5625 42.390625 47.5625 42.71875 C 46.78125 42.585938 45.609375 41.738281 45.546875 40.890625 C 45.414062 40.5 45.414062 40.175781 45.480469 39.847656 Z M 45.480469 39.847656 "/>
<path style=" stroke:none;fill-rule:nonzero;fill:rgb(14.898682%,19.60907%,21.958923%);fill-opacity:1;" d="M 49.445312 33.003906 C 50.617188 33.785156 50.746094 37.371094 49.054688 37.894531 C 47.367188 38.414062 47.234375 31.566406 49.445312 33.003906 Z M 49.445312 33.003906 "/>
<path style=" stroke:none;fill-rule:nonzero;fill:rgb(100%,65.879822%,65.489197%);fill-opacity:1;" d="M 43.140625 36.589844 C 43.921875 39 44.246094 40.5 45.804688 41.480469 C 47.367188 42.457031 49.378906 42 50.355469 40.5 C 50.746094 39.914062 50.875 39.261719 50.875 38.609375 C 50.875 36.261719 49.574219 32.675781 46.910156 32.21875 C 45.089844 31.894531 43.335938 33.066406 43.011719 34.894531 C 42.945312 35.480469 42.945312 36.066406 43.140625 36.589844 Z M 43.140625 36.589844 "/>
<path style=" stroke:none;fill-rule:nonzero;fill:rgb(14.898682%,19.60907%,21.958923%);fill-opacity:1;" d="M 40.34375 34.304688 C 41.191406 35.804688 43.269531 39.328125 44.3125 38.9375 C 45.351562 38.609375 45.351562 35.804688 44.050781 34.046875 C 44.050781 34.046875 54.320312 35.089844 54.515625 29.21875 C 54.710938 23.222656 49.769531 29.023438 45.414062 30.71875 C 40.671875 32.609375 38.394531 30.71875 40.34375 34.304688 Z M 40.34375 34.304688 "/>
<path style=" stroke:none;fill-rule:nonzero;fill:rgb(14.898682%,19.60907%,21.958923%);fill-opacity:1;" d="M 40.800781 32.21875 C 40.734375 32.21875 40.734375 32.15625 40.734375 32.089844 C 40.734375 32.023438 40.800781 32.023438 40.800781 32.023438 C 40.929688 31.957031 41.125 31.957031 41.320312 31.894531 C 42.6875 31.699219 44.050781 31.242188 45.285156 30.71875 C 46.585938 30.132812 47.949219 29.15625 49.121094 28.242188 C 49.902344 27.65625 50.679688 27.132812 51.527344 26.613281 C 51.589844 26.613281 51.589844 26.613281 51.65625 26.675781 C 51.65625 26.742188 51.65625 26.742188 51.589844 26.808594 C 50.746094 27.328125 49.964844 27.851562 49.25 28.4375 C 48.015625 29.351562 46.652344 30.328125 45.351562 30.914062 C 44.050781 31.503906 42.6875 31.894531 41.320312 32.089844 C 41.191406 32.15625 40.996094 32.15625 40.800781 32.21875 Z M 40.800781 32.21875 "/>
<path style=" stroke:none;fill-rule:nonzero;fill:rgb(100%,65.879822%,65.489197%);fill-opacity:1;" d="M 42.75 39.589844 C 43.207031 40.042969 43.855469 40.304688 44.503906 40.304688 C 45.351562 40.304688 45.546875 39.523438 45.089844 38.804688 C 44.699219 38.21875 43.726562 37.4375 43.011719 37.761719 C 42.164062 38.152344 42.164062 39 42.75 39.589844 Z M 42.75 39.589844 "/>
<path style=" stroke:none;fill-rule:nonzero;fill:rgb(0%,0%,0%);fill-opacity:0.2;" d="M 49.511719 95.40625 C 48.992188 90.839844 47.886719 83.734375 46.976562 77.929688 C 47.496094 76.953125 48.859375 74.996094 48.859375 74.996094 C 50.097656 79.363281 52.824219 95.667969 48.925781 117.773438 C 44.894531 124.292969 40.996094 129.640625 40.996094 129.640625 L 40.476562 121.230469 C 44.246094 114.121094 50.226562 101.730469 49.511719 95.40625 Z M 49.511719 95.40625 "/>
<path style=" stroke:none;fill-rule:nonzero;fill:rgb(14.898682%,19.60907%,21.958923%);fill-opacity:1;" d="M 47.105469 36.457031 C 47.171875 36.652344 47.300781 36.785156 47.429688 36.785156 C 47.5625 36.785156 47.625 36.589844 47.5625 36.394531 C 47.496094 36.199219 47.367188 36.066406 47.234375 36.066406 C 47.105469 36.132812 47.039062 36.261719 47.105469 36.457031 Z M 47.105469 36.457031 "/>
<path style=" stroke:none;fill-rule:nonzero;fill:rgb(14.898682%,19.60907%,21.958923%);fill-opacity:1;" d="M 49.378906 36 C 49.445312 36.199219 49.574219 36.328125 49.707031 36.328125 C 49.835938 36.328125 49.902344 36.132812 49.835938 35.9375 C 49.769531 35.742188 49.640625 35.609375 49.511719 35.609375 C 49.378906 35.609375 49.316406 35.804688 49.378906 36 Z M 49.378906 36 "/>
<path style=" stroke:none;fill-rule:nonzero;fill:rgb(94.898987%,56.079102%,56.079102%);fill-opacity:1;" d="M 48.664062 36.261719 C 49.054688 36.847656 49.511719 37.304688 50.097656 37.761719 C 49.835938 38.023438 49.511719 38.152344 49.1875 38.152344 Z M 48.664062 36.261719 "/>
<path style=" stroke:none;fill-rule:nonzero;fill:rgb(14.898682%,19.60907%,21.958923%);fill-opacity:1;" d="M 48.277344 38.871094 C 47.886719 38.871094 47.429688 38.742188 47.105469 38.480469 C 47.105469 38.480469 47.105469 38.414062 47.105469 38.414062 C 47.105469 38.414062 47.171875 38.414062 47.171875 38.414062 C 47.5625 38.742188 48.144531 38.871094 48.664062 38.742188 C 48.664062 38.742188 48.730469 38.742188 48.730469 38.804688 C 48.730469 38.804688 48.730469 38.871094 48.664062 38.871094 C 48.601562 38.871094 48.40625 38.871094 48.277344 38.871094 Z M 48.277344 38.871094 "/>
<path style=" stroke:none;fill-rule:nonzero;fill:rgb(14.898682%,19.60907%,21.958923%);fill-opacity:1;" d="M 46.195312 35.871094 C 46.195312 35.9375 46.195312 35.9375 46.195312 35.871094 C 46.066406 35.871094 46.066406 35.804688 46.066406 35.742188 C 46.195312 35.414062 46.519531 35.152344 46.910156 35.023438 C 46.976562 35.023438 47.039062 35.089844 47.039062 35.152344 C 47.039062 35.21875 46.976562 35.285156 46.910156 35.285156 C 46.585938 35.351562 46.390625 35.546875 46.261719 35.871094 C 46.261719 35.871094 46.261719 35.9375 46.195312 35.871094 Z M 46.195312 35.871094 "/>
<path style=" stroke:none;fill-rule:nonzero;fill:rgb(14.898682%,19.60907%,21.958923%);fill-opacity:1;" d="M 50.160156 34.957031 C 50.097656 34.957031 50.097656 34.957031 50.097656 34.894531 C 49.902344 34.632812 49.574219 34.503906 49.316406 34.503906 C 49.25 34.503906 49.1875 34.4375 49.1875 34.371094 C 49.1875 34.304688 49.25 34.242188 49.316406 34.242188 C 49.707031 34.242188 50.097656 34.4375 50.355469 34.699219 C 50.421875 34.761719 50.421875 34.828125 50.355469 34.894531 C 50.226562 34.957031 50.160156 34.957031 50.160156 34.957031 Z M 50.160156 34.957031 "/>
<path style=" stroke:none;fill-rule:nonzero;fill:rgb(100%,65.879822%,65.489197%);fill-opacity:1;" d="M 40.867188 59.671875 C 40.152344 59.410156 39.5 59.152344 38.914062 58.757812 C 38.785156 58.695312 38.65625 58.5625 38.527344 58.433594 C 38.65625 57.714844 38.914062 56.933594 39.109375 56.214844 C 39.304688 55.433594 39.628906 54.714844 39.890625 53.933594 C 40.152344 53.152344 40.476562 52.433594 40.800781 51.652344 C 40.929688 51.261719 41.125 50.933594 41.253906 50.542969 L 41.777344 49.433594 L 38.332031 47.675781 C 38.070312 48.128906 37.941406 48.457031 37.746094 48.914062 C 37.550781 49.371094 37.421875 49.695312 37.226562 50.152344 C 36.898438 51 36.574219 51.78125 36.316406 52.628906 C 35.730469 54.324219 35.339844 56.152344 35.082031 57.910156 L 35.082031 58.171875 C 35.082031 58.304688 35.082031 58.433594 35.082031 58.5625 C 35.082031 58.824219 35.144531 59.085938 35.210938 59.28125 C 35.339844 59.738281 35.535156 60.128906 35.859375 60.453125 C 36.316406 60.910156 36.835938 61.300781 37.355469 61.5625 C 38.265625 61.953125 39.175781 62.28125 40.152344 62.476562 C 41.90625 62.800781 43.660156 62.933594 45.480469 62.867188 L 45.609375 60.910156 C 43.984375 60.648438 42.425781 60.195312 40.867188 59.671875 Z M 40.867188 59.671875 "/>
<path style=" stroke:none;fill-rule:nonzero;fill:rgb(4.309082%,31.369019%,53.729248%);fill-opacity:1;" d="M 46.324219 133.617188 C 46.066406 133.617188 45.871094 133.554688 45.609375 133.554688 C 45.609375 133.554688 45.546875 133.554688 45.546875 133.488281 C 45.546875 133.488281 45.546875 133.421875 45.546875 133.421875 C 45.609375 133.355469 46.324219 132.835938 46.652344 132.964844 C 46.714844 132.964844 46.78125 133.03125 46.78125 133.160156 C 46.78125 133.292969 46.78125 133.421875 46.714844 133.488281 C 46.714844 133.554688 46.519531 133.617188 46.324219 133.617188 Z M 45.804688 133.421875 C 46.261719 133.488281 46.585938 133.488281 46.714844 133.355469 C 46.78125 133.292969 46.78125 133.226562 46.78125 133.160156 C 46.78125 133.097656 46.78125 133.097656 46.714844 133.097656 C 46.519531 133.03125 46.066406 133.292969 45.804688 133.421875 Z M 45.804688 133.421875 "/>
<path style=" stroke:none;fill-rule:nonzero;fill:rgb(4.309082%,31.369019%,53.729248%);fill-opacity:1;" d="M 45.675781 133.554688 C 45.609375 133.554688 45.609375 133.488281 45.675781 133.554688 C 45.609375 133.488281 45.546875 132.769531 45.804688 132.507812 C 45.871094 132.445312 45.9375 132.445312 46.066406 132.445312 C 46.195312 132.445312 46.261719 132.507812 46.261719 132.640625 C 46.324219 132.835938 45.9375 133.355469 45.675781 133.554688 Z M 46 132.507812 C 45.9375 132.507812 45.9375 132.507812 45.871094 132.574219 C 45.742188 132.835938 45.675781 133.097656 45.675781 133.421875 C 45.871094 133.226562 46.128906 132.835938 46.128906 132.640625 C 46.195312 132.507812 46.128906 132.507812 46 132.507812 Z M 46 132.507812 "/>
<path style=" stroke:none;fill-rule:nonzero;fill:rgb(4.309082%,31.369019%,53.729248%);fill-opacity:1;" d="M 40.019531 132.183594 C 39.566406 132.117188 39.109375 131.921875 38.71875 131.660156 C 38.71875 131.660156 38.65625 131.597656 38.71875 131.597656 C 38.71875 131.597656 38.71875 131.53125 38.785156 131.53125 C 38.914062 131.53125 40.152344 131.464844 40.34375 131.726562 C 40.410156 131.792969 40.410156 131.859375 40.410156 131.921875 C 40.410156 131.988281 40.34375 132.117188 40.214844 132.117188 C 40.152344 132.117188 40.085938 132.183594 40.019531 132.183594 Z M 38.980469 131.660156 C 39.566406 131.988281 39.957031 132.117188 40.152344 131.988281 C 40.214844 131.988281 40.28125 131.921875 40.28125 131.859375 C 40.28125 131.859375 40.28125 131.792969 40.28125 131.792969 C 40.152344 131.660156 39.5 131.660156 38.980469 131.660156 Z M 38.980469 131.660156 "/>
<path style=" stroke:none;fill-rule:nonzero;fill:rgb(4.309082%,31.369019%,53.729248%);fill-opacity:1;" d="M 38.785156 131.660156 C 38.785156 131.660156 38.71875 131.660156 38.785156 131.660156 C 38.71875 131.597656 38.71875 131.597656 38.71875 131.597656 C 38.71875 131.53125 39.175781 130.617188 39.761719 130.878906 C 39.890625 130.945312 39.957031 131.074219 39.890625 131.140625 C 39.890625 131.402344 39.175781 131.660156 38.785156 131.660156 Z M 39.566406 130.945312 C 39.242188 130.945312 38.980469 131.335938 38.851562 131.53125 C 39.242188 131.464844 39.761719 131.269531 39.824219 131.074219 C 39.824219 131.007812 39.824219 131.007812 39.695312 130.945312 C 39.695312 130.945312 39.628906 130.945312 39.566406 130.945312 Z M 39.566406 130.945312 "/>
<path style=" stroke:none;fill-rule:nonzero;fill:rgb(100%,65.879822%,65.489197%);fill-opacity:1;" d="M 45.15625 60.976562 L 47.234375 60.390625 L 47.496094 63.0625 C 47.496094 63.0625 45.414062 63.714844 44.894531 62.605469 Z M 45.15625 60.976562 "/>
<path style=" stroke:none;fill-rule:nonzero;fill:rgb(100%,65.879822%,65.489197%);fill-opacity:1;" d="M 45.15625 61.042969 C 45.609375 60.585938 45.871094 59.933594 45.871094 59.28125 L 46.390625 59.605469 C 46.390625 59.605469 46.519531 60.78125 46.261719 61.171875 C 46.128906 61.433594 45.15625 61.042969 45.15625 61.042969 Z M 45.15625 61.042969 "/>
<path style=" stroke:none;fill-rule:nonzero;fill:rgb(100%,65.879822%,65.489197%);fill-opacity:1;" d="M 48.277344 60.648438 L 48.144531 63.0625 L 47.5625 63.0625 L 47.300781 60.390625 Z M 48.277344 60.648438 "/>
<path style=" stroke:none;fill-rule:nonzero;fill:rgb(4.309082%,31.369019%,53.729248%);fill-opacity:1;" d="M 37.421875 126.25 L 41.253906 129.835938 L 42.492188 128.53125 L 38.136719 124.488281 Z M 37.421875 126.25 "/>
<path style=" stroke:none;fill-rule:nonzero;fill:rgb(10.198975%,39.99939%,69.40918%);fill-opacity:1;" d="M 49.445312 68.085938 C 49.445312 68.085938 49.707031 87.710938 49.25 95.082031 C 48.796875 103.164062 46.519531 129.835938 46.519531 129.835938 L 41.839844 129.835938 C 41.839844 129.835938 41.96875 103.816406 41.710938 95.796875 C 41.386719 87.125 40.605469 68.085938 40.605469 68.085938 Z M 49.445312 68.085938 "/>
<path style=" stroke:none;fill-rule:nonzero;fill:rgb(4.309082%,31.369019%,53.729248%);fill-opacity:1;" d="M 41.710938 129.835938 L 46.78125 129.835938 L 47.039062 128.074219 L 41.449219 128.335938 Z M 41.710938 129.835938 "/>
<path style=" stroke:none;fill-rule:nonzero;fill:rgb(48.239136%,76.469421%,100%);fill-opacity:1;" d="M 39.046875 45.71875 C 36.640625 46.042969 34.171875 54.976562 34.171875 54.976562 L 40.019531 57.195312 C 40.019531 57.195312 41.515625 53.414062 42.492188 50.414062 C 43.53125 47.28125 41.644531 45.390625 39.046875 45.71875 Z M 39.046875 45.71875 "/>
</g>
</svg>
