<svg id="Layer_1" data-name="Layer 1" xmlns="http://www.w3.org/2000/svg" viewBox="0 0 380.89 380.89"><defs><style>.cls-1{fill:#e95533;}.cls-2{fill:#cccbcb;}.cls-3{fill:#ededed;}.cls-4{fill:#ec9433;}.cls-5{fill:#fff;}.cls-6{fill:#1d1d1b;}.cls-7{fill:#a3a3a3;}.cls-8{fill:#ffec66;}.cls-9{fill:#dbc337;}</style></defs><title>Icon</title><path class="cls-1" d="M133.51,231.6c-1.52.38-2.62-1.4-3.21-2.85-14.78-36.56-51.77-63.06-91.14-65.29-5.89-.34-12-.13-17.38,2.3-10.8,4.88-16,17.58-16.68,29.43a61.15,61.15,0,0,0,6.7,31.41c2.83.19,5.47-1.64,7.14-3.94s2.58-5,3.7-7.66a50.26,50.26,0,0,1,23-24.69c-5.72,7-10.9,14.57-14,23s-4.11,18-1.4,26.58c1.13,3.62,3,7.14,6,9.44s7.34,3.13,10.67,1.31a12.37,12.37,0,0,0,4-3.89c5.67-8,7.62-19.61,16.53-23.74a106.25,106.25,0,0,0-9.19,50.34c.31,4.93,1.69,10.79,6.36,12.41,4,1.4,8.35-1.27,11.4-4.28,6.47-6.4,10.59-14.73,15-22.67s9.62-15.91,17.34-20.72,18.66-5.61,25.47.44"/><path class="cls-2" d="M104.53,278.3c6.4,25.9,22.64,48.75,43.16,65.8,23.37,19.39,51.2,32.75,81.27,36.12a97,97,0,0,0,32-1.5c32-7,60.74-27.09,78.8-54.38s25.34-61.38,20.65-93.76c-4.36-30.1-19.4-59.17-43.72-77.44-9.13-6.86-19.7-12.23-31-13.52s-23.54,1.92-31.52,10.09c-5.23,5.35-8.25,12.24-11.29,19.16A90.15,90.15,0,0,1,235.62,183c-9.69,14.58-27,22.23-44.14,25.92s-34.81,4.21-51.79,8.44c-8.09,2-16.24,5.07-22.79,10.1A35.7,35.7,0,0,0,111,233.1C100.93,245.27,100.73,263,104.53,278.3Z"/><path class="cls-3" d="M112.32,271.21c5.21,22.09,19.88,40.85,36.62,56.16,13.85,12.65,29.54,23.56,47.11,30.12s37.15,8.54,55.23,3.57c15.61-4.29,29.42-13.47,42.2-23.4,18.75-14.55,36.58-31.94,44.47-54.32,5.44-15.45,5.74-32.25,4.37-48.58-1.32-15.73-4.19-31.47-10.42-46s-16-27.78-29.16-36.47c-4.76-3.14-10-5.71-15.7-6.39-4.88-.6-9.81.22-14.59,1.35-5.62,1.35-11.27,3.2-15.81,6.77-5.32,4.18-8.74,10.42-13.84,14.83A90.15,90.15,0,0,1,235.62,183c-9.69,14.58-27,22.23-44.14,25.92s-34.81,4.21-51.79,8.44c-8.09,2-16.24,5.07-22.79,10.1C110.35,240.64,108.91,256.71,112.32,271.21Z"/><path class="cls-1" d="M305.39,133.81c4.55-4.94,7.67-11.48,7.39-18.2S308.36,102.19,302,100a14.41,14.41,0,0,0-18.94,16,25.66,25.66,0,0,0-16.48-18.11c-3.27-1.1-7.11-1.44-10,.47-3.71,2.46-4.4,7.89-2.75,12s5.05,7.27,8.35,10.27A33.06,33.06,0,0,0,233.74,112c-3.25.59-6.6,1.82-8.61,4.45a10.54,10.54,0,0,0-1,10,18.78,18.78,0,0,0,6.63,8c8.68,6.37,19.93,7.75,30.64,8.93C277.73,145.27,293.84,149.21,305.39,133.81Z"/><path class="cls-4" d="M333.41,150.9A28.84,28.84,0,0,1,334,170c-.69,2.12-1.77,4.32-3.79,5.25s-4.12.42-6-.42c-3.55-1.58-8.3-5.34-8.57-9.61-.22-3.57,2.4-5.41,4.78-7.84C322,155.76,331.33,145.59,333.41,150.9Z"/><path class="cls-5" d="M300.1,173.42a20.93,20.93,0,0,1-.15,4.16c-1.73,12.86-20.65,22.67-31.41,14.1-7.42-5.91-10.86-14.35-6.9-23.46,3.09-7.12,9.35-12.26,17.25-12.69C290.24,154.92,299.44,162.59,300.1,173.42Z"/><path class="cls-6" d="M282.68,164.77c3.6,1.1,6.7,4.32,8.69,8.85a10.58,10.58,0,0,1,.14,8.79c-3.92,8-17.49,6.8-22.35.3-3.64-4.85-1-11.84,3.29-15.35C276,164.48,279.52,163.81,282.68,164.77Z"/><path class="cls-1" d="M220.72,243.71c-13.43-.7-26.53-4.26-39.8-6.46-3.13-.52-6.36-1-9.45-.26s-6.05,2.81-6.9,5.87c-1.3,4.65,2.54,9.07,6.27,12.13a96.29,96.29,0,0,0,17.6,11.49c-3.75,1-7.74.14-11.62.3s-8.31,1.93-9.24,5.71c-.88,3.54,1.71,7,4.38,9.45a53.07,53.07,0,0,0,27.34,13.45A40.37,40.37,0,0,0,184,296.72a7.41,7.41,0,0,0-4.05,2.29c-2.37,3.15.72,7.46,3.78,9.94a84.91,84.91,0,0,0,39.07,17.72c5,.86,10.24,1.25,15.21.09,22.68-5.29,35.16-33.09,36.62-54.56.84-12.35-3.09-31.66-17.74-34.06-5.45-.9-10.28,2.37-15.38,3.7A68.57,68.57,0,0,1,220.72,243.71Z"/><path class="cls-7" d="M178.56,223.6a2.88,2.88,0,0,1-.21-5.75c.19,0,19.47-1.13,35.12-7.47a2.88,2.88,0,0,1,2.16,5.34c-16.56,6.7-36.14,7.83-37,7.88Z"/><path class="cls-1" d="M374.39,224.32c1.85,5.57,2.61,12.43-1.47,16.65-3.9,4-10.86,3.62-15.42.36s-7.13-8.62-8.81-14a64.56,64.56,0,0,1-2.77-14.57,45.88,45.88,0,0,1-3.09,28.55c-1.05,2.28-2.5,4.65-4.88,5.43s-5.25-.47-6.86-2.49a14.1,14.1,0,0,1-2.57-7.22c-1-8.22,1-16.58,4.41-24.14a87.49,87.49,0,0,1,9.92-17c4.4-5.77,7.24-3.62,12.34.59A61.5,61.5,0,0,1,374.39,224.32Z"/><path class="cls-8" d="M239,2.37C204.89,2.37,204.89,51,239,51S273.15,2.37,239,2.37Z"/><path class="cls-9" d="M259.75,31.27c-1.88,8.38-8.79,15.5-20.73,15.5-28.27,0-28.27-40.21,0-40.21h.63c-26.6.42-26.6,38.53.42,38.53C251.16,45.3,257.66,38.81,259.75,31.27Z"/><path class="cls-9" d="M239.23,11.8a.89.89,0,0,1,.84.83v1.26a14.35,14.35,0,0,1,6.49,2.3c.42.21.42.42.42.84a1,1,0,0,1-1,.84.77.77,0,0,1-.63-.21,10.83,10.83,0,0,0-5.44-2.09V25c5.65,1.05,7.95,2.93,7.95,6.28,0,3.56-3.35,6.07-7.95,6.28v2.52c-.21.41-.63.83-1.05.62a.67.67,0,0,1-.63-.62V37.34A14,14,0,0,1,229.81,34c-.21-.21-.42-.42-.42-.63a.9.9,0,0,1,.83-.83.77.77,0,0,1,.63.21A13.72,13.72,0,0,0,238,35.88V26.24c-5.44-1-7.75-2.93-7.75-6.28s3.35-6.07,7.75-6.07V12.63C238.39,12.21,238.81,11.8,239.23,11.8Zm-.84,13V15.57c-3.56,0-5.86,2.09-5.86,4.39C232.53,22.48,233.57,23.73,238.39,24.78Zm1.68,2.09V36.3c3.77,0,6.07-2.1,6.07-4.61s-1.26-4-6.07-4.82Z"/><path class="cls-8" d="M179.09,93c-34.14,0-34.14,48.58,0,48.58S213.22,93,179.09,93Z"/><path class="cls-9" d="M199.82,121.65c-1.89,8.38-8.8,15.5-20.73,15.5-28.27,0-28.27-40.21,0-40.21h.62c-26.59.42-26.59,38.53.42,38.53C191.23,135.68,197.72,129.4,199.82,121.65Z"/><path class="cls-9" d="M179.3,102.38a.9.9,0,0,1,.83.84v1.26a14.27,14.27,0,0,1,6.49,2.3c.42.21.42.42.42.84a1,1,0,0,1-1,.84.77.77,0,0,1-.63-.21,11,11,0,0,0-5.45-2.1v9.43c5.66,1,8,2.93,8,6.28,0,3.56-3.35,6.07-8,6.28v2.72a.89.89,0,0,1-.83.84.9.9,0,0,1-.84-.84v-2.72a14.11,14.11,0,0,1-8.38-3.35c-.21-.21-.42-.42-.42-.63a.9.9,0,0,1,.84-.84.77.77,0,0,1,.63.21,13.62,13.62,0,0,0,7.12,3.15V117c-5.45-1-7.75-2.93-7.75-6.28s3.35-6.07,7.75-6.07v-1.47C178.46,102.8,178.88,102.38,179.3,102.38Zm-.84,12.78v-9.22c-3.56,0-5.87,2.1-5.87,4.4S173.64,114.11,178.46,115.16Zm1.67,2.09v9.43c3.77,0,6.08-2.1,6.08-4.61C186.21,119.76,185,118.3,180.13,117.25Z"/><path class="cls-9" d="M29.47,81.65c-30.78,5.45-22.62,51.1,8.17,45.44S60.25,76,29.47,81.65Z"/><path class="cls-8" d="M32.4,81c-29.32,5.23-21.15,50.67,8.17,45.44S61.72,75.79,32.4,81Z"/><path class="cls-9" d="M55,104.9c-.21,8.16-4.82,15.91-15.29,17.8C15.44,127.09,8.74,89.19,33,85h.42c-22.83,4.61-16.34,40.42,6.91,36.23C50,119.35,54.6,112.44,55,104.9Z"/><path class="cls-9" d="M34.08,89.82c.41,0,.83.21.83.63h0l.21,1.25A10.38,10.38,0,0,1,41.2,93c.41.21.41.42.62.63,0,.42-.21.84-.62.84a.77.77,0,0,1-.63-.21,10.51,10.51,0,0,0-5-1.26l1.68,8.8c5,.21,7.33,1.67,8,4.6.63,3.35-1.88,6.29-5.65,7.12l.42,2.52c0,.41-.21.83-.63.83s-.84-.21-.84-.63h0l-.42-2.51a12.6,12.6,0,0,1-7.74-1.88.77.77,0,0,1-.42-1c.21-.21.42-.42.63-.42a.76.76,0,0,1,.62.21,10.71,10.71,0,0,0,6.7,1.68l-1.67-9c-5-.21-7.33-1.67-7.75-4.81-.63-3.15,1.89-6.08,5.66-6.91l-.21-1.26C33.45,90.45,33.87,90,34.08,89.82Zm1.46,12.36-1.46-8.8c-3.15.63-4.82,2.72-4.4,5s1.67,3.35,5.86,3.77Zm1.89,1.67,1.46,8.8c3.14-.63,4.82-2.94,4.4-5.24-.21-2.3-1.68-3.35-5.86-3.56Z"/><path class="cls-9" d="M181.54,223.29a7.65,7.65,0,0,1,1.48-.15h.12l1.77-.24c-11-8.74-10.55-30.48,7.08-34.35-.55.06-1.09.12-1.66.22C171.12,192.28,170.08,214.37,181.54,223.29Z"/><path class="cls-8" d="M184.91,222.9l5.45-.71c-12.73-5.16-13.84-27.71,3-30.77h.41c-17.09,3.49-14.42,28,.47,30.2,1.88-.29,3.76-.62,5.64-1,1.26-.27,2.51-.6,3.75-1a15.78,15.78,0,0,1,1.53-.44l.56-.17a14,14,0,0,0,6-10.92,15.65,15.65,0,0,1-4.11,10.37l1.83-.54c1.13-.41,2.25-.8,3.38-1.18,6.28-12.4-2.2-31.66-20-28.4-.27,0-.52.13-.78.19C174.36,192.42,173.86,214.16,184.91,222.9Zm11.32-25.38.21-1c.61-.61.81-.82,1.22-.82s.61.41.61.82l-.21,1a9.75,9.75,0,0,1,4.48,2.45c.21.2.41.4.21.61,0,.4-.41.61-.82.61a.69.69,0,0,1-.4-.21,8.13,8.13,0,0,0-3.87-2.23l-.82,7.53c3.87,1.22,5.5,3.05,5.09,5.7-.4,2.85-2.85,4.48-6.31,4.27l-.2,2c0,.41-.41.61-.82.61s-.61-.41-.61-.82l.21-2a10.08,10.08,0,0,1-5.7-3.26.73.73,0,0,1-.21-.61c0-.41.41-.61.82-.61a.74.74,0,0,1,.41.2,8.4,8.4,0,0,0,4.88,3.06l.82-7.53c-3.87-1.43-5.3-3.06-5.09-5.7C190.53,199,193,197.12,196.23,197.52Z"/><path class="cls-8" d="M192,201.39c-.21,2,.61,3.06,3.87,4.28l.81-7.33C194,198.14,192.16,199.36,192,201.39Z"/><path class="cls-8" d="M200.91,211.77c.21-1.83-.61-3.25-4.07-4.27l-.81,7.33C198.68,215,200.71,213.81,200.91,211.77Z"/><path class="cls-9" d="M207.59,218.48a15.65,15.65,0,0,0,4.11-10.37,14,14,0,0,1-6,10.92Z"/><path class="cls-9" d="M190.36,222.19l3.9-.57c-14.89-2.21-17.56-26.71-.47-30.2h-.41C176.52,194.48,177.63,217,190.36,222.19Z"/><path class="cls-9" d="M201.53,201a.7.7,0,0,0,.4.2c.41,0,.82-.2.82-.61.2-.21,0-.41-.21-.61a9.75,9.75,0,0,0-4.48-2.45l.21-1c0-.41-.21-.82-.61-.82s-.61.21-1.22.82l-.21,1c-3.25-.4-5.7,1.43-6.1,4.08-.21,2.64,1.22,4.27,5.09,5.7l-.82,7.53a8.4,8.4,0,0,1-4.88-3.06.74.74,0,0,0-.41-.2c-.41,0-.82.2-.82.61a.73.73,0,0,0,.21.61,10.08,10.08,0,0,0,5.7,3.26l-.21,2c0,.41.21.82.61.82s.82-.2.82-.61l.2-2c3.46.21,5.91-1.42,6.31-4.27.41-2.65-1.22-4.48-5.09-5.7l.82-7.53A8.06,8.06,0,0,1,201.53,201Zm-9.57.4c.2-2,2-3.25,4.68-3l-.81,7.33C192.57,204.45,191.75,203.43,192,201.39Zm4.88,6.11c3.46,1,4.28,2.44,4.07,4.27-.2,2-2.23,3.26-4.88,3.06Z"/></svg>