<svg xmlns="http://www.w3.org/2000/svg" width="32" height="32" viewBox="0 0 32 32">
  <path id="Icon_awesome-wpforms" data-name="Icon awesome-wpforms" d="M32,5.335v25.83a3.05,3.05,0,0,1-3.086,3.085H3.086A3.061,3.061,0,0,1,0,31.158V5.335A3.05,3.05,0,0,1,3.086,2.25H28.921A3.049,3.049,0,0,1,32,5.335ZM29.336,31.158V5.335a.424.424,0,0,0-.414-.414h-.664l-7.879,5.327L16,6.685l-4.371,3.563L3.75,4.914H3.086a.424.424,0,0,0-.414.414v25.83a.424.424,0,0,0,.414.414H28.921a.415.415,0,0,0,.414-.414ZM10.729,13.248V15.89H5.479V13.248Zm0,5.313v2.664H5.479V18.561Zm.793-10.519,3.857-3.121H6.914l4.607,3.121Zm15,5.206V15.89h-14V13.248Zm0,5.313v2.664h-14V18.561ZM20.479,8.042l4.607-3.121H16.629l3.85,3.121Zm6.043,15.846v2.664h-7.1V23.888h7.1Z" transform="translate(0 -2.25)" fill="#0065b3"/>
</svg>
