<svg xmlns="http://www.w3.org/2000/svg" width="32" height="24" viewBox="0 0 32 24">
  <path id="Icon_material-contact-mail" data-name="Icon material-contact-mail" d="M28,11.167V9.833L24,12.5,20,9.833v1.333l4,2.667ZM29.333,4.5H2.667A2.675,2.675,0,0,0,0,7.167V25.833A2.675,2.675,0,0,0,2.667,28.5H29.333a2.663,2.663,0,0,0,2.653-2.667L32,7.167A2.675,2.675,0,0,0,29.333,4.5Zm-18.667,4a4,4,0,1,1-4,4A3.995,3.995,0,0,1,10.667,8.5Zm8,16h-16V23.167c0-2.667,5.333-4.133,8-4.133s8,1.467,8,4.133Zm10.667-8H18.667v-8H29.333Z" transform="translate(0 -4.5)" fill="#0065b3"/>
</svg>
