<?xml version="1.0" encoding="utf-8"?>
<!-- Generator: Adobe Illustrator 23.0.5, SVG Export Plug-In . SVG Version: 6.00 Build 0)  -->
<svg version="1.1" id="Layer_1" xmlns="http://www.w3.org/2000/svg" xmlns:xlink="http://www.w3.org/1999/xlink" x="0px" y="0px"
	 viewBox="0 0 690 250" style="enable-background:new 0 0 690 250;" xml:space="preserve">
<style type="text/css">
	.st0{fill:#EBEBEB;}
	.st1{fill:#F0F0F0;}
	.st2{fill:#F5F5F5;}
	.st3{fill:#FAFAFA;}
	.st4{fill:#FFC113;}
	.st5{opacity:0.7;}
	.st6{fill:#FFFFFF;}
	.st7{opacity:0.25;}
	.st8{opacity:0.1;}
	.st9{opacity:0.2;}
	.st10{opacity:0.3;}
	.st11{fill:#377F41;}
	.st12{fill:#443021;}
	.st13{fill:#263238;}
	.st14{opacity:0.2;enable-background:new    ;}
	.st15{opacity:0.1;enable-background:new    ;}
	.st16{fill:#E2877B;}
	.st17{fill:#2E353A;}
	.st18{opacity:0.4;enable-background:new    ;}
	.st19{opacity:0.1;fill:#FFFFFF;enable-background:new    ;}
	.st20{opacity:0.8;fill:#FFFFFF;enable-background:new    ;}
	.st21{fill:#DC5753;}
	.st22{fill:#E4897B;}
	.st23{opacity:0.8;}
	.st24{fill:#E6E6E6;}
	.st25{fill:#ED272A;}
	.st26{fill:#1A66B1;}
	.st27{clip-path:url(#SVGID_2_);}
	.st28{clip-path:url(#SVGID_4_);}
	.st29{clip-path:url(#SVGID_6_);}
	.st30{clip-path:url(#SVGID_8_);}
	.st31{fill:#DBDBDB;}
	.st32{fill:#C7C7C7;}
	.st33{fill:#FFEC66;}
	.st34{fill:#F7A9A0;}
	.st35{fill:#37474F;}
	.st36{fill:#455A64;}
	.st37{fill:#FF9ABB;}
	.st38{fill:#E0E0E0;}
	.st39{opacity:0.15;}
	.st40{opacity:0.2;fill:#FFFFFF;enable-background:new    ;}
	.st41{opacity:0.4;fill:#FFFFFF;enable-background:new    ;}
	.st42{fill:none;}
	.st43{opacity:0.3;fill:#FFFFFF;enable-background:new    ;}
	.st44{opacity:0.5;}
	.st45{opacity:0.5;fill:#FFFFFF;enable-background:new    ;}
	.st46{fill-opacity:0;}
	.st47{fill:#FFA8A7;}
	.st48{opacity:0.3;enable-background:new    ;}
	.st49{opacity:0.35;}
	.st50{fill:#F28F8F;}
	.st51{fill:#407BFF;}
	.st52{fill:#1A66B0;}
	.st53{opacity:0.8;enable-background:new    ;}
	.st54{fill:#28EA52;}
	.st55{fill:none;stroke:#263238;stroke-width:2;stroke-linecap:round;stroke-miterlimit:10;}
	.st56{fill:#FFE340;}
	.st57{fill:#E0C027;}
	.st58{opacity:0.5;enable-background:new    ;}
	.st59{opacity:0.6;fill:#FFFFFF;enable-background:new    ;}
	.st60{opacity:0.7;enable-background:new    ;}
	.st61{opacity:0.7;fill:#FFFFFF;enable-background:new    ;}
	.st62{opacity:0.4;fill:#E6E6E6;enable-background:new    ;}
	.st63{fill:#7BC3FF;}
	.st64{fill:#5FB3ED;}
	.st65{fill:#0B5089;}
</style>
<g>
	<g id="freepik--background-complete--inject-8">
		<path class="st0" d="M508.5,131.7h46.1c0,0-4.5-5.1-10.5-5.1c-3.8,0-6.5,2.3-9.5,0.3c-1.5-1.1-5.8-6.3-13.9-5.3
			C512.7,122.5,508.5,131.7,508.5,131.7z"/>
		<path class="st0" d="M434.5,84.2h65.9c0,0-6.5-7.3-15.1-7.3c-5.4,0-9.4,3.3-13.5,0.4c-2.2-1.5-8.2-8.9-19.8-7.6
			C440.5,71.1,434.5,84.2,434.5,84.2z"/>
		<path class="st38" d="M622.2,86.2h29.1c0,0-2.9-3.2-6.6-3.2c-2.4,0-4.1,1.4-6,0.2c-1-0.7-3.6-3.9-8.7-3.3
			C624.8,80.5,622.2,86.2,622.2,86.2z"/>
		<path class="st24" d="M555,27.8h31c0,0-3.1-3.5-7.1-3.5c-2.5,0-4.4,1.5-6.4,0.2c-1-0.7-3.9-4.2-9.3-3.6
			C557.8,21.6,555,27.8,555,27.8z"/>
	</g>
	<g id="freepik--Plant--inject-8">
		<path class="st51" d="M616.6,64.9c0,0-4.1-1.7-6.9,7.9c-2.8,9.6-3.5,15-3.5,15s-0.8,2.1-2.3,1.1s-3.9-4-5.9-3
			c-2,1-2.3,3.7-1.2,7.2c1.1,3.6,3.3,11.4,3.5,12.2c0.2,0.7,0,1.8-1.1,1.3s-8-5.7-10.3-2.3c-2.3,3.4,2.5,12.8,3,13.9
			c0.5,1,0.4,1.5-0.1,1.9s-2.6-1.6-4.7-3c-2-1.4-4.6-2.7-5.8-0.6c-1.2,2.1-0.2,9.6,9.3,20.4l4.7,4.7l6.5-1.6
			c13.6-4.3,18.4-10.3,18.4-12.7c0.1-2.4-2.8-2.6-5.3-2.5c-2.5,0.2-5.3,0.7-5.5,0.2c-0.2-0.6,0-1.1,0.9-1.7s9.9-6.2,9.7-10.3
			c-0.2-4.1-8.8-3.2-10-3.4c-1.2-0.2-0.8-1.2-0.3-1.7c0.5-0.5,6.5-6.1,9.3-8.6s3.9-4.8,2.7-6.8c-1.2-2-4.8-0.5-6.6-0.5
			c-1.8,0-1.4-2.1-1.4-2.1s2.2-5,4.8-14.6s-1.9-10.3-1.9-10.3"/>
		<path class="st13" d="M614.1,73.5c0,0.1,0,0.1,0,0.2l-0.1,0.6c-0.1,0.5-0.3,1.3-0.6,2.3c-0.5,2-1.3,4.9-2.2,8.4
			c-1.9,7.1-4.7,16.9-7.7,27.7c-3.1,10.8-5.8,20.5-7.8,27.6l-2.3,8.4c-0.3,1-0.5,1.7-0.6,2.3c-0.1,0.2-0.1,0.4-0.2,0.6
			c0,0.1,0,0.1-0.1,0.2c0-0.1,0-0.1,0-0.2l0.1-0.6c0.1-0.5,0.3-1.3,0.6-2.3c0.5-2,1.3-4.9,2.2-8.4c1.9-7.1,4.7-16.9,7.7-27.7
			c3.1-10.8,5.8-20.5,7.8-27.6l2.3-8.4c0.3-1,0.5-1.7,0.6-2.3c0.1-0.2,0.1-0.4,0.2-0.6C614.1,73.6,614.1,73.6,614.1,73.5z"/>
		<path class="st13" d="M601.2,90.3c0.4,0.5,0.7,1,0.9,1.6c0.5,1,1.2,2.4,1.8,3.9l1.7,3.9c0.3,0.5,0.5,1.1,0.7,1.7
			c-0.4-0.5-0.6-1-0.9-1.6c-0.5-1-1.1-2.4-1.8-3.9l-1.7-3.9C601.6,91.5,601.4,90.9,601.2,90.3z"/>
		<path class="st13" d="M607,101.4c0-0.1,2.7-1.6,6.2-3.3c3.5-1.8,6.3-3.1,6.3-3.1s-2.7,1.6-6.2,3.3S607,101.5,607,101.4z"/>
		<path class="st13" d="M601.5,117.7c0.6-0.2,1.2-0.3,1.8-0.4c1.1-0.2,2.6-0.5,4.3-0.9c1.7-0.4,3.2-0.8,4.3-1.1
			c0.6-0.2,1.2-0.3,1.8-0.4c-0.5,0.3-1.1,0.5-1.7,0.6c-1.1,0.3-2.6,0.8-4.2,1.2c-1.7,0.4-3.2,0.7-4.3,0.8
			C602.7,117.6,602.1,117.7,601.5,117.7z"/>
		<path class="st13" d="M594.1,108.9c0.4,0.4,0.8,0.8,1.2,1.2c0.7,0.8,1.7,1.8,2.7,3c1,1.2,2,2.3,2.6,3.1c0.4,0.4,0.7,0.9,1,1.3
			c-0.4-0.4-0.8-0.8-1.2-1.2c-0.7-0.8-1.7-1.8-2.7-3.1c-1-1.2-2-2.3-2.6-3.1C594.7,109.8,594.4,109.4,594.1,108.9z"/>
		<path class="st13" d="M587.4,122.7c0.5,0.5,1,1,1.5,1.5c0.9,1,2.1,2.4,3.5,3.9c1.3,1.5,2.6,2.9,3.4,3.9c0.5,0.5,0.9,1.1,1.3,1.7
			c-0.5-0.5-1.1-1-1.5-1.5c-0.9-1-2.1-2.4-3.5-3.9c-1.3-1.5-2.6-2.9-3.4-3.9C588.3,123.9,587.8,123.3,587.4,122.7z"/>
		<path class="st13" d="M597,133.4c0.7-0.2,1.5-0.4,2.2-0.6c1.4-0.3,3.3-0.8,5.4-1.3c2.1-0.6,4-1.1,5.4-1.5l1.6-0.5
			c0.2-0.1,0.4-0.1,0.6-0.1c-0.2,0.1-0.4,0.2-0.6,0.3c-0.4,0.1-0.9,0.3-1.6,0.6c-1.4,0.5-3.2,1-5.4,1.6c-2.1,0.6-4,1-5.5,1.2
			c-0.7,0.1-1.3,0.2-1.7,0.3C597.4,133.4,597.2,133.4,597,133.4z"/>
	</g>
	<g id="freepik--Building--inject-8">
		<path class="st13" d="M457.6,200.5c1-0.2,2.1-0.2,3.1,0C459.6,200.7,458.6,200.7,457.6,200.5z"/>
		<path class="st13" d="M451.4,200.5c0.5-0.2,1-0.2,1.5-0.2c0.5-0.1,1,0,1.5,0.2C453.5,200.7,452.4,200.7,451.4,200.5z"/>
		<path class="st13" d="M445.3,200.5c0.5-0.2,1-0.2,1.5-0.2c0.5-0.1,1,0,1.5,0.2c-0.5,0.2-1,0.2-1.5,0.2
			C446.3,200.7,445.8,200.7,445.3,200.5z"/>
		<path class="st13" d="M460.6,144.4c-0.2-1-0.2-2.1,0-3.1C460.9,142.4,460.9,143.4,460.6,144.4z"/>
		<path class="st13" d="M460.6,150.6c-0.2-1-0.2-2.1,0-3.1C460.9,148.5,460.9,149.6,460.6,150.6z"/>
		<path class="st13" d="M460.6,156.7c-0.2-1-0.2-2.1,0-3.1C460.9,154.7,460.9,155.7,460.6,156.7z"/>
		<path class="st13" d="M460.6,162.9c-0.2-1-0.2-2.1,0-3.1C460.9,160.8,460.9,161.8,460.6,162.9z"/>
		<path class="st13" d="M460.6,169c-0.2-1-0.2-2.1,0-3.1C460.9,166.9,460.9,168,460.6,169z"/>
		<path class="st13" d="M460.6,175.2c-0.2-1-0.2-2.1,0-3.1C460.9,173.1,460.9,174.1,460.6,175.2z"/>
		<path class="st13" d="M460.6,181.3c-0.2-1-0.2-2.1,0-3.1C460.9,179.2,460.9,180.3,460.6,181.3z"/>
		<path class="st13" d="M460.6,187.4c-0.2-1-0.2-2.1,0-3.1C460.9,185.4,460.9,186.4,460.6,187.4z"/>
		<path class="st13" d="M460.6,193.6c-0.2-1-0.2-2.1,0-3.1C460.9,191.5,460.9,192.6,460.6,193.6z"/>
		<path class="st13" d="M460.6,199.7c-0.2-1-0.2-2.1,0-3.1C460.9,197.7,460.9,198.7,460.6,199.7z"/>
		<path class="st13" d="M575.6,63.4c-0.2-1-0.2-2.1,0-3.1C575.8,61.4,575.8,62.4,575.6,63.4z"/>
		<path class="st13" d="M575.6,69.6c-0.2-1-0.2-2.1,0-3.1C575.8,67.5,575.8,68.6,575.6,69.6z"/>
		<path class="st13" d="M575.6,75.7c-0.2-1-0.2-2.1,0-3.1C575.8,73.6,575.8,74.7,575.6,75.7z"/>
		<path class="st13" d="M575.6,81.9c-0.2-1-0.2-2.1,0-3.1C575.8,79.8,575.8,80.8,575.6,81.9z"/>
		<path class="st13" d="M575.6,88c-0.2-1-0.2-2.1,0-3.1C575.8,85.9,575.8,87,575.6,88z"/>
		<path class="st13" d="M575.6,94.1c-0.2-1-0.2-2.1,0-3.1C575.8,92.1,575.8,93.1,575.6,94.1z"/>
		<path class="st13" d="M575.6,100.3c-0.2-1-0.2-2.1,0-3.1C575.8,98.2,575.8,99.3,575.6,100.3z"/>
		<path class="st13" d="M575.6,106.4c-0.2-1-0.2-2.1,0-3.1C575.8,104.4,575.8,105.4,575.6,106.4z"/>
		<path class="st13" d="M575.6,112.6c-0.2-1-0.2-2.1,0-3.1C575.8,110.5,575.8,111.6,575.6,112.6z"/>
		<path class="st13" d="M575.6,118.7c-0.2-1-0.2-2.1,0-3.1C575.8,116.7,575.8,117.7,575.6,118.7z"/>
		<path class="st13" d="M575.6,124.9c-0.2-1-0.2-2.1,0-3.1C575.8,122.8,575.8,123.9,575.6,124.9z"/>
		<path class="st13" d="M575.6,131c-0.2-1-0.2-2.1,0-3.1C575.8,129,575.8,130,575.6,131z"/>
		<path class="st13" d="M575.6,137.2c-0.2-1-0.2-2.1,0-3.1C575.8,135.1,575.8,136.2,575.6,137.2z"/>
		<path class="st13" d="M575.6,143.3c-0.2-1-0.2-2.1,0-3.1C575.8,141.3,575.8,142.3,575.6,143.3z"/>
		<path class="st13" d="M575.6,149.5c-0.2-1-0.2-2.1,0-3.1C575.8,147.4,575.8,148.4,575.6,149.5z"/>
		<path class="st13" d="M575.6,155.6c-0.2-1-0.2-2.1,0-3.1C575.8,153.5,575.8,154.6,575.6,155.6z"/>
		<path class="st13" d="M575.6,161.8c-0.2-1-0.2-2.1,0-3.1C575.8,159.7,575.8,160.7,575.6,161.8z"/>
		<path class="st13" d="M575.6,167.9c-0.2-1-0.2-2.1,0-3.1C575.8,165.8,575.8,166.9,575.6,167.9z"/>
		<path class="st13" d="M575.6,174c-0.2-1-0.2-2.1,0-3.1C575.8,172,575.8,173,575.6,174z"/>
		<path class="st13" d="M575.6,180.2c-0.2-1-0.2-2.1,0-3.1C575.8,178.1,575.8,179.2,575.6,180.2z"/>
		<path class="st13" d="M575.6,186.3c-0.2-1-0.2-2.1,0-3.1C575.8,184.3,575.8,185.3,575.6,186.3z"/>
		<path class="st13" d="M575.6,192.5c-0.2-1-0.2-2.1,0-3.1C575.8,190.4,575.8,191.5,575.6,192.5z"/>
		<path class="st13" d="M575.6,198.6c-0.2-1-0.2-2.1,0-3.1C575.8,196.6,575.8,197.6,575.6,198.6z"/>
		<path class="st13" d="M570.5,199.7c1-0.2,2.1-0.2,3.1,0C572.6,199.9,571.5,199.9,570.5,199.7z"/>
		<path class="st13" d="M564.4,199.7c1-0.2,2.1-0.2,3.1,0C566.4,199.9,565.4,199.9,564.4,199.7z"/>
		<path class="st13" d="M561.9,196c0.2,1,0.2,2.1,0,3.1C561.7,198.1,561.7,197,561.9,196z"/>
		<path class="st13" d="M561.9,189.9c0.2,1,0.2,2.1,0,3.1C561.7,191.9,561.7,190.9,561.9,189.9z"/>
		<path class="st13" d="M561.9,183.7c0.2,1,0.2,2.1,0,3.1C561.7,185.8,561.7,184.7,561.9,183.7z"/>
		<path class="st13" d="M561.9,177.6c0.2,1,0.2,2.1,0,3.1C561.7,179.6,561.7,178.6,561.9,177.6z"/>
		<path class="st13" d="M561.9,171.4c0.2,1,0.2,2.1,0,3.1C561.7,173.5,561.7,172.4,561.9,171.4z"/>
		<path class="st13" d="M561.9,165.3c0.2,1,0.2,2.1,0,3.1C561.7,167.3,561.7,166.3,561.9,165.3z"/>
		<path class="st13" d="M561.9,159.1c0.2,1,0.2,2.1,0,3.1C561.7,161.2,561.7,160.1,561.9,159.1z"/>
		<path class="st13" d="M561.9,153c0.2,1,0.2,2.1,0,3.1C561.7,155,561.7,154,561.9,153z"/>
		<path class="st13" d="M561.9,146.8c0.2,1,0.2,2.1,0,3.1C561.7,148.9,561.7,147.9,561.9,146.8z"/>
		<path class="st13" d="M561.9,140.7c0.2,1,0.2,2.1,0,3.1C561.7,142.8,561.7,141.7,561.9,140.7z"/>
		<path class="st13" d="M561.9,134.5c0.2,1,0.2,2.1,0,3.1C561.7,136.6,561.7,135.6,561.9,134.5z"/>
		<path class="st13" d="M561.9,128.4c0.2,1,0.2,2.1,0,3.1C561.7,130.5,561.7,129.4,561.9,128.4z"/>
		<path class="st13" d="M561.9,122.3c0.2,1,0.2,2.1,0,3.1C561.7,124.3,561.7,123.3,561.9,122.3z"/>
		<path class="st13" d="M561.9,116.1c0.2,1,0.2,2.1,0,3.1C561.7,118.2,561.7,117.1,561.9,116.1z"/>
		<path class="st13" d="M561.9,110c0.2,1,0.2,2.1,0,3.1C561.7,112,561.7,111,561.9,110z"/>
		<path class="st13" d="M561.9,103.8c0.2,1,0.2,2.1,0,3.1C561.7,105.9,561.7,104.8,561.9,103.8z"/>
		<path class="st13" d="M561.9,97.7c0.2,1,0.2,2.1,0,3.1C561.7,99.7,561.7,98.7,561.9,97.7z"/>
		<path class="st13" d="M561.9,91.5c0.2,1,0.2,2.1,0,3.1C561.7,93.6,561.7,92.5,561.9,91.5z"/>
		<path class="st13" d="M561.9,85.4c0.2,1,0.2,2.1,0,3.1C561.7,87.4,561.7,86.4,561.9,85.4z"/>
		<path class="st13" d="M561.9,79.2c0.2,1,0.2,2.1,0,3.1C561.7,81.3,561.7,80.2,561.9,79.2z"/>
		<path class="st13" d="M561.9,73.1c0.2,1,0.2,2.1,0,3.1C561.7,75.1,561.7,74.1,561.9,73.1z"/>
		<path class="st13" d="M561.9,66.9c0.2,1,0.2,2.1,0,3.1C561.7,69,561.7,68,561.9,66.9z"/>
		<path class="st13" d="M561.9,60.8c0.2,1,0.2,2.1,0,3.1C561.7,62.9,561.7,61.8,561.9,60.8z"/>
		<path class="st13" d="M561.9,54.6c0.2,1,0.2,2.1,0,3.1C561.7,56.7,561.7,55.7,561.9,54.6z"/>
		<path class="st13" d="M561.9,48.5c0.2,1,0.2,2.1,0,3.1C561.7,50.6,561.7,49.5,561.9,48.5z"/>
		<path class="st13" d="M561.9,48.8c-0.2-1-0.2-2.1,0-3.1C562.1,46.8,562.1,47.8,561.9,48.8z"/>
		<path class="st13" d="M561.9,54.9c-0.2-1-0.2-2.1,0-3.1C562.1,52.9,562.1,53.9,561.9,54.9z"/>
		<path class="st13" d="M561.9,61c-0.2-1-0.2-2.1,0-3.1C562.1,59,562.1,60,561.9,61z"/>
		<path class="st13" d="M561.9,67.1c-0.2-1-0.2-2.1,0-3.1C562.1,65.1,562.1,66.1,561.9,67.1z"/>
		<path class="st13" d="M561.9,73.2c-0.2-1-0.2-2.1,0-3.1C562.1,71.2,562.1,72.2,561.9,73.2z"/>
		<path class="st13" d="M561.9,79.3c-0.2-1-0.2-2.1,0-3.1C562.1,77.3,562.1,78.3,561.9,79.3z"/>
		<path class="st13" d="M561.9,85.4c-0.2-1-0.2-2.1,0-3.1C562.1,83.4,562.1,84.4,561.9,85.4z"/>
		<path class="st13" d="M561.9,91.5c-0.2-1-0.2-2.1,0-3.1C562.1,89.5,562.1,90.5,561.9,91.5z"/>
		<path class="st13" d="M561.9,97.6c-0.2-1-0.2-2,0-3C562.1,95.6,562.1,96.6,561.9,97.6z"/>
		<path class="st13" d="M561.9,103.7c-0.2-1-0.2-2.1,0-3.1C562.1,101.6,562.1,102.7,561.9,103.7z"/>
		<path class="st13" d="M561.9,109.8c-0.2-1-0.2-2.1,0-3.1C562.1,107.7,562.1,108.8,561.9,109.8z"/>
		<path class="st13" d="M561.9,115.9c-0.2-1-0.2-2.1,0-3.1C562.1,113.8,562.1,114.9,561.9,115.9z"/>
		<path class="st13" d="M561.9,122c-0.2-1-0.2-2.1,0-3.1C562.1,119.9,562.1,121,561.9,122z"/>
		<path class="st13" d="M561.9,128.1c-0.2-1-0.2-2.1,0-3.1C562.1,126,562.1,127.1,561.9,128.1z"/>
		<path class="st13" d="M561.9,134.2c-0.2-1-0.2-2.1,0-3.1C562.1,132.1,562.1,133.2,561.9,134.2z"/>
		<path class="st13" d="M561.9,140.3c-0.2-1-0.2-2.1,0-3.1C562.1,138.2,562.1,139.3,561.9,140.3z"/>
		<path class="st13" d="M561.9,146.4c-0.2-1-0.2-2.1,0-3.1C562.1,144.3,562.1,145.4,561.9,146.4z"/>
		<path class="st13" d="M561.9,152.5c-0.2-1-0.2-2,0-3C562.1,150.4,562.1,151.5,561.9,152.5z"/>
		<path class="st13" d="M561.9,158.6c-0.2-1-0.2-2.1,0-3.1C562.1,156.5,562.1,157.5,561.9,158.6z"/>
		<path class="st13" d="M561.9,164.7c-0.2-1-0.2-2.1,0-3.1C562.1,162.6,562.1,163.6,561.9,164.7z"/>
		<path class="st13" d="M561.9,170.8c-0.2-1-0.2-2.1,0-3.1C562.1,168.7,562.1,169.7,561.9,170.8z"/>
		<path class="st13" d="M561.9,176.8c-0.2-1-0.2-2.1,0-3.1C562.1,174.8,562.1,175.8,561.9,176.8z"/>
		<path class="st13" d="M561.9,182.9c-0.2-1-0.2-2.1,0-3.1C562.1,180.9,562.1,181.9,561.9,182.9z"/>
		<path class="st13" d="M561.9,189c-0.2-1-0.2-2.1,0-3.1C562.1,187,562.1,188,561.9,189z"/>
		<path class="st13" d="M561.9,195.1c-0.2-1-0.2-2.1,0-3.1C562.1,193.1,562.1,194.1,561.9,195.1z"/>
		<path class="st13" d="M560.4,199.7c0.5-0.1,1-0.2,1.5-0.1l-0.2,0.2l0,0v-0.6c0-0.2,0-0.4,0-0.5c0-0.3,0.1-0.4,0.1-0.4
			s0.1,0.2,0.1,0.4c0,0.1,0,0.3,0,0.5s0,0.2,0,0.3v0.3l0,0l-0.2,0.2C561.4,199.9,560.9,199.9,560.4,199.7z"/>
		<path class="st13" d="M554.3,199.7c1-0.2,2.1-0.2,3.1,0C556.3,199.9,555.3,199.9,554.3,199.7z"/>
		<path class="st13" d="M548.2,199.7c1-0.2,2.1-0.2,3.1,0C550.2,199.9,549.2,199.9,548.2,199.7z"/>
		<path class="st13" d="M542,199.7c1-0.2,2.1-0.2,3.1,0C544.1,199.9,543,199.9,542,199.7z"/>
		<rect x="550.6" y="45.3" class="st51" width="4.5" height="9.6"/>
		<rect x="550.6" y="63.9" class="st51" width="4.5" height="9.6"/>
		<rect x="550.6" y="82.5" class="st51" width="4.5" height="9.6"/>
		<rect x="550.6" y="101.1" class="st51" width="4.5" height="9.6"/>
		<rect x="550.6" y="119.7" class="st51" width="4.5" height="9.6"/>
		<rect x="550.6" y="138.3" class="st51" width="4.5" height="9.6"/>
		<rect x="550.6" y="156.9" class="st51" width="4.5" height="9.6"/>
		<rect x="550.6" y="175.4" class="st51" width="4.5" height="9.6"/>
		<rect x="566.9" y="75" class="st13" width="4.5" height="9.6"/>
		<rect x="566.9" y="95.6" class="st13" width="4.5" height="9.6"/>
		<rect x="566.9" y="116.2" class="st13" width="4.5" height="9.6"/>
		<rect x="566.9" y="136.8" class="st13" width="4.5" height="9.6"/>
		<rect x="566.9" y="157.4" class="st13" width="4.5" height="9.6"/>
		<rect x="566.9" y="177.9" class="st13" width="4.5" height="9.6"/>
		<rect x="470.8" y="145.5" class="st13" width="4.5" height="9.6"/>
		<rect x="482.9" y="145.5" class="st13" width="4.5" height="9.6"/>
		<rect x="470.8" y="163.7" class="st13" width="4.5" height="9.6"/>
		<rect x="482.9" y="163.7" class="st13" width="4.5" height="9.6"/>
		<rect x="470.8" y="181.9" class="st13" width="4.5" height="9.6"/>
		<rect x="482.9" y="181.9" class="st13" width="4.5" height="9.6"/>
		<rect x="445.4" y="142.6" class="st52" width="44.2" height="58.3"/>
		<rect x="468.9" y="142.6" class="st51" width="20.7" height="58.3"/>
		<rect x="468.9" y="142.6" class="st48" width="20.7" height="58.3"/>
		<rect x="454.7" y="150.5" class="st51" width="4" height="9.7"/>
		<rect x="454.7" y="188.3" class="st51" width="4" height="9.7"/>
		<path class="st51" d="M468.9,163.9c0,0.1-5.3,0.2-11.7,0.2s-11.7-0.1-11.7-0.2c0-0.1,5.3-0.2,11.7-0.2S468.9,163.8,468.9,163.9z"
			/>
		<rect x="454.7" y="169.5" class="st51" width="4" height="9.7"/>
		<path class="st51" d="M468.9,183c0,0.1-5.3,0.2-11.7,0.2s-11.7-0.1-11.7-0.2c0-0.1,5.3-0.2,11.7-0.2S468.9,182.9,468.9,183z"/>
		<g class="st10">
			<rect x="454.7" y="150.5" class="st6" width="4" height="9.7"/>
			<rect x="454.7" y="188.3" class="st6" width="4" height="9.7"/>
			<path d="M468.9,163.9c0,0.1-5.3,0.2-11.7,0.2s-11.7-0.1-11.7-0.2c0-0.1,5.3-0.2,11.7-0.2S468.9,163.8,468.9,163.9z"/>
			<rect x="454.7" y="169.5" class="st6" width="4" height="9.7"/>
			<path d="M468.9,183c0,0.1-5.3,0.2-11.7,0.2s-11.7-0.1-11.7-0.2c0-0.1,5.3-0.2,11.7-0.2S468.9,182.9,468.9,183z"/>
		</g>
		<rect x="473.3" y="150.5" class="st51" width="4" height="9.7"/>
		<rect x="481.9" y="150.5" class="st51" width="4" height="9.7"/>
		<rect x="473.3" y="168.8" class="st51" width="4" height="9.7"/>
		<rect x="481.9" y="168.8" class="st51" width="4" height="9.7"/>
		<rect x="473.3" y="187.1" class="st51" width="4" height="9.7"/>
		<rect x="481.9" y="187.1" class="st51" width="4" height="9.7"/>
		<g class="st5">
			<rect x="473.3" y="150.5" width="4" height="9.7"/>
			<rect x="481.9" y="150.5" width="4" height="9.7"/>
			<rect x="473.3" y="168.8" width="4" height="9.7"/>
			<rect x="481.9" y="168.8" width="4" height="9.7"/>
			<rect x="473.3" y="187.1" width="4" height="9.7"/>
			<rect x="481.9" y="187.1" width="4" height="9.7"/>
		</g>
		<rect x="442.1" y="140.6" class="st51" width="50.9" height="2.1"/>
		<rect x="442.1" y="140.6" class="st48" width="50.9" height="2.1"/>
		<path class="st51" d="M489.9,142.9c0,0.1-9.9,0.2-22.1,0.2c-12.2,0-22.1-0.1-22.1-0.2c0-0.1,9.9-0.2,22.1-0.2
			C480,142.7,489.9,142.8,489.9,142.9z"/>
		<path d="M489.9,142.9c0,0.1-9.9,0.2-22.1,0.2c-12.2,0-22.1-0.1-22.1-0.2c0-0.1,9.9-0.2,22.1-0.2
			C480,142.7,489.9,142.8,489.9,142.9z"/>
		<rect x="547" y="116.1" class="st51" width="13.1" height="84.4"/>
		<rect x="547" y="116.1" class="st53" width="13.1" height="84.4"/>
		<rect x="551.6" y="127.3" class="st13" width="4.5" height="9.6"/>
		<rect x="551.6" y="145.5" class="st13" width="4.5" height="9.6"/>
		<rect x="551.6" y="163.6" class="st13" width="4.5" height="9.6"/>
		<rect x="551.6" y="181.8" class="st13" width="4.5" height="9.6"/>
		<rect x="541.2" y="60.1" class="st36" width="53.6" height="140.2"/>
		<rect x="568.6" y="60.7" class="st13" width="26.8" height="140.2"/>
		<rect x="547.3" y="43.4" class="st36" width="18.9" height="16.7"/>
		<rect x="561.7" y="43.4" class="st13" width="4.5" height="16.7"/>
		<rect x="578.8" y="67.4" class="st36" width="4.5" height="9.6"/>
		<path class="st36" d="M595,80.7c0,0.1-6,0.2-13.4,0.2s-13.4-0.1-13.4-0.2c0-0.1,6-0.2,13.4-0.2S595,80.6,595,80.7z"/>
		<rect x="578.8" y="86.3" class="st36" width="4.5" height="9.6"/>
		<path class="st36" d="M595,99.7c0,0.1-6,0.2-13.4,0.2s-13.4-0.1-13.4-0.2s6-0.2,13.4-0.2S595,99.6,595,99.7z"/>
		<rect x="578.8" y="105.9" class="st36" width="4.5" height="9.6"/>
		<path class="st36" d="M595,119.2c0,0.1-6,0.2-13.4,0.2s-13.4-0.1-13.4-0.2s6-0.1,13.4-0.1S595,119.1,595,119.2z"/>
		<rect x="578.8" y="125.4" class="st36" width="4.5" height="9.6"/>
		<path class="st36" d="M595,138.7c0,0.1-6,0.2-13.4,0.2s-13.4-0.1-13.4-0.2c0-0.1,6-0.2,13.4-0.2S595,138.7,595,138.7z"/>
		<rect x="578.8" y="144.4" class="st36" width="4.5" height="9.6"/>
		<path class="st36" d="M595,157.8c0,0.1-6,0.2-13.4,0.2s-13.4-0.1-13.4-0.2s6-0.2,13.4-0.2S595,157.7,595,157.8z"/>
		<rect x="578.8" y="163.5" class="st36" width="4.5" height="9.6"/>
		<rect x="578.8" y="182.8" class="st36" width="4.5" height="9.6"/>
		<path class="st36" d="M595,176.8c0,0.1-6,0.2-13.4,0.2s-13.4-0.1-13.4-0.2c0-0.1,6-0.2,13.4-0.2S595,176.7,595,176.8z"/>
		<rect x="536.7" y="59.1" class="st13" width="59.6" height="1"/>
		<rect x="551.8" y="67.4" class="st24" width="4.5" height="9.6"/>
		<path class="st24" d="M568,80.7c0,0.1-6,0.2-13.4,0.2s-13.4-0.1-13.4-0.2c0-0.1,6-0.2,13.4-0.2C562,80.5,568,80.6,568,80.7z"/>
		<rect x="551.8" y="86.6" class="st24" width="4.5" height="9.6"/>
		<path class="st24" d="M568,99.9c0,0.1-6,0.2-13.4,0.2s-13.4-0.1-13.4-0.2s6-0.2,13.4-0.2C562,99.8,568,99.9,568,99.9z"/>
		<rect x="551.8" y="105.9" class="st24" width="4.5" height="9.6"/>
		<path class="st24" d="M568,119.2c0,0.1-6,0.2-13.4,0.2s-13.4-0.1-13.4-0.2s6-0.1,13.4-0.1S568,119.1,568,119.2z"/>
		<rect x="551.8" y="125.2" class="st24" width="4.5" height="9.6"/>
		<path class="st24" d="M568,138.5c0,0.1-6,0.2-13.4,0.2s-13.4-0.1-13.4-0.2s6-0.2,13.4-0.2C562,138.3,568,138.4,568,138.5z"/>
		<rect x="551.8" y="144.4" class="st24" width="4.5" height="9.6"/>
		<path class="st24" d="M568,157.8c0,0.1-6,0.2-13.4,0.2s-13.4-0.1-13.4-0.2s6-0.2,13.4-0.2C562,157.6,568,157.7,568,157.8z"/>
		<rect x="551.8" y="163.7" class="st24" width="4.5" height="9.6"/>
		<path class="st24" d="M568,177c0,0.1-6,0.2-13.4,0.2s-13.4-0.1-13.4-0.2c0-0.1,6-0.2,13.4-0.2S568,176.9,568,177z"/>
		<rect x="551.8" y="183" class="st24" width="4.5" height="9.6"/>
		<rect x="588" y="143" class="st13" width="43.8" height="57.7"/>
		<rect x="611.2" y="143" class="st36" width="20.5" height="57.7"/>
		<rect x="597.1" y="150.9" class="st36" width="3.9" height="9.6"/>
		<rect x="597.1" y="188.3" class="st36" width="3.9" height="9.6"/>
		<path class="st36" d="M611.2,164.2c0,0.1-5.2,0.2-11.6,0.2s-11.6-0.1-11.6-0.2s5.2-0.2,11.6-0.2S611.2,164.1,611.2,164.2z"/>
		<rect x="597.1" y="169.7" class="st36" width="3.9" height="9.6"/>
		<path class="st36" d="M611.2,183c0,0.1-5.2,0.2-11.6,0.2S588,183.1,588,183s5.2-0.2,11.6-0.2S611.2,182.9,611.2,183z"/>
		<rect x="615.6" y="150.9" class="st13" width="3.9" height="9.6"/>
		<rect x="624.1" y="150.9" class="st13" width="3.9" height="9.6"/>
		<rect x="615.6" y="169" class="st13" width="3.9" height="9.6"/>
		<rect x="624.1" y="169" class="st13" width="3.9" height="9.6"/>
		<rect x="615.6" y="187.1" class="st13" width="3.9" height="9.6"/>
		<rect x="624.1" y="187.1" class="st13" width="3.9" height="9.6"/>
		<rect x="584.7" y="141" class="st13" width="50.3" height="2.1"/>
		<path class="st38" d="M632,143.3c0,0.1-9.8,0.2-21.8,0.2c-12.1,0-21.8-0.1-21.8-0.2s9.8-0.2,21.8-0.2
			C622.3,143.1,632,143.2,632,143.3z"/>
		<g>
			<g>
				<path class="st52" d="M449.1,215l-0.9,0.9v1.7h-1.5v-6.7h1.5v3.1l3-3.1h1.7l-2.8,3l2.9,3.7h-1.8L449.1,215z"/>
				<path class="st52" d="M453.1,215c0-1.6,1.2-2.7,2.8-2.7s2.8,1.1,2.8,2.7c0,1.5-1.2,2.7-2.8,2.7S453.1,216.6,453.1,215z
					 M457.2,215c0-0.9-0.6-1.4-1.3-1.4s-1.3,0.5-1.3,1.4c0,0.9,0.6,1.4,1.3,1.4S457.2,215.9,457.2,215z"/>
				<path class="st52" d="M465.3,215c0,1.6-1.1,2.7-2.6,2.7c-0.6,0-1.2-0.2-1.6-0.6v2.4h-1.5v-7h1.4v0.6c0.4-0.4,0.9-0.7,1.6-0.7
					C464.2,212.4,465.3,213.4,465.3,215z M463.8,215c0-0.9-0.6-1.4-1.3-1.4s-1.3,0.5-1.3,1.4c0,0.9,0.6,1.4,1.3,1.4
					S463.8,215.9,463.8,215z"/>
				<path class="st52" d="M471.3,215.5h-3.9c0.1,0.6,0.7,1,1.5,1c0.5,0,0.9-0.2,1.3-0.5l0.8,0.9c-0.5,0.5-1.2,0.8-2.1,0.8
					c-1.8,0-2.9-1.1-2.9-2.7c0-1.5,1.2-2.7,2.7-2.7c1.5,0,2.7,1,2.7,2.7C471.4,215.2,471.3,215.3,471.3,215.5z M467.4,214.6h2.5
					c-0.1-0.7-0.6-1.1-1.3-1.1C468,213.5,467.5,213.9,467.4,214.6z"/>
				<path class="st52" d="M475.6,212.4v1.4c-0.1,0-0.2,0-0.3,0c-0.8,0-1.4,0.4-1.4,1.4v2.4h-1.5v-5.1h1.4v0.7
					C474.1,212.6,474.8,212.4,475.6,212.4z"/>
				<path class="st52" d="M481,214.7v2.9h-1.4V217c-0.3,0.5-0.8,0.7-1.6,0.7c-1.2,0-1.9-0.7-1.9-1.6c0-0.9,0.6-1.5,2.2-1.5h1.2
					c0-0.6-0.4-1-1.2-1c-0.5,0-1.1,0.2-1.5,0.5l-0.5-1c0.6-0.4,1.4-0.6,2.2-0.6C480.1,212.4,481,213.1,481,214.7z M479.5,216v-0.5
					h-1c-0.7,0-0.9,0.3-0.9,0.6c0,0.4,0.3,0.6,0.8,0.6C478.9,216.7,479.3,216.5,479.5,216z"/>
				<path class="st52" d="M481.8,217.1l0.5-1.1c0.5,0.3,1.2,0.5,1.8,0.5c0.7,0,0.9-0.2,0.9-0.5c0-0.8-3.1,0-3.1-2
					c0-1,0.9-1.7,2.4-1.7c0.7,0,1.5,0.2,2,0.4l-0.5,1.1c-0.5-0.3-1-0.4-1.5-0.4c-0.7,0-1,0.2-1,0.5c0,0.9,3.1,0,3.1,2.1
					c0,1-0.9,1.6-2.4,1.6C483.2,217.7,482.3,217.5,481.8,217.1z"/>
				<path class="st52" d="M487.2,210.9c0-0.5,0.4-0.8,0.9-0.8c0.6,0,0.9,0.3,0.9,0.8c0,0.5-0.4,0.9-0.9,0.9
					C487.6,211.7,487.2,211.4,487.2,210.9z M487.4,212.5h1.5v5.1h-1.5V212.5z"/>
				<path class="st52" d="M446.2,226.5l0.5-1.2c0.6,0.4,1.4,0.7,2.2,0.7c0.9,0,1.3-0.3,1.3-0.7c0-1.3-3.9-0.4-3.9-2.9
					c0-1.1,0.9-2.1,2.8-2.1c0.8,0,1.7,0.2,2.3,0.6l-0.5,1.2c-0.6-0.4-1.3-0.5-1.9-0.5c-0.9,0-1.3,0.3-1.3,0.8c0,1.2,3.9,0.4,3.9,2.8
					c0,1.1-0.9,2.1-2.8,2.1C447.8,227.3,446.8,227,446.2,226.5z"/>
				<path class="st52" d="M452.5,220.5c0-0.5,0.4-0.8,0.9-0.8s0.9,0.3,0.9,0.8c0,0.5-0.4,0.9-0.9,0.9S452.5,221,452.5,220.5z
					 M452.7,222h1.5v5.1h-1.5V222z"/>
				<path class="st52" d="M464.3,224.2v2.9h-1.5v-2.7c0-0.8-0.4-1.2-1-1.2c-0.7,0-1.1,0.4-1.1,1.3v2.6h-1.5v-2.7
					c0-0.8-0.4-1.2-1-1.2c-0.7,0-1.1,0.4-1.1,1.3v2.6h-1.5V222h1.4v0.6c0.4-0.4,1-0.7,1.6-0.7c0.7,0,1.3,0.3,1.7,0.8
					c0.4-0.5,1.1-0.8,1.9-0.8C463.4,222,464.3,222.7,464.3,224.2z"/>
				<path class="st52" d="M471.2,224.6c0,1.6-1.1,2.7-2.6,2.7c-0.6,0-1.2-0.2-1.6-0.6v2.4h-1.5v-7h1.4v0.6c0.4-0.4,0.9-0.7,1.6-0.7
					C470.1,222,471.2,223,471.2,224.6z M469.7,224.6c0-0.9-0.6-1.4-1.3-1.4c-0.7,0-1.3,0.5-1.3,1.4c0,0.9,0.6,1.4,1.3,1.4
					C469.1,226,469.7,225.5,469.7,224.6z"/>
				<path class="st52" d="M476.7,224.2v2.9h-1.4v-0.6c-0.3,0.5-0.8,0.7-1.6,0.7c-1.2,0-1.9-0.7-1.9-1.6c0-0.9,0.6-1.5,2.2-1.5h1.2
					c0-0.6-0.4-1-1.2-1c-0.5,0-1.1,0.2-1.5,0.5l-0.5-1c0.6-0.4,1.4-0.6,2.2-0.6C475.8,222,476.7,222.7,476.7,224.2z M475.2,225.6
					V225h-1c-0.7,0-0.9,0.3-0.9,0.6c0,0.4,0.3,0.6,0.8,0.6C474.6,226.3,475,226,475.2,225.6z"/>
				<path class="st52" d="M483.3,224.2v2.9h-1.5v-2.7c0-0.8-0.4-1.2-1-1.2c-0.7,0-1.2,0.4-1.2,1.4v2.5H478V222h1.4v0.6
					c0.4-0.4,1-0.7,1.7-0.7C482.4,222,483.3,222.7,483.3,224.2z"/>
				<path class="st52" d="M493.3,222.9c0,1.5-1.1,2.4-2.9,2.4H489v1.8h-1.6v-6.7h2.9C492.1,220.5,493.3,221.4,493.3,222.9z
					 M491.7,222.9c0-0.7-0.5-1.2-1.4-1.2H489v2.3h1.3C491.2,224.1,491.7,223.6,491.7,222.9z"/>
				<path class="st52" d="M494.1,220.5c0-0.5,0.4-0.8,0.9-0.8s0.9,0.3,0.9,0.8c0,0.5-0.4,0.9-0.9,0.9S494.1,221,494.1,220.5z
					 M494.3,222h1.5v5.1h-1.5V222z"/>
				<path class="st52" d="M502.4,224.2v2.9h-1.5v-2.7c0-0.8-0.4-1.2-1-1.2c-0.7,0-1.2,0.4-1.2,1.4v2.5h-1.5V222h1.4v0.6
					c0.4-0.4,1-0.7,1.7-0.7C501.5,222,502.4,222.7,502.4,224.2z"/>
				<path class="st52" d="M502.2,228.8l0.4-1.1c0.2,0.1,0.4,0.2,0.6,0.2c0.4,0,0.6-0.2,0.6-0.7V222h1.5v5.1c0,1.2-0.7,1.9-1.9,1.9
					C502.9,229.1,502.5,229,502.2,228.8z M503.6,220.5c0-0.5,0.4-0.8,0.9-0.8c0.6,0,0.9,0.3,0.9,0.8c0,0.5-0.4,0.9-0.9,0.9
					C504,221.3,503.6,221,503.6,220.5z"/>
				<path class="st52" d="M511.2,224.2v2.9h-1.4v-0.6c-0.3,0.5-0.8,0.7-1.6,0.7c-1.2,0-1.9-0.7-1.9-1.6c0-0.9,0.6-1.5,2.2-1.5h1.2
					c0-0.6-0.4-1-1.2-1c-0.5,0-1.1,0.2-1.5,0.5l-0.5-1c0.6-0.4,1.4-0.6,2.2-0.6C510.3,222,511.2,222.7,511.2,224.2z M509.7,225.6
					V225h-1c-0.7,0-0.9,0.3-0.9,0.6c0,0.4,0.3,0.6,0.8,0.6C509.1,226.3,509.6,226,509.7,225.6z"/>
				<path class="st52" d="M521.3,224.2v2.9h-1.5v-2.7c0-0.8-0.4-1.2-1-1.2c-0.7,0-1.1,0.4-1.1,1.3v2.6h-1.5v-2.7
					c0-0.8-0.4-1.2-1-1.2c-0.7,0-1.1,0.4-1.1,1.3v2.6h-1.5V222h1.4v0.6c0.4-0.4,1-0.7,1.6-0.7c0.7,0,1.3,0.3,1.7,0.8
					c0.4-0.5,1.1-0.8,1.9-0.8C520.4,222,521.3,222.7,521.3,224.2z"/>
			</g>
			<circle class="st25" cx="431.3" cy="219" r="8.1"/>
			<polygon class="st6" points="434.5,216.8 433.5,215.8 431.3,218 429.1,215.8 428.1,216.8 430.3,219 428.1,221.2 429.1,222.2 
				431.3,220 433.5,222.2 434.5,221.2 432.3,219 			"/>
		</g>
		<g>
			<g>
				<path class="st52" d="M569,215.8c0,1.2-0.9,1.8-2.7,1.8h-3.5v-6.7h3.3c1.7,0,2.5,0.7,2.5,1.7c0,0.7-0.3,1.2-0.9,1.5
					C568.5,214.4,569,214.9,569,215.8z M564.4,212.1v1.6h1.5c0.8,0,1.2-0.3,1.2-0.8c0-0.5-0.4-0.8-1.2-0.8H564.4z M567.5,215.6
					c0-0.6-0.4-0.8-1.2-0.8h-1.8v1.7h1.8C567,216.4,567.5,216.2,567.5,215.6z"/>
				<path class="st52" d="M576,213.3c0,1.5-1.1,2.4-2.9,2.4h-1.3v1.8h-1.6v-6.7h2.9C574.9,210.9,576,211.8,576,213.3z M574.4,213.3
					c0-0.7-0.5-1.2-1.4-1.2h-1.3v2.3h1.3C574,214.5,574.4,214.1,574.4,213.3z"/>
				<path class="st52" d="M581.4,217.6l-1.3-1.9H580h-1.3v1.9h-1.6v-6.7h2.9c1.8,0,2.9,0.9,2.9,2.4c0,1-0.5,1.7-1.4,2.1l1.5,2.2
					H581.4z M579.9,212.2h-1.3v2.3h1.3c0.9,0,1.4-0.4,1.4-1.2C581.4,212.6,580.9,212.2,579.9,212.2z"/>
				<path class="st52" d="M586.9,210.9h1.6v6.7h-1.6V210.9z"/>
				<path class="st52" d="M595.1,214.7v2.9h-1.5v-2.7c0-0.8-0.4-1.2-1-1.2c-0.7,0-1.2,0.4-1.2,1.4v2.5h-1.5v-5.1h1.4v0.6
					c0.4-0.4,1-0.7,1.7-0.7C594.2,212.4,595.1,213.1,595.1,214.7z"/>
				<path class="st52" d="M599.8,217.4c-0.3,0.2-0.8,0.3-1.2,0.3c-1.2,0-1.9-0.6-1.9-1.8v-2.1h-0.8v-1.1h0.8v-1.3h1.5v1.3h1.3v1.1
					h-1.3v2.1c0,0.4,0.2,0.7,0.6,0.7c0.2,0,0.4-0.1,0.6-0.2L599.8,217.4z"/>
				<path class="st52" d="M600.5,210.9c0-0.5,0.4-0.8,0.9-0.8s0.9,0.3,0.9,0.8c0,0.5-0.4,0.9-0.9,0.9S600.5,211.4,600.5,210.9z
					 M600.7,212.5h1.5v5.1h-1.5V212.5z"/>
				<path class="st52" d="M608.8,210.5v7.1h-1.4V217c-0.4,0.4-0.9,0.7-1.6,0.7c-1.5,0-2.6-1-2.6-2.7c0-1.6,1.1-2.7,2.6-2.7
					c0.6,0,1.2,0.2,1.5,0.6v-2.5H608.8z M607.3,215c0-0.9-0.6-1.4-1.3-1.4c-0.7,0-1.3,0.5-1.3,1.4c0,0.9,0.6,1.4,1.3,1.4
					C606.7,216.5,607.3,215.9,607.3,215z"/>
				<path class="st52" d="M614.7,214.7v2.9h-1.4V217c-0.3,0.5-0.8,0.7-1.6,0.7c-1.2,0-1.9-0.7-1.9-1.6c0-0.9,0.6-1.5,2.2-1.5h1.2
					c0-0.6-0.4-1-1.2-1c-0.5,0-1.1,0.2-1.5,0.5l-0.5-1c0.6-0.4,1.4-0.6,2.2-0.6C613.8,212.4,614.7,213.1,614.7,214.7z M613.2,216
					v-0.5h-1c-0.7,0-0.9,0.3-0.9,0.6c0,0.4,0.3,0.6,0.8,0.6C612.6,216.7,613.1,216.5,613.2,216z"/>
				<path class="st52" d="M621.3,214.7v2.9h-1.5v-2.7c0-0.8-0.4-1.2-1-1.2c-0.7,0-1.2,0.4-1.2,1.4v2.5h-1.5v-5.1h1.4v0.6
					c0.4-0.4,1-0.7,1.7-0.7C620.4,212.4,621.3,213.1,621.3,214.7z"/>
				<path class="st52" d="M627.2,214.7v2.9h-1.4V217c-0.3,0.5-0.8,0.7-1.6,0.7c-1.2,0-1.9-0.7-1.9-1.6c0-0.9,0.6-1.5,2.2-1.5h1.2
					c0-0.6-0.4-1-1.2-1c-0.5,0-1.1,0.2-1.5,0.5l-0.5-1c0.6-0.4,1.4-0.6,2.2-0.6C626.3,212.4,627.2,213.1,627.2,214.7z M625.7,216
					v-0.5h-1c-0.7,0-0.9,0.3-0.9,0.6c0,0.4,0.3,0.6,0.8,0.6C625.1,216.7,625.6,216.5,625.7,216z"/>
				<path class="st52" d="M562.4,226.5l0.5-1.2c0.6,0.4,1.4,0.7,2.2,0.7c0.9,0,1.3-0.3,1.3-0.7c0-1.3-3.9-0.4-3.9-2.9
					c0-1.1,0.9-2.1,2.8-2.1c0.8,0,1.7,0.2,2.3,0.6l-0.5,1.2c-0.6-0.4-1.3-0.5-1.9-0.5c-0.9,0-1.3,0.3-1.3,0.8c0,1.2,3.9,0.4,3.9,2.8
					c0,1.1-0.9,2.1-2.8,2.1C564,227.3,562.9,227,562.4,226.5z"/>
				<path class="st52" d="M574.1,222v5.1h-1.4v-0.6c-0.4,0.4-1,0.7-1.6,0.7c-1.3,0-2.2-0.7-2.2-2.3V222h1.5v2.7c0,0.9,0.4,1.2,1,1.2
					c0.7,0,1.2-0.4,1.2-1.4V222H574.1z"/>
				<path class="st52" d="M577.7,225.2l-0.7,0.7v1.3h-1.5v-7.1h1.5v4l2.2-2.1h1.8l-2.1,2.2l2.3,3h-1.8L577.7,225.2z"/>
				<path class="st52" d="M581.1,226.7l0.5-1.1c0.5,0.3,1.2,0.5,1.8,0.5c0.7,0,0.9-0.2,0.9-0.5c0-0.8-3.1,0-3.1-2
					c0-1,0.9-1.7,2.4-1.7c0.7,0,1.5,0.2,2,0.4l-0.5,1.1c-0.5-0.3-1-0.4-1.5-0.4c-0.7,0-1,0.2-1,0.5c0,0.9,3.1,0,3.1,2.1
					c0,1-0.9,1.6-2.4,1.6C582.5,227.3,581.6,227,581.1,226.7z"/>
				<path class="st52" d="M591.7,225h-3.9c0.1,0.6,0.7,1,1.5,1c0.5,0,0.9-0.2,1.3-0.5l0.8,0.9c-0.5,0.5-1.2,0.8-2.1,0.8
					c-1.8,0-2.9-1.1-2.9-2.7c0-1.5,1.2-2.7,2.7-2.7c1.5,0,2.7,1,2.7,2.7C591.7,224.7,591.7,224.9,591.7,225z M587.8,224.2h2.5
					c-0.1-0.7-0.6-1.1-1.3-1.1C588.4,223.1,587.9,223.5,587.8,224.2z"/>
				<path class="st52" d="M592.2,226.7l0.5-1.1c0.5,0.3,1.2,0.5,1.8,0.5c0.7,0,0.9-0.2,0.9-0.5c0-0.8-3.1,0-3.1-2
					c0-1,0.9-1.7,2.4-1.7c0.7,0,1.5,0.2,2,0.4l-0.5,1.1c-0.5-0.3-1-0.4-1.5-0.4c-0.7,0-1,0.2-1,0.5c0,0.9,3.1,0,3.1,2.1
					c0,1-0.9,1.6-2.4,1.6C593.6,227.3,592.7,227,592.2,226.7z"/>
				<path class="st52" d="M606.7,227.2l0-4l-2,3.3H604l-2-3.2v3.9h-1.5v-6.7h1.3l2.5,4.2l2.5-4.2h1.3l0,6.7H606.7z"/>
				<path class="st52" d="M614.2,224.2v2.9h-1.4v-0.6c-0.3,0.5-0.8,0.7-1.6,0.7c-1.2,0-1.9-0.7-1.9-1.6c0-0.9,0.6-1.5,2.2-1.5h1.2
					c0-0.6-0.4-1-1.2-1c-0.5,0-1.1,0.2-1.5,0.5l-0.5-1c0.6-0.4,1.4-0.6,2.2-0.6C613.3,222,614.2,222.7,614.2,224.2z M612.7,225.6
					V225h-1c-0.7,0-0.9,0.3-0.9,0.6c0,0.4,0.3,0.6,0.8,0.6C612.1,226.3,612.5,226,612.7,225.6z"/>
				<path class="st52" d="M617.8,225.2l-0.7,0.7v1.3h-1.5v-7.1h1.5v4l2.2-2.1h1.8l-2.1,2.2l2.3,3h-1.8L617.8,225.2z"/>
				<path class="st52" d="M630.5,224.2v2.9H629v-2.7c0-0.8-0.4-1.2-1-1.2c-0.7,0-1.1,0.4-1.1,1.3v2.6h-1.5v-2.7c0-0.8-0.4-1.2-1-1.2
					c-0.7,0-1.1,0.4-1.1,1.3v2.6h-1.5V222h1.4v0.6c0.4-0.4,1-0.7,1.6-0.7c0.7,0,1.3,0.3,1.7,0.8c0.4-0.5,1.1-0.8,1.9-0.8
					C629.6,222,630.5,222.7,630.5,224.2z"/>
				<path class="st52" d="M637.1,222v5.1h-1.4v-0.6c-0.4,0.4-1,0.7-1.6,0.7c-1.3,0-2.2-0.7-2.2-2.3V222h1.5v2.7c0,0.9,0.4,1.2,1,1.2
					c0.7,0,1.2-0.4,1.2-1.4V222H637.1z"/>
				<path class="st52" d="M641.6,222v1.4c-0.1,0-0.2,0-0.3,0c-0.8,0-1.4,0.4-1.4,1.4v2.4h-1.5V222h1.4v0.7
					C640.2,222.2,640.8,222,641.6,222z"/>
			</g>
			<circle class="st54" cx="548.2" cy="219" r="8.1"/>
			<polygon class="st6" points="551.2,215.8 547.3,219.8 545.1,217.6 543.9,218.8 546,221 546,221 547.3,222.2 552.5,217 			"/>
		</g>
	</g>
	<g id="freepik--Floor--inject-8_1_">
		<path class="st13" d="M653.8,200.8c0,0.1-52.8,0.2-117.8,0.2s-117.8-0.1-117.8-0.2c0-0.1,52.8-0.2,117.8-0.2
			S653.8,200.7,653.8,200.8z"/>
	</g>
	<line class="st55" x1="418.2" y1="200.8" x2="653.8" y2="200.8"/>
</g>
<polygon class="st52" points="364.4,250 0,250 0,0 282.4,0 "/>
<polygon class="st25" points="410.1,250 328.1,0 302.4,0 384.4,250 "/>
</svg>
