<?xml version="1.0" encoding="utf-8"?>
<!-- Generator: Adobe Illustrator 23.0.5, SVG Export Plug-In . SVG Version: 6.00 Build 0)  -->
<svg version="1.1" id="Layer_1" xmlns="http://www.w3.org/2000/svg" xmlns:xlink="http://www.w3.org/1999/xlink" x="0px" y="0px"
	 viewBox="0 0 690 250" style="enable-background:new 0 0 690 250;" xml:space="preserve">
<style type="text/css">
	.st0{fill:#EBEBEB;}
	.st1{fill:#F0F0F0;}
	.st2{fill:#F5F5F5;}
	.st3{fill:#FAFAFA;}
	.st4{fill:#FFC113;}
	.st5{opacity:0.7;}
	.st6{fill:#FFFFFF;}
	.st7{opacity:0.25;}
	.st8{opacity:0.1;}
	.st9{opacity:0.2;}
	.st10{opacity:0.3;}
	.st11{fill:#377F41;}
	.st12{fill:#443021;}
	.st13{fill:#263238;}
	.st14{opacity:0.2;enable-background:new    ;}
	.st15{opacity:0.1;enable-background:new    ;}
	.st16{fill:#E2877B;}
	.st17{fill:#2E353A;}
	.st18{opacity:0.4;enable-background:new    ;}
	.st19{opacity:0.1;fill:#FFFFFF;enable-background:new    ;}
	.st20{opacity:0.8;fill:#FFFFFF;enable-background:new    ;}
	.st21{fill:#DC5753;}
	.st22{fill:#E4897B;}
	.st23{opacity:0.8;}
	.st24{fill:#E6E6E6;}
	.st25{fill:#ED272A;}
	.st26{fill:#1A66B1;}
	.st27{clip-path:url(#SVGID_2_);}
	.st28{clip-path:url(#SVGID_4_);}
	.st29{clip-path:url(#SVGID_6_);}
	.st30{clip-path:url(#SVGID_8_);}
	.st31{fill:#DBDBDB;}
	.st32{fill:#C7C7C7;}
	.st33{fill:#FFEC66;}
	.st34{fill:#F7A9A0;}
	.st35{fill:#37474F;}
	.st36{fill:#455A64;}
	.st37{fill:#FF9ABB;}
	.st38{fill:#E0E0E0;}
	.st39{opacity:0.15;}
	.st40{opacity:0.2;fill:#FFFFFF;enable-background:new    ;}
	.st41{opacity:0.4;fill:#FFFFFF;enable-background:new    ;}
	.st42{fill:none;}
	.st43{opacity:0.3;fill:#FFFFFF;enable-background:new    ;}
	.st44{opacity:0.5;}
	.st45{opacity:0.5;fill:#FFFFFF;enable-background:new    ;}
	.st46{fill-opacity:0;}
	.st47{fill:#FFA8A7;}
	.st48{opacity:0.3;enable-background:new    ;}
	.st49{opacity:0.35;}
	.st50{fill:#F28F8F;}
	.st51{fill:#407BFF;}
	.st52{fill:#1A66B0;}
	.st53{opacity:0.8;enable-background:new    ;}
	.st54{fill:#28EA52;}
	.st55{fill:none;stroke:#263238;stroke-width:2;stroke-linecap:round;stroke-miterlimit:10;}
	.st56{fill:#FFE340;}
	.st57{fill:#E0C027;}
	.st58{opacity:0.5;enable-background:new    ;}
	.st59{opacity:0.6;fill:#FFFFFF;enable-background:new    ;}
	.st60{opacity:0.7;enable-background:new    ;}
	.st61{opacity:0.7;fill:#FFFFFF;enable-background:new    ;}
	.st62{opacity:0.4;fill:#E6E6E6;enable-background:new    ;}
	.st63{fill:#7BC3FF;}
	.st64{fill:#5FB3ED;}
	.st65{fill:#0B5089;}
</style>
<polygon class="st26" points="407.6,0 690,0 690,250 325.6,250 "/>
<polygon class="st25" points="297.4,250 379.4,0 353.7,0 271.7,250 "/>
<g>
	<g id="freepik--background-complete--inject-2">
		<rect x="11.8" y="200" class="st1" width="265.8" height="0.1"/>
		<rect x="195" y="206.7" class="st1" width="5.6" height="0.1"/>
		<rect x="46.4" y="203.2" class="st1" width="5.4" height="0.1"/>
		<rect x="93.4" y="206.7" class="st1" width="16.3" height="0.1"/>
		<rect x="125.8" y="203.6" class="st1" width="10.5" height="0.1"/>
		<rect x="212.4" y="204.5" class="st1" width="27.9" height="0.1"/>
		<rect x="54.3" y="203.2" class="st1" width="22.9" height="0.1"/>
		<rect x="243.4" y="204.5" class="st1" width="8.8" height="0.1"/>
		<path class="st1" d="M137.9,176.3H35.2c-1.7,0-3-1.4-3-3V29c0-1.7,1.4-3,3-3h102.7c1.7,0,3,1.4,3,3c0,0,0,0,0,0v144.3
			C140.9,175,139.5,176.3,137.9,176.3z M35.2,26.1c-1.6,0-2.9,1.3-2.9,2.9v144.3c0,1.6,1.3,2.9,2.9,2.9h102.7c1.6,0,2.9-1.3,2.9-2.9
			V29c0-1.6-1.3-2.9-2.9-2.9H35.2z"/>
		<path class="st1" d="M252.9,176.3H150.2c-1.7,0-3-1.4-3-3V29c0-1.7,1.4-3,3-3h102.7c1.7,0,3,1.3,3,3v144.3
			C255.9,175,254.5,176.3,252.9,176.3z M150.2,26.1c-1.6,0-2.9,1.3-2.9,2.9v144.3c0,1.6,1.3,2.9,2.9,2.9h102.7
			c1.6,0,2.9-1.3,2.9-2.9V29c0-1.6-1.3-2.9-2.9-2.9H150.2z"/>
		<rect x="229" y="168.1" class="st24" width="14.6" height="31.9"/>
		<polygon class="st2" points="240.8,200 243.6,200 243.6,192.1 237.9,192.1 		"/>
		<rect x="145.5" y="168.1" class="st0" width="14.6" height="31.9"/>
		<rect x="157.7" y="168.1" class="st2" width="85.9" height="27.1"/>
		<rect x="160.6" y="170.7" class="st24" width="25.5" height="14.6"/>
		<path class="st1" d="M175.8,172.9h-5c-2.2,0-4.3-0.9-5.8-2.5h16.6C180.1,172,178,172.9,175.8,172.9z"/>
		<rect x="187.9" y="170.7" class="st24" width="25.5" height="14.6"/>
		<path class="st1" d="M203.4,172.9h-5c-2.2,0-4.3-0.9-5.8-2.5h16.6C207.7,172,205.6,172.9,203.4,172.9z"/>
		<rect x="215.3" y="170.7" class="st24" width="25.5" height="14.6"/>
		<path class="st1" d="M230.8,172.9h-5c-2.2,0-4.3-0.9-5.8-2.5h16.6C235.1,172,233,172.9,230.8,172.9z"/>
		<polygon class="st2" points="160.5,200 157.7,200 157.7,192.1 163.4,192.1 		"/>
		<rect x="45.3" y="36.1" class="st24" width="130.5" height="70.4"/>
		<rect x="46.5" y="36.1" class="st0" width="132" height="70.4"/>
		<rect x="45.3" y="106.5" class="st24" width="130.5" height="5"/>
		<rect x="51" y="106.5" class="st24" width="132" height="5"/>
		<rect x="50.3" y="39.8" class="st3" width="124.4" height="62.9"/>
		<polygon class="st6" points="57.5,102.7 79.7,39.8 90.2,39.8 68,102.7 		"/>
		<path class="st24" d="M52.1,81.4c-0.2,0-0.3-0.1-0.3-0.3V42.3c0-0.2,0.1-0.3,0.3-0.3c0.2,0,0.3,0.1,0.3,0.3v0v38.8
			C52.4,81.3,52.2,81.4,52.1,81.4z"/>
		<polygon class="st6" points="70.3,102.7 92.5,39.8 96.5,39.8 74.4,102.7 		"/>
		<rect x="174.3" y="39.8" class="st24" width="0.5" height="62.9"/>
		<polygon class="st0" points="179.4,44.7 48.9,44.7 48.5,41.3 179.1,41.3 		"/>
		<polygon class="st0" points="179.4,47.1 48.9,47.1 48.5,43.8 179.1,43.8 		"/>
		<polygon class="st0" points="179.4,50.1 48.9,50.1 48.5,46.7 179.1,46.7 		"/>
		<polygon class="st0" points="179.4,53.4 48.9,53.4 48.5,50 179.1,50 		"/>
		<polygon class="st24" points="179.4,57.3 48.9,57.3 48.5,54 179.1,54 		"/>
		<polygon class="st24" points="179.4,61.8 48.9,61.8 48.5,58.4 179.1,58.4 		"/>
		<rect x="193.8" y="65.8" class="st0" width="18.2" height="21"/>
		<rect x="196" y="65.8" class="st2" width="19.7" height="21"/>
		<rect x="197.6" y="67.5" class="st6" width="16.4" height="17.7"/>
		<path class="st3" d="M210.1,73.2v6.2c0,0.8-0.6,1.5-1.5,1.5H203c-0.8,0-1.5-0.6-1.5-1.5v-6.2c0-0.8,0.6-1.5,1.5-1.5h5.6
			C209.4,71.8,210.1,72.4,210.1,73.2z"/>
		<rect x="221.3" y="56.6" class="st0" width="18.2" height="21"/>
		<rect x="223.4" y="56.6" class="st2" width="19.7" height="21"/>
		<rect x="225.1" y="58.3" class="st6" width="16.4" height="17.7"/>
		<path class="st3" d="M237.5,64v6.2c0,0.8-0.6,1.5-1.5,1.5h-5.6c-0.8,0-1.5-0.6-1.5-1.5V64c0-0.8,0.6-1.5,1.5-1.5h5.6
			C236.9,62.6,237.5,63.2,237.5,64z"/>
		<rect x="120.7" y="138" class="st24" width="29.5" height="62.1"/>
		<polygon class="st24" points="147.3,200 150.3,200 150.3,191.6 144.2,191.6 		"/>
		<rect x="48.1" y="138" class="st24" width="29.5" height="62.1"/>
		<rect x="75" y="138" class="st2" width="75.3" height="56.9"/>
		<rect x="76.7" y="140.5" class="st24" width="70.6" height="15.6"/>
		<path class="st2" d="M116,145.3h-6.7c-2.9,0-5.7-1.9-7.7-5.3h22C121.6,143.4,118.9,145.3,116,145.3z"/>
		<polygon class="st24" points="78,200 75,200 75,191.6 81.1,191.6 		"/>
		<rect x="76.7" y="158.6" class="st24" width="70.6" height="15.6"/>
		<path class="st2" d="M116,163.4h-6.7c-2.9,0-5.7-1.9-7.7-5.3h22C121.6,161.5,118.9,163.4,116,163.4z"/>
		<rect x="76.7" y="176.7" class="st24" width="70.6" height="15.6"/>
		<path class="st2" d="M116,181.6h-6.7c-2.9,0-5.7-1.9-7.7-5.3h22C121.6,179.6,118.9,181.6,116,181.6z"/>
		<path class="st24" d="M215.2,162.4h0.9c0-1.8,0-6.4,0.1-17c0.2-19.1,0.5-20.3,0.5-20.3l-2.1,8.8
			C213.2,143.7,214.9,153.6,215.2,162.4z"/>
		<path class="st24" d="M211.3,130.7c-4.6-4.6-13.6-5.2-22.9-5.6c-3.6-0.1,10.1,6.8,17,12c5.3,4,8.6,5,10.4,9.4
			C216,140.8,215.3,134.6,211.3,130.7z"/>
		<path class="st24" d="M216.4,120.7c3.1-5.9,11-11.6,19.9-13.7c3.5-0.8-8,11-12.4,18.6c-3.4,5.9-7.9,12.9-8.6,17.9
			C214.2,133.6,213.3,126.7,216.4,120.7z"/>
		<path class="st1" d="M216,168.1L216,168.1c-3.1,0-5.6-2.4-5.8-5.5l-0.5-5.2h12.6l-0.5,5.2C221.6,165.7,219.1,168.1,216,168.1z"/>
		<polygon class="st2" points="223.1,159.4 208.9,159.4 208.5,153.6 223.5,153.6 		"/>
	</g>
	<g id="freepik--Shadow--inject-2">
		<ellipse class="st2" cx="144.8" cy="218" rx="103.1" ry="6"/>
	</g>
	<g id="freepik--Shield--inject-2">
		<path class="st26" d="M142.3,72.6c0.7,9,11.2,20.8,14.5,24.3c0.5,0.6,1.4,0.6,2,0.1c0,0,0,0,0.1-0.1c3.3-3.6,13.8-15.3,14.5-24.3
			c0.1-0.6-0.2-1.1-0.7-1.4l-14.1-7.6c-0.4-0.2-0.9-0.2-1.3,0l-14.1,7.6C142.6,71.5,142.3,72.1,142.3,72.6z"/>
		<path class="st43" d="M156.8,93.6c-4.3-4.8-10.4-12.8-11.9-19.2c-0.1-0.6,0.1-1.2,0.7-1.6l11.6-6.6c0.4-0.2,1-0.2,1.4,0l11.6,6.6
			c0.6,0.3,0.8,1,0.7,1.6c-1.5,6.4-7.6,14.4-11.9,19.2c-0.5,0.6-1.4,0.6-2,0.1C156.9,93.6,156.9,93.6,156.8,93.6z"/>
		<path class="st6" d="M156.3,83.8c-0.2,0-0.4-0.1-0.6-0.2l-3.9-4c-0.3-0.3-0.3-0.8,0-1.1c0.3-0.3,0.8-0.3,1.1,0l3.4,3.4l8-7.9
			c0.3-0.3,0.8-0.3,1.1,0c0.3,0.3,0.3,0.8,0,1.1c0,0,0,0,0,0l-8.5,8.5C156.7,83.8,156.5,83.8,156.3,83.8z"/>
	</g>
	<g id="freepik--Vault--inject-2">
		<path class="st13" d="M116.1,105.4h73.7c3.5,0,6.4,2.9,6.4,6.4v96.7c0,3.5-2.9,6.4-6.4,6.4h-73.7c-3.5,0-6.4-2.9-6.4-6.4v-96.7
			C109.7,108.2,112.5,105.4,116.1,105.4z"/>
		<path class="st25" d="M121,105.4h73.7c3.5,0,6.4,2.9,6.4,6.4v96.7c0,3.5-2.9,6.4-6.4,6.4H121c-3.5,0-6.4-2.9-6.4-6.4v-96.7
			C114.6,108.2,117.5,105.4,121,105.4z"/>
		<path class="st13" d="M122.6,214.8h7.2c0.2,0,0.4,0.2,0.4,0.4v1.2c0,0.2-0.2,0.4-0.4,0.4h-7.2c-0.2,0-0.4-0.2-0.4-0.4v-1.2
			C122.2,215,122.4,214.8,122.6,214.8z"/>
		<path class="st13" d="M186,214.8h7.2c0.2,0,0.4,0.2,0.4,0.4v1.2c0,0.2-0.2,0.4-0.4,0.4H186c-0.2,0-0.4-0.2-0.4-0.4v-1.2
			C185.6,215,185.8,214.8,186,214.8z"/>
		<path class="st14" d="M121,105.4h73.7c3.5,0,6.4,2.9,6.4,6.4v96.7c0,3.5-2.9,6.4-6.4,6.4H121c-3.5,0-6.4-2.9-6.4-6.4v-96.7
			C114.6,108.2,117.5,105.4,121,105.4z"/>
		<path class="st62" d="M186.1,202.2h-56.4c-1.3,0-2.4-1.1-2.4-2.4v-79.3c0-1.3,1.1-2.4,2.4-2.4h56.4c1.3,0,2.4,1.1,2.4,2.4v79.3
			C188.5,201.1,187.4,202.2,186.1,202.2z M129.7,118.2c-1.2,0-2.2,1-2.2,2.2v79.3c0,1.2,1,2.2,2.2,2.2h56.4c1.2,0,2.2-1,2.2-2.2
			v-79.3c0-1.2-1-2.2-2.2-2.2L129.7,118.2z"/>
		<path class="st25" d="M187.3,120.4v79.4c0,0.7-0.6,1.2-1.2,1.2h-56.4c-0.7,0-1.2-0.6-1.2-1.2v-79.4c0-0.7,0.6-1.2,1.2-1.2h56.4
			C186.7,119.2,187.3,119.7,187.3,120.4z"/>
		<path class="st19" d="M187.3,120.4v79.4c0,0.7-0.6,1.2-1.2,1.2h-56.4c-0.7,0-1.2-0.6-1.2-1.2v-79.4c0-0.7,0.6-1.2,1.2-1.2h56.4
			C186.7,119.2,187.3,119.7,187.3,120.4z"/>
		<rect x="202.4" y="127.9" class="st13" width="0.5" height="4.5"/>
		<rect x="202.4" y="111.7" class="st13" width="0.5" height="11.5"/>
		<circle class="st15" cx="157.9" cy="161.6" r="18.1"/>
		<circle class="st25" cx="157.9" cy="130.3" r="4.4"/>
		<circle class="st59" cx="157.9" cy="130.3" r="4.4"/>
		<path class="st25" d="M157.9,133.8c-1.9,0-3.5-1.6-3.5-3.5s1.6-3.5,3.5-3.5c1.9,0,3.5,1.6,3.5,3.5c0,0,0,0,0,0
			C161.4,132.2,159.8,133.8,157.9,133.8z M157.9,127.1c-1.8,0-3.2,1.4-3.2,3.2s1.4,3.2,3.2,3.2s3.2-1.4,3.2-3.2l0,0
			C161.1,128.5,159.7,127.1,157.9,127.1z"/>
		<path class="st25" d="M126.4,129.6h2c0.4,0,0.8,0.4,0.8,0.8v10.8c0,0.4-0.4,0.8-0.8,0.8h-2c-0.4,0-0.8-0.4-0.8-0.8v-10.8
			C125.6,130,126,129.6,126.4,129.6z"/>
		<path class="st59" d="M126.4,129.6h2c0.4,0,0.8,0.4,0.8,0.8v10.8c0,0.4-0.4,0.8-0.8,0.8h-2c-0.4,0-0.8-0.4-0.8-0.8v-10.8
			C125.6,130,126,129.6,126.4,129.6z"/>
		<path class="st25" d="M126.4,178.2h2c0.4,0,0.8,0.4,0.8,0.8v10.8c0,0.4-0.4,0.8-0.8,0.8h-2c-0.4,0-0.8-0.4-0.8-0.8V179
			C125.6,178.6,126,178.2,126.4,178.2z"/>
		<path class="st59" d="M126.4,178.2h2c0.4,0,0.8,0.4,0.8,0.8v10.8c0,0.4-0.4,0.8-0.8,0.8h-2c-0.4,0-0.8-0.4-0.8-0.8V179
			C125.6,178.6,126,178.2,126.4,178.2z"/>
		<circle class="st25" cx="157.9" cy="160.1" r="18.1"/>
		<circle class="st59" cx="157.9" cy="160.1" r="18.1"/>
		
			<rect x="157.4" y="146.9" transform="matrix(0.7071 -0.7071 0.7071 0.7071 -66.9598 158.5305)" class="st25" width="1.1" height="26.4"/>
		
			<rect x="144.7" y="159.6" transform="matrix(0.7071 -0.7071 0.7071 0.7071 -66.9598 158.5305)" class="st25" width="26.4" height="1.1"/>
		
			<rect x="144.6" y="159.5" transform="matrix(0.7071 -0.7071 0.7071 0.7071 -66.9349 158.4693)" class="st14" width="26.4" height="1.1"/>
		
			<rect x="157.3" y="146.8" transform="matrix(0.7071 -0.7071 0.7071 0.7071 -66.9364 158.473)" class="st14" width="1.1" height="26.4"/>
		<path class="st25" d="M157.8,173.8c-7.6,0-13.8-6.2-13.8-13.8c0-7.6,6.2-13.8,13.8-13.8c7.6,0,13.8,6.2,13.8,13.8c0,0,0,0,0,0
			C171.6,167.6,165.4,173.8,157.8,173.8z M157.8,147.3c-7,0-12.7,5.7-12.7,12.7c0,7,5.7,12.7,12.7,12.7c7,0,12.7-5.7,12.7-12.7
			c0,0,0,0,0,0C170.5,153,164.8,147.3,157.8,147.3z"/>
		<circle class="st25" cx="157.8" cy="160" r="5.8"/>
		<path class="st14" d="M157.8,173.8c-7.6,0-13.8-6.2-13.8-13.8c0-7.6,6.2-13.8,13.8-13.8c7.6,0,13.8,6.2,13.8,13.8c0,0,0,0,0,0
			C171.6,167.6,165.4,173.8,157.8,173.8z M157.8,147.3c-7,0-12.7,5.7-12.7,12.7c0,7,5.7,12.7,12.7,12.7c7,0,12.7-5.7,12.7-12.7
			c0,0,0,0,0,0C170.5,153,164.8,147.3,157.8,147.3z"/>
		<circle class="st14" cx="157.8" cy="160" r="5.8"/>
	</g>
	<g id="freepik--Character--inject-2_1_">
		<path class="st47" d="M113.4,83.3c1.3,3,2.6,6,3.9,8.9c1.3,3,2.7,5.9,4.2,8.7c0.4,0.7,0.7,1.4,1.1,2.1l0.3,0.5l0.1,0.2
			c0,0,0,0-0.1-0.1c-0.1,0,0,0,0.1,0.1c0.5,0.3,1,0.4,1.6,0.5c0.7,0.1,1.4,0.2,2.1,0.3c1.5,0.1,3.1,0.1,4.7,0.1l2.4-0.1l2.4-0.2
			l0.6,2.9c-3.3,1.1-6.7,1.8-10.1,2c-0.9,0.1-1.9,0.1-2.8,0c-1.1-0.1-2.2-0.3-3.2-0.8c-0.7-0.3-1.3-0.8-1.9-1.3
			c-0.2-0.2-0.3-0.3-0.4-0.5l-0.2-0.3l-0.4-0.5c-0.5-0.7-0.9-1.5-1.4-2.2c-1.7-3-3.3-5.9-4.7-9c-1.4-3-2.8-6.1-4.1-9.2L113.4,83.3z"
			/>
		<path class="st63" d="M106.3,82.8c-1.2,3.5,5.9,13.9,5.9,13.9L119,93c-1.2-3.2-2.5-6.4-4.1-9.5C112.5,79,107.7,79,106.3,82.8z"/>
		<path class="st25" d="M106.2,83.3c1.5-0.7,3.3-0.1,5.1,2.8c1.8,2.9,3.4,7.8,3.6,9.2l-2.7,1.5C112.2,96.8,105.7,87.2,106.2,83.3z"
			/>
		<path class="st64" d="M106.2,83.3c1.5-0.7,3.3-0.1,5.1,2.8c1.8,2.9,3.4,7.8,3.6,9.2l-2.7,1.5C112.2,96.8,105.7,87.2,106.2,83.3z"
			/>
		<path class="st63" d="M110.9,80.1c0,0,5.1,11.9,1.4,34.1H91.3c-0.3-3.2,1.2-19-2.4-34.3c2.3-0.5,4.7-0.7,7-0.9c3-0.2,6-0.2,9,0
			C106.9,79.3,108.9,79.6,110.9,80.1z"/>
		<path class="st25" d="M93.5,83.7c0.4,2.5-0.1,8.5-2.3,15.5c-0.2-5.9-0.9-11.9-2.1-17.7v0C90.6,81.3,93.1,81.4,93.5,83.7z"/>
		<path class="st64" d="M93.5,83.7c0.4,2.5-0.1,8.5-2.3,15.5c-0.2-5.9-0.9-11.9-2.1-17.7v0C90.6,81.3,93.1,81.4,93.5,83.7z"/>
		<polygon class="st47" points="83.8,208.7 86.9,211.5 92.9,205.3 89.7,202.5 		"/>
		<path class="st13" d="M87.8,210.3l-3.8-2.5c-0.1-0.1-0.3-0.1-0.4,0l-2.9,2.9c-0.2,0.2-0.2,0.6,0.1,0.8c0,0,0.1,0,0.1,0.1
			c2.4,1.9,4.2,3.3,5.6,4.8c1.6,1.8,2.5,2.1,6.2,2.1c1.7,0,2.7-1.5,2-1.7c-6.2-2-4.5-2.8-6.1-5.7C88.3,210.8,88.1,210.5,87.8,210.3z
			"/>
		<polygon class="st50" points="92.9,205.3 89.8,208.5 86.7,205.7 89.7,202.5 		"/>
		<polygon class="st50" points="95,205.4 98.9,205.4 98.7,210.1 94.7,210.1 		"/>
		<path class="st26" d="M112.3,114.2c0,0,4.2,28.7,5.6,44.4c1.1,12.6-26,50-26,50l-5.2-4.9c0,0,19.8-33.6,18.3-47.5
			c-1.5-13.5-6.5-41.9-6.5-41.9L112.3,114.2z"/>
		<polygon class="st47" points="94.5,214.5 98.4,214.5 98.9,205.4 95,205.4 		"/>
		<path class="st13" d="M98.6,214h-4.4c-0.2,0-0.3,0.1-0.3,0.3l-0.2,3.5c0,0.4,0.3,0.7,0.7,0.7c0,0,0,0,0,0c1.5,0,2.3-0.1,4.3-0.1
			c1.2,0,6.3,0.1,7.9,0.1c1.7,0,1.6-1.6,0.9-1.8c-3.1-0.7-7-1.6-8.2-2.5C99.1,214.1,98.9,214,98.6,214z"/>
		<path class="st47" d="M135.5,104.6l3.6-1.4l0.9,3.7c0,0-4.1,1.2-4.8,0L135.5,104.6z"/>
		<polygon class="st47" points="142.2,103.9 143.3,106 140,106.9 139.1,103.2 		"/>
		<path class="st24" d="M105.7,79.1l-0.9-0.1c-3-0.2-6-0.2-9,0l-0.5,0l0,0.1c0,0.1,1,2.7,6.7,2.7c2.5,0,3.8-0.4,4.1-1.3
			C106.3,80.1,106.1,79.5,105.7,79.1z"/>
		<path class="st47" d="M96.4,69c0.7,2.9,1.4,8.2-0.5,10.1c0,0,0.8,2.4,6.2,2.4c5.9,0,2.8-2.4,2.8-2.4c-3.2-0.8-3.2-3.2-2.8-5.4
			L96.4,69z"/>
		<path class="st50" d="M98.7,70.9l3.4,2.8c-0.1,0.5-0.2,1.1-0.2,1.6c-1.2-0.2-3-1.5-3.1-2.8C98.6,71.9,98.6,71.4,98.7,70.9z"/>
		<path class="st13" d="M104.8,60.4c1.8,1.2,2,6.7-0.6,7.5C101.6,68.7,101.4,58.2,104.8,60.4z"/>
		<path class="st47" d="M95.1,65.9c1.2,3.7,1.7,6,4.1,7.5c2.4,1.5,5.5,0.8,7-1.5c0.6-0.9,0.8-1.9,0.8-2.9c0-3.6-2-9.1-6.1-9.8
			c-2.8-0.5-5.5,1.3-6,4.1C94.8,64.2,94.8,65.1,95.1,65.9z"/>
		<path class="st13" d="M90.8,62.4c1.3,2.3,4.5,7.7,6.1,7.1c1.6-0.5,1.6-4.8-0.4-7.5c0,0,15.8,1.6,16.1-7.4c0.3-9.2-7.3-0.3-14,2.3
			C91.3,59.8,87.8,56.9,90.8,62.4z"/>
		<path class="st13" d="M91.5,59.2c-0.1,0-0.1-0.1-0.1-0.2c0-0.1,0.1-0.1,0.1-0.1c0.2-0.1,0.5-0.1,0.8-0.2c2.1-0.3,4.2-1,6.1-1.8
			c2-0.9,4.1-2.4,5.9-3.8c1.2-0.9,2.4-1.7,3.7-2.5c0.1,0,0.1,0,0.2,0.1c0,0.1,0,0.1-0.1,0.2c0,0,0,0,0,0c-1.3,0.8-2.5,1.6-3.6,2.5
			c-1.9,1.4-4,2.9-6,3.8c-2,0.9-4.1,1.5-6.2,1.8C92.1,59.1,91.8,59.1,91.5,59.2L91.5,59.2z"/>
		<path class="st47" d="M94.5,70.5c0.7,0.7,1.7,1.1,2.7,1.1c1.3,0,1.6-1.2,0.9-2.3c-0.6-0.9-2.1-2.1-3.2-1.6
			C93.6,68.3,93.6,69.6,94.5,70.5z"/>
		<path class="st14" d="M104.9,156.1c-0.8-7-2.5-17.9-3.9-26.8c0.8-1.5,2.9-4.5,2.9-4.5c1.9,6.7,6.1,31.7,0.1,65.6
			c-6.2,10-12.2,18.2-12.2,18.2l-0.8-12.9C96.8,184.8,106,165.8,104.9,156.1z"/>
		<path class="st13" d="M101.2,65.7c0.1,0.3,0.3,0.5,0.5,0.5s0.3-0.3,0.2-0.6c-0.1-0.3-0.3-0.5-0.5-0.5
			C101.2,65.2,101.1,65.4,101.2,65.7z"/>
		<path class="st13" d="M104.7,65c0.1,0.3,0.3,0.5,0.5,0.5s0.3-0.3,0.2-0.6c-0.1-0.3-0.3-0.5-0.5-0.5
			C104.7,64.4,104.6,64.7,104.7,65z"/>
		<path class="st50" d="M103.6,65.4c0.6,0.9,1.3,1.6,2.2,2.3c-0.4,0.4-0.9,0.6-1.4,0.6L103.6,65.4z"/>
		<path class="st13" d="M103,69.4c-0.6,0-1.3-0.2-1.8-0.6c0,0,0-0.1,0-0.1c0,0,0.1,0,0.1,0c0.6,0.5,1.5,0.7,2.3,0.5
			c0,0,0.1,0,0.1,0.1c0,0,0,0.1-0.1,0.1C103.5,69.4,103.2,69.4,103,69.4z"/>
		<path class="st13" d="M99.8,64.8C99.8,64.9,99.8,64.9,99.8,64.8c-0.2,0-0.2-0.1-0.2-0.2c0,0,0,0,0,0c0.2-0.5,0.7-0.9,1.3-1.1
			c0.1,0,0.2,0.1,0.2,0.2c0,0.1-0.1,0.2-0.2,0.2c0,0,0,0,0,0c-0.5,0.1-0.8,0.4-1,0.9C99.9,64.8,99.9,64.9,99.8,64.8z"/>
		<path class="st13" d="M105.9,63.4c-0.1,0-0.1,0-0.1-0.1c-0.3-0.4-0.8-0.6-1.2-0.6c-0.1,0-0.2-0.1-0.2-0.2c0-0.1,0.1-0.2,0.2-0.2
			c0.6,0,1.2,0.3,1.6,0.7c0.1,0.1,0.1,0.2,0,0.3C106,63.4,105.9,63.4,105.9,63.4z"/>
		<path class="st47" d="M91.6,101.3c-1.1-0.4-2.1-0.8-3-1.4c-0.2-0.1-0.4-0.3-0.6-0.5c0.2-1.1,0.6-2.3,0.9-3.4
			c0.3-1.2,0.8-2.3,1.2-3.5c0.4-1.2,0.9-2.3,1.4-3.5c0.2-0.6,0.5-1.1,0.7-1.7l0.8-1.7l-5.3-2.7c-0.4,0.7-0.6,1.2-0.9,1.9
			s-0.5,1.2-0.8,1.9c-0.5,1.3-1,2.5-1.4,3.8c-0.9,2.6-1.5,5.4-1.9,8.1v0.1V99c0,0.2,0,0.4,0,0.6c0,0.4,0.1,0.8,0.2,1.1
			c0.2,0.7,0.5,1.3,1,1.8c0.7,0.7,1.5,1.3,2.3,1.7c1.4,0.6,2.8,1.1,4.3,1.4c2.7,0.5,5.4,0.7,8.2,0.6l0.2-3
			C96.4,102.8,94,102.1,91.6,101.3z"/>
		<path class="st65" d="M100,214.7c-0.4,0-0.7-0.1-1.1-0.1c0,0-0.1,0-0.1-0.1c0,0,0-0.1,0-0.1c0.1-0.1,1.2-0.9,1.7-0.7
			c0.1,0,0.2,0.1,0.2,0.3c0,0.2,0,0.4-0.1,0.5C100.6,214.6,100.3,214.7,100,214.7z M99.2,214.4c0.7,0.1,1.2,0.1,1.4-0.1
			c0.1-0.1,0.1-0.2,0.1-0.3c0-0.1,0-0.1-0.1-0.1C100.3,213.8,99.6,214.2,99.2,214.4z"/>
		<path class="st65" d="M99,214.6C99,214.6,99,214.6,99,214.6C98.9,214.6,98.9,214.5,99,214.6c-0.1-0.1-0.2-1.2,0.2-1.6
			c0.1-0.1,0.2-0.1,0.4-0.1c0.2,0,0.3,0.1,0.3,0.3C100,213.5,99.4,214.3,99,214.6L99,214.6z M99.5,213c-0.1,0-0.1,0-0.2,0.1
			c-0.2,0.4-0.3,0.8-0.3,1.3c0.3-0.3,0.7-0.9,0.7-1.2C99.8,213,99.7,213,99.5,213L99.5,213z"/>
		<path class="st65" d="M90.3,212.5c-0.7-0.1-1.4-0.4-2-0.8c0,0-0.1-0.1,0-0.1c0,0,0-0.1,0.1-0.1c0.2,0,2.1-0.1,2.4,0.3
			c0.1,0.1,0.1,0.2,0.1,0.3c0,0.1-0.1,0.3-0.3,0.3C90.5,212.4,90.4,212.5,90.3,212.5z M88.7,211.7c0.9,0.5,1.5,0.7,1.8,0.5
			c0.1,0,0.2-0.1,0.2-0.2c0,0,0-0.1,0-0.1C90.5,211.7,89.5,211.7,88.7,211.7L88.7,211.7z"/>
		<path class="st65" d="M88.4,211.7C88.4,211.7,88.3,211.7,88.4,211.7c-0.1-0.1-0.1-0.1-0.1-0.1c0-0.1,0.7-1.5,1.6-1.1
			c0.2,0.1,0.3,0.3,0.2,0.4C90.1,211.3,89,211.7,88.4,211.7L88.4,211.7z M89.6,210.6c-0.5,0-0.9,0.6-1.1,0.9
			c0.6-0.1,1.4-0.4,1.5-0.7c0-0.1,0-0.1-0.2-0.2C89.8,210.6,89.7,210.6,89.6,210.6z"/>
		<path class="st47" d="M98.2,103.3l3.2-0.9l0.4,4.1c0,0-3.2,1-4-0.7L98.2,103.3z"/>
		<path class="st47" d="M98.2,103.4c0.7-0.7,1.1-1.7,1.1-2.7l0.8,0.5c0,0,0.2,1.8-0.2,2.4C99.7,104,98.2,103.4,98.2,103.4z"/>
		<polygon class="st47" points="103,102.8 102.8,106.5 101.9,106.5 101.5,102.4 		"/>
		<polygon class="st65" points="86.3,203.4 92.2,208.9 94.1,206.9 87.4,200.7 		"/>
		<path class="st26" d="M104.8,114.2c0,0,0.4,30.1-0.3,41.4c-0.7,12.4-4.2,53.3-4.2,53.3h-7.2c0,0,0.2-39.9-0.2-52.2
			c-0.5-13.3-1.7-42.5-1.7-42.5L104.8,114.2z"/>
		<polygon class="st65" points="92.9,208.9 100.7,208.9 101.1,206.2 92.5,206.6 		"/>
		<path class="st63" d="M88.8,79.9c-3.7,0.5-7.5,14.2-7.5,14.2l9,3.4c0,0,2.3-5.8,3.8-10.4C95.7,82.3,92.8,79.4,88.8,79.9z"/>
	</g>
</g>
</svg>
