<?xml version="1.0" encoding="utf-8"?>
<!-- Generator: Adobe Illustrator 23.0.5, SVG Export Plug-In . SVG Version: 6.00 Build 0)  -->
<svg version="1.1" id="Layer_1" xmlns="http://www.w3.org/2000/svg" xmlns:xlink="http://www.w3.org/1999/xlink" x="0px" y="0px"
	 viewBox="0 0 690 250" style="enable-background:new 0 0 690 250;" xml:space="preserve">
<style type="text/css">
	.st0{fill:#1A66B1;}
	.st1{fill:#ED272A;}
	.st2{clip-path:url(#SVGID_2_);}
	.st3{clip-path:url(#SVGID_4_);}
	.st4{clip-path:url(#SVGID_6_);}
	.st5{clip-path:url(#SVGID_8_);}
	.st6{fill:#EBEBEB;}
	.st7{fill:#DBDBDB;}
	.st8{fill:#FFFFFF;}
	.st9{opacity:0.1;}
	.st10{fill:#C7C7C7;}
	.st11{fill:#FFEC66;}
	.st12{opacity:0.1;enable-background:new    ;}
	.st13{fill:#F7A9A0;}
	.st14{fill:#37474F;}
	.st15{fill:#263238;}
	.st16{fill:#455A64;}
	.st17{fill:#FF9ABB;}
	.st18{font-family:'Montserrat-ExtraBold';}
	.st19{font-size:12.7442px;}
	.st20{font-family:'Montserrat-Medium';}
	.st21{font-size:10.9236px;}
	.st22{font-size:17.8144px;}
</style>
<g>
	<g id="freepik--background-complete--inject-44">
		<path class="st6" d="M219.4,98.3c-16.3,0-16.3,23.2,0,23.2S235.7,98.3,219.4,98.3z"/>
		<path class="st7" d="M229.3,112.1c-0.9,4-4.2,7.4-9.9,7.4c-13.5,0-13.5-19.2,0-19.2h0.3c-12.7,0.2-12.7,18.4,0.2,18.4
			C225.2,118.8,228.3,115.7,229.3,112.1z"/>
		<path class="st7" d="M219.5,102.8c0.2,0,0.4,0.2,0.4,0.4v0.6c1.1,0.1,2.2,0.5,3.1,1.1c0.2,0.1,0.2,0.2,0.2,0.4
			c0,0.2-0.2,0.4-0.5,0.4c-0.1,0-0.2,0-0.3-0.1c-0.8-0.6-1.7-0.9-2.6-1v4.5c2.7,0.5,3.8,1.4,3.8,3c0,1.7-1.6,2.9-3.8,3v1.2
			c-0.1,0.2-0.3,0.4-0.5,0.3c-0.2,0-0.3-0.2-0.3-0.3v-1.3c-1.5-0.1-2.8-0.6-4-1.6c-0.1-0.1-0.2-0.2-0.2-0.3c0-0.2,0.2-0.4,0.4-0.4
			c0.1,0,0.2,0,0.3,0.1c1,0.8,2.2,1.4,3.4,1.5v-4.6c-2.6-0.5-3.7-1.4-3.7-3c0-1.6,1.6-2.9,3.7-2.9v-0.6
			C219.1,103,219.3,102.8,219.5,102.8z M219.1,109v-4.4c-1.7,0-2.8,1-2.8,2.1C216.3,107.9,216.8,108.5,219.1,109z M219.9,110v4.5
			c1.8,0,2.9-1,2.9-2.2C222.8,111.1,222.2,110.4,219.9,110L219.9,110z"/>
		<path class="st6" d="M109.8,76.1c-16.3,0-16.3,23.2,0,23.2S126.1,76.1,109.8,76.1z"/>
		<path class="st7" d="M119.7,89.8c-0.9,4-4.2,7.4-9.9,7.4c-13.5,0-13.5-19.2,0-19.2h0.3c-12.7,0.2-12.7,18.4,0.2,18.4
			C115.6,96.5,118.7,93.5,119.7,89.8z"/>
		<path class="st7" d="M109.9,80.6c0.2,0,0.4,0.2,0.4,0.4v0.6c1.1,0.1,2.2,0.5,3.1,1.1c0.2,0.1,0.2,0.2,0.2,0.4
			c0,0.2-0.2,0.4-0.5,0.4c-0.1,0-0.2,0-0.3-0.1c-0.8-0.6-1.7-0.9-2.6-1v4.5c2.7,0.5,3.8,1.4,3.8,3c0,1.7-1.6,2.9-3.8,3v1.3
			c0,0.2-0.2,0.4-0.4,0.4c-0.2,0-0.4-0.2-0.4-0.4v-1.3c-1.5-0.1-2.8-0.6-4-1.6c-0.1-0.1-0.2-0.2-0.2-0.3c0-0.2,0.2-0.4,0.4-0.4
			c0.1,0,0.2,0,0.3,0.1c1,0.8,2.2,1.4,3.4,1.5v-4.6c-2.6-0.5-3.7-1.4-3.7-3c0-1.6,1.6-2.9,3.7-2.9V81
			C109.5,80.8,109.7,80.6,109.9,80.6z M109.5,86.7v-4.4c-1.7,0-2.8,1-2.8,2.1C106.7,85.5,107.2,86.2,109.5,86.7z M110.3,87.7v4.5
			c1.8,0,2.9-1,2.9-2.2C113.2,88.9,112.6,88.2,110.3,87.7z"/>
		<path class="st7" d="M62.8,85.8c-14.7,2.6-10.8,24.4,3.9,21.7S77.5,83.1,62.8,85.8z"/>
		<path class="st6" d="M64.2,85.5c-14,2.5-10.1,24.2,3.9,21.7S78.2,83,64.2,85.5z"/>
		<path class="st7" d="M75,96.9c-0.1,3.9-2.3,7.6-7.3,8.5c-11.6,2.1-14.8-16-3.2-18l0.2,0c-10.9,2.2-7.8,19.3,3.3,17.3
			C72.6,103.8,74.8,100.5,75,96.9z"/>
		<path class="st7" d="M65,89.7c0.2,0,0.4,0.1,0.4,0.3c0,0,0,0,0,0l0.1,0.6c1-0.1,2,0.1,2.9,0.6c0.2,0.1,0.2,0.2,0.3,0.3
			c0,0.2-0.1,0.4-0.3,0.4c-0.1,0-0.2,0-0.3-0.1c-0.7-0.4-1.6-0.6-2.4-0.6l0.8,4.2c2.4,0.1,3.5,0.8,3.8,2.2c0.3,1.6-0.9,3-2.7,3.4
			l0.2,1.2c0,0.2-0.1,0.4-0.3,0.4c-0.2,0-0.4-0.1-0.4-0.3l0,0l-0.2-1.2c-1.3,0.1-2.6-0.2-3.7-0.9c-0.2-0.1-0.3-0.3-0.2-0.5
			c0.1-0.1,0.2-0.2,0.3-0.2c0.1,0,0.2,0,0.3,0.1c0.9,0.6,2.1,0.9,3.2,0.8l-0.8-4.3c-2.4-0.1-3.5-0.8-3.7-2.3
			c-0.3-1.5,0.9-2.9,2.7-3.3l-0.1-0.6C64.7,90,64.9,89.8,65,89.7z M65.7,95.6L65,91.4c-1.5,0.3-2.3,1.3-2.1,2.4
			C63.1,94.9,63.7,95.4,65.7,95.6L65.7,95.6z M66.6,96.4l0.7,4.2c1.5-0.3,2.3-1.4,2.1-2.5C69.3,97,68.6,96.5,66.6,96.4L66.6,96.4z"
			/>
		<path class="st7" d="M191.3,124.5c-12.6,2.3-9.3,20.9,3.3,18.6C207.3,140.8,203.9,122.2,191.3,124.5z"/>
		<path class="st6" d="M192.5,124.3c-12,2.2-8.7,20.8,3.3,18.6C207.9,140.7,204.5,122.1,192.5,124.3z"/>
		<path class="st7" d="M201.8,134c-0.1,3.3-2,6.5-6.2,7.3c-10,1.8-12.7-13.7-2.8-15.5l0.2,0c-9.3,1.9-6.7,16.5,2.8,14.8
			C199.7,139.9,201.6,137.1,201.8,134z"/>
		<path class="st7" d="M194.9,127.9c0.2,0,0.3,0.2,0.3,0.4l-0.1,0.5c0.8,0.2,1.6,0.6,2.2,1.2c0.1,0.1,0.2,0.2,0.1,0.3
			c0,0.2-0.2,0.3-0.4,0.3c-0.1,0-0.2-0.1-0.2-0.1c-0.5-0.5-1.1-0.9-1.9-1.1l-0.4,3.7c1.9,0.6,2.7,1.5,2.5,2.8
			c-0.2,1.4-1.4,2.2-3.1,2.1l-0.1,1c0,0.2-0.2,0.3-0.4,0.3c-0.2,0-0.3-0.2-0.3-0.4l0.1-1c-1.1-0.2-2.1-0.8-2.8-1.6
			c-0.1-0.1-0.1-0.2-0.1-0.3c0-0.2,0.2-0.3,0.4-0.3c0.1,0,0.2,0.1,0.2,0.1c0.6,0.8,1.5,1.3,2.4,1.5l0.4-3.7
			c-1.9-0.7-2.6-1.5-2.5-2.8c0.2-1.3,1.4-2.2,3-2l0.1-0.5C194.6,128,194.7,127.9,194.9,127.9z M194,132.8l0.4-3.6
			c-1.3-0.1-2.2,0.5-2.3,1.5C192,131.7,192.4,132.2,194,132.8L194,132.8z M194.5,133.7l-0.4,3.6c1.3,0.1,2.3-0.5,2.4-1.5
			C196.6,134.9,196.2,134.2,194.5,133.7L194.5,133.7z"/>
		<path class="st6" d="M116.9,186.4c-2.3,3.3-1.9,13.4-3.3,14.8c-1.4,1.4-15.9,1.3-16.9,0.4c-1-0.8-0.5-4.4-1.6-5
			C94.6,196.4,116.9,186.4,116.9,186.4z"/>
		<path class="st6" d="M54.8,186.5c2.9,4.2,1.3,13.2,2.8,14.7c1.4,1.4,15.9,1.3,16.9,0.4c1-0.8,0.5-4.6,1.1-5.3
			C75.9,195.9,54.8,186.5,54.8,186.5z"/>
		<path class="st7" d="M95.1,196.6c0.3,0.3,0.6,0.6,0.6,1.1c6.7-0.8,13.3-2.5,19.5-5.2c0.3-2.5,0.8-4.8,1.7-6.1
			C116.9,186.4,94.6,196.4,95.1,196.6z"/>
		<path class="st7" d="M54.8,186.5c1.1,1.6,1.6,3.8,1.8,6.1c5.9,2.6,12.2,4.4,18.7,5.2c0-0.5,0.1-1,0.3-1.5
			C75.9,195.9,54.8,186.5,54.8,186.5z"/>
		<path class="st6" d="M86.8,125.3c29.2,0,40.4,22.9,40.4,36.3c0,13.2-8.5,35.7-40.4,35.7s-42.5-19-42.5-36S57.3,125.3,86.8,125.3z"
			/>
		<path class="st6" d="M78.6,126.9c0,0-13.3-10.2-27.8-9c-5,0.4,3.3,11.2,3.4,19.6L78.6,126.9z"/>
		<path class="st7" d="M59.8,133.4c0.1,0.5-4.5,2.5-5,2.2s-1-6.9-4.7-14C49.5,120.6,58.9,127.7,59.8,133.4z"/>
		<path class="st6" d="M119.6,146.9c-0.2-0.9-0.3-1.7-0.4-2.6c-0.1-0.9-0.1-1.7-0.1-2.6c0-0.9,0.1-1.8,0.2-2.7c0.2-1,0.6-2,1.2-2.8
			c0.4-0.5,0.9-0.9,1.5-1.1c0.3-0.1,0.6-0.2,0.9-0.2c0.3,0,0.6-0.1,0.9,0c1,0.1,2,0.5,2.9,1.2c0.7,0.6,1.3,1.3,1.8,2.1
			c0.5,0.8,0.8,1.7,1,2.6c0.1,0.6,0.1,1.1-0.1,1.7c-0.1,0.3-0.4,0.6-0.7,0.8c-0.3,0.2-0.6,0.3-1,0.3c-0.4,0-0.7-0.1-1-0.2
			c-0.3-0.2-0.5-0.4-0.7-0.6c-0.3-0.4-0.4-0.9-0.5-1.4c-0.1-0.9-0.1-1.8,0-2.6c0.1-0.9,0.4-1.7,0.9-2.4c0.3-0.4,0.6-0.7,1-0.9
			c0.4-0.2,0.9-0.3,1.4-0.2c0.8,0.2,1.6,0.6,2.2,1.3c1.1,1.2,2,2.6,2.6,4.1c-0.7-1.4-1.7-2.7-2.9-3.8c-0.5-0.5-1.2-0.9-2-1
			c-0.7,0-1.3,0.4-1.6,1c-0.3,0.7-0.5,1.4-0.6,2.1c-0.1,0.7,0,1.5,0.2,2.2c0.1,0.3,0.2,0.6,0.4,0.9c0.1,0.1,0.1,0.1,0.2,0.2
			c0.1,0,0.1,0,0.2,0c0.1,0,0.2-0.1,0.2-0.1c0,0,0-0.1,0-0.1c0-0.2,0-0.5-0.1-0.7c-0.4-1.3-1.3-2.5-2.4-3.2c-0.5-0.3-1-0.5-1.6-0.5
			c-0.1,0-0.2,0-0.4,0.1c-0.1,0-0.2,0.1-0.3,0.1c-0.2,0.1-0.3,0.2-0.4,0.4c-0.3,0.5-0.4,1.1-0.5,1.7c-0.1,0.7-0.1,1.4,0,2.2
			c0.1,0.8,0.2,1.5,0.3,2.2c0.1,0.7,0.3,1.5,0.5,2.2L119.6,146.9z"/>
		<path class="st7" d="M55.2,153.6c0-0.1,0.2,0.2,0.1,0.3c-0.6,2.5-1,5.5,1.1,6.8c0.1,0,0,0.2-0.1,0.1
			C53.8,159.8,54.2,155.9,55.2,153.6z"/>
		<path class="st7" d="M58.1,151.5c4.1,0.6,2.6,8.8-1.2,8.2C53.1,159.1,54.6,151,58.1,151.5z"/>
		<path class="st6" d="M47.1,148c-0.6,1.9-6.4,0.4-7.9,1.6c-2.3,1.9-1.7,25.6,0.4,27.5c1.2,1.1,7.8-0.1,9.6,1.2
			C51,179.6,47.1,148,47.1,148z"/>
		<ellipse class="st7" cx="39.9" cy="162.8" rx="1.1" ry="10.4"/>
		<path class="st7" d="M98.2,132.9c-0.1,0-10-3.2-19.1-0.7l-0.9-3.3c10.2-2.8,20.7,0.6,21.1,0.8L98.2,132.9l0.5-1.6L98.2,132.9z"/>
		<path class="st8" d="M111.8,183.1c13.2-15.1,5.1-32.7,4.8-33.4c-0.5-1.1-0.1-2.4,1-2.9c1.1-0.5,2.4-0.1,2.9,1
			c1.8,4,2.8,8.3,3.1,12.6c0.6,9.6-2.5,18.5-10.1,24.5C111.2,186.7,110.1,185.1,111.8,183.1z"/>
		<path class="st8" d="M117.6,143c0,1.3-1.1,2.4-2.4,2.4s-2.4-1.1-2.4-2.4s1.1-2.4,2.4-2.4S117.6,141.7,117.6,143L117.6,143z"/>
	</g>
	<g id="freepik--Shadows--inject-44">
		<ellipse class="st6" cx="164.9" cy="226.4" rx="55.8" ry="8"/>
		<path class="st6" d="M132.2,219.1c0,3.2-13.4,5.7-29.8,5.7s-29.8-2.6-29.8-5.7c0-3.2,13.4-5.7,29.8-5.7S132.2,215.9,132.2,219.1z"
			/>
	</g>
	<g id="freepik--Chart--inject-44">
		<rect x="230.9" y="145.5" class="st1" width="17.5" height="56.9"/>
		<g class="st9">
			<rect x="244.4" y="145.5" width="4" height="56.9"/>
		</g>
		<rect x="253.9" y="127" class="st1" width="17.5" height="75.4"/>
		<g class="st9">
			<rect x="267.4" y="127" width="4" height="75.4"/>
		</g>
		<rect x="208" y="156.6" class="st1" width="17.5" height="45.9"/>
		<g class="st9">
			<rect x="221.4" y="156.6" width="4" height="45.9"/>
		</g>
		<rect x="276.9" y="102.4" class="st1" width="17.5" height="100"/>
		<g class="st9">
			<rect x="290.4" y="102.4" width="4" height="100"/>
		</g>
		<path class="st10" d="M208,172.8V164c0,0,59.4-5.1,83.4-70.9h2.5C293.9,93.1,277.8,161.2,208,172.8z"/>
		<polygon class="st10" points="296,95.9 288.5,93.5 294.7,87.3 		"/>
	</g>
	<g id="freepik--Coins--inject-44">
		<rect x="176.4" y="220.6" class="st11" width="27.3" height="6"/>
		<g class="st9">
			<path d="M177.6,221.1c0.3,1.6,0.3,3.2,0,4.8C177.3,224.4,177.3,222.7,177.6,221.1z"/>
			<path d="M179.6,221.1c0.3,1.6,0.3,3.2,0,4.8C179.3,224.4,179.3,222.7,179.6,221.1z"/>
			<path d="M180.6,221.1c0.3,1.6,0.3,3.2,0,4.8c-0.2-0.8-0.2-1.6-0.2-2.4C180.4,222.7,180.4,221.9,180.6,221.1z"/>
			<path d="M186,221.1c0.3,1.6,0.3,3.2,0,4.8C185.7,224.4,185.7,222.7,186,221.1z"/>
			<path d="M187.5,221.1c0.2,0.8,0.2,1.6,0.2,2.4c0,0.8-0.1,1.6-0.2,2.4c-0.2-0.8-0.2-1.6-0.2-2.4
				C187.3,222.7,187.4,221.9,187.5,221.1z"/>
			<path d="M193.6,221.1c0.2,0.8,0.2,1.6,0.2,2.4c0,0.8-0.1,1.6-0.2,2.4c-0.2-0.8-0.2-1.6-0.2-2.4
				C193.4,222.7,193.5,221.9,193.6,221.1z"/>
			<path d="M195,221.1c0.2,0.8,0.2,1.6,0.2,2.4c0,0.8-0.1,1.6-0.2,2.4c-0.2-0.8-0.2-1.6-0.2-2.4C194.8,222.7,194.9,221.9,195,221.1z
				"/>
			<path d="M197.6,221.1c0.2,0.8,0.2,1.6,0.2,2.4c0,0.8-0.1,1.6-0.2,2.4c-0.2-0.8-0.2-1.6-0.2-2.4
				C197.4,222.7,197.4,221.9,197.6,221.1z"/>
			<path d="M192.4,221.1c0.2,0.8,0.2,1.6,0.2,2.4c0,0.8-0.1,1.6-0.2,2.4c-0.2-0.8-0.2-1.6-0.2-2.4
				C192.2,222.7,192.3,221.9,192.4,221.1z"/>
			<path d="M182.4,221.1c0.3,1.6,0.3,3.2,0,4.8C182.1,224.4,182.1,222.7,182.4,221.1z"/>
			<path d="M189.5,221.1c0.3,1.6,0.3,3.2,0,4.8C189.2,224.4,189.2,222.7,189.5,221.1z"/>
			<path d="M190.5,221.1c0.2,0.8,0.2,1.6,0.2,2.4c0,0.8-0.1,1.6-0.2,2.4c-0.2-0.8-0.2-1.6-0.2-2.4
				C190.2,222.7,190.3,221.9,190.5,221.1z"/>
			<path d="M201,221.1c0.2,0.8,0.2,1.6,0.2,2.4c0,0.8-0.1,1.6-0.2,2.4c-0.2-0.8-0.2-1.6-0.2-2.4C200.7,222.7,200.8,221.9,201,221.1z
				"/>
			<path d="M202.5,221.1c0.2,0.8,0.2,1.6,0.2,2.4c0,0.8-0.1,1.6-0.2,2.4c-0.2-0.8-0.2-1.6-0.2-2.4
				C202.3,222.7,202.3,221.9,202.5,221.1z"/>
			<path d="M198.8,221.1c0.2,0.8,0.2,1.6,0.2,2.4c0,0.8-0.1,1.6-0.2,2.4c-0.2-0.8-0.2-1.6-0.2-2.4
				C198.6,222.7,198.6,221.9,198.8,221.1z"/>
			<path d="M184.9,221.1c0.3,1.6,0.3,3.2,0,4.8c-0.2-0.8-0.2-1.6-0.2-2.4C184.6,222.7,184.7,221.9,184.9,221.1z"/>
		</g>
		<polygon class="st12" points="203.7,220.6 203.7,221.9 176.4,222.7 176.4,220.6 		"/>
		<rect x="174.2" y="214.6" class="st11" width="27.3" height="6"/>
		<g class="st9">
			<path d="M200.2,219.9c-0.3-1.6-0.3-3.2,0-4.8C200.5,216.7,200.5,218.3,200.2,219.9z"/>
			<path d="M198.2,219.9c-0.3-1.6-0.3-3.2,0-4.8C198.5,216.7,198.5,218.3,198.2,219.9z"/>
			<path d="M197.2,219.9c-0.2-0.8-0.2-1.6-0.2-2.4c0-0.8,0.1-1.6,0.2-2.4c0.2,0.8,0.2,1.6,0.2,2.4
				C197.4,218.3,197.3,219.1,197.2,219.9z"/>
			<path d="M191.7,219.9c-0.3-1.6-0.3-3.2,0-4.8C192,216.7,192,218.3,191.7,219.9z"/>
			<path d="M190.3,219.9c-0.2-0.8-0.2-1.6-0.2-2.4c0-0.8,0.1-1.6,0.2-2.4c0.2,0.8,0.2,1.6,0.2,2.4
				C190.5,218.3,190.4,219.1,190.3,219.9z"/>
			<path d="M184.2,219.9c-0.2-0.8-0.2-1.6-0.2-2.4c0-0.8,0.1-1.6,0.2-2.4c0.2,0.8,0.2,1.6,0.2,2.4
				C184.4,218.3,184.3,219.1,184.2,219.9z"/>
			<path d="M182.8,219.9c-0.2-0.8-0.2-1.6-0.2-2.4c0-0.8,0.1-1.6,0.2-2.4c0.2,0.8,0.2,1.6,0.2,2.4
				C183,218.3,182.9,219.1,182.8,219.9z"/>
			<path d="M180.2,219.9c-0.2-0.8-0.2-1.6-0.2-2.4c0-0.8,0.1-1.6,0.2-2.4c0.2,0.8,0.2,1.6,0.2,2.4
				C180.4,218.3,180.3,219.1,180.2,219.9z"/>
			<path d="M185.4,219.9c-0.2-0.8-0.2-1.6-0.2-2.4c0-0.8,0.1-1.6,0.2-2.4C185.6,216.7,185.6,218.3,185.4,219.9z"/>
			<path d="M195.4,219.9c-0.3-1.6-0.3-3.2,0-4.8C195.7,216.7,195.7,218.3,195.4,219.9z"/>
			<path d="M188.3,219.9c-0.3-1.6-0.3-3.2,0-4.8C188.6,216.7,188.6,218.3,188.3,219.9z"/>
			<path d="M187.3,219.9c-0.2-0.8-0.2-1.6-0.2-2.4c0-0.8,0.1-1.6,0.2-2.4C187.6,216.7,187.6,218.3,187.3,219.9z"/>
			<path d="M176.8,219.9c-0.2-0.8-0.2-1.6-0.2-2.4c0-0.8,0.1-1.6,0.2-2.4C177.1,216.7,177.1,218.3,176.8,219.9z"/>
			<path d="M175.3,219.9c-0.2-0.8-0.2-1.6-0.2-2.4c0-0.8,0.1-1.6,0.2-2.4c0.2,0.8,0.2,1.6,0.2,2.4
				C175.5,218.3,175.4,219.1,175.3,219.9z"/>
			<path d="M179,219.9c-0.2-0.8-0.2-1.6-0.2-2.4c0-0.8,0.1-1.6,0.2-2.4C179.3,216.7,179.3,218.3,179,219.9z"/>
			<path d="M192.9,219.9c-0.2-0.8-0.2-1.6-0.2-2.4c0-0.8,0.1-1.6,0.2-2.4c0.2,0.8,0.2,1.6,0.2,2.4
				C193.1,218.3,193.1,219.1,192.9,219.9z"/>
		</g>
		<polygon class="st12" points="201.4,214.6 201.4,215.8 174.2,216.7 174.2,214.6 		"/>
		<rect x="176.3" y="208.6" class="st11" width="27.3" height="6"/>
		<g class="st9">
			<path d="M177.4,209.1c0.3,1.6,0.3,3.2,0,4.8C177.1,212.4,177.1,210.7,177.4,209.1z"/>
			<path d="M179.4,209.1c0.3,1.6,0.3,3.2,0,4.8C179.1,212.4,179.1,210.7,179.4,209.1z"/>
			<path d="M180.4,209.1c0.3,1.6,0.3,3.2,0,4.8C180.1,212.4,180.1,210.7,180.4,209.1z"/>
			<path d="M185.9,209.1c0.3,1.6,0.3,3.2,0,4.8C185.6,212.4,185.6,210.7,185.9,209.1z"/>
			<path d="M187.3,209.1c0.3,1.6,0.3,3.2,0,4.8C187,212.4,187,210.7,187.3,209.1z"/>
			<path d="M193.4,209.1c0.3,1.6,0.3,3.2,0,4.8C193.1,212.4,193.1,210.7,193.4,209.1z"/>
			<path d="M194.8,209.1c0.3,1.6,0.3,3.2,0,4.8C194.5,212.4,194.5,210.7,194.8,209.1z"/>
			<path d="M197.4,209.1c0.3,1.6,0.3,3.2,0,4.8C197.1,212.4,197.1,210.7,197.4,209.1z"/>
			<path d="M192.3,209.1c0.3,1.6,0.3,3.2,0,4.8c-0.2-0.8-0.2-1.6-0.2-2.4C192,210.7,192.1,209.9,192.3,209.1z"/>
			<path d="M182.2,209.1c0.2,0.8,0.2,1.6,0.2,2.4c0,0.8-0.1,1.6-0.2,2.4C181.9,212.4,181.9,210.7,182.2,209.1z"/>
			<path d="M189.3,209.1c0.3,1.6,0.3,3.2,0,4.8C189,212.4,189,210.7,189.3,209.1z"/>
			<path d="M190.3,209.1c0.3,1.6,0.3,3.2,0,4.8c-0.2-0.8-0.2-1.6-0.2-2.4C190.1,210.7,190.1,209.9,190.3,209.1z"/>
			<path d="M200.8,209.1c0.3,1.6,0.3,3.2,0,4.8C200.5,212.4,200.5,210.7,200.8,209.1z"/>
			<path d="M202.3,209.1c0.3,1.6,0.3,3.2,0,4.8C202,212.4,202,210.7,202.3,209.1z"/>
			<path d="M198.6,209.1c0.3,1.6,0.3,3.2,0,4.8c-0.2-0.8-0.2-1.6-0.2-2.4C198.4,210.7,198.5,209.9,198.6,209.1z"/>
			<path d="M184.7,209.1c0.3,1.6,0.3,3.2,0,4.8C184.4,212.4,184.4,210.7,184.7,209.1z"/>
		</g>
		<polygon class="st12" points="203.5,208.6 203.5,209.9 176.3,210.7 176.3,208.6 		"/>
		<rect x="95.2" y="213.2" class="st11" width="27.3" height="6"/>
		<g class="st9">
			<path d="M96.3,213.7c0.3,1.6,0.3,3.2,0,4.8C96.1,217,96.1,215.3,96.3,213.7z"/>
			<path d="M98.4,213.7c0.3,1.6,0.3,3.2,0,4.8C98.1,217,98.1,215.3,98.4,213.7z"/>
			<path d="M99.4,213.7c0.3,1.6,0.3,3.2,0,4.8C99.1,217,99.1,215.3,99.4,213.7z"/>
			<path d="M104.8,213.7c0.3,1.6,0.3,3.2,0,4.8C104.5,217,104.5,215.3,104.8,213.7z"/>
			<path d="M106.3,213.7c0.3,1.6,0.3,3.2,0,4.8c-0.2-0.8-0.2-1.6-0.2-2.4C106.1,215.3,106.1,214.5,106.3,213.7z"/>
			<path d="M112.4,213.7c0.3,1.6,0.3,3.2,0,4.8c-0.2-0.8-0.2-1.6-0.2-2.4C112.1,215.3,112.2,214.5,112.4,213.7z"/>
			<path d="M113.8,213.7c0.2,0.8,0.2,1.6,0.2,2.4c0,0.8-0.1,1.6-0.2,2.4c-0.2-0.8-0.2-1.6-0.2-2.4
				C113.6,215.3,113.6,214.5,113.8,213.7z"/>
			<path d="M116.4,213.7c0.2,0.8,0.2,1.6,0.2,2.4c0,0.8-0.1,1.6-0.2,2.4c-0.2-0.8-0.2-1.6-0.2-2.4
				C116.1,215.3,116.2,214.5,116.4,213.7z"/>
			<path d="M111.2,213.7c0.2,0.8,0.2,1.6,0.2,2.4c0,0.8-0.1,1.6-0.2,2.4c-0.2-0.8-0.2-1.6-0.2-2.4C111,215.3,111,214.5,111.2,213.7z
				"/>
			<path d="M101.2,213.7c0.3,1.6,0.3,3.2,0,4.8C100.9,216.9,100.9,215.3,101.2,213.7L101.2,213.7z"/>
			<path d="M108.2,213.7c0.3,1.6,0.3,3.2,0,4.8C107.9,217,107.9,215.3,108.2,213.7z"/>
			<path d="M109.2,213.7c0.2,0.8,0.2,1.6,0.2,2.4c0,0.8-0.1,1.6-0.2,2.4c-0.2-0.8-0.2-1.6-0.2-2.4
				C109,215.3,109.1,214.5,109.2,213.7z"/>
			<path d="M119.7,213.7c0.2,0.8,0.2,1.6,0.2,2.4c0,0.8-0.1,1.6-0.2,2.4c-0.2-0.8-0.2-1.6-0.2-2.4
				C119.5,215.3,119.6,214.5,119.7,213.7z"/>
			<path d="M121.3,213.7c0.3,1.6,0.3,3.2,0,4.8C121,217,121,215.3,121.3,213.7z"/>
			<path d="M117.6,213.7c0.2,0.8,0.2,1.6,0.2,2.4c0,0.8-0.1,1.6-0.2,2.4c-0.2-0.8-0.2-1.6-0.2-2.4
				C117.3,215.3,117.4,214.5,117.6,213.7z"/>
			<path d="M103.6,213.7c0.3,1.6,0.3,3.2,0,4.8C103.3,217,103.3,215.3,103.6,213.7z"/>
		</g>
		<polygon class="st12" points="122.5,213.2 122.5,214.5 95.2,215.3 95.2,213.2 		"/>
		<rect x="93.3" y="207.2" class="st11" width="27.3" height="6"/>
		<g class="st9">
			<path d="M94.5,207.7c0.3,1.6,0.3,3.2,0,4.8c-0.2-0.8-0.2-1.6-0.2-2.4C94.2,209.3,94.3,208.5,94.5,207.7z"/>
			<path d="M96.5,207.7c0.3,1.6,0.3,3.2,0,4.8c-0.2-0.8-0.2-1.6-0.2-2.4C96.3,209.3,96.4,208.5,96.5,207.7z"/>
			<path d="M97.5,207.7c0.2,0.8,0.2,1.6,0.2,2.4c0,0.8-0.1,1.6-0.2,2.4c-0.2-0.8-0.2-1.6-0.2-2.4C97.3,209.3,97.3,208.5,97.5,207.7z
				"/>
			<path d="M102.9,207.7c0.3,1.6,0.3,3.2,0,4.8C102.7,210.9,102.7,209.3,102.9,207.7z"/>
			<path d="M104.4,207.7c0.2,0.8,0.2,1.6,0.2,2.4c0,0.8-0.1,1.6-0.2,2.4c-0.2-0.8-0.2-1.6-0.2-2.4
				C104.2,209.3,104.3,208.5,104.4,207.7z"/>
			<path d="M110.5,207.7c0.2,0.8,0.2,1.6,0.2,2.4c0,0.8-0.1,1.6-0.2,2.4c-0.2-0.8-0.2-1.6-0.2-2.4
				C110.3,209.3,110.4,208.5,110.5,207.7z"/>
			<path d="M111.9,207.7c0.3,1.6,0.3,3.2,0,4.8C111.6,210.9,111.6,209.3,111.9,207.7z"/>
			<path d="M114.5,207.7c0.2,0.8,0.2,1.6,0.2,2.4c0,0.8-0.1,1.6-0.2,2.4C114.2,210.9,114.2,209.3,114.5,207.7z"/>
			<path d="M109.3,207.7c0.3,1.6,0.3,3.2,0,4.8C109,210.9,109,209.3,109.3,207.7z"/>
			<path d="M99.3,207.7c0.3,1.6,0.3,3.2,0,4.8C99,210.9,99,209.3,99.3,207.7z"/>
			<path d="M106.4,207.7c0.3,1.6,0.3,3.2,0,4.8c-0.2-0.8-0.2-1.6-0.2-2.4C106.1,209.3,106.2,208.5,106.4,207.7z"/>
			<path d="M107.4,207.7c0.3,1.6,0.3,3.2,0,4.8C107.1,210.9,107.1,209.3,107.4,207.7z"/>
			<path d="M117.9,207.7c0.3,1.6,0.3,3.2,0,4.8C117.6,210.9,117.6,209.3,117.9,207.7z"/>
			<path d="M119.4,207.7c0.2,0.8,0.2,1.6,0.2,2.4c0,0.8-0.1,1.6-0.2,2.4c-0.2-0.8-0.2-1.6-0.2-2.4
				C119.2,209.3,119.2,208.5,119.4,207.7z"/>
			<path d="M115.7,207.7c0.3,1.6,0.3,3.2,0,4.8C115.4,210.9,115.4,209.3,115.7,207.7z"/>
			<path d="M101.8,207.7c0.2,0.8,0.2,1.6,0.2,2.4c0,0.8-0.1,1.6-0.2,2.4c-0.2-0.8-0.2-1.6-0.2-2.4
				C101.5,209.3,101.6,208.5,101.8,207.7z"/>
		</g>
		<polygon class="st12" points="120.6,207.2 120.6,208.4 93.3,209.3 93.3,207.2 		"/>
		<rect x="97.6" y="195.2" class="st11" width="27.3" height="6"/>
		<g class="st9">
			<path d="M98.7,195.7c0.3,1.6,0.3,3.2,0,4.8C98.4,198.9,98.4,197.3,98.7,195.7z"/>
			<path d="M100.7,195.7c0.3,1.6,0.3,3.2,0,4.8C100.4,198.9,100.4,197.3,100.7,195.7z"/>
			<path d="M101.7,195.7c0.2,0.8,0.2,1.6,0.2,2.4c0,0.8-0.1,1.6-0.2,2.4c-0.2-0.8-0.2-1.6-0.2-2.4
				C101.5,197.3,101.6,196.5,101.7,195.7z"/>
			<path d="M107.2,195.7c0.3,1.6,0.3,3.2,0,4.8C106.9,198.9,106.9,197.3,107.2,195.7z"/>
			<path d="M108.6,195.7c0.2,0.8,0.2,1.6,0.2,2.4c0,0.8-0.1,1.6-0.2,2.4c-0.2-0.8-0.2-1.6-0.2-2.4
				C108.4,197.3,108.5,196.5,108.6,195.7z"/>
			<path d="M114.7,195.7c0.2,0.8,0.2,1.6,0.2,2.4c0,0.8-0.1,1.6-0.2,2.4c-0.2-0.8-0.2-1.6-0.2-2.4
				C114.5,197.3,114.6,196.5,114.7,195.7z"/>
			<path d="M116.1,195.7c0.2,0.8,0.2,1.6,0.2,2.4c0,0.8-0.1,1.6-0.2,2.4C115.8,198.9,115.8,197.3,116.1,195.7z"/>
			<path d="M118.7,195.7c0.2,0.8,0.2,1.6,0.2,2.4c0,0.8-0.1,1.6-0.2,2.4c-0.2-0.8-0.2-1.6-0.2-2.4
				C118.5,197.3,118.6,196.5,118.7,195.7z"/>
			<path d="M113.5,195.7c0.3,1.6,0.3,3.2,0,4.8C113.3,198.9,113.3,197.3,113.5,195.7z"/>
			<path d="M103.5,195.7c0.3,1.6,0.3,3.2,0,4.8C103.2,198.9,103.2,197.3,103.5,195.7z"/>
			<path d="M110.6,195.7c0.3,1.6,0.3,3.2,0,4.8C110.3,198.9,110.3,197.3,110.6,195.7z"/>
			<path d="M111.6,195.7c0.3,1.6,0.3,3.2,0,4.8C111.3,198.9,111.3,197.3,111.6,195.7z"/>
			<path d="M122.1,195.7c0.3,1.6,0.3,3.2,0,4.8C121.8,198.9,121.8,197.3,122.1,195.7z"/>
			<path d="M123.6,195.7c0.2,0.8,0.2,1.6,0.2,2.4c0,0.8-0.1,1.6-0.2,2.4c-0.2-0.8-0.2-1.6-0.2-2.4
				C123.4,197.3,123.4,196.5,123.6,195.7z"/>
			<path d="M119.9,195.7c0.3,1.6,0.3,3.2,0,4.8C119.6,198.9,119.6,197.3,119.9,195.7z"/>
			<path d="M106,195.7c0.2,0.8,0.2,1.6,0.2,2.4c0,0.8-0.1,1.6-0.2,2.4c-0.2-0.8-0.2-1.6-0.2-2.4C105.8,197.3,105.8,196.5,106,195.7z
				"/>
		</g>
		<polygon class="st12" points="124.8,195.2 124.8,196.4 97.6,197.3 97.6,195.2 		"/>
		<rect x="96.9" y="189.1" class="st11" width="27.3" height="6"/>
		<g class="st9">
			<path d="M122.9,194.5c-0.2-0.8-0.2-1.6-0.2-2.4c0-0.8,0.1-1.6,0.2-2.4c0.2,0.8,0.2,1.6,0.2,2.4
				C123.1,192.9,123.1,193.7,122.9,194.5z"/>
			<path d="M120.9,194.5c-0.2-0.8-0.2-1.6-0.2-2.4c0-0.8,0.1-1.6,0.2-2.4c0.2,0.8,0.2,1.6,0.2,2.4
				C121.1,192.9,121,193.7,120.9,194.5z"/>
			<path d="M119.9,194.5c-0.2-0.8-0.2-1.6-0.2-2.4c0-0.8,0.1-1.6,0.2-2.4C120.2,191.3,120.2,192.9,119.9,194.5z"/>
			<path d="M114.4,194.5c-0.2-0.8-0.2-1.6-0.2-2.4c0-0.8,0.1-1.6,0.2-2.4c0.2,0.8,0.2,1.6,0.2,2.4
				C114.7,192.9,114.6,193.7,114.4,194.5z"/>
			<path d="M113,194.5c-0.3-1.6-0.3-3.2,0-4.8C113.3,191.3,113.3,192.9,113,194.5z"/>
			<path d="M106.9,194.5c-0.3-1.6-0.3-3.2,0-4.8C107.2,191.3,107.2,192.9,106.9,194.5z"/>
			<path d="M105.5,194.5c-0.3-1.6-0.3-3.2,0-4.8C105.8,191.3,105.8,192.9,105.5,194.5z"/>
			<path d="M102.9,194.5c-0.3-1.6-0.3-3.2,0-4.8C103.2,191.3,103.2,192.9,102.9,194.5z"/>
			<path d="M108.1,194.5c-0.3-1.6-0.3-3.2,0-4.8C108.3,191.3,108.3,192.9,108.1,194.5z"/>
			<path d="M118.1,194.5c-0.2-0.8-0.2-1.6-0.2-2.4c0-0.8,0.1-1.6,0.2-2.4c0.2,0.8,0.2,1.6,0.2,2.4
				C118.3,192.9,118.2,193.7,118.1,194.5z"/>
			<path d="M111,194.5c-0.2-0.8-0.2-1.6-0.2-2.4c0-0.8,0.1-1.6,0.2-2.4c0.2,0.8,0.2,1.6,0.2,2.4C111.3,192.9,111.2,193.7,111,194.5z
				"/>
			<path d="M110,194.5c-0.3-1.6-0.3-3.2,0-4.8C110.3,191.3,110.3,192.9,110,194.5z"/>
			<path d="M99.5,194.5c-0.3-1.6-0.3-3.2,0-4.8C99.8,191.3,99.8,192.9,99.5,194.5z"/>
			<path d="M98,194.5c-0.3-1.6-0.3-3.2,0-4.8C98.3,191.3,98.3,192.9,98,194.5z"/>
			<path d="M101.7,194.5c-0.3-1.6-0.3-3.2,0-4.8C102,191.3,102,192.9,101.7,194.5z"/>
			<path d="M115.6,194.5c-0.2-0.8-0.2-1.6-0.2-2.4c0-0.8,0.1-1.6,0.2-2.4C115.9,191.3,115.9,192.9,115.6,194.5z"/>
		</g>
		<polygon class="st12" points="124.1,189.1 124.1,190.4 96.9,191.3 96.9,189.1 		"/>
		<rect x="95.2" y="183.1" class="st11" width="27.3" height="6"/>
		<g class="st9">
			<path d="M96.3,183.7c0.3,1.6,0.3,3.2,0,4.8C96.1,186.9,96.1,185.3,96.3,183.7z"/>
			<path d="M98.4,183.7c0.3,1.6,0.3,3.2,0,4.8C98.1,186.9,98.1,185.3,98.4,183.7z"/>
			<path d="M99.4,183.7c0.2,0.8,0.2,1.6,0.2,2.4c0,0.8-0.1,1.6-0.2,2.4c-0.2-0.8-0.2-1.6-0.2-2.4C99.1,185.3,99.2,184.5,99.4,183.7z
				"/>
			<path d="M104.8,183.7c0.3,1.6,0.3,3.2,0,4.8C104.5,186.9,104.5,185.3,104.8,183.7z"/>
			<path d="M106.3,183.7c0.2,0.8,0.2,1.6,0.2,2.4c0,0.8-0.1,1.6-0.2,2.4c-0.2-0.8-0.2-1.6-0.2-2.4
				C106.1,185.3,106.1,184.5,106.3,183.7z"/>
			<path d="M112.4,183.7c0.2,0.8,0.2,1.6,0.2,2.4c0,0.8-0.1,1.6-0.2,2.4c-0.2-0.8-0.2-1.6-0.2-2.4
				C112.1,185.3,112.2,184.5,112.4,183.7z"/>
			<path d="M113.8,183.7c0.2,0.8,0.2,1.6,0.2,2.4c0,0.8-0.1,1.6-0.2,2.4c-0.2-0.8-0.2-1.6-0.2-2.4
				C113.6,185.3,113.6,184.5,113.8,183.7z"/>
			<path d="M116.4,183.7c0.2,0.8,0.2,1.6,0.2,2.4c0,0.8-0.1,1.6-0.2,2.4c-0.2-0.8-0.2-1.6-0.2-2.4
				C116.1,185.3,116.2,184.5,116.4,183.7z"/>
			<path d="M111.2,183.7c0.2,0.8,0.2,1.6,0.2,2.4c0,0.8-0.1,1.6-0.2,2.4C110.9,186.9,110.9,185.3,111.2,183.7z"/>
			<path d="M101.2,183.7c0.3,1.6,0.3,3.2,0,4.8C100.9,186.9,100.9,185.3,101.2,183.7z"/>
			<path d="M108.2,183.7c0.3,1.6,0.3,3.2,0,4.8C107.9,186.9,107.9,185.3,108.2,183.7z"/>
			<path d="M109.2,183.7c0.2,0.8,0.2,1.6,0.2,2.4c0,0.8-0.1,1.6-0.2,2.4C108.9,186.9,108.9,185.3,109.2,183.7z"/>
			<path d="M119.7,183.7c0.2,0.8,0.2,1.6,0.2,2.4c0,0.8-0.1,1.6-0.2,2.4c-0.2-0.8-0.2-1.6-0.2-2.4
				C119.5,185.3,119.6,184.5,119.7,183.7z"/>
			<path d="M121.3,183.7c0.2,0.8,0.2,1.6,0.2,2.4c0,0.8-0.1,1.6-0.2,2.4c-0.2-0.8-0.2-1.6-0.2-2.4
				C121,185.3,121.1,184.5,121.3,183.7z"/>
			<path d="M117.6,183.7c0.2,0.8,0.2,1.6,0.2,2.4c0,0.8-0.1,1.6-0.2,2.4C117.3,186.9,117.3,185.3,117.6,183.7z"/>
			<path d="M103.6,183.7c0.3,1.6,0.3,3.2,0,4.8c-0.2-0.8-0.2-1.6-0.2-2.4C103.4,185.3,103.5,184.5,103.6,183.7z"/>
		</g>
		<polygon class="st12" points="122.5,183.1 122.5,184.4 95.2,185.2 95.2,183.1 		"/>
		<rect x="95.2" y="201.2" class="st11" width="27.3" height="6"/>
		<g class="st9">
			<path d="M121.3,206.6c-0.2-0.8-0.2-1.6-0.2-2.4c0-0.8,0.1-1.6,0.2-2.4C121.5,203.3,121.5,205,121.3,206.6z"/>
			<path d="M119.2,206.6c-0.2-0.8-0.2-1.6-0.2-2.4c0-0.8,0.1-1.6,0.2-2.4C119.5,203.3,119.5,205,119.2,206.6z"/>
			<path d="M118.2,206.6c-0.3-1.6-0.3-3.2,0-4.8C118.5,203.3,118.5,205,118.2,206.6z"/>
			<path d="M112.8,206.6c-0.2-0.8-0.2-1.6-0.2-2.4c0-0.8,0.1-1.6,0.2-2.4c0.2,0.8,0.2,1.6,0.2,2.4
				C113,204.9,112.9,205.8,112.8,206.6z"/>
			<path d="M111.3,206.6c-0.3-1.6-0.3-3.2,0-4.8C111.6,203.3,111.6,205,111.3,206.6z"/>
			<path d="M105.2,206.6c-0.3-1.6-0.3-3.2,0-4.8C105.5,203.3,105.5,205,105.2,206.6z"/>
			<path d="M103.8,206.6c-0.3-1.6-0.3-3.2,0-4.8C104.1,203.3,104.1,205,103.8,206.6z"/>
			<path d="M101.2,206.6c-0.3-1.6-0.3-3.2,0-4.8C101.5,203.3,101.5,205,101.2,206.6z"/>
			<path d="M106.4,206.6c-0.3-1.6-0.3-3.2,0-4.8C106.7,203.3,106.7,205,106.4,206.6z"/>
			<path d="M116.4,206.6c-0.2-0.8-0.2-1.6-0.2-2.4c0-0.8,0.1-1.6,0.2-2.4c0.2,0.8,0.2,1.6,0.2,2.4
				C116.7,204.9,116.6,205.8,116.4,206.6z"/>
			<path d="M109.4,206.6c-0.2-0.8-0.2-1.6-0.2-2.4c0-0.8,0.1-1.6,0.2-2.4c0.2,0.8,0.2,1.6,0.2,2.4
				C109.6,204.9,109.5,205.8,109.4,206.6z"/>
			<path d="M108.4,206.6c-0.3-1.6-0.3-3.2,0-4.8C108.6,203.3,108.6,205,108.4,206.6z"/>
			<path d="M97.9,206.6c-0.3-1.6-0.3-3.2,0-4.8C98.1,203.3,98.1,205,97.9,206.6z"/>
			<path d="M96.3,206.6c-0.3-1.6-0.3-3.2,0-4.8C96.6,203.3,96.6,205,96.3,206.6z"/>
			<path d="M100,206.6c-0.3-1.6-0.3-3.2,0-4.8C100.3,203.3,100.3,205,100,206.6z"/>
			<path d="M114,206.6c-0.3-1.6-0.3-3.2,0-4.8C114.3,203.3,114.3,205,114,206.6z"/>
		</g>
		<polygon class="st12" points="122.5,201.2 122.5,202.5 95.2,203.3 95.2,201.2 		"/>
		<path class="st11" d="M93.4,196c17.9,3.2,13.2,29.8-4.8,26.6C70.6,219.4,75.4,192.8,93.4,196z"/>
		<path class="st12" d="M93.4,196c17.9,3.2,13.2,29.8-4.8,26.6C70.6,219.4,75.4,192.8,93.4,196z"/>
		<path class="st11" d="M91.7,195.7c17.1,3.1,12.4,29.7-4.8,26.6S74.5,192.6,91.7,195.7z"/>
		<path class="st12" d="M78.4,209.6c0.1,4.7,2.8,9.3,8.9,10.4c14.2,2.5,18.2-19.5,4-22.1c-0.1,0-0.2,0-0.3,0
			c13.3,2.7,9.5,23.5-4.1,21.1C81.4,218.1,78.7,214,78.4,209.6z"/>
		<g class="st9">
			<path d="M90.8,200.7c0.2,0,0.4,0.3,0.3,0.5c0,0,0,0,0,0l-0.2,0.7c1.2,0.4,2.2,1.1,2.9,2.1c0.1,0.1,0.2,0.3,0.1,0.5
				c-0.1,0.3-0.3,0.4-0.6,0.3c-0.1,0-0.2-0.1-0.3-0.2c-0.6-0.8-1.5-1.5-2.4-1.9l-1.3,5.1c2.6,1.3,3.5,2.6,3.1,4.4
				c-0.5,1.9-2.4,2.9-4.8,2.4l-0.4,1.4c-0.1,0.2-0.3,0.4-0.5,0.3s-0.4-0.3-0.3-0.5l0.4-1.4c-1.5-0.5-2.8-1.5-3.7-2.8
				c-0.2-0.2-0.2-0.5,0-0.7c0.1-0.1,0.3-0.1,0.4-0.1c0.1,0,0.2,0.1,0.3,0.2c0.7,1.2,1.8,2.1,3.1,2.5l1.3-5.2c-2.6-1.3-3.5-2.6-3-4.4
				c0.4-1.8,2.4-2.8,4.7-2.3l0.2-0.7C90.2,200.8,90.4,200.7,90.8,200.7C90.7,200.7,90.7,200.7,90.8,200.7z M88.6,207.6l1.2-5
				c-1.8-0.4-3.2,0.4-3.5,1.7C86,205.5,86.4,206.4,88.6,207.6z M89.1,208.9l-1.3,5c1.8,0.4,3.3-0.3,3.6-1.7
				C91.8,210.9,91.4,210,89.1,208.9L89.1,208.9z"/>
		</g>
	</g>
	<g id="freepik--Character--inject-44">
		<path class="st13" d="M195.6,208.7c-1,0.3-29.3,0-30.4-0.7c-0.4-0.3-0.6-4.4-0.7-9.4v-0.2c0-1,0-2.1,0-3.2c0-0.2,0-0.3,0-0.4
			l1.4-14.7l18.9,0.2l-1.9,14.5l0,0.6l-0.1,3v0.3c0,0,10.8,5,11.9,5.9C195.8,205.5,196.6,208.3,195.6,208.7z"/>
		<path class="st6" d="M195.6,208.7c-1,0.3-29.3,0-30.4-0.7c-0.4-0.3-0.6-4.4-0.7-9.4v-0.2c0-1,0-2.1,0-3.2c0-0.2,0-0.3,0-0.4
			l18.4,0.1l0,0.6l-0.1,3v0.3c0,0,10.8,5,11.9,5.9C195.8,205.5,196.6,208.3,195.6,208.7z"/>
		<path class="st14" d="M195.6,208.6c-0.5,0.2-8.2,0.1-15.7,0c-1.5,0-3-0.1-4.4-0.1c-5.4-0.1-9.8-0.4-10.2-0.6
			c-0.4-0.3-0.6-4.3-0.7-9.2c0-0.1,0-0.1,0-0.2c0-0.1,0-0.1,0-0.2h0l18.2,0v0.3c0,0,10.8,5,11.9,5.9
			C195.8,205.5,196.6,208.3,195.6,208.6z"/>
		<path class="st15" d="M195.3,207.5c-4.8-0.2-24-0.4-28.7-0.3c0,0,0,0,0,0C171.2,207.6,190.5,207.7,195.3,207.5
			C195.4,207.6,195.4,207.6,195.3,207.5z"/>
		<path class="st15" d="M184.8,198.5c-1.9-0.4-4.2-0.1-5.6,1.2c-0.1,0,0,0.1,0.1,0.1c1.8-0.6,3.7-0.9,5.5-1.1c0.1,0,0.1-0.1,0.1-0.1
			C184.9,198.5,184.9,198.5,184.8,198.5z"/>
		<path class="st15" d="M186.2,199.3c-1.9-0.4-4.2-0.1-5.6,1.2c-0.1,0.1,0,0.1,0.1,0.1c1.8-0.6,3.7-0.9,5.5-1.1
			c0.1,0,0.1-0.1,0.1-0.1C186.3,199.4,186.2,199.3,186.2,199.3z"/>
		<path class="st15" d="M187.5,200.1c-1.9-0.4-4.2-0.1-5.6,1.2c-0.1,0.1,0,0.1,0.1,0.1c1.8-0.6,3.7-0.9,5.5-1.1
			c0.1,0,0.1-0.1,0.1-0.1C187.6,200.2,187.6,200.2,187.5,200.1z"/>
		<path class="st16" d="M184,198.5h-22.2c0,0,4.8-43.8,4.7-44.7c-0.1-0.4-4.1-6.5-8.8-13.5c-2.7-3.9-5.5-8.2-8.1-12
			c-4.2-6.3-7.6-11.2-7.6-11.2h21.7c0,0,2.9,3.5,6.8,8.5c5.4,7.1,12.7,17.1,16,24.2C189.1,155.3,184,198.5,184,198.5z"/>
		<path class="st15" d="M180.9,152.8c-0.4-2.4-1.6-4.6-2.8-6.7c-2.5-4.4-13.8-21.1-16.9-25.1l-1.2-1.5c0,0-0.1,0-0.1,0
			c3.1,4,14.2,20.5,16.7,24.8c1.2,2.1,2.6,4.3,3.4,6.6c0.8,2.5,0.7,5.1,0.6,7.7c-0.3,5.3-0.6,10.6-1,15.9c-0.4,5.3-0.8,10.7-1.3,16
			c-0.1,0.7-0.1,1.3-0.2,2c0,0.2,0.2,0.2,0.2,0c0.5-5.3,1.1-10.6,1.5-15.9c0.4-5.3,0.7-10.7,1-16.1
			C181.1,157.9,181.4,155.3,180.9,152.8z"/>
		<path class="st15" d="M183.1,195c-3.1-0.1-2.2-0.1-5.3-0.1c-1.5,0-11.5-0.1-13,0.1c0,0,0,0.1,0,0.1c1.4,0.2,11.4,0.1,13,0.1
			C180.9,195.2,180,195.1,183.1,195C183.2,195.1,183.2,195.1,183.1,195C183.2,195,183.2,195,183.1,195L183.1,195z"/>
		<path class="st15" d="M164.7,150.8C159,142,142,117.1,142,117.1h11.4L164.7,150.8z"/>
		<path class="st13" d="M118.5,227.3c1,0.3,29.3-0.3,30.4-1.1c0.4-0.3,0.5-4.4,0.6-9.4v-0.2c0-1,2.4-18.3,2.4-18.3l-18.5,0.4
			l-2.1,18.2v0.3c0,0-10.7,5.1-11.8,6S117.5,226.9,118.5,227.3z"/>
		<path class="st6" d="M118.5,227.3c1,0.3,29.3-0.3,30.4-1.1c0.4-0.3,0.5-4.4,0.6-9.4v-0.2c0,0,0.4-3.5,0.4-3.6l-18.3,0.3l-0.4,3.5
			v0.3c0,0-10.7,5.1-11.8,6S117.5,226.9,118.5,227.3z"/>
		<path class="st14" d="M118.5,227.3c1,0.3,29.3-0.3,30.4-1.1c0.4-0.3,0.5-4.4,0.6-9.4v-0.2l-18.3,0.2v0.3c0,0-10.7,5.1-11.8,6
			S117.5,226.9,118.5,227.3z"/>
		<path class="st15" d="M118.8,226.2c4.8-0.2,24-0.7,28.7-0.6c0,0,0,0,0,0C142.8,226,123.5,226.3,118.8,226.2
			C118.7,226.2,118.7,226.2,118.8,226.2z"/>
		<path class="st15" d="M129.1,217c1.9-0.4,4.2-0.2,5.6,1.1c0.1,0.1,0,0.1-0.1,0.1c-1.8-0.5-3.7-0.9-5.5-1
			C129,217.2,129,217.1,129.1,217C129,217,129.1,217,129.1,217z"/>
		<path class="st15" d="M127.8,217.8c1.9-0.4,4.2-0.2,5.6,1.1c0.1,0.1,0,0.1-0.1,0.1c-1.8-0.5-3.7-0.9-5.5-1
			C127.7,218.1,127.7,218,127.8,217.8C127.7,217.9,127.7,217.8,127.8,217.8z"/>
		<path class="st15" d="M126.4,218.7c1.9-0.4,4.2-0.2,5.6,1.1c0.1,0.1,0,0.1-0.1,0.1c-1.8-0.5-3.7-0.9-5.5-1c-0.1,0-0.1-0.1-0.1-0.1
			C126.3,218.7,126.4,218.7,126.4,218.7L126.4,218.7z"/>
		<path class="st16" d="M163.7,117.1c0,0-2.6,15.9-2.8,16.4c0,0-1,0.5-2.7,1.3l-7.7,82.4l-20.4,0.1l11.4-100.1L163.7,117.1z"/>
		<path class="st15" d="M149.8,213.5c-3.1-0.1-2.2-0.1-5.3-0.1c-1.5,0-11.5-0.1-13,0.2c0,0,0,0.1,0,0.1c1.4,0.2,11.4,0.1,13,0.1
			C147.6,213.7,146.7,213.7,149.8,213.5C149.8,213.6,149.8,213.6,149.8,213.5C149.9,213.6,149.9,213.5,149.8,213.5
			C149.8,213.5,149.8,213.5,149.8,213.5z"/>
		<path class="st15" d="M146.5,120.2c-0.8,11.3-1.6,22.7-2.5,34c-0.9,11.3-2,22.7-3.4,34.1c-0.8,6.3-1.6,15.2-2.5,21.6
			c0,0,0.1,0.1,0.1,0c1.9-11.2,3.2-25.1,4.4-36.4s2.1-22.6,2.9-34c0.4-6.4,0.9-12.8,1.3-19.3C146.7,120.1,146.6,120.1,146.5,120.2z"
			/>
		<path class="st15" d="M161.8,133c-2,0.8-4,1.9-5.8,3.1c0,0,0,0.1,0,0.1s0.1,0,0.1,0l0,0c2-1,4-1.9,5.9-2.9c0.1,0,0.1-0.1,0.1-0.2
			S161.9,133,161.8,133z"/>
		<path class="st15" d="M161,123.9c-0.3,1.9-0.5,3.8-0.7,5.7c-0.1,0.5-0.1,0.9-0.2,1.4c0,0.4-0.1,0.8-0.3,1.2
			c-0.4,0.6-1.2,0.9-1.8,1.2c-0.1,0,0,0.2,0,0.1c0.7-0.2,1.4-0.5,1.9-1c0.6-0.6,0.6-1.6,0.7-2.5C160.9,128.1,161.1,126,161,123.9
			C161.1,123.9,161,123.9,161,123.9z"/>
		<path class="st15" d="M158.7,124.5c-0.1,1.4-0.2,2.7-0.3,4.1c-0.1,0.7-0.1,1.4-0.1,2c0,0.7-0.1,1.4-0.1,2.1c0,0,0,0,0.1,0
			c0,0,0,0,0,0c0.1-0.6,0.1-1.3,0.2-2c0.1-0.7,0.1-1.4,0.1-2.1C158.6,127.3,158.6,125.9,158.7,124.5
			C158.8,124.4,158.7,124.4,158.7,124.5z"/>
		<path class="st15" d="M170.4,125.6l-8.4,1.1l-12.6,1.6l-9.5,1.2l1.4-12.4h22.2C163.7,117.1,166.6,120.6,170.4,125.6z"/>
		<path class="st13" d="M160,95.3c3.8,7.9,11.9,16.1,16.5,16.1c4.3,0,15.2-8.5,20.3-13.5c1.2-1.1-9.4-10.2-10.6-8.9
			c-2.7,3.1-8.9,9.8-10.9,9.8c-1.8,0-7.4-4-12.2-8C157.2,85.9,158.5,92.1,160,95.3z"/>
		<path class="st13" d="M196.8,97.8c1.4-0.8,5.4-4.2,8-7.5c1.2-1.6,4.3-6.4,3.2-7.5c-1.1-1-2.2,0.3-2.2,0.3s1-2.3-0.2-3.2
			s-2.8,1.2-2.8,1.2s0.9-2.4-0.4-3.2c-1.3-0.9-2.5,1.6-2.5,1.6s0.9-2.2-0.5-2.4c-1.6-0.3-2.8,3.8-4.3,5.5c-0.3,0.4-7.2,7.2-7.2,7.2
			L196.8,97.8z"/>
		<path class="st15" d="M199.9,79.6c-0.9,3-1.8,4.2-4.1,6.3c0,0,0,0.1,0.1,0.1c2.5-1.8,3.8-3.1,4.2-6.3
			C200,79.4,199.9,79.4,199.9,79.6z"/>
		<path class="st15" d="M202.9,81.1c-1.2,3.1-2.2,4.4-4.4,6.7c0,0,0,0.1,0.1,0.1c2.4-2.1,3.7-3.5,4.5-6.7
			C203.1,81,203,81,202.9,81.1z"/>
		<path class="st15" d="M205.7,83.5c-1.4,2.9-2.4,4.4-4.9,6.4c0,0,0,0.1,0,0.1c0,0,0,0,0.1,0C203.7,88.1,204.9,86.3,205.7,83.5
			C205.9,83.3,205.8,83.3,205.7,83.5z"/>
		
			<rect x="192.6" y="68.8" transform="matrix(0.9999 -1.012274e-02 1.012274e-02 0.9999 -0.8026 2.115)" class="st6" width="32" height="23.1"/>
		
			<rect x="198.4" y="73.7" transform="matrix(0.9999 -1.012274e-02 1.012274e-02 0.9999 -0.8 2.0239)" class="st0" width="2.3" height="12.8"/>
		<polygon class="st0" points="204.6,86.4 202.3,86.4 202.2,77.1 204.5,77.1 		"/>
		
			<rect x="206" y="79.2" transform="matrix(0.9999 -1.012274e-02 1.012274e-02 0.9999 -0.8273 2.1017)" class="st0" width="2.3" height="7.1"/>
		
			<rect x="209.9" y="80.6" transform="matrix(0.9999 -1.012274e-02 1.012274e-02 0.9999 -0.8339 2.1404)" class="st0" width="2.3" height="5.7"/>
		
			<rect x="213.7" y="77" transform="matrix(0.9999 -1.012274e-02 1.012274e-02 0.9999 -0.8154 2.1788)" class="st0" width="2.3" height="9.3"/>
		
			<rect x="217.5" y="75.2" transform="matrix(0.9999 -1.029726e-02 1.029726e-02 0.9999 -0.8194 2.2557)" class="st0" width="2.3" height="11"/>
		<path class="st10" d="M196.7,72.2c0.1,2.4,0.2,4.7,0.2,7.1c0,2.4,0.1,4.7,0.1,7.1l-0.2-0.2l6.1-0.1l6.1,0c2,0,4.1,0,6.1,0
			c2.1,0,4.1,0,6.1,0.1c-2,0.1-4.1,0.1-6.1,0.2c-2,0-4.1,0.1-6.1,0.1l-6.1,0.1l-6.2,0.1h-0.2v-0.2c0-2.4,0-4.7,0-7.1
			S196.7,74.6,196.7,72.2z"/>
		<path class="st10" d="M196,73.5c0.3,0,0.5-0.1,0.8-0.1c0.3,0,0.5,0,0.8,0C197,73.6,196.5,73.6,196,73.5L196,73.5z"/>
		<path class="st10" d="M196,74.8c0.3,0,0.5-0.1,0.8-0.1c0.3,0,0.5,0,0.8,0C197,74.9,196.5,74.9,196,74.8L196,74.8z"/>
		<path class="st10" d="M196,76.1c0.3,0,0.5-0.1,0.8-0.1c0.3,0,0.5,0,0.8,0C197,76.2,196.5,76.2,196,76.1L196,76.1z"/>
		<path class="st10" d="M196,77.5c0.5-0.1,1-0.1,1.5,0C197,77.5,196.5,77.5,196,77.5z"/>
		<path class="st10" d="M196,78.8c0.5-0.1,1-0.1,1.5,0C197,78.8,196.5,78.8,196,78.8z"/>
		<path class="st10" d="M196,80.1c0.5-0.1,1-0.1,1.5,0C197.1,80.1,196.5,80.1,196,80.1z"/>
		<path class="st10" d="M196.1,81.4c0.3,0,0.5-0.1,0.8-0.1c0.3,0,0.5,0,0.8,0c-0.3,0-0.5,0.1-0.8,0.1
			C196.6,81.4,196.3,81.4,196.1,81.4z"/>
		<path class="st10" d="M196.1,82.7c0.5-0.1,1-0.1,1.5,0c-0.3,0-0.5,0.1-0.8,0.1C196.6,82.7,196.3,82.7,196.1,82.7z"/>
		<path class="st10" d="M196.1,84c0.5-0.1,1-0.1,1.5,0c-0.3,0-0.5,0.1-0.8,0.1C196.6,84,196.3,84,196.1,84z"/>
		<path class="st10" d="M196.1,85.3c0.5-0.1,1-0.1,1.5,0c-0.3,0-0.5,0.1-0.8,0.1C196.6,85.4,196.3,85.3,196.1,85.3z"/>
		<path class="st10" d="M203.4,71.8c0.8-0.1,1.7-0.1,2.5-0.2c0.8,0,1.7-0.1,2.5-0.1c0.8,0,1.7,0,2.5,0s1.7,0,2.5,0.1
			c-0.8,0.1-1.7,0.1-2.5,0.2s-1.7,0-2.5,0.1c-0.8,0-1.7,0-2.5,0S204.3,71.9,203.4,71.8z"/>
		<path class="st10" d="M205.3,73c2.1-0.2,4.2-0.3,6.2-0.1c-1,0.1-2.1,0.2-3.1,0.2C207.4,73.1,206.4,73.1,205.3,73z"/>
		<path class="st10" d="M196.8,89v-1.5h1.5V89L196.8,89z M197,87.7v1.1h1.1v-1.1L197,87.7z"/>
		<path class="st10" d="M199.4,87.6c1.3-0.1,2.5-0.1,3.8-0.1l3.8-0.1h3.8c1.3,0,2.5,0,3.8,0c-1.3,0.1-2.5,0.1-3.8,0.1l-3.8,0.1h-3.8
			C201.9,87.7,200.6,87.6,199.4,87.6z"/>
		<path class="st10" d="M199.4,88.2c1.4-0.1,2.9-0.1,4.3-0.2c1.4,0,2.9,0,4.3,0.1c-1.4,0.1-2.9,0.1-4.3,0.2S200.8,88.3,199.4,88.2z"
			/>
		<path class="st10" d="M199.4,88.9c1.8-0.1,3.5-0.1,5.3-0.2c1.8,0,3.5,0,5.3,0.1c-1.8,0.1-3.5,0.1-5.3,0.2
			C202.9,89,201.1,89,199.4,88.9z"/>
		<path class="st15" d="M196.8,74.2c0.5-0.2,1.1-0.4,1.7-0.4c0.6-0.1,1.2,0,1.8,0.2c0.5,0.3,1,0.6,1.4,1.1c0.4,0.4,0.8,0.9,1.2,1.3
			c0.7,0.9,1.4,1.8,2.2,2.7c0.7,0.9,1.7,1.5,2.7,1.9c0.5,0.2,1.1,0.2,1.6,0.1c0.6-0.1,1.1-0.3,1.6-0.6c1-0.6,1.9-1.3,2.8-2
			c0.9-0.7,1.8-1.5,2.7-2.2c0.5-0.4,1-0.7,1.5-1c0.3-0.1,0.5-0.3,0.8-0.4c0.3-0.1,0.6-0.1,0.9-0.1c-0.6,0.1-1.1,0.3-1.6,0.6
			c-0.5,0.3-1,0.7-1.4,1c-0.9,0.7-1.7,1.5-2.6,2.3c-0.9,0.8-1.8,1.5-2.8,2.1c-0.5,0.3-1.1,0.5-1.7,0.7c-0.6,0.1-1.2,0.1-1.8-0.1
			c-1.1-0.4-2.1-1.1-2.9-2c-0.8-0.9-1.5-1.8-2.2-2.7c-0.4-0.5-0.7-0.9-1.1-1.4c-0.4-0.4-0.8-0.8-1.3-1.1c-0.5-0.2-1.1-0.3-1.7-0.3
			C198,73.9,197.4,74,196.8,74.2z"/>
		<path class="st13" d="M185.5,89.9c0,0,2.4-3.1,3.8-4.2c1.4-1.1,8.1-3.4,8.7-1.9c0.7,1.8-2.9,3.9-4.8,4.7c0,0,1.7,4.2-0.6,6.3
			C190.3,96.7,185.5,89.9,185.5,89.9z"/>
		<path class="st15" d="M198,84.3c-0.5,2.2-3.1,3-4.9,3.9c-0.1,0-0.1,0.1-0.1,0.2c0,0,0,0,0,0.1c0.6,1.8,0.9,4.6-0.3,6.2
			c0,0,0,0,0,0.1c0,0,0,0,0.1,0c1.5-1.6,1.5-4.3,0.7-6.2C195.3,87.6,197.8,86.6,198,84.3L198,84.3z"/>
		<path class="st0" d="M162.2,89.9c3.2,2.1,11,9,13.1,8.4c2.1-0.5,9-7.8,9-7.8l10.8,10.2c0,0-12.2,11.6-19,11.2s-13.8-10.8-16-15.3
			C157.8,92.1,156.8,86.4,162.2,89.9z"/>
		<path class="st8" d="M175.8,104.1c-0.1-0.4-0.1-0.8,0-1.2C176,103.2,176,103.7,175.8,104.1z M186,96.5c0-0.2,0-0.4-0.1-0.6
			c-0.1,0.2-0.1,0.4-0.1,0.6c0,0.2,0,0.4,0.1,0.6C186,96.9,186,96.7,186,96.5z M187.3,106.1c0-0.2,0-0.4-0.1-0.6
			c-0.1,0.4-0.1,0.8,0,1.2C187.3,106.5,187.3,106.3,187.3,106.1z M165,101.6c0-0.2,0-0.4-0.1-0.6c-0.1,0.4-0.1,0.8,0,1.2
			C164.9,102,165,101.8,165,101.6z M184.1,104.7c0-0.2,0-0.4-0.1-0.6c-0.1,0.4-0.1,0.8,0,1.2C184.1,105.1,184.1,104.9,184.1,104.7
			L184.1,104.7z M172,97.7c0.2,0,0.4,0,0.6-0.1c-0.2-0.1-0.4-0.1-0.6-0.1c-0.2,0-0.4,0-0.6,0.1C171.6,97.7,171.8,97.7,172,97.7
			L172,97.7z M172.8,106.7c0.2,0,0.4,0,0.6-0.1c-0.4-0.1-0.8-0.1-1.2,0C172.4,106.6,172.6,106.7,172.8,106.7L172.8,106.7z
			 M180.5,102.3c0.2,0,0.4,0,0.6-0.1c-0.2-0.1-0.4-0.1-0.6-0.1c-0.2,0-0.4,0-0.6,0.1C180.1,102.3,180.3,102.3,180.5,102.3
			L180.5,102.3z M189.8,103.2c0.2,0,0.4,0,0.6-0.1c-0.4-0.1-0.8-0.1-1.2,0C189.4,103.2,189.6,103.3,189.8,103.2L189.8,103.2z
			 M184.6,92.9c0.2,0,0.4,0,0.6-0.1c-0.2-0.1-0.4-0.1-0.6-0.1c-0.2,0-0.4,0-0.6,0.1C184.2,92.8,184.4,92.9,184.6,92.9L184.6,92.9z
			 M164.6,94.6c-0.1-0.2-0.3-0.3-0.5-0.4c0.1,0.2,0.2,0.4,0.4,0.5c0.1,0.2,0.3,0.3,0.5,0.4C164.9,94.9,164.8,94.8,164.6,94.6
			L164.6,94.6z M169.1,104.2c-0.1-0.2-0.3-0.3-0.5-0.4c0.2,0.4,0.5,0.7,0.9,0.9C169.3,104.5,169.2,104.3,169.1,104.2L169.1,104.2z
			 M179.7,106.4c-0.1-0.2-0.3-0.3-0.5-0.4c0.2,0.4,0.5,0.7,0.9,0.9C180,106.7,179.8,106.5,179.7,106.4L179.7,106.4z M185.5,100.8
			c-0.1-0.2-0.3-0.3-0.5-0.4c0.2,0.4,0.5,0.7,0.9,0.9C185.8,101.1,185.7,100.9,185.5,100.8z M177.6,98.7c-0.1-0.1-0.3-0.3-0.5-0.4
			c0.2,0.4,0.5,0.7,0.9,0.9C177.9,99,177.8,98.8,177.6,98.7L177.6,98.7z M176.1,109.4c-0.2,0.1-0.3,0.3-0.4,0.5
			c0.2-0.1,0.4-0.2,0.5-0.4c0.2-0.1,0.3-0.3,0.4-0.5C176.4,109.1,176.2,109.3,176.1,109.4z M182.7,108.6c-0.2,0.1-0.3,0.3-0.4,0.5
			c0.4-0.2,0.7-0.5,0.9-0.9C183,108.3,182.8,108.5,182.7,108.6L182.7,108.6z M171.5,101.3c-0.2,0.1-0.3,0.3-0.4,0.5
			c0.2-0.1,0.4-0.2,0.5-0.4c0.2-0.1,0.3-0.3,0.4-0.5C171.8,101,171.6,101.1,171.5,101.3L171.5,101.3z M190.4,98.5
			c-0.2,0.1-0.3,0.3-0.4,0.5c0.2-0.1,0.4-0.2,0.5-0.4c0.1-0.1,0.3-0.3,0.4-0.5C190.7,98.2,190.5,98.3,190.4,98.5z M167.5,98.5
			c-0.2,0.1-0.3,0.3-0.4,0.5c0.4-0.2,0.7-0.5,0.9-0.9C167.9,98.2,167.7,98.3,167.5,98.5L167.5,98.5z M181.3,96.9
			c-0.2,0.1-0.3,0.3-0.4,0.5c0.2-0.1,0.4-0.2,0.5-0.4c0.1-0.1,0.3-0.3,0.4-0.5C181.6,96.6,181.4,96.7,181.3,96.9L181.3,96.9z
			 M161.7,91.9c0-0.2,0-0.4-0.1-0.6c-0.1,0.2-0.1,0.4-0.1,0.6c0,0.2,0,0.4,0.1,0.6C161.7,92.4,161.7,92.1,161.7,91.9L161.7,91.9z
			 M161.9,98.6c0.2,0,0.4,0,0.6-0.1c-0.2-0.1-0.4-0.1-0.6-0.1c-0.2,0-0.4,0-0.6,0.1C161.5,98.5,161.7,98.6,161.9,98.6L161.9,98.6z"
			/>
		<path class="st15" d="M192,101.9c-0.3-0.4-0.7-0.8-1.1-1.1c-0.4-0.4-0.8-0.7-1.1-1.1c-0.7-0.7-1.5-1.4-2.3-2.1l-2.3-2.1
			c-0.8-0.7-1.5-1.5-2.4-2.1c0,0,0,0,0,0c0,0,0,0,0,0c0.7,0.8,1.5,1.5,2.3,2.2l2.3,2.2c0.8,0.7,1.5,1.4,2.3,2.1
			c0.4,0.3,0.8,0.7,1.2,1C191.1,101.3,191.5,101.6,192,101.9C192,101.9,192,101.9,192,101.9z"/>
		<path class="st15" d="M175.2,111.8c-6.5-1.2-13-10.9-15.2-15.2c-1.4-2.9-2.3-6.2-1.4-7.4C161.3,92.8,170.4,105.3,175.2,111.8z"/>
		<path class="st0" d="M169.5,124.3c-0.4,0.5-29.6,0.5-29.8,0.4c-0.4-0.5,6.5-30.3,13-35.5c1.4-1.1,6.7-0.9,7.5-0.7
			c0.8,0.3,3.2,4.3,4.2,7.5C166.5,102.4,169.8,123.8,169.5,124.3z"/>
		<path class="st8" d="M158.1,106.1c-0.1-0.2-0.1-0.4-0.1-0.6c0-0.2,0-0.4,0.1-0.6c0.1,0.2,0.1,0.4,0.1,0.6
			C158.3,105.7,158.2,105.9,158.1,106.1z M161.8,112.5c0-0.2,0-0.4-0.1-0.6c-0.1,0.2-0.1,0.4-0.1,0.6c0,0.2,0,0.4,0.1,0.6
			C161.8,113,161.8,112.7,161.8,112.5z M161.7,91.9c0-0.2,0-0.4-0.1-0.6c-0.1,0.2-0.1,0.4-0.1,0.6c0,0.2,0,0.4,0.1,0.6
			C161.7,92.4,161.7,92.1,161.7,91.9L161.7,91.9z M152.8,112.8c0-0.2,0-0.4-0.1-0.6c-0.1,0.2-0.1,0.4-0.1,0.6c0,0.2,0,0.4,0.1,0.6
			C152.8,113.2,152.8,113,152.8,112.8L152.8,112.8z M168.1,115.7c0-0.2,0-0.4-0.1-0.6c-0.1,0.2-0.1,0.4-0.1,0.6c0,0.2,0,0.4,0.1,0.6
			C168,116.1,168.1,115.9,168.1,115.7L168.1,115.7z M157.5,119.9c0-0.2,0-0.4-0.1-0.6c-0.1,0.2-0.1,0.4-0.1,0.6c0,0.2,0,0.4,0.1,0.6
			C157.5,120.3,157.5,120.1,157.5,119.9L157.5,119.9z M149,122.8c0-0.2,0-0.4-0.1-0.6c-0.1,0.4-0.1,0.8,0,1.2
			C148.9,123.2,149,123,149,122.8L149,122.8z M156,97.5c0-0.2,0-0.4-0.1-0.6c-0.1,0.4-0.1,0.8,0,1.2C156,97.9,156,97.7,156,97.5z
			 M150.4,94c0-0.2,0-0.4-0.1-0.6c-0.1,0.4-0.1,0.8,0,1.2C150.4,94.4,150.4,94.2,150.4,94z M150.3,104.5c0-0.2,0-0.4-0.1-0.6
			c-0.1,0.4-0.1,0.8,0,1.2C150.3,104.9,150.3,104.7,150.3,104.5z M144.5,115.7c0-0.2,0-0.4-0.1-0.6c-0.1,0.2-0.1,0.4-0.1,0.6
			c0,0.2,0,0.4,0.1,0.6C144.5,116.1,144.5,115.9,144.5,115.7L144.5,115.7z M165,101.6c0-0.2,0-0.4-0.1-0.6c-0.1,0.4-0.1,0.8,0,1.2
			C164.9,102,165,101.8,165,101.6L165,101.6z M154.3,103.5c0.2,0,0.4,0,0.6-0.1c-0.4-0.1-0.8-0.1-1.2,0
			C153.9,103.5,154.1,103.5,154.3,103.5L154.3,103.5z M153.7,117.2c0.2,0,0.4,0,0.6-0.1c-0.4-0.1-0.8-0.1-1.2,0
			C153.3,117.2,153.5,117.2,153.7,117.2L153.7,117.2z M157,124.2c0.2,0,0.4,0,0.6-0.1c-0.2-0.1-0.4-0.1-0.6-0.1
			c-0.2,0-0.4,0-0.6,0.1C156.6,124.1,156.8,124.2,157,124.2z M164.7,105.9c0.2,0,0.4,0,0.6-0.1c-0.4-0.1-0.8-0.1-1.2,0
			C164.3,105.9,164.5,105.9,164.7,105.9L164.7,105.9z M149.5,98.4c0.2,0,0.4,0,0.6-0.1c-0.2-0.1-0.4-0.1-0.6-0.1
			c-0.2,0-0.4,0-0.6,0.1C149.1,98.4,149.3,98.4,149.5,98.4L149.5,98.4z M157.1,92.8c0.2,0,0.4,0,0.6-0.1c-0.2-0.1-0.4-0.1-0.6-0.1
			c-0.2,0-0.4,0-0.6,0.1C156.7,92.7,156.9,92.8,157.1,92.8L157.1,92.8z M149.5,109c0.2,0,0.4,0,0.6-0.1c-0.2-0.1-0.4-0.1-0.6-0.1
			c-0.2,0-0.4,0-0.6,0.1C149,109,149.3,109,149.5,109z M145.2,119.9c0.2,0,0.4,0,0.6-0.1c-0.4-0.1-0.8-0.1-1.2,0
			C144.7,119.9,145,119.9,145.2,119.9L145.2,119.9z M162,98.5c0.2,0,0.4,0,0.6-0.1c-0.2-0.1-0.4-0.1-0.6-0.1c-0.2,0-0.4,0-0.6,0.1
			C161.5,98.5,161.7,98.6,162,98.5L162,98.5z M157.9,110c0.2,0,0.4,0,0.6-0.1c-0.4-0.1-0.8-0.1-1.2,0C157.5,110,157.7,110,157.9,110
			L157.9,110z M166.7,123.3c0.2,0,0.4,0,0.6-0.1c-0.4-0.1-0.8-0.1-1.2,0C166.3,123.3,166.5,123.3,166.7,123.3z M161.6,117.3
			c0.2,0,0.4,0,0.6-0.1c-0.4-0.1-0.8-0.1-1.2,0C161.2,117.3,161.4,117.3,161.6,117.3L161.6,117.3z M161.7,122.2
			c-0.1-0.2-0.3-0.3-0.5-0.4c0.1,0.2,0.2,0.4,0.4,0.5c0.1,0.2,0.3,0.3,0.5,0.4C162,122.5,161.9,122.4,161.7,122.2L161.7,122.2z
			 M145.3,111.3c-0.1-0.2-0.3-0.3-0.5-0.4c0.1,0.2,0.2,0.4,0.4,0.5c0.1,0.2,0.3,0.3,0.5,0.4C145.5,111.6,145.4,111.5,145.3,111.3
			L145.3,111.3z M154.2,107.8c-0.1-0.2-0.3-0.3-0.5-0.4c0.1,0.2,0.2,0.4,0.4,0.5c0.1,0.2,0.3,0.3,0.5,0.4
			C154.5,108.1,154.4,107.9,154.2,107.8L154.2,107.8z M149.3,117.2c-0.1-0.2-0.3-0.3-0.5-0.4c0.2,0.4,0.5,0.7,0.9,0.9
			C149.6,117.5,149.4,117.3,149.3,117.2L149.3,117.2z M141.4,122.3c-0.1-0.2-0.3-0.3-0.5-0.4c0.1,0.2,0.2,0.4,0.4,0.5
			c0.1,0.2,0.3,0.3,0.5,0.4C141.7,122.6,141.5,122.4,141.4,122.3L141.4,122.3z M148,101.6c-0.1-0.2-0.3-0.3-0.5-0.4
			c0.1,0.2,0.2,0.4,0.4,0.5c0.1,0.1,0.3,0.3,0.5,0.4C148.3,101.9,148.1,101.7,148,101.6L148,101.6z M158.2,100.8
			c-0.1-0.2-0.3-0.3-0.5-0.4c0.1,0.2,0.2,0.4,0.4,0.5c0.1,0.2,0.3,0.3,0.5,0.4C158.5,101.1,158.4,100.9,158.2,100.8z M165,115
			c-0.1-0.2-0.3-0.3-0.5-0.4c0.1,0.2,0.2,0.4,0.4,0.5c0.1,0.2,0.3,0.3,0.5,0.4C165.3,115.3,165.2,115.1,165,115z M153.8,95.1
			c-0.1-0.2-0.3-0.3-0.5-0.4c0.2,0.4,0.5,0.7,0.9,0.9C154,95.4,153.9,95.2,153.8,95.1L153.8,95.1z M161.9,108
			c-0.1-0.2-0.3-0.3-0.5-0.4c0.1,0.2,0.2,0.4,0.4,0.5c0.1,0.1,0.3,0.3,0.5,0.4C162.2,108.3,162,108.1,161.9,108L161.9,108z
			 M161.7,103.1c-0.2,0.1-0.3,0.3-0.4,0.5c0.4-0.2,0.7-0.5,0.9-0.9C162.1,102.8,161.9,102.9,161.7,103.1L161.7,103.1z M148.3,113.3
			c-0.2,0.1-0.3,0.3-0.4,0.5c0.2-0.1,0.4-0.2,0.5-0.4c0.2-0.1,0.3-0.3,0.4-0.5C148.6,113,148.4,113.2,148.3,113.3L148.3,113.3z
			 M165.2,110.9c-0.2,0.1-0.3,0.3-0.4,0.5c0.2-0.1,0.4-0.2,0.5-0.4c0.1-0.1,0.3-0.3,0.4-0.5C165.5,110.6,165.4,110.7,165.2,110.9
			L165.2,110.9z M153.4,121.6c-0.2,0.1-0.3,0.3-0.4,0.5c0.2-0.1,0.4-0.2,0.5-0.4c0.1-0.1,0.3-0.3,0.4-0.5
			C153.7,121.3,153.5,121.4,153.4,121.6z M152.6,100.6c-0.2,0.1-0.3,0.3-0.4,0.5c0.4-0.2,0.7-0.5,0.9-0.9
			C152.9,100.3,152.8,100.4,152.6,100.6L152.6,100.6z M157.2,115c-0.1,0.1-0.3,0.3-0.4,0.5c0.2-0.1,0.4-0.2,0.5-0.4
			c0.2-0.1,0.3-0.3,0.4-0.5C157.6,114.7,157.4,114.8,157.2,115L157.2,115z M165,119.7c-0.2,0.1-0.3,0.3-0.4,0.5
			c0.4-0.2,0.7-0.5,0.9-0.9C165.3,119.4,165.2,119.5,165,119.7L165,119.7z M146.2,106.6c-0.2,0.1-0.3,0.3-0.4,0.5
			c0.2-0.1,0.4-0.2,0.5-0.4c0.1-0.1,0.3-0.3,0.4-0.5C146.6,106.3,146.4,106.4,146.2,106.6L146.2,106.6z M159.3,96
			c-0.2,0.1-0.3,0.3-0.4,0.5c0.4-0.2,0.7-0.5,0.9-0.9C159.6,95.7,159.4,95.8,159.3,96L159.3,96z M152.8,90.7
			c-0.2,0.1-0.3,0.3-0.4,0.5c0.2-0.1,0.4-0.2,0.5-0.4c0.1-0.1,0.3-0.3,0.4-0.5C153.1,90.4,153,90.5,152.8,90.7L152.8,90.7z"/>
		<polygon class="st15" points="160.4,96.7 160.9,94.8 159.1,92.9 157.8,95.3 158.7,96.9 157.9,116 161.5,122.3 163.4,115.2 		"/>
		<path class="st15" d="M154.8,88.4l-13.2,27.3c2.4-9.4,6.8-23.2,11.1-26.6C153.3,88.7,154.1,88.4,154.8,88.4z"/>
		<path class="st13" d="M152.4,94.7c-1.8,3.3-12.7,15.6-13,16.8s2.1,4.4,2.1,4.9c0.1,2-2.1,15-4,13.9c-2.4-1.5-12.9-12.5-12.2-18
			s21.8-20.5,25.2-22C153.8,88.8,154.2,91.5,152.4,94.7z"/>
		<path class="st13" d="M145.2,132.6c1-1.2-0.9-1.7-0.9-1.7s3,0.1,3.6-1.5c0.6-1.6-1.8-2.1-2-2.2c0.2,0,2.9,0,3.4-1.7
			c0.4-1.7-2.1-1.9-2.2-1.9c0.2,0,2.2-0.7,2.2-2c0-2.3-5.8-1-7.4-2c0,0-0.2-3-0.2-3.1c-0.2,0.7-0.7,1.4-1.3,1.8
			c-1.2,0.7-2.2,1.2-2.6,1.9c-0.3,0.7-0.2,1.5,0.3,2c0,0-1.6,0.2-2,1.6c-0.2,0.7,0.7,1.6,0.7,1.6s-1.3,0.2-1.6,1.4
			c-0.2,1,0.7,1.7,0.7,1.7s-1.1,0.8-1,1.9C135,132.5,143,135.1,145.2,132.6z"/>
		<path class="st15" d="M136,128.7C136,128.6,136,128.6,136,128.7C136,128.7,136,128.7,136,128.7L136,128.7c2.5,1.6,5.4,2.4,8.3,2.3
			c0.1,0,0.1-0.2,0-0.2C141.5,130.4,138.7,129.7,136,128.7z"/>
		<path class="st15" d="M136.6,125.4C136.6,125.4,136.6,125.4,136.6,125.4c2.5,1.6,6,2.5,9.2,1.9c0.1,0,0.2-0.2,0.1-0.1
			C143.7,127.4,139.1,126.4,136.6,125.4z"/>
		<path class="st15" d="M147.1,123.5c-3.1,0.5-6.1-0.1-9.1-1.2c0,0-0.1,0,0,0.1c1.3,0.9,3.3,1.4,4.8,1.6c1.4,0.2,2.9,0.1,4.3-0.4
			C147.2,123.5,147.2,123.4,147.1,123.5z"/>
		<path class="st15" d="M135.8,128.5c-0.6-0.4-1.1-1.1-1-1.9c0.1-0.4,0.2-0.7,0.5-0.9c0.3-0.2,0.7-0.4,1.2-0.4
			c-0.6-0.5-0.9-1.4-0.6-2.2c0.2-0.3,0.5-0.6,0.8-0.7c0.4-0.2,0.8-0.2,1.3-0.3c-0.5-0.3-0.7-0.8-0.8-1.4c0-0.6,0.3-1.2,0.8-1.5
			c0.6-0.4,1.2-0.7,1.8-1c0.3-0.1,0.6-0.3,0.9-0.5c0.3-0.2,0.5-0.6,0.6-0.9c0-0.1,0.1,0,0.1,0c-0.1,0.3-0.2,0.5-0.4,0.7
			c-0.2,0.2-0.3,0.4-0.6,0.6c-0.6,0.4-1.1,0.7-1.7,1c-0.5,0.3-0.9,0.7-1.2,1.3c-0.2,0.6,0,1.2,0.4,1.7c0,0,0,0.1,0,0.1
			c-0.4,0.1-0.7,0.2-1.1,0.4c-0.3,0.2-0.5,0.4-0.6,0.7c-0.2,0.7-0.1,1.5,0.4,2c-0.4,0.1-0.8,0.3-1.1,0.6c-0.2,0.2-0.3,0.5-0.4,0.8
			C135.1,127.4,135.3,128.1,135.8,128.5C135.9,128.5,135.9,128.5,135.8,128.5L135.8,128.5L135.8,128.5
			C135.9,128.5,135.9,128.5,135.8,128.5L135.8,128.5c0.1,0-0.3,0.3-0.3,0.3s0,0,0,0C135.6,128.7,135.7,128.6,135.8,128.5z"/>
		<path class="st0" d="M132.3,127.1l8.7-12.4c0,0-1.4-2.4-1.3-3.2s11.2-12.9,13.2-17.1c2-4.2,2.5-6.7-2.2-4.5
			c-4.7,2.2-24.4,17.4-25.5,21.4S128.6,121.6,132.3,127.1z"/>
		<path class="st8" d="M145.2,100.5c-0.1-0.4-0.1-0.8,0-1.2C145.3,99.7,145.3,100.1,145.2,100.5z M150.4,94c0-0.2,0-0.4-0.1-0.6
			c-0.1,0.4-0.1,0.8,0,1.2C150.4,94.4,150.4,94.2,150.4,94L150.4,94z M138.2,104.5c0-0.2,0-0.4-0.1-0.6c-0.1,0.4-0.1,0.8,0,1.2
			C138.2,104.9,138.2,104.7,138.2,104.5L138.2,104.5z M129.6,108.7c0-0.2,0-0.4-0.1-0.6c-0.1,0.4-0.1,0.8,0,1.2
			C129.6,109.1,129.6,108.9,129.6,108.7L129.6,108.7z M136.8,111.7c0-0.2,0-0.4-0.1-0.6c-0.1,0.4-0.1,0.8,0,1.2
			C136.8,112.2,136.8,111.9,136.8,111.7L136.8,111.7z M129.8,116c0-0.2,0-0.4-0.1-0.6c-0.1,0.4-0.1,0.8,0,1.2
			C129.8,116.4,129.8,116.2,129.8,116L129.8,116z M136.8,118.1c0-0.2,0-0.4-0.1-0.6c-0.1,0.4-0.1,0.8,0,1.2
			C136.8,118.5,136.8,118.3,136.8,118.1L136.8,118.1z M148.7,91.7c0.2,0,0.4,0,0.6-0.1c-0.2-0.1-0.4-0.1-0.6-0.1
			c-0.2,0-0.4,0-0.6,0.1C148.3,91.7,148.5,91.7,148.7,91.7L148.7,91.7z M149.5,98.4c0.2,0,0.4,0,0.6-0.1c-0.2-0.1-0.4-0.1-0.6-0.1
			c-0.2,0-0.4,0-0.6,0.1C149.1,98.4,149.3,98.4,149.5,98.4L149.5,98.4z M141.6,97.9c0.2,0,0.4,0,0.6-0.1c-0.2-0.1-0.4-0.1-0.6-0.1
			c-0.2,0-0.4,0-0.6,0.1C141.2,97.8,141.4,97.9,141.6,97.9L141.6,97.9z M144.5,103.4c0.2,0,0.4,0,0.6-0.1c-0.4-0.1-0.8-0.1-1.2,0
			C144.1,103.4,144.3,103.4,144.5,103.4z M135.1,102.9c0.2,0,0.4,0,0.6-0.1c-0.4-0.1-0.8-0.1-1.2,0
			C134.7,102.9,134.9,102.9,135.1,102.9L135.1,102.9z M133.6,110.1c0.2,0,0.4,0,0.6-0.1c-0.4-0.1-0.8-0.1-1.2,0
			C133.2,110.1,133.4,110.1,133.6,110.1L133.6,110.1z M131.5,124c0.2,0,0.4,0,0.6-0.1c-0.4-0.1-0.8-0.1-1.2,0
			C131.1,123.9,131.3,124,131.5,124L131.5,124z M133,117.3c0.2,0,0.4,0,0.6-0.1c-0.2-0.1-0.4-0.1-0.6-0.1c-0.2,0-0.4,0-0.6,0.1
			C132.6,117.3,132.8,117.3,133,117.3L133,117.3z M126.5,114.8c0.2,0,0.4,0,0.6-0.1c-0.4-0.1-0.8-0.1-1.2,0
			C126.1,114.8,126.3,114.8,126.5,114.8L126.5,114.8z M138.1,100c-0.1-0.2-0.3-0.3-0.5-0.4c0.1,0.2,0.2,0.4,0.4,0.5
			c0.1,0.1,0.3,0.3,0.5,0.4C138.3,100.4,138.2,100.2,138.1,100L138.1,100z M135.2,106.8c-0.1-0.2-0.3-0.3-0.5-0.4
			c0.2,0.4,0.5,0.7,0.9,0.9C135.5,107.1,135.4,106.9,135.2,106.8L135.2,106.8z M129,119.8c-0.1-0.2-0.3-0.3-0.5-0.4
			c0.2,0.4,0.5,0.7,0.9,0.9C129.3,120.1,129.2,120,129,119.8L129,119.8z M135.3,120.9c-0.1-0.2-0.3-0.3-0.5-0.4
			c0.1,0.2,0.2,0.4,0.4,0.5c0.1,0.2,0.3,0.3,0.5,0.4C135.6,121.2,135.5,121,135.3,120.9L135.3,120.9z M127,111.5
			c-0.1-0.2-0.3-0.3-0.5-0.4c0.1,0.2,0.2,0.4,0.4,0.5c0.1,0.2,0.3,0.3,0.5,0.4C127.3,111.8,127.2,111.7,127,111.5L127,111.5z
			 M134.3,113.6c-0.1-0.1-0.3-0.3-0.5-0.4c0.1,0.2,0.2,0.4,0.4,0.5c0.1,0.2,0.3,0.3,0.5,0.4C134.6,113.9,134.4,113.8,134.3,113.6
			L134.3,113.6z M144.2,95.5c-0.1-0.2-0.3-0.3-0.5-0.4c0.1,0.2,0.2,0.4,0.4,0.5c0.1,0.1,0.3,0.3,0.5,0.4
			C144.5,95.8,144.3,95.6,144.2,95.5L144.2,95.5z M142,106.4c-0.1-0.2-0.3-0.3-0.5-0.4c0.1,0.2,0.2,0.4,0.4,0.5
			c0.1,0.1,0.3,0.3,0.5,0.4C142.3,106.7,142.2,106.5,142,106.4L142,106.4z M147.3,95.9c-0.2,0.1-0.3,0.3-0.4,0.5
			c0.4-0.2,0.7-0.5,0.9-0.9C147.6,95.7,147.4,95.8,147.3,95.9L147.3,95.9z M141.3,101.5c-0.2,0.1-0.3,0.3-0.4,0.5
			c0.2-0.1,0.4-0.2,0.5-0.4c0.2-0.1,0.3-0.3,0.4-0.5C141.7,101.3,141.5,101.4,141.3,101.5L141.3,101.5z M131.4,105.8
			c-0.1,0.1-0.3,0.3-0.4,0.5c0.2-0.1,0.4-0.2,0.5-0.4c0.2-0.1,0.3-0.3,0.4-0.5C131.7,105.5,131.6,105.7,131.4,105.8L131.4,105.8z
			 M130.5,112.5c-0.2,0.1-0.3,0.3-0.4,0.5c0.4-0.2,0.7-0.5,0.9-0.9C130.8,112.3,130.6,112.4,130.5,112.5L130.5,112.5z M137.9,115
			c-0.2,0.1-0.3,0.3-0.4,0.5c0.2-0.1,0.4-0.2,0.5-0.4c0.1-0.1,0.3-0.3,0.4-0.5C138.2,114.7,138.1,114.8,137.9,115L137.9,115z
			 M132,120.4c-0.2,0.1-0.3,0.3-0.4,0.5c0.4-0.2,0.7-0.5,0.9-0.9C132.3,120.2,132.2,120.3,132,120.4L132,120.4z M138.7,108.7
			c-0.2,0.1-0.3,0.3-0.4,0.5c0.4-0.2,0.7-0.5,0.9-0.9C139,108.5,138.9,108.6,138.7,108.7L138.7,108.7z M152.8,90.7
			c-0.2,0.1-0.3,0.3-0.4,0.5c0.2-0.1,0.4-0.2,0.5-0.4c0.1-0.1,0.3-0.3,0.4-0.5C153.1,90.4,153,90.5,152.8,90.7L152.8,90.7z"/>
		<path class="st15" d="M131.5,124c0.4-0.4,0.7-0.8,1-1.2c0.3-0.4,0.6-0.9,1-1.3c0.6-0.8,1.2-1.7,1.8-2.5c0.6-0.8,1.2-1.7,1.7-2.5
			c0.6-0.8,1.3-1.7,1.8-2.6c0,0,0,0,0-0.1c0,0,0,0-0.1,0c0,0,0,0,0,0c-0.7,0.8-1.3,1.7-1.9,2.6c-0.6,0.9-1.2,1.7-1.8,2.5
			c-0.6,0.8-1.2,1.7-1.8,2.5c-0.3,0.4-0.6,0.9-0.9,1.3S131.7,123.5,131.5,124C131.5,124,131.5,124,131.5,124z"/>
		<path class="st13" d="M159.5,92.3c-1.5,0.5-4.5-1.5-5.8-3.4c-0.1-0.1,0-1.6-0.1-3.3c0-1.1-0.1-2.2-0.2-3.3c0-0.2,0.8,0.1,0.8,0.1
			l1.4,0.2l4.7,0.6c-0.2,1.4-0.3,2.8-0.2,4.2c0,0.1,0,0.3,0.1,0.4c0,0,0,0,0,0.1C160.5,88.7,161,91.8,159.5,92.3z"/>
		<path class="st15" d="M160.3,87.8C160.3,87.8,160.3,87.8,160.3,87.8c-0.2,0.1-0.5,0.2-0.7,0.2c-4.5,0.4-5.7-5.3-5.7-5.3l1.8-0.1
			l4.7,0.6c-0.2,1.4-0.3,2.8-0.2,4.2C160.2,87.5,160.2,87.7,160.3,87.8z"/>
		<path class="st13" d="M151.9,74c-0.6,2.4,0.9,9.3,2.7,10.8c2.6,2.1,6.6,2.2,8.4-0.9c1.7-3-0.5-11.9-2.4-13.2
			C157.7,68.8,152.8,70.5,151.9,74z"/>
		<path class="st15" d="M157.8,78.2C157.8,78.2,157.8,78.2,157.8,78.2c0.1,0.5,0.1,1.1-0.2,1.3c0,0,0,0,0,0
			C158.1,79.3,158,78.6,157.8,78.2z"/>
		<path class="st15" d="M157.3,77.8c-0.8,0.1-0.5,1.6,0.2,1.5S157.9,77.7,157.3,77.8z"/>
		<path class="st15" d="M160.6,77.6C160.6,77.6,160.7,77.6,160.6,77.6c0.1,0.5,0.3,1,0.7,1.1v0C160.8,78.7,160.6,78,160.6,77.6z"/>
		<path class="st15" d="M161,77c0.7-0.2,1.1,1.3,0.4,1.5C160.7,78.6,160.3,77.2,161,77z"/>
		<path class="st15" d="M156.6,77.2c0.2-0.1,0.4-0.2,0.5-0.3c0.2-0.1,0.4-0.2,0.5-0.4c0.1-0.1,0-0.3-0.1-0.4
			c-0.3-0.1-0.6-0.1-0.8,0.1c-0.3,0.1-0.5,0.4-0.6,0.6c-0.1,0.2,0,0.4,0.2,0.4C156.4,77.2,156.5,77.2,156.6,77.2z"/>
		<path class="st15" d="M161.4,76.1c-0.2,0-0.4,0-0.6,0c-0.2,0-0.4,0-0.6-0.2c-0.1-0.1-0.1-0.3-0.1-0.4c0.2-0.2,0.5-0.3,0.8-0.3
			c0.3,0,0.6,0.1,0.8,0.3c0.1,0.1,0.1,0.4,0,0.5C161.6,76.1,161.5,76.1,161.4,76.1z"/>
		<path class="st15" d="M158.3,82.5c0.1,0.1,0.3,0.2,0.4,0.2c0.2,0,0.3-0.1,0.5-0.2c0,0,0,0,0,0c-0.1,0.2-0.3,0.4-0.5,0.4
			C158.5,82.8,158.3,82.7,158.3,82.5C158.2,82.5,158.3,82.5,158.3,82.5z"/>
		<path class="st15" d="M158.5,81c0.3,0.3,0.7,0.5,1.2,0.5c0.2,0,0.4,0,0.6-0.1l0.1,0l0.1,0c0.1,0,0.1-0.1,0.1-0.1l0,0v0l0,0v0
			c-0.1-0.4-0.2-0.9-0.2-0.9c0.1,0,0.9,0.2,0.8,0c-0.3-1.6-0.8-3.2-1.5-4.7c0,0,0,0-0.1,0c0,0,0,0,0,0c0.3,1.5,0.9,2.9,1.2,4.4
			c-0.3-0.1-0.5-0.1-0.8-0.1c0,0,0.3,1,0.3,1.2l0,0C159.7,81.3,159.1,81.2,158.5,81C158.5,80.9,158.5,81,158.5,81z"/>
		<path class="st15" d="M160.1,81.3c-0.2,0.3-0.4,0.5-0.7,0.7c-0.2,0.1-0.3,0.1-0.5,0.1c-0.4,0-0.4-0.4-0.4-0.7
			c0-0.2,0.1-0.3,0.1-0.5C159,81.3,159.5,81.4,160.1,81.3z"/>
		<path class="st17" d="M159.4,82c-0.2,0.1-0.3,0.1-0.5,0.1c-0.4,0-0.4-0.4-0.4-0.7C158.8,81.4,159.2,81.6,159.4,82z"/>
		<path class="st15" d="M152.5,79.3c1.6-0.3,1.3-3.3,1.3-3.3s2.6-1,2.6-3.1c0,0,2.9,1.2,4.8,0c1.9-1.1,1.1-3.6,0.8-4
			c-0.7-1-2.2,0.7-2.2,0.7s-2.9-1.1-5.7-0.2c-2.3,0.7-3.1,3.1-3.1,3.1s-1.2,0.5-1.5,1.5C149.5,75,151.5,79.5,152.5,79.3z"/>
		<path class="st15" d="M153.3,76.2c2.2-0.1,3.3-1.8,3.2-3.9 M156.5,72.3c0.3,1.9-1.1,4.3-3.3,4c0,0-0.1,0,0-0.1c0,0,0-0.1,0.1,0
			L156.5,72.3z"/>
		<path class="st15" d="M151.2,72.5C151.2,72.5,151.3,72.6,151.2,72.5c-0.5,0.4-1.2,0.8-1.5,1.4c-0.4,0.7-0.1,1.6,0.2,2.3
			c0.5,1.1,1.4,2.5,2.5,2.9c0.1,0,0,0.1,0,0.1c-1.4-0.5-2.4-2.3-2.9-3.6C149.1,74.2,149.9,73.1,151.2,72.5z"/>
		<path class="st15" d="M159,73c1.1,0.4,2.4,0.2,3.2-0.7c1-1.1,0.5-2.4-0.2-3.5c0-0.1,0-0.1,0.1-0.1c0.8,0.9,1.2,2.4,0.4,3.5
			c-0.7,1.1-2.4,1.4-3.5,0.9C158.8,73.2,158.9,73,159,73z"/>
		<path class="st13" d="M153.6,79.6c0,0-1.7-2.1-2.7-1.5c-1,0.6,0.4,3.8,1.6,4.2c0.6,0.2,1.3-0.1,1.6-0.7c0,0,0,0,0,0L153.6,79.6z"
			/>
		<path class="st15" d="M151.4,79C151.4,79,151.4,79,151.4,79c0.9,0.3,1.3,1.1,1.7,1.8c-0.2-0.3-0.6-0.4-0.9-0.2c0,0-0.1,0-0.1,0.1
			c0,0,0,0,0,0c0.3-0.1,0.6,0,0.8,0.2c0.2,0.2,0.3,0.4,0.4,0.6c0,0.1,0.2,0,0.1-0.1l0,0C153.4,80.5,152.5,79,151.4,79z"/>
		<path class="st0" d="M160.4,88.1l-1.5,4.2l-5.3-4.9l-1.4,1.7c0,0,5.3,8,5.3,7.6l1.5-3.6l2.5,2.3l-0.5-6.1L160.4,88.1z"/>
		<path class="st15" d="M161.6,92.3c-0.1-1-0.2-2-0.4-3c0,0-0.1,0-0.1,0c-0.2,1,0.3,4.8,0.3,5.8l0,0c-0.1-0.1-2.3-2.1-2.4-2
			c-0.3,0.6-1.5,3.2-1.5,3.4c-0.8-1.3-4.1-5.9-5-7.1c0,0,0,0,0,0s0,0,0,0c0.8,1.3,5,7.6,5.1,7.5c0.6-1.2,1.1-2.5,1.6-3.8
			c0.4,0.4,2.7,2.6,2.7,2.5C161.8,94.5,161.7,93.4,161.6,92.3z"/>
	</g>
</g>
<polygon class="st1" points="464.9,0 690,0 690,250 382.9,250 "/>
<polygon class="st0" points="365.9,250 447.9,0 422.2,0 340.2,250 "/>
<text transform="matrix(1 0 0 1 467.242 75.4543)"><tspan x="0" y="0" class="st8 st18 st19">Selamat datang di</tspan><tspan x="0" y="15.3" class="st8 st18 st19">BPR Intidana Sukses Makmur</tspan><tspan x="0" y="41.5" class="st8 st20 st21">Salah satu jenis bank yang dikenal</tspan><tspan x="0" y="54.6" class="st8 st20 st21">melayani golongan pengusaha</tspan><tspan x="0" y="67.7" class="st8 st20 st21">mikro, kecil dan menengah dengan</tspan><tspan x="0" y="80.8" class="st8 st20 st21">lokasi yang pada umumnya dekat</tspan><tspan x="0" y="93.9" class="st8 st20 st21">dengan tempat masyarakat yang</tspan><tspan x="0" y="107.1" class="st8 st20 st21">membutuhkan.</tspan></text>
<text transform="matrix(1 0 0 1 37.7188 46.8811)" class="st0 st18 st22">CEPAT, AMAN DAN MUDAH</text>
</svg>
