<?xml version="1.0" encoding="utf-8"?>
<!-- Generator: Adobe Illustrator 23.0.5, SVG Export Plug-In . SVG Version: 6.00 Build 0)  -->
<svg version="1.1" id="Layer_1" xmlns="http://www.w3.org/2000/svg" xmlns:xlink="http://www.w3.org/1999/xlink" x="0px" y="0px"
	 viewBox="0 0 690 250" style="enable-background:new 0 0 690 250;" xml:space="preserve">
<style type="text/css">
	.st0{fill:#EBEBEB;}
	.st1{fill:#F0F0F0;}
	.st2{fill:#F5F5F5;}
	.st3{fill:#FAFAFA;}
	.st4{fill:#FFC113;}
	.st5{opacity:0.7;}
	.st6{fill:#FFFFFF;}
	.st7{opacity:0.25;}
	.st8{opacity:0.1;}
	.st9{opacity:0.2;}
	.st10{opacity:0.3;}
	.st11{fill:#377F41;}
	.st12{fill:#443021;}
	.st13{fill:#263238;}
	.st14{opacity:0.2;enable-background:new    ;}
	.st15{opacity:0.1;enable-background:new    ;}
	.st16{fill:#E2877B;}
	.st17{fill:#2E353A;}
	.st18{opacity:0.4;enable-background:new    ;}
	.st19{opacity:0.1;fill:#FFFFFF;enable-background:new    ;}
	.st20{opacity:0.8;fill:#FFFFFF;enable-background:new    ;}
	.st21{fill:#DC5753;}
	.st22{fill:#E4897B;}
	.st23{opacity:0.8;}
	.st24{fill:#E6E6E6;}
	.st25{fill:#ED272A;}
	.st26{fill:#1A66B1;}
	.st27{clip-path:url(#SVGID_2_);}
	.st28{clip-path:url(#SVGID_4_);}
	.st29{clip-path:url(#SVGID_6_);}
	.st30{clip-path:url(#SVGID_8_);}
	.st31{fill:#DBDBDB;}
	.st32{fill:#C7C7C7;}
	.st33{fill:#FFEC66;}
	.st34{fill:#F7A9A0;}
	.st35{fill:#37474F;}
	.st36{fill:#455A64;}
	.st37{fill:#FF9ABB;}
	.st38{fill:#E0E0E0;}
	.st39{opacity:0.15;}
	.st40{opacity:0.2;fill:#FFFFFF;enable-background:new    ;}
	.st41{opacity:0.4;fill:#FFFFFF;enable-background:new    ;}
	.st42{fill:none;}
	.st43{opacity:0.3;fill:#FFFFFF;enable-background:new    ;}
	.st44{opacity:0.5;}
	.st45{opacity:0.5;fill:#FFFFFF;enable-background:new    ;}
	.st46{fill-opacity:0;}
	.st47{fill:#FFA8A7;}
	.st48{opacity:0.3;enable-background:new    ;}
	.st49{opacity:0.35;}
	.st50{fill:#F28F8F;}
	.st51{fill:#407BFF;}
	.st52{fill:#1A66B0;}
	.st53{opacity:0.8;enable-background:new    ;}
	.st54{fill:#28EA52;}
	.st55{fill:none;stroke:#263238;stroke-width:2;stroke-linecap:round;stroke-miterlimit:10;}
	.st56{fill:#FFE340;}
	.st57{fill:#E0C027;}
	.st58{opacity:0.5;enable-background:new    ;}
	.st59{opacity:0.6;fill:#FFFFFF;enable-background:new    ;}
	.st60{opacity:0.7;enable-background:new    ;}
	.st61{opacity:0.7;fill:#FFFFFF;enable-background:new    ;}
	.st62{opacity:0.4;fill:#E6E6E6;enable-background:new    ;}
	.st63{fill:#7BC3FF;}
	.st64{fill:#5FB3ED;}
	.st65{fill:#0B5089;}
</style>
<g>
	<rect x="580.6" y="188" class="st1" width="58.3" height="48.9"/>
	<rect x="627.7" y="194.1" class="st3" width="7.5" height="7.5"/>
	<rect x="613.3" y="194.1" class="st3" width="7.5" height="7.5"/>
	<rect x="598.8" y="194.1" class="st3" width="7.5" height="7.5"/>
	<rect x="584.4" y="194.1" class="st3" width="7.5" height="7.5"/>
	<rect x="627.7" y="207.7" class="st3" width="7.5" height="7.5"/>
	<rect x="613.3" y="207.7" class="st3" width="7.5" height="7.5"/>
	<rect x="598.8" y="207.7" class="st3" width="7.5" height="7.5"/>
	<rect x="584.4" y="207.7" class="st3" width="7.5" height="7.5"/>
	<rect x="627.7" y="221.2" class="st3" width="7.5" height="7.5"/>
	<rect x="613.3" y="221.2" class="st3" width="7.5" height="7.5"/>
	<rect x="598.8" y="221.2" class="st3" width="7.5" height="7.5"/>
	<rect x="584.4" y="221.2" class="st3" width="7.5" height="7.5"/>
	<rect x="592.9" y="84.7" class="st0" width="1.9" height="18.3"/>
	<rect x="635.2" y="84.7" class="st0" width="1.9" height="18.3"/>
	<rect x="614.1" y="84.7" class="st0" width="1.9" height="18.3"/>
	<rect x="591.1" y="101.2" class="st2" width="47.9" height="1.9"/>
	<rect x="591.1" y="83.8" class="st2" width="47.9" height="1.9"/>
	<rect x="592.9" y="67.3" class="st0" width="1.9" height="18.3"/>
	<rect x="635.2" y="67.3" class="st0" width="1.9" height="18.3"/>
	<rect x="614.1" y="67.3" class="st0" width="1.9" height="18.3"/>
	<rect x="591.1" y="66.4" class="st2" width="47.9" height="1.9"/>
	<rect x="580.6" y="102.9" class="st3" width="58.3" height="85.1"/>
	<rect x="613.3" y="106.6" class="st1" width="21.9" height="21"/>
	<rect x="584.4" y="106.6" class="st1" width="21.9" height="21"/>
	<rect x="613.3" y="133.7" class="st1" width="21.9" height="21"/>
	<rect x="584.4" y="133.7" class="st1" width="21.9" height="21"/>
	<rect x="613.3" y="160.9" class="st1" width="21.9" height="21"/>
	<rect x="584.4" y="160.9" class="st1" width="21.9" height="21"/>
	<rect x="459.7" y="141" class="st0" width="55.2" height="95.5"/>
	<polygon class="st0" points="504.3,127.7 504.3,141 500,141 474.7,141 470.3,141 470.3,127.7 	"/>
	<rect x="504.3" y="144.5" class="st3" width="7.1" height="7.1"/>
	<rect x="490.6" y="144.5" class="st3" width="7.1" height="7.1"/>
	<rect x="476.9" y="144.5" class="st3" width="7.1" height="7.1"/>
	<rect x="463.3" y="144.5" class="st3" width="7.1" height="7.1"/>
	<rect x="504.3" y="157.4" class="st3" width="7.1" height="7.1"/>
	<rect x="490.6" y="157.4" class="st3" width="7.1" height="7.1"/>
	<rect x="476.9" y="157.4" class="st3" width="7.1" height="7.1"/>
	<rect x="463.3" y="157.4" class="st3" width="7.1" height="7.1"/>
	<rect x="504.3" y="170.2" class="st3" width="7.1" height="7.1"/>
	<rect x="490.6" y="170.2" class="st3" width="7.1" height="7.1"/>
	<rect x="476.9" y="170.2" class="st3" width="7.1" height="7.1"/>
	<rect x="490.6" y="133.4" class="st3" width="7.1" height="7.1"/>
	<rect x="476.9" y="133.4" class="st3" width="7.1" height="7.1"/>
	<rect x="463.3" y="170.2" class="st3" width="7.1" height="7.1"/>
	<rect x="504.3" y="183.1" class="st3" width="7.1" height="7.1"/>
	<rect x="490.6" y="183.1" class="st3" width="7.1" height="7.1"/>
	<rect x="476.9" y="183.1" class="st3" width="7.1" height="7.1"/>
	<rect x="463.3" y="183.1" class="st3" width="7.1" height="7.1"/>
	<rect x="504.3" y="195.9" class="st3" width="7.1" height="7.1"/>
	<rect x="490.6" y="195.9" class="st3" width="7.1" height="7.1"/>
	<rect x="476.9" y="195.9" class="st3" width="7.1" height="7.1"/>
	<rect x="463.3" y="195.9" class="st3" width="7.1" height="7.1"/>
	<rect x="504.3" y="208.8" class="st3" width="7.1" height="7.1"/>
	<rect x="490.6" y="208.8" class="st3" width="7.1" height="7.1"/>
	<rect x="476.9" y="208.8" class="st3" width="7.1" height="7.1"/>
	<rect x="463.3" y="208.8" class="st3" width="7.1" height="7.1"/>
	<rect x="504.3" y="221.6" class="st3" width="7.1" height="7.1"/>
	<rect x="490.6" y="221.6" class="st3" width="7.1" height="7.1"/>
	<rect x="476.9" y="221.6" class="st3" width="7.1" height="7.1"/>
	<rect x="463.3" y="221.6" class="st3" width="7.1" height="7.1"/>
	<rect x="458.6" y="139.6" class="st2" width="57.5" height="1.4"/>
	<rect x="470.3" y="113.5" class="st0" width="1.4" height="14.1"/>
	<rect x="502.9" y="113.5" class="st0" width="1.4" height="14.1"/>
	<rect x="486.6" y="113.5" class="st0" width="1.4" height="14.1"/>
	<rect x="468.9" y="126.2" class="st2" width="36.9" height="1.4"/>
	<rect x="468.9" y="112.8" class="st2" width="36.9" height="1.4"/>
	<rect x="470.3" y="100.1" class="st0" width="1.4" height="14.1"/>
	<rect x="502.9" y="100.1" class="st0" width="1.4" height="14.1"/>
	<rect x="486.6" y="100.1" class="st0" width="1.4" height="14.1"/>
	<rect x="468.9" y="99.4" class="st2" width="36.9" height="1.4"/>
	<rect x="470.3" y="86.7" class="st0" width="1.4" height="14.1"/>
	<rect x="502.9" y="86.7" class="st0" width="1.4" height="14.1"/>
	<rect x="486.6" y="86.7" class="st0" width="1.4" height="14.1"/>
	<rect x="468.9" y="86" class="st2" width="36.9" height="1.4"/>
	<rect x="470.3" y="73.3" class="st0" width="1.4" height="14.1"/>
	<rect x="502.9" y="73.3" class="st0" width="1.4" height="14.1"/>
	<rect x="486.6" y="73.3" class="st0" width="1.4" height="14.1"/>
	<rect x="468.9" y="72.6" class="st2" width="36.9" height="1.4"/>
	<rect x="524.2" y="123" class="st0" width="65.6" height="113.5"/>
	<polygon class="st0" points="577.2,107.1 577.2,123 572,123 541.9,123 536.8,123 536.8,107.1 	"/>
	<rect x="577.2" y="127.2" class="st3" width="8.4" height="8.4"/>
	<rect x="560.9" y="127.2" class="st3" width="8.4" height="8.4"/>
	<rect x="544.7" y="127.2" class="st3" width="8.4" height="8.4"/>
	<rect x="528.4" y="127.2" class="st3" width="8.4" height="8.4"/>
	<rect x="577.2" y="142.5" class="st3" width="8.4" height="8.4"/>
	<rect x="560.9" y="142.5" class="st3" width="8.4" height="8.4"/>
	<rect x="544.7" y="142.5" class="st3" width="8.4" height="8.4"/>
	<rect x="528.4" y="142.5" class="st3" width="8.4" height="8.4"/>
	<rect x="577.2" y="157.7" class="st3" width="8.4" height="8.4"/>
	<rect x="560.9" y="157.7" class="st3" width="8.4" height="8.4"/>
	<rect x="544.7" y="157.7" class="st3" width="8.4" height="8.4"/>
	<rect x="560.9" y="114" class="st3" width="8.4" height="8.4"/>
	<rect x="544.7" y="114" class="st3" width="8.4" height="8.4"/>
	<rect x="528.4" y="157.7" class="st3" width="8.4" height="8.4"/>
	<rect x="577.2" y="173" class="st3" width="8.4" height="8.4"/>
	<rect x="560.9" y="173" class="st3" width="8.4" height="8.4"/>
	<rect x="544.7" y="173" class="st3" width="8.4" height="8.4"/>
	<rect x="528.4" y="173" class="st3" width="8.4" height="8.4"/>
	<rect x="577.2" y="188.3" class="st3" width="8.4" height="8.4"/>
	<rect x="560.9" y="188.3" class="st3" width="8.4" height="8.4"/>
	<rect x="544.7" y="188.3" class="st3" width="8.4" height="8.4"/>
	<rect x="528.4" y="188.3" class="st3" width="8.4" height="8.4"/>
	<rect x="577.2" y="203.5" class="st3" width="8.4" height="8.4"/>
	<rect x="560.9" y="203.5" class="st3" width="8.4" height="8.4"/>
	<rect x="544.7" y="203.5" class="st3" width="8.4" height="8.4"/>
	<rect x="528.4" y="203.5" class="st3" width="8.4" height="8.4"/>
	<rect x="577.2" y="218.8" class="st3" width="8.4" height="8.4"/>
	<rect x="560.9" y="218.8" class="st3" width="8.4" height="8.4"/>
	<rect x="544.7" y="218.8" class="st3" width="8.4" height="8.4"/>
	<rect x="528.4" y="218.8" class="st3" width="8.4" height="8.4"/>
	<rect x="522.8" y="121.4" class="st2" width="68.3" height="1.7"/>
	<rect x="536.8" y="90.3" class="st0" width="1.7" height="16.8"/>
	<rect x="575.5" y="90.3" class="st0" width="1.7" height="16.8"/>
	<rect x="556.1" y="90.3" class="st0" width="1.7" height="16.8"/>
	<rect x="535.1" y="105.4" class="st2" width="43.9" height="1.7"/>
	<rect x="535.1" y="89.5" class="st2" width="43.9" height="1.7"/>
	<rect x="536.8" y="74.4" class="st0" width="1.7" height="16.8"/>
	<rect x="575.5" y="74.4" class="st0" width="1.7" height="16.8"/>
	<rect x="556.1" y="74.4" class="st0" width="1.7" height="16.8"/>
	<rect x="535.1" y="73.5" class="st2" width="43.9" height="1.7"/>
	<rect x="536.8" y="58.5" class="st0" width="1.7" height="16.8"/>
	<rect x="575.5" y="58.5" class="st0" width="1.7" height="16.8"/>
	<rect x="556.1" y="58.5" class="st0" width="1.7" height="16.8"/>
	<rect x="535.1" y="57.6" class="st2" width="43.9" height="1.7"/>
	<rect x="575.5" y="42.5" class="st0" width="1.7" height="16.8"/>
	<rect x="556.1" y="42.5" class="st0" width="1.7" height="16.8"/>
	<path class="st0" d="M545.9,79.4v-3.6c0-0.2-0.2-0.4-0.5-0.4c-0.2,0-0.3,0.2-0.4,0.4v3.9c0,0.2,0.2,0.4,0.4,0.4
		c1.3,0.1,2.3,1.8,1.2,2.9c-0.7,0.6-1.8,0.6-2.5-0.1c-0.3-0.3-0.4-0.7-0.4-1.1c-0.1-0.5-0.9-0.5-0.9,0c0.2,2.1,2.7,3.5,4.4,1.8
		C548.8,82.2,547.8,79.9,545.9,79.4z"/>
	<path class="st1" d="M483.3,53.9v7.7l-8.1-8.1l-0.4,0.4h-0.6v73.2h10.2V53.9H483.3z M475.3,109.8l7.1,7.1h-7.1V109.8z M475.3,91.6
		l7.1,7.1h-7.1V91.6z M475.3,73.4l7.1,7.2h-7.1V73.4z M475.3,55.3l7.1,7.1h-7.1V55.3z M482.5,63.6l-7.1,7.1v-7.1L482.5,63.6z
		 M483.3,64.4v7.1h-7.2L483.3,64.4z M482.5,81.7l-7.1,7.1v-7.2L482.5,81.7z M483.3,82.5v7.1h-7.2L483.3,82.5z M482.5,99.9l-7.1,7.1
		v-7.1L482.5,99.9z M483.3,100.7v7.1h-7.2L483.3,100.7z M482.5,118.1l-7.1,7.1V118L482.5,118.1z M476.1,126l7.2-7.1v7.1H476.1z
		 M483.3,116.1l-7.2-7.2h7.2L483.3,116.1z M483.3,98l-7.2-7.1h7.2L483.3,98z M483.3,79.8l-7.2-7.1h7.2L483.3,79.8z"/>
	<path class="st1" d="M475.3,29.8V44h1.1v-5.4l5.8,5.8l0.4-0.4h0.6V29.8H475.3z M481.3,30.9l-4.9,4.9v-4.9H481.3z M482.1,42.6
		l-4.9-4.9h4.9L482.1,42.6z M477.3,36.6l4.9-4.9v4.9H477.3z"/>
	<rect x="443.1" y="53.9" class="st24" width="13.6" height="13.6"/>
	<polygon class="st24" points="545.6,73.5 544.9,73.5 544.9,47.4 481.4,26.3 477.2,26.3 443.3,47.4 442.9,46.8 477,25.6 481.6,25.6 
		481.6,25.6 545.6,46.8 	"/>
	<path class="st1" d="M537.9,54.5h0.8l8-8H442.5v7.9L537.9,54.5L537.9,54.5z M539,47.6h4.9l-4.9,4.9V47.6z M443.6,53.3v-4.9l4.9,4.9
		H443.6z M449.3,52.5l-4.9-4.9h4.9V52.5z M450.5,47.6h4.9l-4.9,4.9V47.6z M456.1,53.3h-4.9l4.9-4.9V53.3z M457.3,53.3v-4.9l4.9,4.9
		H457.3z M463,52.5l-4.9-4.9h4.9V52.5z M464.1,47.6h4.9l-4.9,4.9V47.6z M469.8,53.3h-4.9l4.9-4.9V53.3z M470.9,53.3v-4.9l4.9,4.9
		H470.9z M476.6,52.5l-4.9-4.9h4.9L476.6,52.5z M477.7,47.6h4.9l-4.9,4.9L477.7,47.6z M483.4,53.3h-4.9l4.9-4.9V53.3z M484.5,53.3
		v-4.9l4.9,4.9H484.5z M490.2,52.5l-4.9-4.9h4.9V52.5z M491.4,47.6h4.9l-4.9,4.9L491.4,47.6z M497,53.3h-4.9l4.9-4.9V53.3z
		 M498.2,53.3v-4.9l4.9,4.9H498.2z M503.9,52.5l-4.9-4.9h4.9V52.5z M505,47.6h4.9l-4.9,4.9V47.6z M510.7,53.3h-4.9l4.9-4.9V53.3z
		 M511.8,53.3v-4.9l4.9,4.9H511.8z M517.5,52.5l-4.9-4.9h4.9V52.5z M518.6,47.6h4.9l-4.9,4.9V47.6z M524.3,53.3h-4.9l4.9-4.9V53.3z
		 M525.4,47.6h4.9l-4.9,4.9V47.6z M531.1,53.3h-4.9l4.9-4.9L531.1,53.3z M532.2,53.3v-4.9l4.9,4.9H532.2z M533,47.6h4.9v4.9
		L533,47.6z"/>
	<path class="st1" d="M489.5,57h-21l0.8-8.8c0.2-2.4,2.2-4.2,4.6-4.2h10c2.3,0,4.3,1.8,4.6,4.1L489.5,57z"/>
	<rect x="471.9" y="47.6" class="st3" width="4" height="4"/>
	<rect x="477" y="47.6" class="st3" width="4" height="4"/>
	<rect x="482.1" y="47.6" class="st3" width="4" height="4"/>
	<circle class="st24" cx="479.3" cy="27.6" r="2.7"/>
	<path class="st24" d="M545.5,78.2L545.5,78.2c-1.3,0-2.3-1.1-2.3-2.3l0,0v-2.3h4.7v2.3C547.8,77.2,546.8,78.2,545.5,78.2z"/>
	<path class="st0" d="M549.7,60.5v-3c0-0.2,0.2-0.4,0.4-0.4s0.4,0.2,0.4,0.4v3.3c0,0.2-0.2,0.4-0.4,0.4c-1.1,0.1-2,1.5-1,2.5
		c0.6,0.6,1.5,0.5,2.1-0.1c0.2-0.3,0.4-0.6,0.4-0.9c0.1-0.5,0.8-0.5,0.7,0c-0.2,1.8-2.3,3-3.7,1.5S548.1,61,549.7,60.5z"/>
	<path class="st0" d="M602.2,38.7v62.6h8.7V38.7h-0.5l-0.3-0.3l-6.9,6.9v-6.6H602.2z M610,92.6h-6.1l6.1-6.1L610,92.6z M610,77h-6.1
		l6.1-6.1L610,77z M610,61.5h-6.1l6.1-6.1L610,61.5z M610,46h-6.1l6.1-6.1L610,46z M610,46.9V53l-6.1-6.1L610,46.9z M609.3,53.7
		h-6.1v-6.1L609.3,53.7z M610,62.4v6.1l-6.1-6.1L610,62.4z M609.3,69.2h-6.1v-6.1L609.3,69.2z M610,78v6.1l-6.1-6.1L610,78z
		 M609.3,84.8h-6.1v-6.1L609.3,84.8z M610,93.5v6.1l-6.1-6.1L610,93.5z M603.2,100.3v-6.1l6.1,6.1H603.2z M603.2,85.8h6.1l-6.1,6.1
		V85.8z M603.2,70.2h6.1l-6.1,6.1V70.2z M603.2,54.7h6.1l-6.1,6.1V54.7z"/>
	<path class="st0" d="M603.2,18v12.1h0.5l0.3,0.3l5-5v4.7h1V18H603.2z M609,19v4.2l-4.2-4.2L609,19z M604.1,24.8h4.2l-4.2,4.2
		L604.1,24.8z M604.1,23.8v-4.2l4.2,4.2L604.1,23.8z"/>
	<rect x="625.9" y="38.7" class="st1" width="11.7" height="11.7"/>
	<polygon class="st24" points="549.9,55.5 550.5,55.5 550.5,33.1 604.8,15.1 608.4,15.1 637.4,33.1 637.8,32.6 608.5,14.4 
		604.7,14.4 604.6,14.5 549.9,32.6 	"/>
	<path class="st0" d="M556.5,39.2h81.6v-6.8h-89l6.8,6.8L556.5,39.2L556.5,39.2z M555.5,37.5l-4.2-4.2h4.2V37.5z M632.9,38.2
		l4.2-4.2v4.2H632.9z M632.2,33.3h4.2l-4.2,4.2V33.3z M631.3,37.5l-4.2-4.2h4.2V37.5z M626.4,34l4.2,4.2h-4.2L626.4,34z M621.3,38.2
		l4.2-4.2v4.2H621.3z M620.6,33.3h4.2l-4.2,4.2V33.3z M619.7,37.5l-4.2-4.2h4.2L619.7,37.5z M614.8,34l4.2,4.2h-4.2V34z M609.7,38.2
		l4.2-4.2v4.2H609.7z M609,33.3h4.2l-4.2,4.2V33.3z M608,37.5l-4.2-4.2h4.2L608,37.5z M603.1,34l4.2,4.2h-4.2L603.1,34z M598,38.2
		l4.2-4.2v4.2H598z M597.3,33.3h4.2l-4.2,4.2V33.3z M596.4,37.5l-4.2-4.2h4.2L596.4,37.5z M591.5,34l4.2,4.2h-4.2V34z M586.3,38.2
		l4.2-4.2v4.2H586.3z M585.7,33.3h4.2l-4.2,4.2V33.3z M584.7,37.5l-4.2-4.2h4.2L584.7,37.5z M579.8,34l4.2,4.2h-4.2V34z M574.7,38.2
		l4.2-4.2v4.2H574.7z M574,33.3h4.2l-4.2,4.2V33.3z M573,37.5l-4.2-4.2h4.2V37.5z M568.2,34l4.2,4.2h-4.2V34z M567.2,37.5l-4.2-4.2
		h4.2V37.5z M562.3,34l4.2,4.2h-4.2V34z M557.2,38.2l4.2-4.2v4.2H557.2z M556.5,37.5v-4.2h4.2L556.5,37.5z"/>
	<path class="st0" d="M597.9,41.3h17.9l-0.7-7.5c-0.2-2.1-1.9-3.6-3.9-3.6h-8.5c-2,0-3.7,1.5-3.9,3.5L597.9,41.3z"/>
	<rect x="609.5" y="33.3" class="st3" width="3.4" height="3.4"/>
	<rect x="605.1" y="33.3" class="st3" width="3.4" height="3.4"/>
	<rect x="600.8" y="33.3" class="st3" width="3.4" height="3.4"/>
	<path class="st24" d="M604.2,16.2c0,1.3,1.1,2.3,2.3,2.3c1.3,0,2.3-1.1,2.3-2.3c0-1.3-1.1-2.3-2.3-2.3
		C605.3,13.8,604.2,14.9,604.2,16.2C604.2,16.2,604.2,16.2,604.2,16.2z"/>
	<path class="st24" d="M550,59.5L550,59.5c1.1,0,2-0.9,2-2c0,0,0,0,0,0v-2h-4v2C548,58.6,548.9,59.5,550,59.5z"/>
</g>
<polygon class="st25" points="282.4,250 0,250 0,0 364.4,0 "/>
<polygon class="st26" points="392.6,0 310.6,250 336.3,250 418.3,0 "/>
<g>
	<g id="freepik--Coins--inject-2">
		<rect x="551.8" y="227" class="st56" width="50.4" height="9.5"/>
		<rect x="551.8" y="227" class="st14" width="50.4" height="1.1"/>
		<rect x="555.5" y="227" class="st14" width="2" height="9.5"/>
		<rect x="560.1" y="227" class="st14" width="2" height="9.5"/>
		<rect x="564.6" y="227" class="st14" width="2" height="9.5"/>
		<rect x="569.2" y="227" class="st14" width="2" height="9.5"/>
		<rect x="573.7" y="227" class="st14" width="2" height="9.5"/>
		<rect x="578.3" y="227" class="st14" width="2" height="9.5"/>
		<rect x="582.9" y="227" class="st14" width="2" height="9.5"/>
		<rect x="587.4" y="227" class="st14" width="2" height="9.5"/>
		<rect x="592" y="227" class="st14" width="2" height="9.5"/>
		<rect x="596.5" y="227" class="st14" width="2" height="9.5"/>
		<rect x="549.8" y="217.5" class="st56" width="50.4" height="9.5"/>
		<rect x="549.8" y="217.5" class="st14" width="50.4" height="1.1"/>
		<rect x="553.5" y="217.5" class="st14" width="2" height="9.5"/>
		<rect x="558" y="217.5" class="st14" width="2" height="9.5"/>
		<rect x="562.6" y="217.5" class="st14" width="2" height="9.5"/>
		<rect x="567.1" y="217.5" class="st14" width="2" height="9.5"/>
		<rect x="571.7" y="217.5" class="st14" width="2" height="9.5"/>
		<rect x="576.3" y="217.5" class="st14" width="2" height="9.5"/>
		<rect x="580.8" y="217.5" class="st14" width="2" height="9.5"/>
		<rect x="585.4" y="217.5" class="st14" width="2" height="9.5"/>
		<rect x="589.9" y="217.5" class="st14" width="2" height="9.5"/>
		<rect x="594.5" y="217.5" class="st14" width="2" height="9.5"/>
		<rect x="548.3" y="208.1" class="st56" width="50.4" height="9.5"/>
		<rect x="548.3" y="208.1" class="st14" width="50.4" height="1.1"/>
		<rect x="552" y="208.1" class="st14" width="2" height="9.5"/>
		<rect x="556.6" y="208.1" class="st14" width="2" height="9.5"/>
		<rect x="561.1" y="208.1" class="st14" width="2" height="9.5"/>
		<rect x="565.7" y="208.1" class="st14" width="2" height="9.5"/>
		<rect x="570.2" y="208.1" class="st14" width="2" height="9.5"/>
		<rect x="574.8" y="208.1" class="st14" width="2" height="9.5"/>
		<rect x="579.4" y="208.1" class="st14" width="2" height="9.5"/>
		<rect x="583.9" y="208.1" class="st14" width="2" height="9.5"/>
		<rect x="588.5" y="208.1" class="st14" width="2" height="9.5"/>
		<rect x="593" y="208.1" class="st14" width="2" height="9.5"/>
		<rect x="550.6" y="198.6" class="st56" width="50.4" height="9.5"/>
		<rect x="550.6" y="198.6" class="st14" width="50.4" height="1.1"/>
		<rect x="554.3" y="198.6" class="st14" width="2" height="9.5"/>
		<rect x="558.9" y="198.6" class="st14" width="2" height="9.5"/>
		<rect x="563.4" y="198.6" class="st14" width="2" height="9.5"/>
		<rect x="568" y="198.6" class="st14" width="2" height="9.5"/>
		<rect x="572.5" y="198.6" class="st14" width="2" height="9.5"/>
		<rect x="577.1" y="198.6" class="st14" width="2" height="9.5"/>
		<rect x="581.6" y="198.6" class="st14" width="2" height="9.5"/>
		<rect x="586.2" y="198.6" class="st14" width="2" height="9.5"/>
		<rect x="590.8" y="198.6" class="st14" width="2" height="9.5"/>
		<rect x="595.3" y="198.6" class="st14" width="2" height="9.5"/>
		<rect x="548.4" y="189.1" class="st56" width="50.4" height="9.5"/>
		<rect x="548.4" y="189.1" class="st14" width="50.4" height="1.1"/>
		<rect x="593.1" y="189.1" class="st14" width="2" height="9.5"/>
		<rect x="588.6" y="189.1" class="st14" width="2" height="9.5"/>
		<rect x="584" y="189.1" class="st14" width="2" height="9.5"/>
		<rect x="579.4" y="189.1" class="st14" width="2" height="9.5"/>
		<rect x="574.9" y="189.1" class="st14" width="2" height="9.5"/>
		<rect x="570.3" y="189.1" class="st14" width="2" height="9.5"/>
		<rect x="565.8" y="189.1" class="st14" width="2" height="9.5"/>
		<rect x="561.2" y="189.1" class="st14" width="2" height="9.5"/>
		<rect x="556.6" y="189.1" class="st14" width="2" height="9.5"/>
		<rect x="552.1" y="189.1" class="st14" width="2" height="9.5"/>
		<rect x="550.4" y="179.6" class="st56" width="50.4" height="9.5"/>
		<rect x="550.4" y="179.6" class="st14" width="50.4" height="1.1"/>
		<rect x="595.2" y="179.6" class="st14" width="2" height="9.5"/>
		<rect x="590.6" y="179.6" class="st14" width="2" height="9.5"/>
		<rect x="586" y="179.6" class="st14" width="2" height="9.5"/>
		<rect x="581.5" y="179.6" class="st14" width="2" height="9.5"/>
		<rect x="576.9" y="179.6" class="st14" width="2" height="9.5"/>
		<rect x="572.4" y="179.6" class="st14" width="2" height="9.5"/>
		<rect x="567.8" y="179.6" class="st14" width="2" height="9.5"/>
		<rect x="563.3" y="179.6" class="st14" width="2" height="9.5"/>
		<rect x="558.7" y="179.6" class="st14" width="2" height="9.5"/>
		<rect x="554.1" y="179.6" class="st14" width="2" height="9.5"/>
		<rect x="551.9" y="170.1" class="st56" width="50.4" height="9.5"/>
		<rect x="551.9" y="170.1" class="st14" width="50.4" height="1.1"/>
		<rect x="596.6" y="170.1" class="st14" width="2" height="9.5"/>
		<rect x="592.1" y="170.1" class="st14" width="2" height="9.5"/>
		<rect x="587.5" y="170.1" class="st14" width="2" height="9.5"/>
		<rect x="582.9" y="170.1" class="st14" width="2" height="9.5"/>
		<rect x="578.4" y="170.1" class="st14" width="2" height="9.5"/>
		<rect x="573.8" y="170.1" class="st14" width="2" height="9.5"/>
		<rect x="569.3" y="170.1" class="st14" width="2" height="9.5"/>
		<rect x="564.7" y="170.1" class="st14" width="2" height="9.5"/>
		<rect x="560.1" y="170.1" class="st14" width="2" height="9.5"/>
		<rect x="555.6" y="170.1" class="st14" width="2" height="9.5"/>
		<rect x="549.6" y="160.6" class="st56" width="50.4" height="9.5"/>
		<rect x="549.6" y="160.6" class="st14" width="50.4" height="1.1"/>
		<rect x="594.3" y="160.6" class="st14" width="2" height="9.5"/>
		<rect x="589.8" y="160.6" class="st14" width="2" height="9.5"/>
		<rect x="585.2" y="160.6" class="st14" width="2" height="9.5"/>
		<rect x="580.7" y="160.6" class="st14" width="2" height="9.5"/>
		<rect x="576.1" y="160.6" class="st14" width="2" height="9.5"/>
		<rect x="571.5" y="160.6" class="st14" width="2" height="9.5"/>
		<rect x="567" y="160.6" class="st14" width="2" height="9.5"/>
		<rect x="562.4" y="160.6" class="st14" width="2" height="9.5"/>
		<rect x="557.9" y="160.6" class="st14" width="2" height="9.5"/>
		<rect x="553.3" y="160.6" class="st14" width="2" height="9.5"/>
	</g>
	<g id="freepik--Character--inject-2">
		<polygon class="st47" points="622.3,232.3 617.8,231.5 618.6,220.7 623.1,221.5 		"/>
		<polygon class="st47" points="653,232.2 648.4,232.2 647.2,221.5 651.8,221.5 		"/>
		<path class="st13" d="M648,231.7h5.6c0.2,0,0.4,0.1,0.4,0.3l0.9,4.1c0.1,0.4-0.2,0.7-0.5,0.8c0,0-0.1,0-0.2,0
			c-1.8,0-3.1-0.1-5.4-0.1c-1.4,0-5.7,0.1-7.6,0.1c-1.9,0-2.2-1.9-1.4-2.1c3.6-0.8,6.3-1.9,7.4-2.9
			C647.4,231.8,647.7,231.7,648,231.7z"/>
		<path class="st13" d="M617.9,230.5l5,0.9c0.2,0,0.3,0.2,0.3,0.4l0.2,4.2c0,0.4-0.3,0.7-0.6,0.7c-0.1,0-0.1,0-0.2,0
			c-1.8-0.3-4.4-0.9-6.6-1.3c-2.6-0.5-3.9-0.8-7-1.3c-1.9-0.3-1.5-2.4-0.6-2.4c3.7-0.2,5,0.4,8.4-1
			C617.1,230.5,617.5,230.4,617.9,230.5z"/>
		<path class="st47" d="M633.8,90.4c-0.2,0.5-0.3,0.8-0.4,1.2s-0.3,0.8-0.4,1.1c-0.3,0.7-0.6,1.5-1,2.2c-0.7,1.5-1.4,2.9-2.3,4.3
			c-1.7,3-4,5.6-6.6,7.7c-0.7,0.6-1.5,1.1-2.4,1.5c-0.2,0.1-0.4,0.2-0.7,0.3c-0.2,0.1-0.4,0.2-0.7,0.3c-0.5,0.2-1.1,0.3-1.6,0.4
			c-0.9,0.2-1.8,0.2-2.7,0.2c-0.8,0-1.7,0-2.5-0.1c-3.1-0.2-6.2-0.8-9.2-1.7l0.5-3.4c2.9-0.1,5.9-0.2,8.7-0.5c0.7-0.1,1.4-0.1,2-0.2
			c0.6-0.1,1.2-0.2,1.8-0.4c0.2-0.1,0.4-0.1,0.5-0.2c0.2-0.1,0.5-0.2,0.7-0.4c0.5-0.3,0.9-0.6,1.4-1c0.9-0.8,1.8-1.8,2.5-2.8
			c0.8-1.1,1.5-2.2,2.2-3.4c0.7-1.2,1.3-2.4,1.9-3.7c0.3-0.6,0.6-1.3,0.8-1.9l0.4-1l0.4-0.9L633.8,90.4z"/>
		<path class="st51" d="M631.5,84.9c8.5,0-0.8,18.3-0.8,18.3l-10.8-4.4c0,0,2.9-6.4,4.9-10C626.1,86.3,628.7,84.8,631.5,84.9z"/>
		<g>
			<path class="st26" d="M631.5,84.9c8.5,0-0.8,18.3-0.8,18.3l-10.8-4.4c0,0,2.9-6.4,4.9-10C626.1,86.3,628.7,84.8,631.5,84.9z"/>
		</g>
		<path class="st14" d="M629.5,90.9c-3.1,2.2-5.2,6.2-5.9,9.5l6.2,2.5c1.1-1.7,2.2-3.6,3.4-5.4c0.3-0.9,0.7-1.9,0.9-2.8L629.5,90.9z
			"/>
		<path class="st47" d="M606.4,104.9l-3.7-2.1l-2.8,5.3c1.6,0.3,3.3,0.2,4.9-0.1L606.4,104.9z"/>
		<polygon class="st47" points="599.1,102.8 597.1,107.5 599.8,108.1 602.7,102.8 		"/>
		<polygon class="st14" points="618.6,220.7 618.2,226.2 622.7,227.1 623.1,221.5 		"/>
		<polygon class="st14" points="651.8,221.5 647.2,221.5 647.8,227 652.4,227 		"/>
		<path class="st51" d="M654.6,87c-1.4,5-2.3,10.1-2.9,15.2c-0.4,3.6-0.7,7-0.9,10.1c-0.4,7.3-0.2,12.8-0.4,14.7
			c-3.6-0.2-17.3-1.2-24.7-1.7c-3.4-26.4,3.1-39.9,3.1-39.9c1.9-0.4,3.9-0.6,5.9-0.7c0.4,0,0.8,0,1.3,0c3.5,0,7,0.3,10.5,0.7
			c0.7,0.1,1.3,0.2,2,0.3C651.7,86.2,654.6,87,654.6,87z"/>
		<g>
			<path class="st26" d="M654.6,87c-1.4,5-2.3,10.1-2.9,15.2c-0.4,3.6-0.7,7-0.9,10.1c-0.4,7.3-0.2,12.8-0.4,14.7
				c-3.6-0.2-17.3-1.2-24.7-1.7c-3.4-26.4,3.1-39.9,3.1-39.9c1.9-0.4,3.9-0.6,5.9-0.7c0.4,0,0.8,0,1.3,0c3.5,0,7,0.3,10.5,0.7
				c0.7,0.1,1.3,0.2,2,0.3C651.7,86.2,654.6,87,654.6,87z"/>
		</g>
		<path class="st14" d="M648.3,93.6c0,3.8,1,7.5,3.1,10.7c0.1-0.7,0.2-1.4,0.2-2.1c0.3-2.7,0.8-5.5,1.3-8.3L648.3,93.6z"/>
		<path class="st47" d="M646.2,73.4c-0.9,3.3-2,9.5,0.2,11.9c-2.3,2.1-5.3,3-8.3,2.7c-2.9-0.3-2.9-2.3-2.2-3.4
			c3.8-0.6,3.9-3.4,3.5-6.1L646.2,73.4z"/>
		<path class="st13" d="M635.9,89.1c0.1,0.5,0.2,1,0.4,1.5c0.1,0.3,0.4,0.5,0.7,0.5c0.5,0,1,0,1.4,0.1c0.2,0,0.4,0,0.6-0.1
			c0.6-0.4,1.3-0.9,1.1-1.6c-0.2-0.8-1.6-1.5-1.6-1.5S636.2,88.6,635.9,89.1z"/>
		<path class="st13" d="M637.2,90.6c-0.9,2.1-3.1,15.4-3.4,17.4c-0.3,2,0.7,5.3,1.9,7.8c1.5-2,2.3-4.4,2.4-6.9
			c0.2-2.7,0.3-17.9,0.3-17.9L637.2,90.6z"/>
		<path class="st6" d="M638.6,88.1c0.9,0.7,1.6,1.6,2.1,2.6c1.5-0.1,8.1-3,7.1-5.2c-0.8-0.2-1.5-0.7-1.8-0.5
			C645.8,85.5,643,87.2,638.6,88.1z"/>
		<path class="st6" d="M638.6,88.1c0,0-2.5,0.9-3.1,2.3c-1.5-0.7-2.4-3.7-1-5.7c0.8-0.1,1.7-0.5,1.8-0.2
			C636.5,84.9,635.9,86.3,638.6,88.1z"/>
		<path class="st14" d="M643.4,75.5l-4,3c0.1,0.6,0.2,1.3,0.2,1.9c1.5-0.1,3.5-1.5,3.8-3C643.5,76.7,643.5,76.1,643.4,75.5z"/>
		<path class="st13" d="M636.3,62.7c-1.8,0.7-2.4,7.5,1.2,6.9C641.1,68.9,639.9,61.3,636.3,62.7z"/>
		<path class="st47" d="M648,69.5c-1.4,4.4-2.1,7-4.9,8.7c-4.3,2.5-9.2-0.9-9.1-5.6c0.1-4.2,2.4-10.7,7.2-11.3
			c3.4-0.5,6.6,1.9,7.1,5.4C648.4,67.6,648.3,68.6,648,69.5z"/>
		<path class="st13" d="M646.4,72.6c-1.8,0-3.3-5.5,0.4-7.1c-2.9-0.3-11.9,0.2-13.5-3.8s4.6-4.6,6.7-3.1c-0.7-2.2,2.1-5.4,7-2.5
			s4.9,6.6,4.4,7.7c2.2,0.6,2.6,5.5,0.2,6.1c1.4,2,0.2,6.1-3.6,5.2c-0.1,2.4-2.8,1.4-2.7-0.5C645.5,72.7,646.4,72.6,646.4,72.6z"/>
		<path class="st13" d="M638.2,73.6L638.2,73.6c1.1,0.3,2.2,0.1,3-0.6c0,0,0-0.1,0-0.2c0,0-0.1,0-0.2,0c-0.8,0.6-1.8,0.9-2.8,0.6
			C638.2,73.4,638.1,73.5,638.2,73.6C638.1,73.5,638.1,73.5,638.2,73.6C638.1,73.6,638.2,73.6,638.2,73.6z"/>
		<path class="st47" d="M648.9,74.2c-0.8,0.8-2,1.2-3.1,1.2c-1.5-0.1-1.8-1.5-1-2.7c0.7-1.1,2.4-2.4,3.8-1.7c1,0.5,1.4,1.7,0.9,2.6
			C649.3,73.8,649.1,74,648.9,74.2z"/>
		<path class="st13" d="M616.6,224.4l7.7,1.8c0,0,2.7-29.8,5-46.2c0.6-4.3,1.6-10.5,3-17c1.8-8.2,4.1-17.1,6-24
			c2-7.3,3.5-12.5,3.5-12.5l-16.3-1.1c0,0-8.8,38.4-9.7,52.4C614.9,192.5,616.6,224.4,616.6,224.4z"/>
		<path class="st14" d="M632.3,163c1.8-8.2,4.1-17.1,6-24l-1.7-3.6C632.6,140.1,631.5,155,632.3,163z"/>
		<path class="st13" d="M634.4,125.9c0,0,1.8,39.7,3.7,53.1c2.1,14.7,7.6,46.9,7.6,46.9h8.5c0,0-2.4-30.6-4-45
			c-1.8-16.4,0.1-53.9,0.1-53.9L634.4,125.9z"/>
		<polygon class="st51" points="644.6,226.1 654.6,226.1 655.1,223.1 644.1,222.9 		"/>
		<polygon class="st51" points="616.1,224.9 624.8,226.6 625.8,223.6 615.9,221.7 		"/>
		<path class="st13" d="M641.3,69.2c-0.1,0.4-0.4,0.6-0.6,0.5s-0.4-0.4-0.3-0.8c0.1-0.4,0.4-0.6,0.6-0.5
			C641.3,68.5,641.4,68.8,641.3,69.2z"/>
		<path class="st13" d="M637.2,68.1c-0.1,0.4-0.4,0.6-0.6,0.5s-0.3-0.4-0.3-0.8c0.1-0.4,0.4-0.6,0.6-0.5S637.3,67.8,637.2,68.1z"/>
		<path class="st50" d="M638.1,68.5c-0.7,1-1.6,1.9-2.5,2.6c0.5,0.8,1.7,0.7,1.7,0.7L638.1,68.5z"/>
		<path class="st13" d="M642.6,68c-0.1,0-0.2-0.1-0.2-0.1c-0.2-0.5-0.6-0.9-1.2-1.1c-0.1,0-0.2-0.1-0.2-0.3s0.1-0.2,0.3-0.2l0,0
			c0.7,0.2,1.2,0.7,1.5,1.3C642.8,67.8,642.8,68,642.6,68C642.7,68,642.7,68,642.6,68C642.6,68,642.6,68,642.6,68z"/>
		<path class="st13" d="M635.5,66.1c0,0-0.1,0-0.1-0.1c-0.1-0.1-0.1-0.2,0-0.3c0,0,0,0,0,0c0.4-0.5,1.1-0.8,1.8-0.8
			c0.1,0,0.2,0.1,0.2,0.2c0,0.1-0.1,0.2-0.2,0.2l0,0c-0.6,0-1.1,0.2-1.4,0.6C635.6,66.1,635.6,66.1,635.5,66.1z"/>
		<path class="st51" d="M646.5,232.5c-0.3,0-0.6-0.1-0.9-0.2c-0.2-0.1-0.3-0.4-0.2-0.6c0-0.1,0.1-0.3,0.2-0.3c0.5-0.3,2,0.7,2.2,0.8
			c0,0,0.1,0.1,0,0.1c0,0,0,0.1-0.1,0.1C647.3,232.4,646.9,232.5,646.5,232.5z M645.8,231.5c0,0-0.1,0-0.1,0c0,0-0.1,0-0.1,0.1
			c0,0.1,0,0.3,0.1,0.4c0.5,0.2,1.1,0.3,1.6,0.1C646.9,231.8,646.3,231.6,645.8,231.5L645.8,231.5z"/>
		<path class="st51" d="M647.6,232.3L647.6,232.3c-0.5-0.3-1.5-1.3-1.4-1.8c0-0.2,0.2-0.3,0.3-0.3c0.2,0,0.3,0,0.5,0.1
			c0.5,0.4,0.6,1.8,0.7,1.8C647.7,232.3,647.7,232.3,647.6,232.3C647.7,232.3,647.7,232.3,647.6,232.3z M646.7,230.4L646.7,230.4
			c-0.2,0-0.2,0.1-0.2,0.1c-0.1,0.3,0.5,1.1,1,1.4c0-0.5-0.2-1-0.5-1.4C646.9,230.5,646.8,230.4,646.7,230.4z"/>
		<path class="st51" d="M617.3,231L617.3,231c-0.8,0-2.1,0-2.5-0.6c-0.1-0.2-0.2-0.4-0.1-0.6c0-0.1,0.1-0.2,0.2-0.3
			c0.6-0.2,2.3,1,2.5,1.2c0,0,0.1,0.1,0,0.1C617.4,231,617.4,231,617.3,231z M615,229.8L615,229.8c0,0-0.1,0.1-0.1,0.1
			c0,0.1,0,0.3,0.1,0.4c0.2,0.3,1,0.5,2,0.5C616.3,230.3,615.4,229.8,615,229.8L615,229.8z"/>
		<path class="st51" d="M617.3,231C617.3,231,617.3,231,617.3,231c-0.6-0.3-1.5-1.5-1.3-2c0-0.1,0.2-0.3,0.5-0.2
			c0.2,0,0.4,0.1,0.6,0.3c0.5,0.6,0.4,1.8,0.4,1.9C617.4,231,617.4,231,617.3,231L617.3,231z M616.3,229c-0.1,0-0.1,0.1-0.1,0.1
			c-0.1,0.3,0.5,1.2,1,1.6c0-0.5-0.1-1.1-0.4-1.5c-0.1-0.1-0.3-0.2-0.4-0.2C616.4,228.9,616.3,229,616.3,229z"/>
		<path class="st57" d="M633.6,107.7l-1.9-1.3l-30.8,43.1l1.9,1.3c12.1,8.2,28.6,5,36.8-7.1C647.5,132,644.9,116.2,633.6,107.7
			L633.6,107.7z"/>
		<path class="st13" d="M587.9,131.3c-0.4-3.6-0.2-7.3,0.8-10.9l0.6,0.2c-0.9,3.5-1.2,7.1-0.8,10.7L587.9,131.3z"/>
		<path class="st13" d="M589.7,138.4c-0.5-1.3-0.9-2.7-1.3-4.1l0.6-0.1c0.3,1.4,0.7,2.7,1.2,4L589.7,138.4z"/>
		<circle class="st56" cx="616.3" cy="127.9" r="26.5"/>
		<path class="st15" d="M637.7,125.7c-2.7-11.6-14.3-18.9-25.9-16.2c-10.6,2.4-17.8,12.4-16.6,23.3c-2.7-11.6,4.6-23.2,16.2-25.9
			c11.6-2.7,23.2,4.6,25.9,16.2C637.5,123.9,637.7,124.8,637.7,125.7z"/>
		<path class="st47" d="M655.2,89.5c0.6,0.7,1.1,1.4,1.6,2.2c0.5,0.7,1,1.4,1.4,2.2c0.9,1.5,1.8,2.9,2.7,4.5
			c0.8,1.5,1.6,3.1,2.3,4.8l0.5,1.2l0.5,1.3c0.2,0.4,0.3,0.9,0.4,1.3l0.2,0.7l0.1,0.2l0.1,0.4c0.1,0.2,0.1,0.5,0.1,0.7
			c0.1,0.8-0.1,1.7-0.3,2.5c-0.2,0.6-0.5,1.2-0.8,1.7c-0.5,0.9-1.2,1.7-1.9,2.5c-1.2,1.3-2.6,2.5-4,3.6c-2.7,2.1-5.7,3.9-8.7,5.5
			l-1.9-2.9c2.5-2.1,4.9-4.3,7.2-6.6c1.1-1.1,2.1-2.2,3-3.4c0.4-0.5,0.7-1.1,1-1.6c0.1-0.2,0.2-0.4,0.2-0.6c0-0.1,0-0.2,0,0
			c0,0,0,0.1,0,0.1c0,0,0,0,0,0.1l-0.1-0.1l-0.2-0.5c-0.1-0.4-0.3-0.7-0.4-1l-0.5-1l-0.5-1c-0.7-1.4-1.4-2.8-2.3-4.1
			c-0.8-1.4-1.7-2.7-2.5-4c-0.4-0.7-0.9-1.3-1.3-2l-1.3-1.9L655.2,89.5z"/>
		<path class="st51" d="M654.6,87c4.3,0.9,8.2,11.5,8.2,11.5l-9.1,7.4c0,0-2.9-5.4-5.4-10.6C645.7,89.6,649.3,85.9,654.6,87z"/>
		<g>
			<path class="st26" d="M654.6,87c4.3,0.9,8.2,11.5,8.2,11.5l-9.1,7.4c0,0-2.9-5.4-5.4-10.6C645.7,89.6,649.3,85.9,654.6,87z"/>
		</g>
		<path class="st47" d="M648.4,121.3l-4.7,0.5l3,5.1c0,0,3.9-1.3,3.4-3.5L648.4,121.3z"/>
		<polygon class="st47" points="640.9,124.5 643.6,128.6 646.7,126.9 643.7,121.8 		"/>
		<g>
			<path class="st57" d="M609.8,128.7l0.7-4.7l-0.1-0.1l-2.1-1.9l-2.6,2.8l-2.4-2.2l9.5-10.2l4.4,4.1c2.7,2.5,3.1,5.5,1,7.8
				c-1.4,1.5-3.2,1.9-5.1,1.3l-0.8,5.4L609.8,128.7z M615.3,118.4l-1.9-1.8l-3.3,3.5l1.9,1.8c1.4,1.3,2.8,1.3,3.8,0.2
				C616.8,121.1,616.7,119.8,615.3,118.4z"/>
			<path class="st57" d="M626,136.5c-2.3,2.5-5.4,2.4-7.6,0.4c-1-0.9-1.5-2-1.5-3.1l-3.4,3.7l-2.3-2.1l9.9-10.6l2.2,2l-0.8,0.9
				c1.2-0.2,2.4,0.3,3.4,1.3C628.1,130.9,628.3,134.1,626,136.5z M623.7,134.4c1.3-1.4,1.2-3,0-4s-2.8-1-4,0.3c-1.3,1.4-1.2,3,0,4
				C620.8,135.7,622.5,135.7,623.7,134.4z"/>
		</g>
	</g>
</g>
<g id="freepik--trux-mixer--inject-2">
	<rect x="387.4" y="216.2" class="st26" width="97" height="7.5"/>
	<rect x="387.4" y="216.2" class="st14" width="97" height="7.5"/>
	<path class="st13" d="M499,217.9h4.2c5,0.1,9,4.3,8.8,9.3c-0.1,4.8-4,8.7-8.8,8.8H499c-5-0.1-9-4.3-8.8-9.3
		C490.3,221.9,494.2,218,499,217.9z"/>
	<circle class="st58" cx="499" cy="227" r="9"/>
	<path class="st13" d="M427.5,217.9h4.2c5-0.1,9.1,3.8,9.3,8.8c0.1,5-3.8,9.1-8.8,9.3c-0.1,0-0.3,0-0.4,0h-4.2
		c-5,0.1-9.1-3.8-9.3-8.8c-0.1-5,3.8-9.1,8.8-9.3C427.2,217.9,427.4,217.9,427.5,217.9z"/>
	<circle class="st58" cx="427.5" cy="227" r="9"/>
	<path class="st13" d="M473.8,217.9h4.2c5-0.1,9.1,3.8,9.3,8.8s-3.8,9.1-8.8,9.3c-0.1,0-0.3,0-0.4,0h-4.2c-5,0.1-9.1-3.8-9.3-8.8
		s3.8-9.1,8.8-9.3C473.5,217.9,473.6,217.9,473.8,217.9z"/>
	<path class="st58" d="M473.8,217.9h4.2c5-0.1,9.1,3.8,9.3,8.8s-3.8,9.1-8.8,9.3c-0.1,0-0.3,0-0.4,0h-4.2c-5,0.1-9.1-3.8-9.3-8.8
		s3.8-9.1,8.8-9.3C473.5,217.9,473.6,217.9,473.8,217.9z"/>
	<path class="st13" d="M451.7,217.9h4.2c5-0.1,9.1,3.8,9.3,8.8c0.1,5-3.8,9.1-8.8,9.3c-0.1,0-0.3,0-0.4,0h-4.2
		c-5,0.1-9.1-3.8-9.3-8.8s3.8-9.1,8.8-9.3C451.5,217.9,451.6,217.9,451.7,217.9z"/>
	<path class="st58" d="M451.7,217.9h4.2c5-0.1,9.1,3.8,9.3,8.8c0.1,5-3.8,9.1-8.8,9.3c-0.1,0-0.3,0-0.4,0h-4.2
		c-5,0.1-9.1-3.8-9.3-8.8s3.8-9.1,8.8-9.3C451.5,217.9,451.6,217.9,451.7,217.9z"/>
	<path class="st13" d="M400.5,217.9h4.2c5-0.1,9.1,3.8,9.3,8.8s-3.8,9.1-8.8,9.3c-0.1,0-0.3,0-0.4,0h-4.2c-5,0.1-9.1-3.8-9.3-8.8
		c-0.1-5,3.8-9.1,8.8-9.3C400.3,217.9,400.4,217.9,400.5,217.9z"/>
	<path class="st58" d="M400.5,217.9h4.2c5-0.1,9.1,3.8,9.3,8.8s-3.8,9.1-8.8,9.3c-0.1,0-0.3,0-0.4,0h-4.2c-5,0.1-9.1-3.8-9.3-8.8
		c-0.1-5,3.8-9.1,8.8-9.3C400.3,217.9,400.4,217.9,400.5,217.9z"/>
	<circle class="st13" cx="400.5" cy="227" r="9"/>
	<path class="st26" d="M394.4,227c0,3.4,2.7,6.1,6.1,6.1c3.4,0,6.1-2.7,6.1-6.1c0-3.4-2.7-6.1-6.1-6.1
		C397.2,220.8,394.5,223.5,394.4,227C394.4,226.9,394.4,226.9,394.4,227z M404.2,228.2l-0.3-0.3c-0.1-0.1-0.2-0.3-0.2-0.5
		c0.1-0.3,0.1-0.6,0-1c0-0.2,0-0.4,0.2-0.5l0.3-0.3c0.2-0.3,0.7-0.3,0.9,0c0.1,0.1,0.2,0.2,0.2,0.3c0.1,0.6,0.1,1.3,0,1.9
		c-0.1,0.3-0.4,0.6-0.8,0.5C404.4,228.4,404.3,228.3,404.2,228.2L404.2,228.2z M401.2,230.8l0.1-0.4c0.1-0.2,0.2-0.3,0.4-0.4
		c0.3-0.1,0.6-0.3,0.8-0.5c0.1-0.1,0.3-0.2,0.5-0.1l0.4,0.1c0.3,0.1,0.6,0.4,0.5,0.8c0,0.1-0.1,0.3-0.2,0.3c-0.5,0.4-1.1,0.8-1.7,1
		c-0.3,0.1-0.7-0.1-0.8-0.4C401.2,231,401.2,230.9,401.2,230.8z M402.1,222.4c0.6,0.2,1.2,0.5,1.7,1c0.3,0.2,0.3,0.6,0.1,0.9
		c-0.1,0.1-0.2,0.2-0.3,0.2l-0.4,0.1c-0.2,0-0.4,0-0.5-0.1c-0.2-0.2-0.5-0.3-0.8-0.5c-0.2-0.1-0.3-0.2-0.4-0.4l-0.1-0.4
		c-0.1-0.3,0.1-0.7,0.4-0.8C401.8,222.3,402,222.3,402.1,222.4L402.1,222.4z M399.8,223.2l-0.1,0.4c-0.1,0.2-0.2,0.3-0.4,0.4
		c-0.3,0.1-0.6,0.3-0.8,0.5c-0.1,0.1-0.3,0.2-0.5,0.1l-0.4-0.1c-0.3-0.1-0.6-0.4-0.5-0.8c0-0.1,0.1-0.2,0.2-0.3
		c0.5-0.4,1.1-0.8,1.7-1c0.3-0.1,0.7,0.1,0.8,0.4C399.9,222.9,399.9,223,399.8,223.2L399.8,223.2z M397.6,229.5l0.4-0.1
		c0.2,0,0.4,0,0.5,0.1c0.2,0.2,0.5,0.3,0.8,0.5c0.2,0.1,0.3,0.2,0.4,0.4l0.1,0.4c0.1,0.3-0.1,0.7-0.4,0.8c-0.1,0-0.3,0-0.4,0
		c-0.6-0.2-1.2-0.5-1.7-1c-0.3-0.2-0.3-0.6-0.1-0.9C397.3,229.6,397.5,229.5,397.6,229.5L397.6,229.5z M395.8,227.9
		c-0.1-0.6-0.1-1.3,0-1.9c0.1-0.3,0.4-0.6,0.8-0.5c0.1,0,0.2,0.1,0.3,0.2l0.3,0.3c0.1,0.1,0.2,0.3,0.2,0.5c0,0.3,0,0.6,0,1
		c0,0.2,0,0.4-0.2,0.5l-0.3,0.3c-0.2,0.3-0.7,0.3-0.9,0C395.9,228.2,395.8,228.1,395.8,227.9L395.8,227.9z"/>
	<circle class="st13" cx="451.8" cy="227" r="9"/>
	<path class="st26" d="M445.6,227c0,3.4,2.8,6.1,6.1,6.1c3.4,0,6.1-2.8,6.1-6.1c0-3.4-2.7-6.1-6.1-6.1
		C448.4,220.8,445.6,223.6,445.6,227C445.6,226.9,445.6,226.9,445.6,227z M455.4,228.2l-0.3-0.3c-0.1-0.1-0.2-0.3-0.2-0.5
		c0.1-0.3,0.1-0.6,0-1c0-0.2,0-0.4,0.2-0.5l0.2-0.3c0.2-0.3,0.7-0.3,0.9,0c0.1,0.1,0.2,0.2,0.2,0.3c0.1,0.6,0.1,1.3,0,1.9
		c-0.1,0.3-0.4,0.6-0.8,0.5C455.6,228.4,455.5,228.3,455.4,228.2L455.4,228.2z M452.5,230.8l0.1-0.4c0.1-0.2,0.2-0.3,0.4-0.4
		c0.3-0.1,0.6-0.3,0.8-0.5c0.1-0.1,0.3-0.2,0.5-0.1l0.4,0.1c0.3,0.1,0.6,0.4,0.5,0.8c0,0.1-0.1,0.3-0.2,0.3c-0.5,0.4-1.1,0.8-1.7,1
		c-0.3,0.1-0.7-0.1-0.8-0.4C452.4,231,452.4,230.9,452.5,230.8z M453.3,222.4c0.6,0.2,1.2,0.5,1.7,1c0.3,0.2,0.3,0.6,0.1,0.9
		c-0.1,0.1-0.2,0.2-0.3,0.2l-0.4,0.1c-0.2,0-0.4,0-0.5-0.1c-0.2-0.2-0.5-0.3-0.8-0.5c-0.2-0.1-0.3-0.2-0.4-0.4l-0.1-0.4
		c-0.1-0.3,0.1-0.7,0.4-0.8C453,222.3,453.2,222.3,453.3,222.4L453.3,222.4z M451,223.2l-0.1,0.4c-0.1,0.2-0.2,0.3-0.4,0.4
		c-0.3,0.1-0.6,0.3-0.8,0.5c-0.1,0.1-0.3,0.2-0.5,0.1l-0.4-0.1c-0.3-0.1-0.6-0.4-0.5-0.8c0-0.1,0.1-0.2,0.2-0.3
		c0.5-0.4,1.1-0.8,1.7-1c0.3-0.1,0.7,0.1,0.8,0.4C451.1,222.9,451.1,223,451,223.2L451,223.2z M448.8,229.5l0.4-0.1
		c0.2,0,0.4,0,0.5,0.1c0.2,0.2,0.5,0.3,0.8,0.5c0.2,0.1,0.3,0.2,0.4,0.4l0.1,0.4c0.1,0.3-0.1,0.7-0.4,0.8c-0.1,0-0.3,0-0.4,0
		c-0.6-0.2-1.2-0.5-1.7-1c-0.3-0.2-0.3-0.6-0.1-0.9C448.5,229.6,448.7,229.5,448.8,229.5L448.8,229.5z M447,227.9
		c-0.1-0.6-0.1-1.3,0-1.9c0.1-0.3,0.4-0.6,0.8-0.5c0.1,0,0.3,0.1,0.3,0.2l0.3,0.3c0.1,0.1,0.2,0.3,0.2,0.5c0,0.3,0,0.6,0,1
		c0,0.2,0,0.4-0.2,0.5l-0.3,0.3c-0.2,0.3-0.6,0.3-0.9,0C447.1,228.2,447,228.1,447,227.9L447,227.9z"/>
	<circle class="st13" cx="473.8" cy="227" r="9"/>
	<path class="st13" d="M483.2,222.3h3.6v3.7h-2.6C484.1,224.8,483.8,223.5,483.2,222.3z"/>
	<path class="st13" d="M463.3,226.1h-1.1c-0.1-1.3-0.4-2.6-1-3.7h3.2C463.8,223.5,463.4,224.8,463.3,226.1z"/>
	<g class="st23">
		<path class="st6" d="M483.2,222.3h3.6v3.7h-2.6C484.1,224.8,483.8,223.5,483.2,222.3z"/>
		<path class="st6" d="M463.3,226.1h-1.1c-0.1-1.3-0.4-2.6-1-3.7h3.2C463.8,223.5,463.4,224.8,463.3,226.1z"/>
	</g>
	<path class="st26" d="M467.7,227c0,3.4,2.8,6.1,6.1,6.1c3.4,0,6.1-2.8,6.1-6.1c0-3.4-2.7-6.1-6.1-6.1
		C470.4,220.8,467.7,223.6,467.7,227C467.7,226.9,467.7,226.9,467.7,227z M477.4,228.2l-0.3-0.3c-0.1-0.1-0.2-0.3-0.2-0.5
		c0.1-0.3,0.1-0.6,0-1c0-0.2,0-0.4,0.2-0.5l0.3-0.3c0.2-0.3,0.7-0.3,0.9,0c0.1,0.1,0.2,0.2,0.2,0.3c0.1,0.6,0.1,1.3,0,1.9
		c-0.1,0.3-0.4,0.6-0.8,0.5C477.6,228.4,477.5,228.3,477.4,228.2L477.4,228.2z M474.5,230.8l0.1-0.4c0.1-0.2,0.2-0.3,0.4-0.4
		c0.3-0.1,0.6-0.3,0.8-0.5c0.1-0.1,0.3-0.2,0.5-0.1l0.4,0.1c0.3,0.1,0.6,0.4,0.5,0.8c0,0.1-0.1,0.3-0.2,0.3c-0.5,0.4-1.1,0.8-1.7,1
		c-0.3,0.1-0.7-0.1-0.8-0.4C474.4,231,474.4,230.9,474.5,230.8z M475.3,222.4c0.6,0.2,1.2,0.5,1.7,1c0.3,0.2,0.3,0.6,0.1,0.9
		c-0.1,0.1-0.2,0.2-0.3,0.2l-0.4,0.1c-0.2,0-0.4,0-0.5-0.1c-0.2-0.2-0.5-0.3-0.8-0.5c-0.2-0.1-0.3-0.2-0.4-0.4l-0.1-0.4
		c-0.1-0.3,0.1-0.7,0.4-0.8C475,222.3,475.2,222.3,475.3,222.4z M473,223.2l-0.1,0.4c-0.1,0.2-0.2,0.3-0.4,0.4
		c-0.3,0.1-0.6,0.3-0.8,0.5c-0.1,0.1-0.3,0.2-0.5,0.1l-0.4-0.1c-0.3-0.1-0.6-0.4-0.5-0.8c0-0.1,0.1-0.2,0.2-0.3
		c0.5-0.4,1.1-0.8,1.7-1c0.3-0.1,0.7,0.1,0.8,0.4C473.1,222.9,473.1,223,473,223.2L473,223.2z M470.8,229.5l0.4-0.1
		c0.2,0,0.4,0,0.5,0.1c0.2,0.2,0.5,0.3,0.8,0.5c0.2,0.1,0.3,0.2,0.4,0.4l0.1,0.4c0.1,0.3-0.1,0.7-0.4,0.8c-0.1,0-0.3,0-0.4,0
		c-0.6-0.2-1.2-0.5-1.7-1c-0.3-0.2-0.3-0.6-0.1-0.9C470.6,229.6,470.7,229.5,470.8,229.5L470.8,229.5z M469,227.9
		c-0.1-0.6-0.1-1.3,0-1.9c0.1-0.3,0.4-0.6,0.8-0.5c0.1,0,0.3,0.1,0.3,0.2l0.3,0.3c0.1,0.1,0.2,0.3,0.2,0.5c0,0.3,0,0.6,0,1
		c0,0.2,0,0.4-0.2,0.5l-0.3,0.3c-0.2,0.3-0.7,0.3-0.9,0C469.1,228.2,469,228.1,469,227.9L469,227.9z"/>
	<rect x="417.9" y="177.6" class="st26" width="15" height="44.7"/>
	<rect x="417.9" y="177.6" class="st14" width="15" height="44.7"/>
	<path class="st26" d="M394.2,177.7h23.6v44.7h-7.9c-2.6-5.2-8.8-7.3-14-4.8c-2.1,1-3.7,2.7-4.8,4.8h-16.5v-25.1L394.2,177.7z"/>
	<path class="st13" d="M379.3,204.4v-3.9c0-0.9,0.3-1.7,1-2.3l14.9-14.9c0.6-0.6,1.4-1,2.3-1h11.8v22.1H379.3z"/>
	<path class="st45" d="M379.3,204.4v-3.9c0-0.9,0.3-1.7,1-2.3l14.9-14.9c0.6-0.6,1.4-1,2.3-1h11.8v22.1H379.3z"/>
	<rect x="488.2" y="213.1" class="st26" width="27.8" height="9.2"/>
	<rect x="488.2" y="213.1" class="st14" width="27.8" height="9.2"/>
	<path class="st6" d="M510.8,218.4h-17.4c-0.4,0-0.8-0.4-0.8-0.8v-1.7c0-0.4,0.4-0.8,0.8-0.8h17.4c0.4,0,0.8,0.4,0.8,0.8v1.7
		C511.6,218,511.2,218.4,510.8,218.4z"/>
	<path class="st6" d="M392.8,206.5h3.1c0.5,0,0.9,0.5,0.9,1c0,0.5-0.4,0.9-0.9,0.9h-3.1c-0.5,0-0.9-0.5-0.9-1
		C391.9,206.9,392.3,206.5,392.8,206.5z"/>
	<path class="st26" d="M377.1,218.8h-2.7c-0.7,0-1.2-0.5-1.2-1.2v-7.4c0-0.7,0.5-1.2,1.2-1.2h2.7c1.2,0,2.3,1,2.3,2.3l0,0v5.3
		C379.3,217.8,378.3,218.8,377.1,218.8z"/>
	<path class="st14" d="M377.1,218.8h-2.7c-0.7,0-1.2-0.5-1.2-1.2v-7.4c0-0.7,0.5-1.2,1.2-1.2h2.7c1.2,0,2.3,1,2.3,2.3l0,0v5.3
		C379.3,217.8,378.3,218.8,377.1,218.8z"/>
	<path class="st6" d="M375,217.9L375,217.9c0.5,0,0.9-0.4,0.9-0.9l0,0v-6.2c0-0.5-0.4-0.9-0.9-0.9l0,0c-0.5,0-0.8,0.4-0.8,0.9v6.2
		C374.2,217.5,374.6,217.9,375,217.9z"/>
	<path class="st13" d="M381.5,201.9L381.5,201.9c0.5,0,0.9-0.4,0.9-0.9l0,0v-6.2c0-0.5-0.4-0.9-0.9-0.9c0,0,0,0,0,0l0,0
		c-0.5,0-0.9,0.4-0.9,0.9v6.2C380.7,201.5,381,201.9,381.5,201.9z"/>
	<path class="st13" d="M429.8,189.5h6.2c3.4,0,6.2,2.8,6.2,6.2c0,3.1-2.3,5.7-5.4,6.1l2.5,19.7h-15.7v-25.9
		C423.7,192.3,426.4,189.5,429.8,189.5z"/>
	<path class="st13" d="M429.8,189.5c3.4,0,6.2,2.8,6.2,6.2c0,3.1-2.3,5.7-5.4,6.1l2.5,19.7h-9.5v-25.9
		C423.7,192.3,426.4,189.5,429.8,189.5z"/>
	<path class="st40" d="M429.8,189.5c3.4,0,6.2,2.8,6.2,6.2c0,3.1-2.3,5.7-5.4,6.1l2.5,19.7h-9.5v-25.9
		C423.7,192.3,426.4,189.5,429.8,189.5z"/>
	<path class="st26" d="M447,166.6c-7.5,18.1,1.1,38.8,19.2,46.3c0,0,0,0,0,0l-19.2-0.6c-12.4-5.1-18.3-19.4-13.2-31.8L447,166.6z"/>
	<path class="st59" d="M447,166.6c-7.5,18.1,1.1,38.8,19.2,46.3c0,0,0,0,0,0l-19.2-0.6c-12.4-5.1-18.3-19.4-13.2-31.8L447,166.6z"/>
	<path class="st26" d="M496.4,154.6c-5.1,12.4,0.8,26.7,13.2,31.8C514.7,174,508.8,159.8,496.4,154.6
		C496.4,154.6,496.4,154.6,496.4,154.6z"/>
	<path class="st40" d="M496.4,154.6c-5.1,12.4,0.8,26.7,13.2,31.8C514.7,174,508.8,159.8,496.4,154.6
		C496.4,154.6,496.4,154.6,496.4,154.6z"/>
	<path class="st13" d="M497.2,161.9c-1.6,7.3,1.5,14.8,7.8,18.8c1.1,0.7,2.7,0.4,3.4-0.7c0.2-0.2,0.3-0.5,0.3-0.8
		c1.6-7.3-1.5-14.8-7.8-18.9c-1.2-0.7-2.7-0.4-3.4,0.7C497.3,161.3,497.2,161.6,497.2,161.9z"/>
	<path class="st19" d="M497.2,161.9c-1.6,7.3,1.5,14.8,7.8,18.8c1.1,0.7,2.7,0.4,3.4-0.7c0.2-0.2,0.3-0.5,0.3-0.8
		c1.6-7.3-1.5-14.8-7.8-18.9c-1.2-0.7-2.7-0.4-3.4,0.7C497.3,161.3,497.2,161.6,497.2,161.9z"/>
	<path class="st60" d="M502.1,178.4c-3.5-3.5-5.5-8.2-5.4-13.2C500.3,168.7,502.2,173.5,502.1,178.4z"/>
	<path class="st26" d="M447,166.6c-7.5,18.1,1.1,38.8,19.2,46.3c0,0,0,0,0,0l30.2-12.5c-18.1-7.5-26.7-28.2-19.2-46.3c0,0,0,0,0,0
		L447,166.6z"/>
	<path class="st61" d="M447,166.6c-7.5,18.1,1.1,38.8,19.2,46.3c0,0,0,0,0,0l30.2-12.5c-18.1-7.5-26.7-28.2-19.2-46.3c0,0,0,0,0,0
		L447,166.6z"/>
	<path class="st26" d="M477.2,154.1c-7.5,18.1,1.1,38.8,19.2,46.3c0,0,0,0,0,0l13.2-13.9c-12.4-5.1-18.3-19.4-13.2-31.8L477.2,154.1
		z"/>
	<path class="st20" d="M477.2,154.1c-7.5,18.1,1.1,38.8,19.2,46.3c0,0,0,0,0,0l13.2-13.9c-12.4-5.1-18.3-19.4-13.2-31.8L477.2,154.1
		z"/>
	<path class="st26" d="M488.2,213.1v9.2h-5c-2.6-5.2-8.8-7.3-14-4.8c-2.1,1-3.7,2.7-4.8,4.8h-3.2c-2.6-5.2-8.8-7.3-14-4.8
		c-2.1,1-3.7,2.7-4.8,4.8h-24.5v-9.2H488.2z"/>
	<path class="st15" d="M441.6,209.2c2.3-2.6,5.7-5.3,9.7-7.9c3.8,5.1,9,9.2,14.9,11.6l-19.2-0.6
		C445.1,211.5,443.3,210.5,441.6,209.2z"/>
	<path class="st15" d="M451.3,201.3c6.8-4.2,14.1-7.5,21.7-9.8c3-0.9,5.9-1.7,8.7-2.4c3.8,5,8.9,8.9,14.7,11.3l-30.2,12.5
		C460.3,210.4,455.1,206.4,451.3,201.3z"/>
	<path class="st15" d="M508.4,187.6l-12,12.8c-5.8-2.4-10.9-6.3-14.7-11.3C492.3,186.6,501.8,186.2,508.4,187.6z"/>
	<rect x="486.8" y="222.3" class="st13" width="30.7" height="3.7"/>
	<path class="st13" d="M391.1,222.3c-0.6,1.2-0.9,2.4-1,3.7h-17.6v-3.7H391.1z"/>
	<path class="st13" d="M441.3,225.9H411c-0.1-1.2-0.4-2.4-0.9-3.5h32.2C441.7,223.4,441.4,224.6,441.3,225.9z"/>
	<rect x="486.8" y="222.3" class="st45" width="30.7" height="3.7"/>
	<path class="st20" d="M391.1,222.3c-0.6,1.2-0.9,2.4-1,3.7h-17.6v-3.7H391.1z"/>
	<path class="st20" d="M441.3,225.9H411c-0.1-1.2-0.4-2.4-0.9-3.5h32.2C441.7,223.4,441.4,224.6,441.3,225.9z"/>
	<path class="st13" d="M504.4,191.9l2.4,21.2h-19.2L490,192C494,195.9,500.4,195.9,504.4,191.9z"/>
	<path class="st45" d="M504.4,191.9l2.4,21.2h-19.2L490,192C494,195.9,500.4,195.9,504.4,191.9z"/>
	<polygon class="st13" points="484.4,213.1 486.7,191.9 490,191.9 487.6,213.1 	"/>
	<polygon class="st40" points="484.4,213.1 486.7,191.9 490,191.9 487.6,213.1 	"/>
</g>
</svg>
