<?xml version="1.0" encoding="utf-8"?>
<!-- Generator: Adobe Illustrator 23.0.5, SVG Export Plug-In . SVG Version: 6.00 Build 0)  -->
<svg version="1.1" id="Layer_1" xmlns="http://www.w3.org/2000/svg" xmlns:xlink="http://www.w3.org/1999/xlink" x="0px" y="0px"
	 viewBox="0 0 690 250" style="enable-background:new 0 0 690 250;" xml:space="preserve">
<style type="text/css">
	.st0{fill:#EBEBEB;}
	.st1{fill:#F0F0F0;}
	.st2{fill:#F5F5F5;}
	.st3{fill:#FAFAFA;}
	.st4{fill:#FFC113;}
	.st5{opacity:0.7;}
	.st6{fill:#FFFFFF;}
	.st7{opacity:0.25;}
	.st8{opacity:0.1;}
	.st9{opacity:0.2;}
	.st10{opacity:0.3;}
	.st11{fill:#377F41;}
	.st12{fill:#443021;}
	.st13{fill:#263238;}
	.st14{opacity:0.2;enable-background:new    ;}
	.st15{opacity:0.1;enable-background:new    ;}
	.st16{fill:#E2877B;}
	.st17{fill:#2E353A;}
	.st18{opacity:0.4;enable-background:new    ;}
	.st19{opacity:0.1;fill:#FFFFFF;enable-background:new    ;}
	.st20{opacity:0.8;fill:#FFFFFF;enable-background:new    ;}
	.st21{fill:#DC5753;}
	.st22{fill:#E4897B;}
	.st23{opacity:0.8;}
	.st24{fill:#E6E6E6;}
	.st25{fill:#ED272A;}
	.st26{fill:#1A66B1;}
	.st27{clip-path:url(#SVGID_2_);}
	.st28{clip-path:url(#SVGID_4_);}
	.st29{clip-path:url(#SVGID_6_);}
	.st30{clip-path:url(#SVGID_8_);}
	.st31{fill:#DBDBDB;}
	.st32{fill:#C7C7C7;}
	.st33{fill:#FFEC66;}
	.st34{fill:#F7A9A0;}
	.st35{fill:#37474F;}
	.st36{fill:#455A64;}
	.st37{fill:#FF9ABB;}
	.st38{fill:#E0E0E0;}
	.st39{opacity:0.15;}
	.st40{opacity:0.2;fill:#FFFFFF;enable-background:new    ;}
	.st41{opacity:0.4;fill:#FFFFFF;enable-background:new    ;}
	.st42{fill:none;}
	.st43{opacity:0.3;fill:#FFFFFF;enable-background:new    ;}
	.st44{opacity:0.5;}
	.st45{opacity:0.5;fill:#FFFFFF;enable-background:new    ;}
	.st46{fill-opacity:0;}
	.st47{fill:#FFA8A7;}
	.st48{opacity:0.3;enable-background:new    ;}
	.st49{opacity:0.35;}
	.st50{fill:#F28F8F;}
	.st51{fill:#407BFF;}
	.st52{fill:#1A66B0;}
	.st53{opacity:0.8;enable-background:new    ;}
	.st54{fill:#28EA52;}
	.st55{fill:none;stroke:#263238;stroke-width:2;stroke-linecap:round;stroke-miterlimit:10;}
	.st56{fill:#FFE340;}
	.st57{fill:#E0C027;}
	.st58{opacity:0.5;enable-background:new    ;}
	.st59{opacity:0.6;fill:#FFFFFF;enable-background:new    ;}
	.st60{opacity:0.7;enable-background:new    ;}
	.st61{opacity:0.7;fill:#FFFFFF;enable-background:new    ;}
	.st62{opacity:0.4;fill:#E6E6E6;enable-background:new    ;}
	.st63{fill:#7BC3FF;}
	.st64{fill:#5FB3ED;}
	.st65{fill:#0B5089;}
</style>
<g id="freepik--background-complete--inject-8_1_">
	<rect x="390.7" y="206.6" class="st0" width="283.9" height="0.1"/>
	<rect x="627.4" y="215.7" class="st0" width="18.8" height="0.1"/>
	<rect x="573.9" y="217.3" class="st0" width="4.9" height="0.1"/>
	<rect x="616" y="210.5" class="st0" width="10.9" height="0.1"/>
	<rect x="420.5" y="211.4" class="st0" width="24.5" height="0.1"/>
	<rect x="450.1" y="211.4" class="st0" width="3.6" height="0.1"/>
	<rect x="465.4" y="213.8" class="st0" width="53.2" height="0.1"/>
	<path class="st0" d="M525.3,181.3H415.7c-1.8,0-3.2-1.5-3.2-3.2V23.9c0-1.8,1.5-3.2,3.2-3.2h109.7c1.8,0,3.2,1.5,3.2,3.2
		c0,0,0,0,0,0V178C528.6,179.8,527.1,181.3,525.3,181.3z M415.7,20.8c-1.7,0-3.1,1.4-3.1,3.1V178c0,1.7,1.4,3.1,3.1,3.1h109.7
		c1.7,0,3.1-1.4,3.1-3.1V23.9c0-1.7-1.4-3.1-3.1-3.1H415.7z"/>
	<path class="st0" d="M648.2,181.3H538.5c-1.8,0-3.2-1.5-3.2-3.2V23.9c0-1.8,1.5-3.2,3.2-3.2h109.7c1.8,0,3.2,1.4,3.2,3.2V178
		C651.4,179.8,650,181.3,648.2,181.3z M538.5,20.8c-1.7,0-3.1,1.4-3.1,3.1V178c0,1.7,1.4,3.1,3.1,3.1h109.7c1.7,0,3.1-1.4,3.1-3.1
		V23.9c0-1.7-1.4-3.1-3.1-3.1H538.5z"/>
	<path class="st1" d="M446.6,101.8c0-0.2,0.1-0.5,0.1-0.7c0-2.5-2-4.6-4.6-4.6c-0.3,0-0.5,0-0.8,0.1c-1.5-2.5-4.7-3.3-7.2-1.8
		c-1.2,0.7-2,1.8-2.4,3.1c-0.3-0.1-0.7-0.2-1-0.2c-1.9,0-3.4,1.5-3.4,3.4c0,0.2,0,0.5,0.1,0.7L446.6,101.8z"/>
	<rect x="455.4" y="116.4" class="st2" width="14.6" height="81.2"/>
	<rect x="478.7" y="91.3" class="st3" width="14.6" height="106.3"/>
	<rect x="595.4" y="102.9" class="st1" width="14.6" height="94.8"/>
	<rect x="502.1" y="118.3" class="st1" width="14.6" height="79.3"/>
	<rect x="572.1" y="104.3" class="st3" width="14.6" height="93.3"/>
	<rect x="548.7" y="73.8" class="st2" width="14.6" height="123.8"/>
	<rect x="432.1" y="135.1" class="st3" width="14.6" height="61.9"/>
	<rect x="618.7" y="60.9" class="st2" width="14.6" height="136.1"/>
	<rect x="525.4" y="96.3" class="st3" width="14.6" height="101.3"/>
	<path class="st2" d="M637.8,50c0.1-0.3,0.1-0.7,0.1-1c0-3.5-2.9-6.4-6.4-6.4c-0.3,0-0.7,0-1,0.1c-2.1-3.5-6.6-4.6-10-2.5
		c-1.6,1-2.8,2.5-3.3,4.3c-0.5-0.1-0.9-0.2-1.4-0.2c-2.6,0-4.7,2.1-4.7,4.7c0,0.3,0,0.7,0.1,1L637.8,50z"/>
	<path class="st2" d="M539,47.5c0.1-0.4,0.1-0.8,0.1-1.3c0-4.5-3.6-8.1-8.1-8.1c0,0,0,0,0,0c-0.4,0-0.9,0-1.3,0.1
		c-2.6-4.4-8.3-5.8-12.7-3.2c-2,1.2-3.5,3.2-4.2,5.5c-3.2-1-6.6,0.8-7.5,4c-0.2,0.6-0.3,1.1-0.3,1.7c0,0.4,0,0.9,0.1,1.3L539,47.5z"
		/>
	<path class="st2" d="M496,62.4c0-0.2,0.1-0.5,0.1-0.7c0-2.5-2-4.6-4.5-4.6c-0.3,0-0.6,0-0.9,0.1c-1.5-2.5-4.7-3.3-7.2-1.8
		c-1.2,0.7-2,1.8-2.4,3.1c-0.3-0.1-0.7-0.2-1-0.2c-1.9,0-3.4,1.5-3.4,3.4l0,0c0,0.2,0,0.5,0.1,0.7L496,62.4z"/>
</g>
<g id="freepik--Shadow--inject-8">
	<ellipse id="freepik--path--inject-8" class="st2" cx="531.6" cy="225.8" rx="110.1" ry="6.4"/>
</g>
<g id="freepik--Graphic--inject-8">
	<polygon class="st4" points="450.8,128 450.1,127 502.1,89.3 536.9,115.2 564.9,95.3 594.8,113.8 633.7,64.9 634.6,65.7 595,115.4 
		565,96.8 536.9,116.7 536.5,116.4 502.1,90.8 	"/>
	<g class="st5">
		<polygon class="st6" points="450.8,128 450.1,127 502.1,89.3 536.9,115.2 564.9,95.3 594.8,113.8 633.7,64.9 634.6,65.7 
			595,115.4 565,96.8 536.9,116.7 536.5,116.4 502.1,90.8 		"/>
	</g>
	<circle class="st4" cx="450.5" cy="127.5" r="3.1"/>
	<path class="st4" d="M503.5,90.5c-0.2,1.2-1.3,2-2.5,1.9c-1.2-0.2-2-1.3-1.9-2.5c0.2-1.2,1.3-2,2.5-1.9
		C502.9,88.2,503.7,89.3,503.5,90.5C503.5,90.5,503.5,90.5,503.5,90.5z"/>
	<circle class="st4" cx="565" cy="96.5" r="1.9"/>
	<path class="st4" d="M539.8,116.4c-0.2,1.6-1.7,2.7-3.3,2.4s-2.7-1.7-2.4-3.3c0.2-1.6,1.7-2.7,3.3-2.4
		C538.9,113.3,540,114.8,539.8,116.4z"/>
	<path class="st4" d="M597.1,114.9c-0.2,1.2-1.3,2-2.5,1.8s-2-1.3-1.8-2.5c0.2-1.2,1.3-2,2.5-1.8
		C596.4,112.6,597.2,113.7,597.1,114.9C597.1,114.9,597.1,114.9,597.1,114.9z"/>
	<polygon class="st4" points="636.9,61.2 625.5,68.6 632.1,73.9 	"/>
</g>
<g id="freepik--Coins--inject-8">
	<path class="st4" d="M603.2,226L603.2,226v-6.3l0,0l-0.6-0.6c-0.2-0.2-0.4-0.4-0.6-0.6h-41.2l-0.5,0.6l-0.7,0.7l0,0v6.3l0,0
		l0.7,0.6l0.5,0.6H602l0.6-0.6L603.2,226L603.2,226z"/>
	<path class="st4" d="M606.9,217.3L606.9,217.3V211l0,0l-0.6-0.6l-0.6-0.6h-41.2l-0.6,0.5l-0.7,0.7l0,0v6.3l0,0l0.7,0.7l0.6,0.5
		h41.2l0.6-0.6L606.9,217.3L606.9,217.3z"/>
	<path class="st4" d="M603.2,208.6L603.2,208.6v-6.3l0,0l-0.6-0.6l-0.6-0.6h-41.2l-0.5,0.5l-0.7,0.7l0,0v6.3l0,0l0.7,0.7l0.5,0.5
		H602l0.6-0.6L603.2,208.6L603.2,208.6z"/>
	<path class="st4" d="M599.8,200L599.8,200v-6.3l0,0l-0.6-0.6l-0.6-0.6h-41.2l-0.5,0.5l-0.7,0.7l0,0l0,0v6.3l0,0l0.7,0.6l0.5,0.6
		h41.2l0.6-0.6C599.4,200.4,599.6,200.2,599.8,200L599.8,200z"/>
	<path class="st4" d="M608.3,191.3L608.3,191.3V185l0,0l-0.6-0.6l-0.6-0.6h-41.2l-0.6,0.5l-0.7,0.7l0,0v6.3l0,0l0.7,0.7l0.6,0.5
		h41.2l0.6-0.6L608.3,191.3L608.3,191.3z"/>
	<path class="st4" d="M601.5,182.6L601.5,182.6v-6.3l0,0l-0.6-0.6l-0.6-0.6h-41.2l-0.5,0.6l-0.7,0.7l0,0v6.3l0,0l0.7,0.7l0.5,0.5
		h41.2l0.6-0.6L601.5,182.6L601.5,182.6z"/>
	<path class="st4" d="M605.4,174L605.4,174v-6.3l0,0l-0.6-0.6l-0.6-0.6H563l-0.6,0.5l-0.7,0.7l0,0l0,0v6.3l0,0l0.7,0.6l0.6,0.6h41.2
		l0.6-0.6C605,174.4,605.2,174.2,605.4,174L605.4,174z"/>
	<path class="st4" d="M545.5,226L545.5,226v-6.3l0,0l-0.6-0.6l-0.6-0.6h-41.2l-0.5,0.6l-0.7,0.7l0,0v6.3l0,0l0.7,0.6l0.5,0.6h41.2
		l0.6-0.6L545.5,226L545.5,226z"/>
	<path class="st4" d="M549.1,217.3L549.1,217.3V211l0,0l-0.6-0.6l-0.6-0.6h-41.2l-0.6,0.5l-0.7,0.7l0,0v6.3l0,0l0.7,0.7l0.6,0.5H548
		l0.6-0.6L549.1,217.3L549.1,217.3z"/>
	<path class="st4" d="M545.5,208.6L545.5,208.6v-6.3l0,0l-0.6-0.6l-0.6-0.6h-41.2l-0.5,0.5c-0.2,0.2-0.4,0.4-0.7,0.7l0,0v6.3l0,0
		l0.7,0.7l0.5,0.5h41.2l0.6-0.6L545.5,208.6L545.5,208.6z"/>
	<path class="st4" d="M542.1,200L542.1,200v-6.3l0,0l-0.6-0.6l-0.6-0.6h-41.2l-0.6,0.5l-0.7,0.7l0,0l0,0v6.3l0,0l0.7,0.6l0.6,0.6
		h41.2l0.6-0.6L542.1,200L542.1,200z"/>
	<path class="st4" d="M550.6,191.3L550.6,191.3V185l0,0l-0.6-0.6l-0.6-0.6h-41.2l-0.6,0.5L507,185l0,0v6.3l0,0l0.7,0.7l0.6,0.5h41.2
		l0.6-0.6L550.6,191.3L550.6,191.3z"/>
	<path class="st4" d="M561.1,182.6L561.1,182.6v-6.3l0,0l-0.6-0.6c-0.2-0.2-0.4-0.4-0.6-0.6h-41.2l-0.6,0.6l-0.7,0.7l0,0v6.3l0,0
		c0.3,0.3,0.5,0.4,0.7,0.7l0.6,0.5h41.2l0.6-0.6L561.1,182.6L561.1,182.6z"/>
	<path class="st4" d="M565,174L565,174v-6.3l0,0l0,0l-0.6-0.6l-0.6-0.6h-41.2L522,167l-0.7,0.6l0,0v6.3l0,0l0.7,0.6l0.6,0.6h41.2
		l0.6-0.6L565,174L565,174z"/>
	<g class="st7">
		<path d="M545.5,226L545.5,226v-6.3l0,0l-0.6-0.6l-0.6-0.6h-41.2l-0.5,0.6l-0.7,0.7l0,0v6.3l0,0l0.7,0.6l0.5,0.6h41.2l0.6-0.6
			L545.5,226L545.5,226z"/>
	</g>
	<g class="st7">
		<path d="M549.1,217.3L549.1,217.3V211l0,0l-0.6-0.6l-0.6-0.6h-41.2l-0.6,0.5l-0.7,0.7l0,0v6.3l0,0l0.7,0.7l0.6,0.5H548l0.6-0.6
			L549.1,217.3L549.1,217.3z"/>
	</g>
	<g class="st8">
		<path d="M545.5,208.6L545.5,208.6v-6.3l0,0l-0.6-0.6l-0.6-0.6h-41.2l-0.5,0.5c-0.2,0.2-0.4,0.4-0.7,0.7l0,0v6.3l0,0l0.7,0.7
			l0.5,0.5h41.2l0.6-0.6L545.5,208.6L545.5,208.6z"/>
	</g>
	<g class="st7">
		<path d="M542.1,200L542.1,200v-6.3l0,0l-0.6-0.6l-0.6-0.6h-41.2l-0.6,0.5l-0.7,0.7l0,0l0,0v6.3l0,0l0.7,0.6l0.6,0.6h41.2l0.6-0.6
			L542.1,200L542.1,200z"/>
	</g>
	<g class="st8">
		<path d="M550.6,191.3L550.6,191.3V185l0,0l-0.6-0.6l-0.6-0.6h-41.2l-0.6,0.5L507,185l0,0v6.3l0,0l0.7,0.7l0.6,0.5h41.2l0.6-0.6
			L550.6,191.3L550.6,191.3z"/>
	</g>
	<g class="st7">
		<path d="M561.1,182.6L561.1,182.6v-6.3l0,0l-0.6-0.6c-0.2-0.2-0.4-0.4-0.6-0.6h-41.2l-0.6,0.6l-0.7,0.7l0,0v6.3l0,0
			c0.3,0.3,0.5,0.4,0.7,0.7l0.6,0.5h41.2l0.6-0.6L561.1,182.6L561.1,182.6z"/>
	</g>
	<g class="st8">
		<path d="M565,174L565,174v-6.3l0,0l0,0l-0.6-0.6l-0.6-0.6h-41.2L522,167l-0.7,0.6l0,0v6.3l0,0l0.7,0.6l0.6,0.6h41.2l0.6-0.6
			L565,174L565,174z"/>
	</g>
	<g class="st9">
		<path d="M603.2,226L603.2,226v-6.3l0,0l-0.6-0.6c-0.2-0.2-0.4-0.4-0.6-0.6h-41.2l-0.5,0.6l-0.7,0.7l0,0v6.3l0,0l0.7,0.6l0.5,0.6
			H602l0.6-0.6L603.2,226L603.2,226z"/>
	</g>
	<g class="st9">
		<path d="M606.9,217.3L606.9,217.3V211l0,0l-0.6-0.6l-0.6-0.6h-41.2l-0.6,0.5l-0.7,0.7l0,0v6.3l0,0l0.7,0.7l0.6,0.5h41.2l0.6-0.6
			L606.9,217.3L606.9,217.3z"/>
	</g>
	<g class="st10">
		<path d="M603.2,208.6L603.2,208.6v-6.3l0,0l-0.6-0.6l-0.6-0.6h-41.2l-0.5,0.5l-0.7,0.7l0,0v6.3l0,0l0.7,0.7l0.5,0.5H602l0.6-0.6
			L603.2,208.6L603.2,208.6z"/>
	</g>
	<g class="st9">
		<path d="M599.8,200L599.8,200v-6.3l0,0l-0.6-0.6l-0.6-0.6h-41.2l-0.5,0.5l-0.7,0.7l0,0l0,0v6.3l0,0l0.7,0.6l0.5,0.6h41.2l0.6-0.6
			C599.4,200.4,599.6,200.2,599.8,200L599.8,200z"/>
	</g>
	<g class="st10">
		<path d="M608.3,191.3L608.3,191.3V185l0,0l-0.6-0.6l-0.6-0.6h-41.2l-0.6,0.5l-0.7,0.7l0,0v6.3l0,0l0.7,0.7l0.6,0.5h41.2l0.6-0.6
			L608.3,191.3L608.3,191.3z"/>
	</g>
	<g class="st9">
		<path d="M601.5,182.6L601.5,182.6v-6.3l0,0l-0.6-0.6l-0.6-0.6h-41.2l-0.5,0.6l-0.7,0.7l0,0v6.3l0,0l0.7,0.7l0.5,0.5h41.2l0.6-0.6
			L601.5,182.6L601.5,182.6z"/>
	</g>
	<g class="st10">
		<path d="M605.4,174L605.4,174v-6.3l0,0l-0.6-0.6l-0.6-0.6H563l-0.6,0.5l-0.7,0.7l0,0l0,0v6.3l0,0l0.7,0.6l0.6,0.6h41.2l0.6-0.6
			C605,174.4,605.2,174.2,605.4,174L605.4,174z"/>
	</g>
	<path class="st4" d="M572.8,150.3v6.3l-1.2,1.2h-41.2l-1.2-1.2v-6.3l1.2-1.2h41.2C572.1,149.6,572.3,149.8,572.8,150.3z"/>
	<g class="st10">
		<path class="st6" d="M572.8,150.3v6.3l-1.2,1.2h-41.2l-1.2-1.2v-6.3l1.2-1.2h41.2C572.1,149.6,572.3,149.8,572.8,150.3z"/>
	</g>
	<g class="st10">
		<rect x="529.2" y="152.6" class="st6" width="43.6" height="3.2"/>
	</g>
	<g class="st8">
		<path d="M530.4,157.8h41.2l1.2-1.2h-43.6L530.4,157.8z"/>
	</g>
	<g class="st10">
		<path class="st6" d="M571.6,149.1h-41.2l-1.2,1.2h43.6L571.6,149.1z"/>
	</g>
	<g class="st8">
		<rect x="548.7" y="149.1" class="st6" width="8.4" height="8.7"/>
	</g>
	<g class="st8">
		<rect x="560.7" y="149.1" class="st6" width="4.2" height="8.7"/>
	</g>
	<path class="st4" d="M580.3,159v6.3l-1.2,1.2h-41.2l-1.2-1.2V159c0.5-0.5,0.7-0.7,1.2-1.2h41.2C579.6,158.3,579.8,158.5,580.3,159z
		"/>
	<g class="st10">
		<path class="st6" d="M580.3,159v6.3l-1.2,1.2h-41.2l-1.2-1.2V159c0.5-0.5,0.7-0.7,1.2-1.2h41.2C579.6,158.3,579.8,158.5,580.3,159
			z"/>
	</g>
	<g class="st10">
		<rect x="536.7" y="161.2" class="st6" width="43.6" height="3.2"/>
	</g>
	<g class="st8">
		<path d="M537.9,166.5h41.2l1.2-1.2h-43.6L537.9,166.5z"/>
	</g>
	<g class="st10">
		<path class="st6" d="M579.1,157.8h-41.2l-1.2,1.2h43.6L579.1,157.8z"/>
	</g>
	<g class="st8">
		<rect x="556.2" y="157.8" class="st6" width="8.4" height="8.7"/>
	</g>
	<g class="st8">
		<rect x="568.2" y="157.8" class="st6" width="4.2" height="8.7"/>
	</g>
	<path class="st4" d="M577.4,167.6v6.3l-1.2,1.2H535l-1.2-1.2v-6.3l1.2-1.2h41.2L577.4,167.6z"/>
	<g class="st10">
		<path class="st6" d="M577.4,167.6v6.3l-1.2,1.2H535l-1.2-1.2v-6.3l1.2-1.2h41.2L577.4,167.6z"/>
	</g>
	<g class="st10">
		<rect x="533.8" y="169.9" class="st6" width="43.6" height="3.2"/>
	</g>
	<g class="st8">
		<path d="M535,175.1h41.2l1.2-1.2h-43.6L535,175.1z"/>
	</g>
	<g class="st10">
		<path class="st6" d="M576.2,166.4H535l-1.2,1.2h43.6L576.2,166.4z"/>
	</g>
	<g class="st8">
		<rect x="553.3" y="166.4" class="st6" width="8.4" height="8.7"/>
	</g>
	<g class="st8">
		<rect x="565.3" y="166.4" class="st6" width="4.2" height="8.7"/>
	</g>
	<path class="st4" d="M573.5,176.3v6.3l-1.2,1.2h-41.2l-1.2-1.2v-6.3l1.2-1.2h41.2L573.5,176.3z"/>
	<g class="st10">
		<path class="st6" d="M573.5,176.3v6.3l-1.2,1.2h-41.2l-1.2-1.2v-6.3l1.2-1.2h41.2L573.5,176.3z"/>
	</g>
	<g class="st10">
		<rect x="529.9" y="178.6" class="st6" width="43.6" height="3.2"/>
	</g>
	<g class="st8">
		<path d="M531.1,183.8h41.2l1.2-1.2h-43.6L531.1,183.8z"/>
	</g>
	<g class="st10">
		<path class="st6" d="M572.3,175.1h-41.2l-1.2,1.2h43.6L572.3,175.1z"/>
	</g>
	<g class="st8">
		<rect x="549.4" y="175.1" class="st6" width="8.4" height="8.7"/>
	</g>
	<g class="st8">
		<rect x="561.4" y="175.1" class="st6" width="4.2" height="8.7"/>
	</g>
	<path class="st4" d="M580.3,185v6.3l-1.2,1.2h-41.2l-1.2-1.2V185l1.2-1.2h41.2L580.3,185z"/>
	<g class="st10">
		<path class="st6" d="M580.3,185v6.3l-1.2,1.2h-41.2l-1.2-1.2V185l1.2-1.2h41.2L580.3,185z"/>
	</g>
	<g class="st10">
		<rect x="536.7" y="187.2" class="st6" width="43.6" height="3.2"/>
	</g>
	<g class="st8">
		<path d="M537.9,192.5h41.2l1.2-1.2h-43.6L537.9,192.5z"/>
	</g>
	<g class="st10">
		<path class="st6" d="M579.1,183.8h-41.2l-1.2,1.2h43.6L579.1,183.8z"/>
	</g>
	<g class="st8">
		<rect x="556.2" y="183.8" class="st6" width="8.4" height="8.7"/>
	</g>
	<g class="st8">
		<rect x="568.2" y="183.8" class="st6" width="4.2" height="8.7"/>
	</g>
	<path class="st4" d="M571.8,193.6v6.3l-1.2,1.2h-41.2l-1.2-1.2v-6.3c0.5-0.5,0.7-0.7,1.2-1.2h41.2
		C571.1,192.9,571.3,193.2,571.8,193.6z"/>
	<g class="st10">
		<path class="st6" d="M571.8,193.6v6.3l-1.2,1.2h-41.2l-1.2-1.2v-6.3c0.5-0.5,0.7-0.7,1.2-1.2h41.2
			C571.1,192.9,571.3,193.2,571.8,193.6z"/>
	</g>
	<g class="st10">
		<rect x="528.2" y="195.9" class="st6" width="43.6" height="3.2"/>
	</g>
	<g class="st8">
		<path d="M529.4,201.1h41.2l1.2-1.2h-43.6L529.4,201.1z"/>
	</g>
	<g class="st10">
		<path class="st6" d="M570.6,192.4h-41.2l-1.2,1.2h43.6L570.6,192.4z"/>
	</g>
	<g class="st8">
		<rect x="547.7" y="192.4" class="st6" width="8.4" height="8.7"/>
	</g>
	<g class="st8">
		<rect x="559.7" y="192.4" class="st6" width="4.2" height="8.7"/>
	</g>
	<path class="st4" d="M575.2,202.3v6.3l-1.2,1.2h-41.2l-1.2-1.2v-6.3c0.5-0.5,0.7-0.7,1.2-1.2H574
		C574.5,201.6,574.7,201.8,575.2,202.3z"/>
	<g class="st10">
		<path class="st6" d="M575.2,202.3v6.3l-1.2,1.2h-41.2l-1.2-1.2v-6.3c0.5-0.5,0.7-0.7,1.2-1.2H574
			C574.5,201.6,574.7,201.8,575.2,202.3z"/>
	</g>
	<g class="st10">
		<rect x="531.6" y="204.6" class="st6" width="43.6" height="3.2"/>
	</g>
	<g class="st8">
		<path d="M532.8,209.8H574l1.2-1.2h-43.6L532.8,209.8z"/>
	</g>
	<g class="st10">
		<path class="st6" d="M574,201.1h-41.2l-1.2,1.2h43.6L574,201.1z"/>
	</g>
	<g class="st8">
		<rect x="551.1" y="201.1" class="st6" width="8.4" height="8.7"/>
	</g>
	<g class="st8">
		<rect x="563.1" y="201.1" class="st6" width="4.2" height="8.7"/>
	</g>
	<path class="st4" d="M585,211v6.3l-1.2,1.2h-41.2l-1.2-1.2V211l1.2-1.2h41.2L585,211z"/>
	<g class="st10">
		<path class="st6" d="M585,211v6.3l-1.2,1.2h-41.2l-1.2-1.2V211l1.2-1.2h41.2L585,211z"/>
	</g>
	<g class="st10">
		<rect x="541.3" y="213.3" class="st6" width="43.6" height="3.2"/>
	</g>
	<g class="st8">
		<path d="M542.5,218.5h41.2l1.2-1.2h-43.6L542.5,218.5z"/>
	</g>
	<g class="st10">
		<path class="st6" d="M583.7,209.8h-41.2l-1.2,1.2H585L583.7,209.8z"/>
	</g>
	<g class="st8">
		<rect x="560.8" y="209.8" class="st6" width="8.4" height="8.7"/>
	</g>
	<g class="st8">
		<rect x="572.9" y="209.8" class="st6" width="4.2" height="8.7"/>
	</g>
	<path class="st4" d="M575.2,219.7v6.3l-1.2,1.2h-41.2l-1.2-1.2v-6.3c0.5-0.5,0.7-0.7,1.2-1.2H574
		C574.5,218.9,574.7,219.2,575.2,219.7z"/>
	<g class="st10">
		<path class="st6" d="M575.2,219.7v6.3l-1.2,1.2h-41.2l-1.2-1.2v-6.3c0.5-0.5,0.7-0.7,1.2-1.2H574
			C574.5,218.9,574.7,219.2,575.2,219.7z"/>
	</g>
	<g class="st10">
		<rect x="531.6" y="221.9" class="st6" width="43.6" height="3.2"/>
	</g>
	<g class="st8">
		<path d="M532.8,227.1H574l1.2-1.2h-43.6L532.8,227.1z"/>
	</g>
	<g class="st10">
		<path class="st6" d="M574,218.5h-41.2l-1.2,1.2h43.6L574,218.5z"/>
	</g>
	<g class="st8">
		<rect x="551.1" y="218.5" class="st6" width="8.4" height="8.7"/>
	</g>
	<g class="st8">
		<rect x="563.1" y="218.5" class="st6" width="4.2" height="8.7"/>
	</g>
	<path class="st4" d="M522.1,193.6v6.3l-1.2,1.2h-41.2l-1.2-1.2v-6.3l1.2-1.2h41.2L522.1,193.6z"/>
	<g class="st10">
		<path class="st6" d="M522.1,193.6v6.3l-1.2,1.2h-41.2l-1.2-1.2v-6.3l1.2-1.2h41.2L522.1,193.6z"/>
	</g>
	<g class="st10">
		<rect x="478.5" y="195.9" class="st6" width="43.6" height="3.2"/>
	</g>
	<g class="st8">
		<path d="M479.7,201.1h41.2l1.2-1.2h-43.6L479.7,201.1z"/>
	</g>
	<g class="st10">
		<path class="st6" d="M520.9,192.4h-41.2l-1.2,1.2h43.6L520.9,192.4z"/>
	</g>
	<g class="st8">
		<rect x="498" y="192.4" class="st6" width="8.4" height="8.7"/>
	</g>
	<g class="st8">
		<rect x="510" y="192.4" class="st6" width="4.2" height="8.7"/>
	</g>
	<path class="st4" d="M525.5,202.3v6.3l-1.2,1.2h-41.2l-1.2-1.2v-6.3c0.5-0.5,0.7-0.7,1.2-1.2h41.2
		C524.8,201.6,525,201.8,525.5,202.3z"/>
	<g class="st10">
		<path class="st6" d="M525.5,202.3v6.3l-1.2,1.2h-41.2l-1.2-1.2v-6.3c0.5-0.5,0.7-0.7,1.2-1.2h41.2
			C524.8,201.6,525,201.8,525.5,202.3z"/>
	</g>
	<g class="st10">
		<rect x="481.9" y="204.6" class="st6" width="43.6" height="3.2"/>
	</g>
	<g class="st8">
		<path d="M483.1,209.8h41.2l1.2-1.2h-43.6L483.1,209.8z"/>
	</g>
	<g class="st10">
		<path class="st6" d="M524.3,201.1h-41.2l-1.2,1.2h43.6C525,201.8,524.8,201.6,524.3,201.1z"/>
	</g>
	<g class="st8">
		<rect x="501.4" y="201.1" class="st6" width="8.4" height="8.7"/>
	</g>
	<g class="st8">
		<rect x="513.4" y="201.1" class="st6" width="4.2" height="8.7"/>
	</g>
	<path class="st4" d="M528.8,211v6.3l-1.2,1.2h-41.2l-1.2-1.2V211l1.2-1.2h41.2L528.8,211z"/>
	<g class="st10">
		<path class="st6" d="M528.8,211v6.3l-1.2,1.2h-41.2l-1.2-1.2V211l1.2-1.2h41.2L528.8,211z"/>
	</g>
	<g class="st10">
		<rect x="485.2" y="213.3" class="st6" width="43.6" height="3.2"/>
	</g>
	<g class="st8">
		<path d="M486.4,218.5h41.2l1.2-1.2h-43.6L486.4,218.5z"/>
	</g>
	<g class="st10">
		<path class="st6" d="M527.6,209.8h-41.2l-1.2,1.2h43.6L527.6,209.8z"/>
	</g>
	<g class="st8">
		<rect x="504.7" y="209.8" class="st6" width="8.4" height="8.7"/>
	</g>
	<g class="st8">
		<rect x="516.8" y="209.8" class="st6" width="4.2" height="8.7"/>
	</g>
	<path class="st4" d="M519.1,219.7v6.3l-1.2,1.2h-41.2l-1.2-1.2v-6.3l1.2-1.2h41.2L519.1,219.7z"/>
	<g class="st10">
		<path class="st6" d="M519.1,219.7v6.3l-1.2,1.2h-41.2l-1.2-1.2v-6.3l1.2-1.2h41.2L519.1,219.7z"/>
	</g>
	<g class="st10">
		<rect x="475.5" y="221.9" class="st6" width="43.6" height="3.2"/>
	</g>
	<g class="st8">
		<path d="M476.7,227.1h41.2l1.2-1.2h-43.6L476.7,227.1z"/>
	</g>
	<g class="st10">
		<path class="st6" d="M517.9,218.5h-41.2l-1.2,1.2h43.6L517.9,218.5z"/>
	</g>
	<g class="st8">
		<rect x="495" y="218.5" class="st6" width="8.4" height="8.7"/>
	</g>
	<g class="st8">
		<rect x="507" y="218.5" class="st6" width="4.2" height="8.7"/>
	</g>
	<path class="st4" d="M630.6,176.3v6.3l-1.2,1.2h-41.2l-1.2-1.2v-6.3l1.2-1.2h41.2L630.6,176.3z"/>
	<g class="st10">
		<path class="st6" d="M630.6,176.3v6.3l-1.2,1.2h-41.2l-1.2-1.2v-6.3l1.2-1.2h41.2L630.6,176.3z"/>
	</g>
	<g class="st10">
		<rect x="587" y="178.6" class="st6" width="43.6" height="3.2"/>
	</g>
	<g class="st8">
		<path d="M588.2,183.8h41.2l1.2-1.2H587L588.2,183.8z"/>
	</g>
	<g class="st10">
		<path class="st6" d="M629.4,175.1h-41.2l-1.2,1.2h43.6L629.4,175.1z"/>
	</g>
	<g class="st8">
		<rect x="606.5" y="175.1" class="st6" width="8.4" height="8.7"/>
	</g>
	<g class="st8">
		<rect x="618.6" y="175.1" class="st6" width="4.2" height="8.7"/>
	</g>
	<path class="st4" d="M637.4,185v6.3l-1.2,1.2H595l-1.2-1.2V185l1.2-1.2h41.2L637.4,185z"/>
	<g class="st10">
		<path class="st6" d="M637.4,185v6.3l-1.2,1.2H595l-1.2-1.2V185l1.2-1.2h41.2L637.4,185z"/>
	</g>
	<g class="st10">
		<rect x="593.8" y="187.2" class="st6" width="43.6" height="3.2"/>
	</g>
	<g class="st8">
		<path d="M595,192.5h41.2l1.2-1.2h-43.6L595,192.5z"/>
	</g>
	<g class="st10">
		<path class="st6" d="M636.2,183.8H595l-1.2,1.2h43.6L636.2,183.8z"/>
	</g>
	<g class="st8">
		<rect x="613.3" y="183.8" class="st6" width="8.4" height="8.7"/>
	</g>
	<g class="st8">
		<rect x="625.3" y="183.8" class="st6" width="4.2" height="8.7"/>
	</g>
	<path class="st4" d="M628.9,193.6v6.3l-1.2,1.2h-41.2l-1.2-1.2v-6.3c0.5-0.5,0.7-0.7,1.2-1.2h41.2
		C628.2,192.9,628.5,193.2,628.9,193.6z"/>
	<g class="st10">
		<path class="st6" d="M628.9,193.6v6.3l-1.2,1.2h-41.2l-1.2-1.2v-6.3c0.5-0.5,0.7-0.7,1.2-1.2h41.2
			C628.2,192.9,628.5,193.2,628.9,193.6z"/>
	</g>
	<g class="st10">
		<rect x="585.3" y="195.9" class="st6" width="43.6" height="3.2"/>
	</g>
	<g class="st8">
		<path d="M586.5,201.1h41.2l1.2-1.2h-43.6L586.5,201.1z"/>
	</g>
	<g class="st10">
		<path class="st6" d="M627.7,192.4h-41.2l-1.2,1.2h43.6L627.7,192.4z"/>
	</g>
	<g class="st8">
		<rect x="604.8" y="192.4" class="st6" width="8.4" height="8.7"/>
	</g>
	<g class="st8">
		<rect x="616.9" y="192.4" class="st6" width="4.2" height="8.7"/>
	</g>
	<path class="st4" d="M632.3,202.3v6.3l-1.2,1.2h-41.2l-1.2-1.2v-6.3l1.2-1.2h41.2C631.6,201.6,631.9,201.8,632.3,202.3z"/>
	<g class="st10">
		<path class="st6" d="M632.3,202.3v6.3l-1.2,1.2h-41.2l-1.2-1.2v-6.3l1.2-1.2h41.2C631.6,201.6,631.9,201.8,632.3,202.3z"/>
	</g>
	<g class="st10">
		<rect x="588.7" y="204.6" class="st6" width="43.6" height="3.2"/>
	</g>
	<g class="st8">
		<path d="M589.9,209.8h41.2l1.2-1.2h-43.6L589.9,209.8z"/>
	</g>
	<g class="st10">
		<path class="st6" d="M631.1,201.1h-41.2l-1.2,1.2h43.6L631.1,201.1z"/>
	</g>
	<g class="st8">
		<rect x="608.2" y="201.1" class="st6" width="8.4" height="8.7"/>
	</g>
	<g class="st8">
		<rect x="620.2" y="201.1" class="st6" width="4.2" height="8.7"/>
	</g>
	<path class="st4" d="M636,211v6.3l-1.2,1.2h-41.2l-1.2-1.2V211c0.5-0.5,0.7-0.7,1.2-1.2h41.2C635.3,210.3,635.5,210.5,636,211z"/>
	<g class="st10">
		<path class="st6" d="M636,211v6.3l-1.2,1.2h-41.2l-1.2-1.2V211c0.5-0.5,0.7-0.7,1.2-1.2h41.2C635.3,210.3,635.5,210.5,636,211z"/>
	</g>
	<g class="st10">
		<rect x="592.4" y="213.3" class="st6" width="43.6" height="3.2"/>
	</g>
	<g class="st8">
		<path d="M593.6,218.5h41.2l1.2-1.2h-43.6L593.6,218.5z"/>
	</g>
	<g class="st10">
		<path class="st6" d="M634.8,209.8h-41.2l-1.2,1.2H636L634.8,209.8z"/>
	</g>
	<g class="st8">
		<rect x="611.9" y="209.8" class="st6" width="8.4" height="8.7"/>
	</g>
	<g class="st8">
		<rect x="623.9" y="209.8" class="st6" width="4.2" height="8.7"/>
	</g>
	<path class="st4" d="M632.3,219.7v6.3l-1.2,1.2h-41.2l-1.2-1.2v-6.3c0.5-0.5,0.7-0.7,1.2-1.2h41.2
		C631.6,218.9,631.9,219.2,632.3,219.7z"/>
	<g class="st10">
		<path class="st6" d="M632.3,219.7v6.3l-1.2,1.2h-41.2l-1.2-1.2v-6.3c0.5-0.5,0.7-0.7,1.2-1.2h41.2
			C631.6,218.9,631.9,219.2,632.3,219.7z"/>
	</g>
	<g class="st10">
		<rect x="588.7" y="221.9" class="st6" width="43.6" height="3.2"/>
	</g>
	<g class="st8">
		<path d="M589.9,227.1h41.2l1.2-1.2h-43.6L589.9,227.1z"/>
	</g>
	<g class="st10">
		<path class="st6" d="M631.1,218.5h-41.2l-1.2,1.2h43.6L631.1,218.5z"/>
	</g>
	<g class="st8">
		<rect x="608.2" y="218.5" class="st6" width="8.4" height="8.7"/>
	</g>
	<g class="st8">
		<rect x="620.2" y="218.5" class="st6" width="4.2" height="8.7"/>
	</g>
</g>
<g>
	<g id="freepik--plant-3--inject-8">
		<path class="st11" d="M602.2,151.7c0,0-1.4,2.6,0.9,6.1c1.4,2.1,3.2,2.7,4.3,1.9c1.1-0.7,1.3-2.7,0-4.7
			C605.2,151.4,602.2,151.7,602.2,151.7z"/>
		<path class="st11" d="M622.6,139.5c0,0-5-1.1-9.7,4.4c-2.7,3.3-2.8,6.6-1,8.1s5.1,0.9,7.9-2.3
			C624.5,144.2,622.6,139.5,622.6,139.5z"/>
		<path class="st4" d="M616.1,117.5c0,0-1.1,0.3-1.5,1.9c-0.2,0.9,0.1,1.6,0.7,1.7c0.5,0.1,1.1-0.4,1.3-1.3
			C616.9,119,616.7,118.1,616.1,117.5z"/>
		<path class="st12" d="M607.3,166.8c-0.6-2.3-0.9-4.6-0.9-7c0-2.3,0.4-4.6,1-6.8c0.3-1.1,0.7-2.1,1.1-3.2c0.2-0.5,0.4-1,0.6-1.5
			c0.1-0.3,0.2-0.5,0.3-0.7l0.2-0.4l0.2-0.4c0.9-1.9,1.7-3.7,2.5-5.7c0.8-1.9,1.4-3.8,2-5.8c0.6-2,1-4,1.2-6c0.2-2,0.2-4.1-0.2-6.1
			c-0.4-2-1.1-4-2.3-5.7c1.4,1.6,2.4,3.5,3,5.6c0.6,2.1,0.9,4.2,0.9,6.3c0,2.1-0.2,4.3-0.5,6.4c-0.4,2.1-0.8,4.2-1.4,6.2
			c-0.6,2.1-1.2,4.1-1.9,6.1l-0.1,0.4l-0.1,0.2l-0.1,0.2c-0.1,0.2-0.2,0.5-0.2,0.7c-0.1,0.5-0.3,0.9-0.4,1.4
			c-0.2,0.9-0.5,1.9-0.6,2.9c-0.3,1.9-0.4,3.8-0.2,5.7c0.2,1.8,0.6,3.6,1.3,5.3L607.3,166.8z"/>
		<path class="st13" d="M617.8,161.3l-0.2,1.7l-1,11.4c0,0.4-0.4,0.7-0.8,0.7H603c-0.4,0-0.7-0.3-0.8-0.7l-1-11.4l-0.2-1.7H617.8z"
			/>
		
			<rect x="615.4" y="169.6" transform="matrix(8.906814e-02 -0.996 0.996 8.906814e-02 393.4989 769.587)" class="st4" width="4.1" height="0.2"/>
		
			<rect x="617.3" y="165.9" transform="matrix(8.906814e-02 -0.996 0.996 8.906814e-02 397.4995 766.5399)" class="st4" width="1" height="0.2"/>
		<path class="st11" d="M609.9,128.3c0,0-2,2.7,0,7c1.2,2.5,3.2,3.5,4.6,2.8c1.4-0.6,1.9-2.8,0.7-5.3
			C613.2,128.4,609.9,128.3,609.9,128.3z"/>
		<polygon class="st14" points="617.8,161.3 617.6,163.1 601.2,163.1 601,161.3 		"/>
		<path class="st13" d="M600,159.2h18.8c0.2,0,0.4,0.2,0.4,0.4v2.3c0,0.2-0.2,0.4-0.4,0.4H600c-0.2,0-0.4-0.2-0.4-0.4v-2.3
			C599.7,159.3,599.8,159.2,600,159.2z"/>
		<circle class="st4" cx="622.4" cy="129.2" r="6.1"/>
		<path class="st15" d="M627.3,130.7c0.7-2.7-0.9-5.4-3.6-6.1s-5.4,0.9-6.1,3.6c-0.4,1.4-0.1,2.9,0.7,4.1c-1.7-2.2-1.3-5.4,0.9-7.2
			c2.2-1.7,5.4-1.3,7.2,0.9C627.4,127.4,627.8,129.2,627.3,130.7z"/>
		<path class="st3" d="M624.3,130.1l-0.6,1.3c0,0.1-0.1,0.2-0.2,0.2c-0.1,0-0.2,0-0.3,0l-1.1-0.5l-0.4,0.9c-0.1,0.2-0.4,0.3-0.6,0.2
			c-0.1,0-0.2-0.1-0.2-0.2c0-0.1,0-0.2,0-0.3l0.4-0.9l-1.1-0.5c-0.1,0-0.2-0.1-0.2-0.2c0-0.1,0-0.2,0-0.3c0-0.1,0.1-0.2,0.2-0.2
			c0.1,0,0.2,0,0.3,0l2.6,1.2l0.3-0.5l-2.6-1.2c-0.2-0.1-0.3-0.3-0.2-0.6c0,0,0,0,0,0l0.6-1.3c0-0.1,0.1-0.2,0.2-0.2
			c0.1,0,0.2,0,0.3,0l1.1,0.5l0.4-0.9c0-0.1,0.1-0.2,0.2-0.2c0.1,0,0.2,0,0.3,0c0.1,0,0.2,0.1,0.2,0.2c0,0.1,0,0.2,0,0.3l-0.4,0.9
			l1.1,0.6c0.2,0.1,0.3,0.4,0.2,0.6c0,0.1-0.1,0.2-0.2,0.2c-0.1,0-0.2,0-0.3,0l-2.6-1.2l-0.3,0.5l2.6,1.2c0.1,0,0.2,0.1,0.2,0.2
			C624.3,129.9,624.3,130,624.3,130.1z"/>
		<circle class="st4" cx="606.3" cy="146" r="4.4"/>
		<path class="st15" d="M609.9,147.1c0.5-1.9-0.7-3.9-2.6-4.4c-1.9-0.5-3.9,0.7-4.4,2.6c-0.3,1-0.1,2.1,0.5,3
			c-1.3-1.6-1-3.9,0.7-5.2c1.6-1.3,3.9-1,5.2,0.7C610,144.7,610.2,145.9,609.9,147.1z"/>
		<path class="st3" d="M607.7,146.6l-0.4,0.9c0,0.1-0.1,0.1-0.2,0.1c-0.1,0-0.2,0-0.2,0l-0.8-0.4l-0.3,0.7c0,0.1-0.1,0.1-0.2,0.2
			c-0.1,0-0.2,0-0.2,0c-0.1,0-0.1-0.1-0.2-0.2c0-0.1,0-0.2,0-0.2l0.3-0.7l-0.8-0.4c-0.1,0-0.1-0.1-0.2-0.2c0-0.1,0-0.2,0-0.2
			c0-0.1,0.1-0.1,0.2-0.2c0.1,0,0.2,0,0.2,0l1.9,0.9l0.2-0.4l-1.9-0.9c-0.1,0-0.1-0.1-0.2-0.2c0-0.1,0-0.2,0-0.2l0.4-0.9
			c0-0.1,0.1-0.1,0.2-0.2c0.1,0,0.2,0,0.2,0l0.8,0.4l0.3-0.7c0-0.1,0.1-0.1,0.2-0.2c0.1,0,0.2,0,0.2,0c0.1,0.1,0.2,0.2,0.1,0.4
			l-0.3,0.7l0.8,0.4c0.1,0,0.1,0.1,0.2,0.2c0.1,0.2,0,0.3-0.2,0.4c0,0,0,0,0,0c-0.1,0-0.2,0-0.2,0l-1.9-0.9l-0.2,0.4l1.9,0.9
			c0.1,0,0.1,0.1,0.2,0.2C607.7,146.5,607.7,146.6,607.7,146.6z"/>
	</g>
	<g id="freepik--plant-2--inject-8">
		<path class="st11" d="M542.9,117.9c0,0-2.5,4.1,1,10c2.1,3.5,5.1,4.5,7,3.4s2.4-4.3,0.3-7.8C547.7,117.7,542.9,117.9,542.9,117.9z
			"/>
		<path class="st11" d="M567.5,107c0,0-6.1-1.4-11.8,5.4c-3.4,4-3.4,8.1-1.3,10s6.2,1.1,9.7-2.9C569.9,112.8,567.5,107,567.5,107z"
			/>
		<path class="st11" d="M560.3,77c0,0-1.9,0.5-2.5,3.3c-0.4,1.6,0.2,2.8,1.1,3s1.9-0.6,2.3-2.3C561.8,78.3,560.3,77,560.3,77z"/>
		<path class="st12" d="M549.1,139c-0.8-2.8-1.1-5.6-1.1-8.5c0.1-2.8,0.5-5.6,1.2-8.3c0.4-1.3,0.8-2.6,1.3-3.9
			c0.2-0.6,0.5-1.3,0.8-1.9c0.1-0.3,0.3-0.6,0.4-0.9l0.2-0.4l0.2-0.4c1.1-2.3,2.1-4.6,3.1-6.9c0.9-2.3,1.8-4.7,2.5-7.1
			c0.7-2.4,1.2-4.9,1.4-7.4c0.3-2.5,0.2-5-0.2-7.5c-0.5-2.5-1.4-4.9-2.8-7c1.7,2,2.9,4.3,3.6,6.8c0.7,2.5,1.1,5.1,1.1,7.8
			c0,2.6-0.2,5.3-0.6,7.8c-0.4,2.6-1,5.1-1.7,7.7c-0.7,2.5-1.5,5-2.3,7.5l-0.2,0.5l-0.1,0.2l-0.1,0.2c-0.1,0.3-0.2,0.6-0.3,0.9
			c-0.2,0.6-0.4,1.1-0.5,1.7c-0.3,1.2-0.6,2.3-0.7,3.5c-0.4,2.3-0.5,4.7-0.2,7c0.2,2.2,0.7,4.4,1.6,6.5L549.1,139z"/>
		<path class="st13" d="M562,132.3l-0.2,2.1l-1.2,13.9c0,0.5-0.5,0.9-0.9,0.9h-15.8c-0.5,0-0.9-0.4-0.9-0.9l-1.2-13.9l-0.2-2.1H562z
			"/>
		
			<rect x="559.1" y="142.5" transform="matrix(8.906814e-02 -0.996 0.996 8.906814e-02 369.5961 689.2192)" class="st4" width="5" height="0.2"/>
		
			<rect x="561.4" y="137.9" transform="matrix(8.906814e-02 -0.996 0.996 8.906814e-02 374.4852 685.4905)" class="st4" width="1.2" height="0.2"/>
		<path class="st11" d="M553.8,83.4c0,0-2.1,2.7,0,7.1c1.2,2.6,3.3,3.6,4.7,2.9c1.4-0.7,2-2.8,0.7-5.5
			C557.3,83.5,553.8,83.4,553.8,83.4z"/>
		<polygon class="st14" points="562,132.3 561.8,134.5 541.6,134.5 541.4,132.3 		"/>
		<path class="st13" d="M540.2,129.7h23c0.2,0,0.4,0.2,0.4,0.4v2.8c0,0.2-0.2,0.4-0.4,0.4h-23c-0.2,0-0.4-0.2-0.4-0.4v-2.8
			C539.7,129.9,539.9,129.7,540.2,129.7z"/>
		
			<ellipse transform="matrix(0.7991 -0.6013 0.6013 0.7991 57.0744 360.3832)" class="st4" cx="567.7" cy="94.8" rx="7.5" ry="7.5"/>
		<path class="st15" d="M573.7,96.6c0.8-3.3-1.1-6.6-4.4-7.4c-3.3-0.8-6.6,1.1-7.4,4.4c-0.4,1.7-0.1,3.6,0.9,5
			c-2.1-2.7-1.6-6.7,1.1-8.8c2.7-2.1,6.7-1.6,8.8,1.1C573.9,92.6,574.3,94.7,573.7,96.6z"/>
		<path class="st3" d="M570,95.9l-0.7,1.6c-0.1,0.1-0.2,0.2-0.3,0.3c-0.1,0.1-0.3,0.1-0.4,0l-1.4-0.7l-0.5,1.1
			c-0.1,0.1-0.2,0.2-0.3,0.3c-0.1,0.1-0.3,0.1-0.4,0c-0.1-0.1-0.2-0.2-0.3-0.3c-0.1-0.1-0.1-0.3,0-0.4l0.5-1.1l-1.4-0.7
			c-0.3-0.1-0.4-0.4-0.2-0.7c0.1-0.1,0.2-0.2,0.3-0.3c0.1-0.1,0.3-0.1,0.4,0l3.2,1.5l0.3-0.7l-3.2-1.6c-0.1-0.1-0.2-0.2-0.3-0.3
			c-0.1-0.1-0.1-0.3,0-0.4l0.7-1.6c0.1-0.1,0.2-0.2,0.3-0.3c0.1-0.1,0.3-0.1,0.4,0l1.4,0.6l0.5-1.1c0.1-0.1,0.2-0.2,0.3-0.3
			c0.1-0.1,0.3,0,0.4,0c0.1,0.1,0.2,0.2,0.3,0.3c0.1,0.1,0.1,0.3,0,0.4l-0.5,1.1l1.4,0.7c0.1,0.1,0.2,0.2,0.3,0.3
			c0.1,0.1,0.1,0.3,0,0.4c-0.1,0.1-0.2,0.2-0.3,0.3c-0.1,0.1-0.3,0.1-0.4,0l-3.2-1.5l-0.3,0.7l3.2,1.5c0.1,0.1,0.2,0.2,0.3,0.3
			C570.1,95.6,570.1,95.8,570,95.9z"/>
		
			<ellipse transform="matrix(0.7991 -0.6013 0.6013 0.7991 47.3884 351.0019)" class="st4" cx="548.8" cy="104.6" rx="7.5" ry="7.5"/>
		<path class="st15" d="M554.8,106.4c0.8-3.3-1.2-6.6-4.4-7.4c-3.3-0.8-6.6,1.2-7.4,4.4c-0.4,1.7-0.1,3.6,0.9,5
			c-2.1-2.7-1.6-6.7,1.1-8.8c2.7-2.1,6.7-1.6,8.8,1.1C555,102.3,555.4,104.5,554.8,106.4z"/>
		<path class="st3" d="M551.1,105.7l-0.7,1.6c-0.1,0.1-0.2,0.2-0.3,0.3c-0.1,0.1-0.3,0.1-0.4,0l-1.4-0.7l-0.5,1.1
			c-0.1,0.3-0.4,0.4-0.7,0.2c0,0,0,0,0,0c-0.1-0.1-0.2-0.2-0.3-0.3c-0.1-0.1-0.1-0.3,0-0.4l0.5-1.1l-1.4-0.7
			c-0.1-0.1-0.2-0.2-0.3-0.3c-0.1-0.1-0.1-0.3,0-0.4c0.1-0.3,0.4-0.4,0.7-0.2l3.2,1.5l0.3-0.7l-3.2-1.6c-0.1-0.1-0.2-0.2-0.3-0.3
			c-0.1-0.1-0.1-0.3,0-0.4l0.7-1.6c0.1-0.3,0.4-0.4,0.7-0.2c0,0,0,0,0,0l1.4,0.6l0.5-1.1c0.1-0.1,0.2-0.2,0.3-0.3
			c0.1-0.1,0.3-0.1,0.4,0c0.1,0.1,0.2,0.2,0.3,0.3c0.1,0.1,0.1,0.3,0,0.4l-0.5,1.1l1.4,0.7c0.1,0.1,0.2,0.2,0.3,0.3
			c0.1,0.1,0.1,0.3,0,0.4c-0.1,0.1-0.2,0.2-0.3,0.3c-0.1,0.1-0.3,0.1-0.4,0l-3.2-1.5l-0.3,0.7l3.2,1.5c0.1,0.1,0.2,0.2,0.3,0.3
			C551.2,105.4,551.2,105.5,551.1,105.7z"/>
	</g>
	<g id="freepik--plant-1--inject-8">
		<path class="st11" d="M497.7,171.3c0,0-2.1,1.7-1.3,5.5c0.5,2.2,1.9,3.4,3.1,3.1s2.1-1.8,1.6-4.1
			C500.3,172.1,497.7,171.3,497.7,171.3z"/>
		<path class="st11" d="M510.8,163.7c0,0-3.5-0.8-6.8,3.1c-1.9,2.3-2,4.7-0.7,5.8s3.6,0.6,5.6-1.7
			C512.2,167.1,510.8,163.7,510.8,163.7z"/>
		<path class="st11" d="M507,148.7c0,0-1.2,0.3-1.5,2c-0.2,1,0.2,1.7,0.7,1.8s1.2-0.4,1.4-1.4C508,149.5,507,148.7,507,148.7z"/>
		<path class="st12" d="M499.1,185.2c-0.5-1.8-0.7-3.6-0.7-5.4c0-1.8,0.3-3.5,0.8-5.3c0.2-0.8,0.5-1.7,0.8-2.5
			c0.2-0.4,0.3-0.8,0.5-1.2c0.1-0.2,0.2-0.4,0.3-0.6l0.1-0.3l0.1-0.3c0.7-1.5,1.3-2.9,1.9-4.4c0.6-1.5,1.1-3,1.6-4.5
			c0.4-1.5,0.7-3.1,0.9-4.7c0.2-1.6,0.1-3.2-0.1-4.8c-0.3-1.6-0.9-3.1-1.8-4.5c1.1,1.3,1.8,2.7,2.3,4.3c0.5,1.6,0.7,3.3,0.7,4.9
			c0,1.7-0.1,3.3-0.4,5c-0.3,1.6-0.6,3.3-1.1,4.9c-0.4,1.6-0.9,3.2-1.5,4.7l-0.1,0.3l-0.1,0.1l0,0.1c-0.1,0.2-0.1,0.4-0.2,0.6
			c-0.1,0.4-0.2,0.7-0.3,1.1c-0.2,0.7-0.4,1.5-0.5,2.2c-0.2,1.5-0.3,3-0.2,4.4c0.1,1.4,0.5,2.8,1,4.2L499.1,185.2z"/>
		<path class="st13" d="M509.9,178.7l-0.2,1.7l-1,11.4c0,0.4-0.4,0.7-0.8,0.7h-12.9c-0.4,0-0.7-0.3-0.8-0.7l-1-11.4l-0.2-1.7H509.9z
			"/>
		
			<rect x="507.6" y="186.9" transform="matrix(8.906814e-02 -0.996 0.996 8.906814e-02 277.9776 677.9307)" class="st4" width="4.1" height="0.2"/>
		
			<rect x="509.5" y="183.2" transform="matrix(8.906814e-02 -0.996 0.996 8.906814e-02 281.9716 674.8886)" class="st4" width="1" height="0.2"/>
		<path class="st11" d="M500.6,152c0,0-1.8,2.4,0,6.3c1.1,2.3,2.9,3.2,4.2,2.6c1.2-0.6,1.7-2.5,0.7-4.8
			C503.6,152.2,500.6,152,500.6,152z"/>
		<polygon class="st14" points="509.9,178.7 509.8,180.4 493.3,180.4 493.2,178.7 		"/>
		<path class="st13" d="M492.2,176.5h18.8c0.2,0,0.4,0.2,0.4,0.4v2.3c0,0.2-0.2,0.4-0.4,0.4h-18.8c-0.2,0-0.4-0.2-0.4-0.4v-2.3
			C491.8,176.7,492,176.5,492.2,176.5z"/>
		<circle class="st4" cx="508.8" cy="158" r="2.7"/>
		<path class="st15" d="M511,158.7c0.3-1.2-0.4-2.4-1.6-2.7s-2.4,0.4-2.7,1.6c-0.2,0.6,0,1.3,0.3,1.8c-0.7-1-0.5-2.4,0.5-3.2
			c1-0.7,2.4-0.5,3.2,0.5C511.1,157.3,511.2,158,511,158.7z"/>
		<path class="st3" d="M509.7,158.4l-0.3,0.6c0,0-0.1,0.1-0.1,0.1c0,0-0.1,0-0.1,0l-0.5-0.2l-0.2,0.4c0,0-0.1,0.1-0.1,0.1
			c0,0-0.1,0-0.1,0c0,0-0.1-0.1-0.1-0.1c0,0,0-0.1,0-0.1l0.2-0.4l-0.5-0.2c0,0-0.1-0.1-0.1-0.1c0,0,0-0.1,0-0.1c0,0,0.1-0.1,0.1-0.1
			c0,0,0.1,0,0.1,0l1.2,0.6l0.1-0.2l-1.2-0.6c0,0-0.1-0.1-0.1-0.1c0,0,0-0.1,0-0.1l0.3-0.6c0,0,0.1-0.1,0.1-0.1c0,0,0.1,0,0.1,0
			l0.5,0.2l0.2-0.4c0,0,0.1-0.1,0.1-0.1c0,0,0.1,0,0.1,0c0,0,0.1,0.1,0.1,0.1c0,0,0,0.1,0,0.1l-0.2,0.4l0.5,0.2c0,0,0.1,0.1,0.1,0.1
			c0,0,0,0.1,0,0.1c0,0-0.1,0.1-0.1,0.1c0,0-0.1,0-0.1,0l-1.2-0.6l-0.1,0.2l1.2,0.6c0,0,0.1,0.1,0.1,0.1
			C509.7,158.3,509.7,158.4,509.7,158.4z"/>
		<circle class="st4" cx="499.8" cy="166.3" r="2.7"/>
		<path class="st15" d="M502,166.9c0.3-1.2-0.4-2.4-1.6-2.7c-1.2-0.3-2.4,0.4-2.7,1.6c-0.2,0.6,0,1.3,0.3,1.8
			c-0.7-1-0.5-2.4,0.5-3.2c1-0.7,2.4-0.5,3.2,0.5C502.1,165.5,502.2,166.3,502,166.9z"/>
		<path class="st3" d="M500.7,166.7l-0.3,0.6c0,0-0.1,0.1-0.1,0.1c0,0-0.1,0-0.1,0l-0.5-0.2l-0.2,0.4c0,0-0.1,0.1-0.1,0.1
			c0,0-0.1,0-0.1,0c0,0-0.1-0.1-0.1-0.1c0,0,0-0.1,0-0.1l0.2-0.4l-0.5-0.2c0,0-0.1-0.1-0.1-0.1c0,0,0-0.1,0-0.1c0,0,0.1-0.1,0.1-0.1
			c0,0,0.1,0,0.1,0l1.2,0.6l0.1-0.2l-1.2-0.6c0,0-0.1-0.1-0.1-0.1c0,0,0-0.1,0-0.1l0.3-0.6c0,0,0.1-0.1,0.1-0.1c0,0,0.1,0,0.1,0
			l0.5,0.2l0.2-0.4c0,0,0.1-0.1,0.1-0.1c0,0,0.1,0,0.1,0c0,0,0.1,0.1,0.1,0.1c0,0,0,0.1,0,0.1l-0.2,0.4l0.5,0.2c0,0,0.1,0.1,0.1,0.1
			c0,0,0,0.1,0,0.1c0,0-0.1,0.1-0.1,0.1c0,0-0.1,0-0.1,0l-1.2-0.6l-0.1,0.2l1.2,0.6c0,0,0.1,0.1,0.1,0.1
			C500.7,166.6,500.7,166.6,500.7,166.7z"/>
	</g>
</g>
<g id="freepik--Character--inject-8">
	<path class="st13" d="M451.9,79.5c6.4,1,19.1,23,16.6,28.5c-2.2,4.7-6.8,6.2-12.8-7.1C449.6,87.5,451.9,79.5,451.9,79.5z"/>
	<g class="st9">
		<path d="M451.9,79.5c6.4,1,19.1,23,16.6,28.5c-2.2,4.7-6.8,6.2-12.8-7.1C449.6,87.5,451.9,79.5,451.9,79.5z"/>
	</g>
	<polygon class="st16" points="454.8,221.9 459.4,222.4 460.3,212.4 455.6,211.9 	"/>
	<polygon class="st16" points="431.8,221.5 436.3,221.5 436.6,211.2 432.2,211.2 	"/>
	<path class="st17" d="M436.9,221h-5.4c-0.2,0-0.3,0.1-0.4,0.3l-0.9,4c-0.1,0.4,0.2,0.7,0.5,0.8c0,0,0.1,0,0.1,0
		c1.8,0,3-0.1,5.2-0.1c1.4,0,5.5,0.1,7.3,0.1s2.1-1.9,1.4-2c-3.4-0.7-6-1.8-7.1-2.8C437.4,221.1,437.1,221,436.9,221z"/>
	<path class="st4" d="M437.2,221.6C437.1,221.6,437.1,221.6,437.2,221.6c-0.1-0.1-0.1-0.2,0-0.2c0.2-0.1,1.6-1,2.1-0.7
		c0.1,0.1,0.2,0.2,0.2,0.3c0,0.2-0.1,0.4-0.2,0.6c-0.3,0.2-0.6,0.3-0.9,0.2C438,221.8,437.6,221.7,437.2,221.6z M437.5,221.5
		c0.5,0.2,1.1,0.1,1.6-0.1c0.1-0.1,0.2-0.2,0.1-0.4c0-0.1,0-0.1-0.1-0.1c0,0-0.1,0-0.1,0C438.5,221,438,221.2,437.5,221.5z"/>
	<path class="st4" d="M437.2,221.7C437.1,221.6,437.1,221.6,437.2,221.7c-0.1-0.2,0.1-1.4,0.6-1.9c0.1-0.1,0.3-0.2,0.4-0.1
		c0.2,0,0.3,0.1,0.3,0.3c0.1,0.5-0.8,1.5-1.3,1.7L437.2,221.7C437.2,221.6,437.2,221.7,437.2,221.7z M437.9,219.9
		c-0.3,0.4-0.5,0.9-0.5,1.4c0.5-0.3,1-1.1,1-1.4c0,0,0-0.1-0.2-0.1h-0.1C438,219.8,437.9,219.9,437.9,219.9z"/>
	<path class="st17" d="M459.9,220.9h-5.4c-0.2,0-0.3,0.1-0.4,0.3l-0.9,4c-0.1,0.4,0.2,0.7,0.5,0.8c0,0,0.1,0,0.1,0
		c1.8,0,3-0.1,5.2-0.1c1.4,0,5.5,0.1,7.3,0.1c1.9,0,2.1-1.9,1.4-2c-3.4-0.7-6-1.8-7.1-2.8C460.4,221,460.1,220.9,459.9,220.9z"/>
	<path class="st4" d="M460.2,221.5C460.1,221.5,460.1,221.4,460.2,221.5c-0.1-0.1-0.1-0.2,0-0.2c0.2-0.1,1.6-1,2.1-0.7
		c0.1,0.1,0.2,0.2,0.2,0.3c0,0.2-0.1,0.4-0.2,0.6c-0.3,0.2-0.6,0.3-0.9,0.2C461,221.6,460.6,221.6,460.2,221.5z M460.5,221.3
		c0.5,0.2,1.1,0.1,1.6-0.1c0.1-0.1,0.2-0.2,0.1-0.4c0-0.1,0-0.1-0.1-0.1c0,0-0.1,0-0.1,0C461.5,220.8,461,221,460.5,221.3z"/>
	<path class="st4" d="M460.2,221.5C460.1,221.5,460.1,221.5,460.2,221.5c-0.1-0.2,0.1-1.4,0.6-1.9c0.1-0.1,0.3-0.2,0.4-0.1
		c0.2,0,0.3,0.1,0.3,0.3c0.1,0.5-0.8,1.5-1.3,1.7L460.2,221.5C460.2,221.5,460.2,221.5,460.2,221.5z M460.9,219.8
		c-0.3,0.4-0.5,0.9-0.5,1.4c0.5-0.3,1-1.1,1-1.4c0,0,0-0.1-0.2-0.1h-0.1C461,219.7,460.9,219.7,460.9,219.8z"/>
	<polygon class="st14" points="432.2,211.2 436.6,211.2 436.4,216.5 432,216.5 	"/>
	<path class="st13" d="M434,120.5h23.7c2.3,12.3,9,60.7,3.9,99.5l-8-0.4c0,0,1.1-56.9-6-76c-0.8,10.2-1.8,21-2.6,26.8
		c-2.1,14.2-6.8,49.9-6.8,49.9l-8.1-0.3c0,0,1.9-34,2.6-48C433.6,156.8,434,123.6,434,120.5z"/>
	<g class="st10">
		<path d="M434,120.5h23.7c2.3,12.3,9,60.7,3.9,99.5l-8-0.4c0,0,1.1-56.9-6-76c-0.8,10.2-1.8,21-2.6,26.8
			c-2.1,14.2-6.8,49.9-6.8,49.9l-8.1-0.3c0,0,1.9-34,2.6-48C433.6,156.8,434,123.6,434,120.5z"/>
	</g>
	<path class="st18" d="M458.6,126.2c0,0-7,1.6-11.9,0l0.4-3.8h11.4L458.6,126.2z"/>
	<path class="st19" d="M455.1,126.8c-1.5,0.2-3,0.2-4.5,0.1v-4.5h4.5V126.8z"/>
	<path class="st14" d="M447.6,143.6c1.2,3.3,2.1,6.8,2.6,10.3c0.7-9.1-2-18.7-2-18.7L447.6,143.6z"/>
	<path class="st17" d="M437.1,66.5c0,0,0.2,4.4,3.6,3.3C444.1,68.8,440.1,65,437.1,66.5z"/>
	<path class="st16" d="M447.2,77.4c-1.4-1.1-2-3-1.6-4.8l-6.1-4.9c0,0,0.8,6.1-0.7,9.3c0,0,3.7,3.8,6.5,2.9
		C448.2,79,447.2,77.4,447.2,77.4z"/>
	<path class="st14" d="M440.9,70.6l2.4,0.1l2.3,1.9c-0.2,0.8-0.2,1.7,0,2.5C442,74.5,440.9,70.6,440.9,70.6z"/>
	<path class="st4" d="M441.1,81.8l5.1-1.9l4.3,0.3c0,0,4.5,10.3,6.2,20.9c1.1,7.4,1.6,14.8,1.7,22.3c-0.2,0-6.2,1.3-11.9-0.6
		c0,0,3.8-15.9,1.7-23.2C446.1,92.2,441.1,81.8,441.1,81.8"/>
	<path class="st20" d="M441.1,81.8l5.1-1.9l4.3,0.3c0,0,4.5,10.3,6.2,20.9c1.1,7.4,1.6,14.8,1.7,22.3c-0.2,0-6.2,1.3-11.9-0.6
		c0,0,3.8-15.9,1.7-23.2C446.1,92.2,441.1,81.8,441.1,81.8"/>
	<path class="st18" d="M448.1,80l-0.3,2.8c0,0,3.8,7.3,5.1,12.3s2.4,19.8,2.4,19.8l-2.4,4.1l-2.2-4.1c0,0,0.6-11.9-1.2-20
		S447,83.2,447,83.2l-2.6-1.9l1.8-1.5L448.1,80z"/>
	<polygon class="st6" points="447.2,77.4 445.5,79.1 438.9,76.9 443.8,84.2 446.2,80.3 450.2,81.5 	"/>
	<path class="st13" d="M447.2,77.4c0,0,9.1,2,11.1,10.2c2,8.2,3.1,44.2,3.4,47.1s-5.4,3.3-5.4,3.3s0.3-18.6-0.2-23.5
		c-0.2-1.8-0.4-7.8-1.2-12.5C453.4,93.6,450.9,82.9,447.2,77.4z"/>
	<path class="st13" d="M449.1,78c1.2,1.1,4.2,3.4,5.7,5.9l-2.3,1.2l3.2,2c0,0-0.3,8.9-1,13.5c-1.5-8.1-3.9-18-7.4-23.2
		C447.2,77.4,448,77.6,449.1,78z"/>
	<path class="st19" d="M449.1,78c1.2,1.1,4.2,3.4,5.7,5.9l-2.3,1.2l3.2,2c0,0-0.3,8.9-1,13.5c-1.5-8.1-3.9-18-7.4-23.2
		C447.2,77.4,448,77.6,449.1,78z"/>
	<path class="st17" d="M453.8,57.3c0,0,0.8,4.3-1.8,5c0,0-1.8-4,0-4.3S453.8,57.3,453.8,57.3z"/>
	<path class="st16" d="M452,67.7c-0.4,2.4-2.2,7.3-7.2,5.8c-5-1.5-5.2-5.5-5.3-6.6c-0.1-1.1,1-10,4.2-10.9c3.2-0.8,7.1,0.2,8.3,2
		S452,67.7,452,67.7z"/>
	<path class="st17" d="M439.8,64.1c-0.1,0.1,3,1.1,2.8-5.9c0,0,10.1,2.1,12.6-1.2c3.1-4,1.7-4.8-2.1-3.6c0,0-13-1.3-14.7,0.8
		c-2,2.6-2,9.5-2,9.5L439.8,64.1z"/>
	<path class="st17" d="M452.8,54.7c0,0,5.6-5.5-5.4-0.5L452.8,54.7z"/>
	<path class="st16" d="M440.8,64.6c0,0-0.9-2.5-3.2-2.5c-1.8,0-2.1,2.3-1.3,3.9c0.6,1.2,2.7,2.7,4.1,1.1S440.8,64.6,440.8,64.6z"/>
	<path class="st17" d="M446.2,64.1c-0.1,0.3,0,0.6,0.3,0.7c0.2,0,0.5-0.2,0.5-0.6c0.1-0.3-0.1-0.7-0.3-0.7
		C446.5,63.5,446.3,63.7,446.2,64.1z"/>
	<path class="st17" d="M450.2,64.8c-0.1,0.3,0.1,0.7,0.3,0.7c0.2,0,0.5-0.2,0.5-0.6c0.1-0.4-0.1-0.7-0.3-0.7
		C450.5,64.2,450.2,64.4,450.2,64.8z"/>
	<path class="st21" d="M448.9,64.7c0.2,1.2,0.6,2.3,1.2,3.3c-0.6,0.3-1.2,0.3-1.8,0L448.9,64.7z"/>
	<path class="st17" d="M445.4,62c0.1,0.1,0.1,0.1,0.2,0.1c0.5-0.1,1.1,0,1.5,0.4c0.1,0.1,0.2,0.1,0.3,0c0.1-0.1,0.1-0.2,0-0.3
		c0,0,0,0,0,0l0,0c-0.5-0.5-1.2-0.7-1.9-0.5C445.4,61.7,445.4,61.8,445.4,62L445.4,62C445.4,61.9,445.4,62,445.4,62z"/>
	<path class="st17" d="M447.4,69.8L447.4,69.8c-1.1,0-2-0.6-2.6-1.4c0-0.1,0-0.1,0.1-0.1c0,0,0.1,0,0.1,0l0,0
		c0.6,0.8,1.5,1.3,2.4,1.3c0.1,0,0.1,0,0.1,0.1l0,0l0,0C447.5,69.7,447.5,69.8,447.4,69.8L447.4,69.8z"/>
	<path class="st17" d="M452.1,62.6C452.2,62.6,452.2,62.6,452.1,62.6c0.1-0.2,0.1-0.3,0-0.3c0,0,0,0,0,0l0,0
		c-0.6-0.3-1.3-0.2-1.9,0.1c-0.1,0.1-0.1,0.2-0.1,0.3l0,0c0.1,0.1,0.2,0.1,0.3,0.1l0,0c0.5-0.3,1-0.3,1.5-0.1
		C452,62.7,452.1,62.7,452.1,62.6z"/>
	<path class="st13" d="M438.9,76.9c0,0-6.4,3-9.2,4.9c-2.9,1.9,1.6,23,1.7,26.7c0.1,3.7-3.3,29.4-3.3,29.4s9.7,2.5,17.6,0.6
		c0,0,5.6-21.3,4.9-32.5C449.9,95.2,446.7,84.7,438.9,76.9z"/>
	<path class="st13" d="M433.9,126.2c0,0,6.5-1,10.5-3.3c0,0,0,7.4-1.2,11.5c0,0-6.2,0.9-10.2,0.2C433,134.6,433.2,130.8,433.9,126.2
		z"/>
	<path class="st15" d="M433.9,126.2c0,0,6.5-1,10.5-3.3c0,0,0,1.1-0.1,2.7c-0.1,2.5-11,5.1-10.7,2.9
		C433.7,127.7,433.8,126.9,433.9,126.2z"/>
	<path class="st13" d="M436.4,78.4c1.4-0.8,2.5-1.4,2.5-1.4c7.6,7.5,10.8,17.6,11.6,28c-3.3-8-10.9-15.3-10.9-15.3l2.4-3.5l-4.3-0.3
		C437.5,83.3,437.1,80.8,436.4,78.4z"/>
	<path class="st19" d="M436.4,78.4c1.4-0.8,2.5-1.4,2.5-1.4c7.6,7.5,10.8,17.6,11.6,28c-3.3-8-10.9-15.3-10.9-15.3l2.4-3.5l-4.3-0.3
		C437.5,83.3,437.1,80.8,436.4,78.4z"/>
	<path class="st13" d="M458.3,122.9l3.4,0.6l-0.4,2.6C461.3,126.1,457.9,126,458.3,122.9z"/>
	<path class="st15" d="M458.3,122.9l3.4,0.6l-0.4,2.6C461.3,126.1,457.9,126,458.3,122.9z"/>
	<path class="st22" d="M456.5,97l-6.4-8c-0.9-0.1-1.7-0.5-2.4-1.1c-1-1.1-2-5.5-1.7-5.7c0.4-0.2,4.5-0.3,4.9,0.2
		c0.3,0.5,1.7,5,1.7,5l7,6.4L456.5,97z"/>
	<polygon class="st4" points="455.9,88.3 454.4,87.1 449.9,90.5 451.2,92.5 	"/>
	<g class="st23">
		<polygon class="st6" points="455.9,88.3 454.4,87.1 449.9,90.5 451.2,92.5 		"/>
	</g>
	<path class="st13" d="M466.8,101.2c-3.1-4-10.8-13.4-10.8-13.4l-5.8,4.7c0,0,8.2,15.6,11.5,18.2
		C465.9,114.2,471.2,106.8,466.8,101.2z"/>
	<g class="st8">
		<path d="M466.8,101.2c-3.1-4-10.8-13.4-10.8-13.4l-5.8,4.7c0,0,8.2,15.6,11.5,18.2C465.9,114.2,471.2,106.8,466.8,101.2z"/>
	</g>
	<path class="st4" d="M451.5,136.4c-5.8,0-10.4-4.7-10.4-10.4s4.7-10.4,10.4-10.4c5.8,0,10.4,4.7,10.4,10.4l0,0
		c0,0.6-0.1,1.3-0.2,1.9C460.8,132.8,456.5,136.4,451.5,136.4z M451.5,117.7c-4.6,0-8.3,3.7-8.3,8.3c0,4.6,3.7,8.3,8.3,8.3
		s8.3-3.7,8.3-8.3c0-4-2.9-7.4-6.8-8.1l0,0C452.5,117.7,452,117.7,451.5,117.7L451.5,117.7z"/>
	<path class="st16" d="M432.4,119.1l8.8,1.6c0.6,0.7,1.4,1.1,2.3,1.1c1.6,0.2,3.7-0.1,3.9-0.5c0.3-0.6,1-3.6,0.3-3.6
		c-0.7,0.1-5.3-0.4-5.3-0.4l-8.7-3.8L432.4,119.1z"/>
	<polygon class="st4" points="440.3,114.4 442.5,115.3 439.9,122.8 437,121.5 	"/>
	<polygon class="st20" points="440.3,114.4 442.5,115.3 439.9,122.8 437,121.5 	"/>
	<path class="st13" d="M429.4,82c0,0-5.4,8.3-7,17.8c-0.5,3-0.3,6,0.8,8.8c3.8,9.6,15.1,14.1,15.1,14.1l3.5-8.4
		c0,0-8.6-4.1-9.9-10.3c-0.3-1.4-0.8-2.2-0.2-4.2C433.8,93,437,84.2,429.4,82z"/>
	<path class="st15" d="M429.4,82c0,0-5.4,8.3-7,17.8c-0.5,3-0.3,6,0.8,8.8c3.8,9.6,15.1,14.1,15.1,14.1l3.5-8.4
		c0,0-8.6-4.1-9.9-10.3c-0.3-1.4-0.8-2.2-0.2-4.2C433.8,93,437,84.2,429.4,82z"/>
	<path class="st16" d="M444.2,118.8c1.1-0.1,3.7-1.8,3.9-2.6c0.1-0.5-1.9,0.2-2.5,0.2c-1.8,0.2-3.1,0.4-3.6,1.2
		S442.4,119,444.2,118.8z"/>
	<path class="st4" d="M477.4,134.9l-2-4.1c-0.1-0.3-0.5-0.4-0.8-0.3c0,0,0,0,0,0c-0.2,0.1-0.3,0.2-0.3,0.4l-0.6,2.7l-5.6,2.8
		c-0.9,0.5-2,0.1-2.5-0.8c0,0,0,0,0,0c-0.2-0.4-0.2-0.8-0.2-1.2l1.3-6.5c0.1-0.7-0.2-1.3-0.9-1.5l-10.7-3.8c-0.6-0.2-1.3,0-1.7,0.6
		l-6.4,12.2c-0.3,0.7-0.1,1.5,0.6,1.8c0.1,0,0.1,0.1,0.2,0.1l15.7,5.6c0.5,0.2,1,0.1,1.3-0.2l9.4-8.1l2.2,1.1
		c0.3,0.2,0.6,0.1,0.8-0.2c0,0,0,0,0,0C477.5,135.2,477.5,135,477.4,134.9z"/>
	<path class="st4" d="M506.5,173.9L506.5,173.9C506.5,173.9,506.4,173.9,506.5,173.9c-0.1-0.5-0.1-0.9-0.1-1.3c0,0,0-0.1,0.1-0.1
		c0,0,0.1,0,0.1,0.1l0,0l0,0C506.5,173,506.5,173.5,506.5,173.9C506.5,173.9,506.5,173.9,506.5,173.9L506.5,173.9z M506.5,171.3
		C506.5,171.3,506.5,171.3,506.5,171.3l-0.1-1.4c0,0,0-0.1,0.1-0.1l0,0c0,0,0.1,0,0.1,0.1L506.5,171.3
		C506.6,171.3,506.5,171.3,506.5,171.3L506.5,171.3z M506.5,168.7C506.5,168.7,506.5,168.7,506.5,168.7l-0.1-1.4c0,0,0-0.1,0.1-0.1
		l0,0c0,0,0.1,0,0.1,0.1L506.5,168.7C506.6,168.7,506.5,168.7,506.5,168.7z M506.5,166.1C506.5,166.1,506.5,166.1,506.5,166.1
		c-0.1-0.5-0.1-0.9-0.1-1.4c0,0,0-0.1,0.1-0.1l0,0c0,0,0.1,0,0.1,0.1C506.6,165.2,506.6,165.6,506.5,166.1
		C506.6,166.1,506.5,166.1,506.5,166.1C506.5,166.1,506.5,166.1,506.5,166.1L506.5,166.1L506.5,166.1z M506.5,163.5
		C506.4,163.5,506.4,163.5,506.5,163.5c-0.1-0.5-0.1-0.9-0.1-1.4c0,0,0,0,0-0.1c0,0,0,0,0,0l0,0c0,0,0.1,0,0.1,0.1
		C506.5,162.6,506.5,163,506.5,163.5C506.5,163.5,506.5,163.5,506.5,163.5C506.5,163.5,506.5,163.5,506.5,163.5L506.5,163.5z
		 M506.4,160.9C506.4,160.9,506.3,160.9,506.4,160.9c-0.1-0.5-0.1-0.9-0.1-1.4c0,0,0,0,0-0.1c0,0,0,0,0,0l0,0c0,0,0.1,0,0.1,0.1
		L506.4,160.9C506.4,160.9,506.4,160.9,506.4,160.9C506.4,160.9,506.4,160.9,506.4,160.9L506.4,160.9z M506.3,158.3
		C506.2,158.3,506.2,158.3,506.3,158.3c-0.1-0.5-0.1-0.9-0.1-1.4c0,0,0,0,0,0c0,0,0,0,0,0l0,0c0,0,0.1,0,0.1,0.1
		C506.2,157.4,506.3,157.9,506.3,158.3C506.3,158.3,506.3,158.3,506.3,158.3L506.3,158.3z M506.1,155.7
		C506.1,155.7,506.1,155.7,506.1,155.7l-0.1-1.4c0,0,0,0,0-0.1c0,0,0,0,0,0l0,0c0,0,0.1,0,0.1,0c0,0,0,0,0,0l0,0L506.1,155.7
		C506.2,155.7,506.2,155.7,506.1,155.7L506.1,155.7z M505.9,153.1C505.9,153.1,505.9,153.1,505.9,153.1c-0.1-0.5-0.1-0.9-0.2-1.3
		c0,0,0-0.1,0-0.1c0,0,0,0,0,0l0,0c0,0,0.1,0,0.1,0.1C505.9,152.2,505.9,152.7,505.9,153.1C506,153.1,506,153.1,505.9,153.1
		L505.9,153.1L505.9,153.1z M505.7,150.5C505.7,150.5,505.6,150.5,505.7,150.5C505.6,150.5,505.6,150.5,505.7,150.5
		c-0.1-0.5-0.1-0.9-0.2-1.3c0,0,0-0.1,0-0.1l0,0c0,0,0,0,0.1,0c0,0,0,0,0,0C505.6,149.6,505.7,150.1,505.7,150.5
		C505.7,150.5,505.7,150.5,505.7,150.5C505.7,150.5,505.7,150.5,505.7,150.5L505.7,150.5L505.7,150.5z M505.4,148
		C505.4,148,505.3,148,505.4,148C505.3,147.9,505.3,147.9,505.4,148c-0.1-0.5-0.2-0.9-0.2-1.3c0,0,0,0,0.1,0c0,0,0,0,0,0
		C505.3,147.1,505.4,147.5,505.4,148C505.5,147.9,505.4,148,505.4,148C505.4,148,505.4,148,505.4,148L505.4,148L505.4,148z
		 M505.1,145.4C505,145.4,505,145.4,505.1,145.4L505.1,145.4c-0.1-0.5-0.2-0.9-0.3-1.3c0,0,0-0.1,0-0.1l0,0c0,0,0.1,0,0.1,0l0,0
		C505,144.5,505,144.9,505.1,145.4C505.1,145.4,505.1,145.4,505.1,145.4L505.1,145.4L505.1,145.4z M504.6,142.8
		C504.6,142.8,504.6,142.8,504.6,142.8c-0.1-0.5-0.2-0.9-0.3-1.3c0,0,0-0.1,0-0.1c0,0,0,0,0,0c0,0,0.1,0,0.1,0
		C504.5,141.9,504.6,142.3,504.6,142.8C504.7,142.8,504.7,142.8,504.6,142.8L504.6,142.8L504.6,142.8z M504.2,140.3
		C504.1,140.3,504.1,140.2,504.2,140.3c-0.1-0.5-0.2-0.9-0.3-1.3c0,0,0-0.1,0.1-0.1c0,0,0.1,0,0.1,0.1
		C504,139.4,504.1,139.8,504.2,140.3C504.2,140.2,504.2,140.3,504.2,140.3C504.2,140.3,504.2,140.3,504.2,140.3L504.2,140.3
		L504.2,140.3z M503.6,137.7C503.6,137.7,503.5,137.7,503.6,137.7c-0.2-0.5-0.3-0.9-0.4-1.3c0,0,0-0.1,0-0.1c0,0,0.1,0,0.1,0l0,0
		C503.4,136.8,503.5,137.2,503.6,137.7C503.6,137.7,503.6,137.7,503.6,137.7L503.6,137.7z M502.9,135.2
		C502.9,135.2,502.9,135.2,502.9,135.2c-0.2-0.5-0.3-0.9-0.4-1.3c0,0,0-0.1,0-0.1c0,0,0,0,0,0l0,0c0,0,0.1,0,0.1,0c0,0,0,0,0,0l0,0
		C502.7,134.3,502.8,134.7,502.9,135.2C503,135.2,503,135.2,502.9,135.2L502.9,135.2z M502.1,132.7
		C502.1,132.7,502.1,132.7,502.1,132.7c-0.2-0.4-0.4-0.9-0.5-1.3c0,0,0,0,0-0.1l0,0c0,0,0.1,0,0.1,0
		C501.8,131.8,502,132.3,502.1,132.7C502.1,132.7,502.1,132.7,502.1,132.7L502.1,132.7z M476.3,131L476.3,131
		C476.3,131,476.3,130.9,476.3,131c0.2-0.4,0.5-0.8,0.7-1.2c0,0,0.1,0,0.1,0c0,0,0,0,0,0l0,0c0,0,0,0.1,0,0.1l0,0
		C476.9,130.3,476.6,130.6,476.3,131C476.4,131,476.4,131,476.3,131L476.3,131z M501.2,130.3C501.1,130.3,501.1,130.3,501.2,130.3
		c-0.2-0.4-0.4-0.8-0.6-1.2c0,0,0,0,0-0.1l0,0c0,0,0.1,0,0.1,0C500.8,129.4,501,129.8,501.2,130.3
		C501.2,130.2,501.2,130.3,501.2,130.3C501.2,130.3,501.2,130.3,501.2,130.3L501.2,130.3z M477.9,128.9L477.9,128.9
		C477.8,128.8,477.8,128.8,477.9,128.9c0.3-0.4,0.6-0.8,0.8-1.1c0,0,0.1,0,0.1,0c0,0,0,0.1,0,0.1c0,0,0,0,0,0l0,0
		C478.5,128.2,478.2,128.5,477.9,128.9C477.9,128.9,477.9,128.9,477.9,128.9C477.9,128.9,477.9,128.9,477.9,128.9L477.9,128.9z
		 M500,128C500,128,500,128,500,128c-0.3-0.4-0.5-0.8-0.7-1.1c0,0,0-0.1,0-0.1c0,0,0.1,0,0.1,0l0,0C499.6,127.1,499.8,127.5,500,128
		C500.1,127.9,500.1,128,500,128C500,128,500,128,500,128L500,128z M479.6,126.9C479.6,126.9,479.5,126.9,479.6,126.9
		C479.5,126.9,479.5,126.9,479.6,126.9L479.6,126.9c0.3-0.4,0.6-0.7,0.9-1c0,0,0.1,0,0.1,0c0,0,0,0,0,0l0,0c0,0,0,0.1,0,0.1
		C480.2,126.3,479.9,126.6,479.6,126.9C479.6,126.9,479.6,126.9,479.6,126.9L479.6,126.9L479.6,126.9z M498.6,125.8
		C498.6,125.8,498.6,125.8,498.6,125.8c-0.3-0.4-0.6-0.7-0.9-1c0,0,0-0.1,0-0.1c0,0,0.1,0,0.1,0c0,0,0,0,0,0l0,0
		C498.1,125,498.4,125.4,498.6,125.8C498.7,125.8,498.7,125.8,498.6,125.8C498.6,125.8,498.6,125.8,498.6,125.8L498.6,125.8
		C498.6,125.8,498.6,125.8,498.6,125.8C498.6,125.8,498.6,125.8,498.6,125.8L498.6,125.8z M481.5,125.2L481.5,125.2
		C481.4,125.1,481.4,125.1,481.5,125.2C481.4,125.1,481.4,125.1,481.5,125.2L481.5,125.2c0.3-0.4,0.6-0.6,1-0.9c0,0,0.1,0,0.1,0
		c0,0,0,0,0,0l0,0c0,0,0,0.1,0,0.1l0,0C482.2,124.6,481.9,124.9,481.5,125.2C481.5,125.2,481.5,125.2,481.5,125.2L481.5,125.2z
		 M496.8,123.9L496.8,123.9c-0.4-0.3-0.7-0.6-1.1-0.8c0,0,0-0.1,0-0.1c0,0,0,0,0,0l0,0c0,0,0.1,0,0.1,0
		C496.2,123.3,496.5,123.6,496.8,123.9C496.9,123.9,496.9,123.9,496.8,123.9C496.9,123.9,496.9,123.9,496.8,123.9L496.8,123.9
		C496.8,124,496.8,124,496.8,123.9C496.8,123.9,496.8,123.9,496.8,123.9L496.8,123.9L496.8,123.9z M483.5,123.6
		C483.5,123.7,483.5,123.7,483.5,123.6C483.5,123.6,483.5,123.6,483.5,123.6c0.3-0.3,0.7-0.5,1.1-0.7c0,0,0.1,0,0.1,0c0,0,0,0,0,0.1
		h0C484.3,123.2,483.9,123.4,483.5,123.6L483.5,123.6z M494.7,122.5L494.7,122.5l-0.2-0.1c-0.3-0.1-0.6-0.3-1-0.4c0,0,0,0,0-0.1
		c0,0,0,0,0,0l0,0c0,0,0,0,0.1,0c0,0,0,0,0,0l0,0c0.3,0.1,0.7,0.2,1,0.4l0.2,0.1C494.7,122.4,494.7,122.5,494.7,122.5
		C494.7,122.5,494.7,122.5,494.7,122.5L494.7,122.5z M485.8,122.5C485.8,122.5,485.8,122.4,485.8,122.5
		C485.8,122.4,485.8,122.4,485.8,122.5c0.3-0.3,0.8-0.4,1.2-0.5c0,0,0,0,0.1,0c0,0,0,0,0,0l0,0c0,0,0,0.1,0,0.1l0,0
		C486.6,122.1,486.2,122.3,485.8,122.5L485.8,122.5z M488.3,121.7C488.3,121.7,488.3,121.7,488.3,121.7c-0.1-0.1,0-0.1,0-0.1
		c0,0,0,0,0,0c0.4-0.1,0.9-0.1,1.3-0.2c0,0,0.1,0,0.1,0c0,0,0,0,0,0l0,0c0,0,0,0.1-0.1,0.1C489.2,121.5,488.8,121.6,488.3,121.7
		L488.3,121.7z M492.2,121.7L492.2,121.7c-0.4-0.1-0.9-0.1-1.3-0.2c0,0-0.1,0-0.1-0.1l0,0c0,0,0-0.1,0.1-0.1c0,0,0,0,0,0
		C491.4,121.5,491.8,121.5,492.2,121.7C492.2,121.6,492.3,121.6,492.2,121.7C492.3,121.7,492.3,121.7,492.2,121.7L492.2,121.7
		C492.3,121.7,492.2,121.7,492.2,121.7C492.2,121.7,492.2,121.7,492.2,121.7L492.2,121.7L492.2,121.7z"/>
	<path class="st4" d="M504.6,173.5L504.6,173.5C504.6,173.5,504.5,173.5,504.6,173.5L504.6,173.5c-0.1-0.5,0-0.9,0-1.4
		c0,0,0,0,0-0.1c0,0,0,0,0,0l0,0c0,0,0.1,0,0.1,0.1l0,0C504.7,172.6,504.7,173,504.6,173.5C504.6,173.5,504.6,173.5,504.6,173.5
		L504.6,173.5z M504.7,170.9L504.7,170.9C504.7,170.9,504.6,170.9,504.7,170.9c-0.1-0.5-0.1-0.9-0.1-1.4c0,0,0-0.1,0.1-0.1
		c0,0,0,0,0.1,0.1C504.7,170,504.7,170.5,504.7,170.9C504.7,170.9,504.7,170.9,504.7,170.9L504.7,170.9z M504.7,168.3L504.7,168.3
		C504.7,168.3,504.7,168.3,504.7,168.3l-0.1-1.4c0,0,0-0.1,0.1-0.1l0,0c0,0,0.1,0,0.1,0.1L504.7,168.3
		C504.8,168.3,504.8,168.3,504.7,168.3z M504.7,165.7L504.7,165.7C504.7,165.7,504.7,165.7,504.7,165.7l-0.1-1.4c0,0,0-0.1,0.1-0.1
		l0,0c0,0,0.1,0,0.1,0.1l0,0l0,0L504.7,165.7C504.8,165.7,504.8,165.7,504.7,165.7L504.7,165.7z M504.7,163.1
		C504.7,163.1,504.7,163.1,504.7,163.1L504.7,163.1l-0.1-1.4c0,0,0-0.1,0.1-0.1c0,0,0,0,0,0l0,0c0,0,0.1,0,0.1,0.1L504.7,163.1
		C504.8,163.1,504.8,163.1,504.7,163.1z M504.7,160.5C504.7,160.5,504.6,160.5,504.7,160.5c-0.1-0.5-0.1-0.9-0.1-1.4
		c0,0,0-0.1,0-0.1c0,0,0.1,0,0.1,0c0,0,0,0,0,0 M504.7,159.2c0,0.4,0,0.9,0,1.3c0,0,0,0.1-0.1,0.1L504.7,159.2z M504.6,157.9
		C504.6,157.9,504.6,157.9,504.6,157.9c-0.1-0.5-0.1-0.9-0.1-1.4c0,0,0-0.1,0-0.1c0,0,0,0,0,0l0,0c0,0,0,0,0.1,0c0,0,0,0,0,0l0,0
		L504.6,157.9C504.7,157.9,504.6,157.9,504.6,157.9C504.6,157.9,504.6,157.9,504.6,157.9L504.6,157.9z M504.5,155.3
		C504.5,155.3,504.4,155.3,504.5,155.3c-0.1-0.5-0.1-0.9-0.1-1.4c0,0,0-0.1,0-0.1l0,0c0,0,0.1,0,0.1,0.1
		C504.5,154.4,504.5,154.8,504.5,155.3C504.5,155.3,504.5,155.3,504.5,155.3L504.5,155.3L504.5,155.3z M504.3,152.7
		C504.3,152.7,504.3,152.7,504.3,152.7l-0.1-1.3c0,0,0,0,0,0c0,0,0,0,0,0c0,0,0.1,0,0.1,0.1C504.3,151.8,504.4,152.3,504.3,152.7
		C504.4,152.7,504.4,152.7,504.3,152.7C504.4,152.7,504.4,152.7,504.3,152.7L504.3,152.7L504.3,152.7z M504.1,150.1
		C504.1,150.1,504.1,150.1,504.1,150.1l-0.2-1.3c0,0,0-0.1,0-0.1c0,0,0,0,0,0l0,0c0,0,0,0,0.1,0l0,0
		C504.1,149.2,504.2,149.6,504.1,150.1C504.2,150.1,504.2,150.1,504.1,150.1L504.1,150.1z M503.9,147.5
		C503.9,147.5,503.8,147.5,503.9,147.5c-0.1-0.5-0.2-0.9-0.2-1.3c0,0,0-0.1,0-0.1c0,0,0,0,0,0c0,0,0,0,0.1,0c0,0,0,0,0,0l0,0
		C503.8,146.6,503.9,147,503.9,147.5C503.9,147.5,503.9,147.5,503.9,147.5L503.9,147.5z M503.6,145C503.6,145,503.5,144.9,503.6,145
		L503.6,145c-0.1-0.5-0.2-0.9-0.2-1.3c0,0,0-0.1,0-0.1c0,0,0,0,0,0l0,0c0,0,0.1,0,0.1,0c0,0,0,0,0,0l0,0
		C503.5,144,503.6,144.5,503.6,145C503.6,144.9,503.6,144.9,503.6,145C503.6,144.9,503.6,144.9,503.6,145L503.6,145z M503.2,142.4
		C503.2,142.4,503.1,142.4,503.2,142.4C503.1,142.3,503.1,142.3,503.2,142.4c-0.1-0.5-0.2-0.9-0.3-1.3c0,0,0-0.1,0-0.1c0,0,0,0,0,0
		l0,0c0,0,0.1,0,0.1,0c0,0,0,0,0,0l0,0C503.1,141.5,503.2,141.9,503.2,142.4C503.2,142.3,503.2,142.4,503.2,142.4
		C503.2,142.4,503.2,142.4,503.2,142.4L503.2,142.4L503.2,142.4z M502.8,139.8C502.7,139.8,502.7,139.8,502.8,139.8
		c-0.1-0.5-0.2-0.9-0.3-1.3c0,0,0,0,0-0.1c0,0,0,0,0,0l0,0c0,0,0.1,0,0.1,0l0,0C502.6,138.9,502.7,139.3,502.8,139.8
		C502.8,139.8,502.8,139.8,502.8,139.8L502.8,139.8z M502.2,137.3C502.2,137.3,502.1,137.3,502.2,137.3c-0.2-0.5-0.3-0.9-0.4-1.3
		c0,0,0,0,0.1,0c0,0,0,0,0,0C502,136.4,502.1,136.8,502.2,137.3C502.2,137.3,502.2,137.3,502.2,137.3
		C502.2,137.3,502.2,137.3,502.2,137.3L502.2,137.3L502.2,137.3z M501.5,134.8C501.5,134.8,501.5,134.7,501.5,134.8
		c-0.2-0.5-0.3-0.9-0.4-1.3c0,0,0-0.1,0-0.1c0,0,0,0,0,0c0,0,0.1,0,0.1,0l0,0C501.3,133.8,501.4,134.3,501.5,134.8
		C501.6,134.7,501.6,134.7,501.5,134.8C501.5,134.8,501.5,134.8,501.5,134.8L501.5,134.8L501.5,134.8z M500.7,132.3
		C500.7,132.3,500.7,132.3,500.7,132.3c-0.2-0.4-0.4-0.9-0.5-1.2c0,0,0-0.1,0-0.1c0,0,0.1,0,0.1,0c0.2,0.4,0.3,0.8,0.5,1.2
		C500.8,132.2,500.8,132.2,500.7,132.3L500.7,132.3z M476.6,131.6L476.6,131.6C476.6,131.6,476.6,131.6,476.6,131.6
		C476.6,131.5,476.6,131.5,476.6,131.6c0.2-0.4,0.5-0.8,0.7-1.1c0,0,0.1,0,0.1,0c0,0,0,0,0,0c0,0,0,0.1,0,0.1c0,0,0,0,0,0l0,0
		C477.2,130.9,476.9,131.3,476.6,131.6C476.7,131.6,476.7,131.6,476.6,131.6C476.7,131.6,476.7,131.6,476.6,131.6L476.6,131.6z
		 M499.8,129.9C499.8,129.9,499.7,129.9,499.8,129.9c-0.2-0.4-0.4-0.8-0.6-1.2c0,0,0-0.1,0-0.1c0,0,0,0,0.1,0c0,0,0,0,0,0
		C499.4,129,499.6,129.4,499.8,129.9C499.8,129.8,499.8,129.9,499.8,129.9L499.8,129.9z M478.2,129.5L478.2,129.5
		C478.2,129.5,478.2,129.5,478.2,129.5L478.2,129.5c0.2-0.4,0.5-0.7,0.8-1.1c0,0,0.1,0,0.1,0c0,0,0,0,0,0l0,0c0,0,0,0.1,0,0.1
		c0,0,0,0,0,0l0,0C478.8,128.8,478.5,129.2,478.2,129.5C478.3,129.5,478.2,129.5,478.2,129.5L478.2,129.5z M498.6,127.6
		C498.6,127.6,498.5,127.6,498.6,127.6c-0.3-0.4-0.5-0.7-0.8-1.1c0,0,0-0.1,0-0.1c0,0,0,0,0,0c0,0,0.1,0,0.1,0c0,0,0,0,0,0l0,0
		C498.1,126.8,498.4,127.1,498.6,127.6C498.6,127.5,498.6,127.6,498.6,127.6C498.6,127.6,498.6,127.6,498.6,127.6z M480,127.6
		L480,127.6C479.9,127.6,479.9,127.5,480,127.6L480,127.6c0.3-0.4,0.6-0.7,0.9-1c0,0,0.1,0,0.1,0l0,0c0,0,0,0.1,0,0.1l0,0
		C480.6,127,480.3,127.2,480,127.6C480,127.6,480,127.6,480,127.6L480,127.6z M481.9,125.8L481.9,125.8
		C481.8,125.8,481.8,125.8,481.9,125.8C481.8,125.7,481.8,125.7,481.9,125.8L481.9,125.8c0.3-0.4,0.6-0.6,1-0.9c0,0,0.1,0,0.1,0
		c0,0,0,0,0,0.1C482.6,125.3,482.3,125.5,481.9,125.8C481.9,125.8,481.9,125.8,481.9,125.8L481.9,125.8z M497,125.5
		C497,125.5,497,125.5,497,125.5c-0.3-0.3-0.6-0.6-1-0.9c0,0,0-0.1,0-0.1l0,0c0,0,0.1,0,0.1,0C496.5,124.8,496.8,125.1,497,125.5
		C497.1,125.5,497.1,125.5,497,125.5L497,125.5L497,125.5z M484,124.3C484,124.3,484,124.3,484,124.3c-0.1,0-0.1-0.1-0.1-0.1
		c0.4-0.2,0.8-0.4,1.1-0.6c0,0,0,0,0.1,0l0,0c0,0,0,0.1,0,0.1C484.8,123.8,484.4,124,484,124.3L484,124.3z M495,123.8L495,123.8
		c-0.3-0.2-0.6-0.4-1-0.5l-0.2-0.1c0,0,0-0.1,0-0.1l0,0c0,0,0,0,0.1,0l0,0l0.2,0.1C494.5,123.4,494.8,123.5,495,123.8
		C495.1,123.8,495.1,123.8,495,123.8L495,123.8z M486.3,123.1C486.3,123.1,486.3,123.1,486.3,123.1
		C486.3,123.1,486.3,123.1,486.3,123.1c0-0.1,0-0.1,0-0.1c0.4-0.2,0.8-0.3,1.2-0.4c0,0,0.1,0,0.1,0c0,0,0,0.1,0,0.1c0,0,0,0,0,0l0,0
		C487.2,122.8,486.7,123,486.3,123.1L486.3,123.1z M492.7,122.7L492.7,122.7c-0.4-0.1-0.8-0.2-1.3-0.3c0,0-0.1,0-0.1-0.1l0,0
		c0,0,0,0,0.1,0c0,0,0,0,0,0l0,0C491.9,122.4,492.3,122.5,492.7,122.7C492.7,122.7,492.8,122.7,492.7,122.7
		C492.8,122.7,492.8,122.7,492.7,122.7C492.7,122.7,492.7,122.8,492.7,122.7L492.7,122.7z M488.8,122.5
		C488.8,122.5,488.8,122.5,488.8,122.5c-0.1-0.1,0-0.1,0-0.1c0,0,0,0,0,0l0,0c0.4-0.1,0.9-0.1,1.3-0.1l0,0c0,0,0.1,0,0.1,0
		c0,0,0,0,0,0l0,0c0,0,0,0,0,0.1l0,0C489.7,122.4,489.3,122.4,488.8,122.5L488.8,122.5z"/>
	<path class="st4" d="M502.6,175.4L502.6,175.4C502.6,175.4,502.6,175.4,502.6,175.4c0-0.4,0-0.8,0-1.1c0,0,0-0.1,0.1-0.1
		c0,0,0.1,0,0.1,0.1l0,0C502.7,174.7,502.7,175,502.6,175.4C502.7,175.4,502.6,175.4,502.6,175.4L502.6,175.4z M502.8,173.1
		L502.8,173.1C502.7,173.1,502.7,173,502.8,173.1L502.8,173.1c0-0.5,0-0.9,0-1.4c0,0,0-0.1,0.1-0.1l0,0c0,0,0.1,0,0.1,0.1l0,0
		C502.9,172.2,502.9,172.6,502.8,173.1C502.8,173,502.8,173.1,502.8,173.1C502.8,173.1,502.8,173.1,502.8,173.1L502.8,173.1z
		 M502.9,170.5L502.9,170.5C502.9,170.5,502.9,170.4,502.9,170.5L502.9,170.5c0-0.5,0-0.9,0-1.3c0,0,0-0.1,0.1-0.1l0,0
		c0,0,0.1,0,0.1,0.1l0,0C503,169.6,503,170,502.9,170.5C503,170.4,502.9,170.5,502.9,170.5L502.9,170.5z M503,167.9L503,167.9
		C503,167.9,503,167.8,503,167.9c-0.1-0.5-0.1-0.9,0-1.4c0,0,0,0,0.1-0.1c0,0,0.1,0,0.1,0.1C503.1,167,503.1,167.4,503,167.9
		C503.1,167.9,503,167.9,503,167.9L503,167.9z M503.1,165.3C503,165.3,503,165.2,503.1,165.3c-0.1-0.5-0.1-0.9-0.1-1.4
		c0,0,0,0,0.1-0.1l0,0c0,0,0.1,0,0.1,0.1l0,0l0,0C503.1,164.3,503.1,164.8,503.1,165.3C503.1,165.2,503.1,165.2,503.1,165.3
		C503.1,165.3,503.1,165.3,503.1,165.3L503.1,165.3z M503.1,162.7L503.1,162.7C503.1,162.7,503.1,162.6,503.1,162.7L503.1,162.7
		l-0.1-1.4c0,0,0-0.1,0.1-0.1c0,0,0.1,0,0.1,0.1c0,0,0,0,0,0L503.1,162.7C503.2,162.7,503.1,162.7,503.1,162.7L503.1,162.7z
		 M503.1,160.1C503.1,160.1,503.1,160,503.1,160.1l-0.1-1.4c0,0,0-0.1,0.1-0.1l0,0c0,0,0.1,0,0.1,0.1c0,0,0,0,0,0L503.1,160.1
		C503.2,160,503.1,160.1,503.1,160.1C503.1,160.1,503.1,160.1,503.1,160.1L503.1,160.1z M503.1,157.5
		C503,157.5,503,157.4,503.1,157.5c-0.1-0.5-0.1-0.9-0.1-1.4c0,0,0-0.1,0.1-0.1l0,0c0,0,0.1,0,0.1,0.1
		C503.1,156.5,503.1,157,503.1,157.5C503.1,157.4,503.1,157.5,503.1,157.5C503.1,157.5,503.1,157.5,503.1,157.5L503.1,157.5
		L503.1,157.5z M503,154.9C503,154.9,502.9,154.8,503,154.9c-0.1-0.5-0.1-0.9-0.1-1.4c0,0,0-0.1,0.1-0.1l0,0c0,0,0.1,0,0.1,0.1
		C503,153.9,503,154.4,503,154.9C503,154.8,503,154.9,503,154.9L503,154.9z M502.9,152.3C502.8,152.3,502.8,152.2,502.9,152.3
		c-0.1-0.5-0.1-0.9-0.1-1.4c0,0,0-0.1,0-0.1c0,0,0,0,0,0c0,0,0.1,0,0.1,0c0,0,0,0,0,0l0,0c0,0.4,0.1,0.9,0.1,1.3
		C502.9,152.2,502.9,152.2,502.9,152.3C502.9,152.2,502.9,152.2,502.9,152.3L502.9,152.3L502.9,152.3z M502.7,149.7
		C502.7,149.7,502.7,149.6,502.7,149.7L502.7,149.7c-0.1-0.5-0.1-0.9-0.2-1.3c0,0,0,0,0-0.1l0,0c0,0,0,0,0.1,0c0,0,0,0,0,0l0,0
		C502.7,148.8,502.7,149.2,502.7,149.7C502.8,149.6,502.7,149.7,502.7,149.7C502.7,149.7,502.7,149.7,502.7,149.7L502.7,149.7z
		 M502.5,147.1C502.5,147.1,502.4,147.1,502.5,147.1c-0.1-0.5-0.1-0.9-0.2-1.3c0,0,0,0,0-0.1c0,0,0,0,0,0l0,0c0,0,0,0,0.1,0
		c0,0,0,0,0,0l0,0C502.4,146.1,502.5,146.6,502.5,147.1C502.5,147,502.5,147.1,502.5,147.1C502.5,147.1,502.5,147.1,502.5,147.1
		L502.5,147.1L502.5,147.1z M502.2,144.5C502.2,144.5,502.2,144.5,502.2,144.5c-0.1-0.5-0.2-0.9-0.2-1.3c0,0,0-0.1,0.1-0.1
		c0,0,0.1,0,0.1,0.1l0,0C502.2,143.6,502.2,144,502.2,144.5C502.3,144.5,502.3,144.5,502.2,144.5
		C502.2,144.5,502.2,144.5,502.2,144.5L502.2,144.5L502.2,144.5z M501.9,141.9C501.8,141.9,501.8,141.9,501.9,141.9
		c-0.1-0.5-0.2-0.9-0.3-1.3c0,0,0,0,0-0.1c0,0,0,0,0,0l0,0c0,0,0.1,0,0.1,0C501.8,141,501.8,141.4,501.9,141.9
		C501.9,141.9,501.9,141.9,501.9,141.9C501.9,141.9,501.9,141.9,501.9,141.9L501.9,141.9L501.9,141.9z M501.4,139.3
		C501.4,139.3,501.4,139.3,501.4,139.3c-0.1-0.5-0.2-0.9-0.3-1.3c0,0,0-0.1,0-0.1c0,0,0,0,0,0c0,0,0,0,0.1,0c0,0,0,0,0,0l0,0
		C501.3,138.4,501.4,138.8,501.4,139.3C501.5,139.3,501.5,139.3,501.4,139.3C501.4,139.3,501.4,139.3,501.4,139.3L501.4,139.3
		L501.4,139.3z M500.9,136.8C500.9,136.8,500.8,136.8,500.9,136.8c-0.2-0.5-0.3-0.9-0.4-1.3c0,0,0-0.1,0-0.1c0,0,0,0,0.1,0
		c0,0,0,0,0,0l0,0C500.7,135.9,500.8,136.3,500.9,136.8C500.9,136.7,500.9,136.8,500.9,136.8C500.9,136.8,500.9,136.8,500.9,136.8
		L500.9,136.8L500.9,136.8z M500.2,134.3C500.2,134.3,500.2,134.2,500.2,134.3c-0.2-0.5-0.3-0.9-0.4-1.3c0,0,0-0.1,0-0.1l0,0
		c0,0,0.1,0,0.1,0C500,133.3,500.2,133.8,500.2,134.3C500.3,134.2,500.3,134.2,500.2,134.3L500.2,134.3L500.2,134.3z M477,132.2
		C477,132.2,477,132.2,477,132.2C477,132.1,477,132.1,477,132.2c0.2-0.4,0.5-0.8,0.8-1.1c0,0,0.1,0,0.1,0c0,0,0,0,0,0l0,0
		c0,0,0,0.1,0,0.1c0,0,0,0,0,0l0,0C477.6,131.5,477.3,131.9,477,132.2C477.1,132.2,477.1,132.2,477,132.2L477,132.2z M499.4,131.8
		C499.4,131.8,499.4,131.8,499.4,131.8c-0.2-0.5-0.4-0.9-0.5-1.2c0,0,0-0.1,0-0.1c0,0,0,0,0,0l0,0c0,0,0,0,0.1,0l0,0
		c0.2,0.4,0.3,0.8,0.5,1.2C499.5,131.7,499.5,131.8,499.4,131.8L499.4,131.8z M478.6,130.1L478.6,130.1
		C478.6,130.1,478.6,130.1,478.6,130.1c0.2-0.4,0.5-0.7,0.8-1.1c0,0,0.1,0,0.1,0c0,0,0,0,0,0l0,0c0,0,0,0,0,0.1l0,0
		C479.2,129.5,479,129.8,478.6,130.1C478.7,130.1,478.6,130.1,478.6,130.1L478.6,130.1z M498.4,129.4
		C498.4,129.4,498.4,129.4,498.4,129.4c-0.2-0.4-0.5-0.8-0.7-1.1c0,0,0-0.1,0-0.1c0,0,0.1,0,0.1,0
		C498,128.6,498.3,128.9,498.4,129.4C498.5,129.3,498.5,129.4,498.4,129.4L498.4,129.4L498.4,129.4z M480.4,128.2L480.4,128.2
		C480.3,128.2,480.3,128.2,480.4,128.2c0.3-0.4,0.6-0.7,0.9-1c0,0,0.1,0,0.1,0c0,0,0,0.1,0,0.1c0,0,0,0,0,0l0,0
		C481,127.6,480.7,127.9,480.4,128.2C480.4,128.2,480.4,128.2,480.4,128.2L480.4,128.2z M497.1,127.2
		C497.1,127.2,497.1,127.2,497.1,127.2c-0.3-0.4-0.6-0.7-0.8-1c0,0,0-0.1,0-0.1c0,0,0,0,0,0l0,0c0,0,0.1,0,0.1,0
		C496.6,126.4,496.9,126.8,497.1,127.2C497.1,127.1,497.1,127.2,497.1,127.2C497.1,127.2,497.1,127.2,497.1,127.2L497.1,127.2
		C497.1,127.2,497.1,127.2,497.1,127.2L497.1,127.2z M482.3,126.5C482.3,126.5,482.3,126.5,482.3,126.5
		C482.3,126.5,482.3,126.4,482.3,126.5L482.3,126.5c0.3-0.4,0.6-0.6,1-0.9c0,0,0.1,0,0.1,0c0,0,0,0,0,0l0,0c0,0,0,0.1,0,0.1
		c0,0,0,0,0,0l0,0C483,125.9,482.7,126.2,482.3,126.5C482.3,126.5,482.3,126.5,482.3,126.5L482.3,126.5z M495.4,125.2
		C495.4,125.3,495.4,125.3,495.4,125.2c-0.4-0.3-0.7-0.5-1.1-0.7c0,0,0-0.1,0-0.1c0,0,0.1,0,0.1,0l0,0
		C494.7,124.6,495.1,124.9,495.4,125.2C495.5,125.2,495.5,125.2,495.4,125.2C495.4,125.3,495.4,125.3,495.4,125.2L495.4,125.2
		C495.4,125.3,495.4,125.3,495.4,125.2L495.4,125.2z M484.4,125C484.4,125,484.4,125,484.4,125c-0.1,0-0.1-0.1,0-0.1c0,0,0,0,0,0
		l0,0c0.4-0.2,0.7-0.4,1.1-0.6c0,0,0.1,0,0.1,0c0,0,0,0,0,0l0,0c0,0,0,0,0,0.1c0,0,0,0,0,0l0,0C485.2,124.5,484.8,124.7,484.4,125
		L484.4,125z M493.2,123.9L493.2,123.9c-0.4-0.2-0.8-0.3-1.2-0.4c0,0-0.1,0-0.1,0c0,0,0-0.1,0-0.1l0,0c0,0,0,0,0.1,0
		c0.4,0.1,0.8,0.2,1.2,0.4C493.1,123.8,493.1,123.9,493.2,123.9C493.1,123.9,493.1,123.9,493.2,123.9L493.2,123.9z M486.8,123.9
		C486.8,123.9,486.7,123.9,486.8,123.9c-0.1-0.1,0-0.1,0-0.1c0.4-0.1,0.8-0.3,1.3-0.4c0,0,0.1,0,0.1,0c0,0,0,0,0,0l0,0
		c0,0,0,0.1,0,0.1C487.6,123.6,487.2,123.7,486.8,123.9L486.8,123.9z M490.6,123.3L490.6,123.3c-0.4,0-0.9,0-1.3,0c0,0-0.1,0-0.1,0
		c0,0,0-0.1,0-0.1c0,0,0,0,0,0l0,0c0.4,0,0.9,0,1.3,0C490.7,123.2,490.7,123.3,490.6,123.3C490.7,123.3,490.7,123.4,490.6,123.3
		L490.6,123.3z"/>
	<path class="st4" d="M500.7,175.1L500.7,175.1C500.7,175.1,500.7,175.1,500.7,175.1L500.7,175.1c0-0.5,0-0.9,0.1-1.3c0,0,0,0,0,0
		c0,0,0,0,0,0l0,0c0,0,0,0,0,0c0,0,0,0,0,0l0,0C500.9,174.2,500.8,174.7,500.7,175.1C500.8,175.1,500.8,175.2,500.7,175.1
		L500.7,175.1z M501,172.6L501,172.6C501,172.5,500.9,172.5,501,172.6L501,172.6c0-0.5,0-0.9,0.1-1.4c0,0,0,0,0.1-0.1
		c0,0,0,0,0.1,0.1C501.1,171.6,501.1,172.1,501,172.6C501,172.5,501,172.6,501,172.6L501,172.6z M501.2,170L501.2,170
		C501.1,170,501.1,170,501.2,170L501.2,170c-0.1-0.5,0-0.9,0-1.3c0,0,0,0,0.1-0.1c0,0,0.1,0,0.1,0.1
		C501.3,169.1,501.2,169.5,501.2,170C501.2,169.9,501.2,170,501.2,170L501.2,170z M501.3,167.4L501.3,167.4
		C501.3,167.4,501.3,167.3,501.3,167.4L501.3,167.4L501.3,167.4c-0.1-0.5,0-0.9,0-1.4c0,0,0-0.1,0.1-0.1s0.1,0,0.1,0.1l0,0
		C501.4,166.4,501.4,166.9,501.3,167.4C501.4,167.3,501.4,167.3,501.3,167.4C501.3,167.4,501.3,167.4,501.3,167.4L501.3,167.4
		L501.3,167.4z M501.4,164.8L501.4,164.8C501.4,164.8,501.4,164.7,501.4,164.8L501.4,164.8c-0.1-0.5-0.1-0.9,0-1.4c0,0,0,0,0.1-0.1
		l0,0c0,0,0,0,0,0c0,0,0,0,0,0l0,0C501.5,163.9,501.5,164.3,501.4,164.8C501.5,164.7,501.5,164.8,501.4,164.8L501.4,164.8z
		 M501.5,162.2L501.5,162.2C501.5,162.2,501.5,162.1,501.5,162.2C501.5,162.1,501.5,162.1,501.5,162.2c-0.1-0.5-0.1-0.9-0.1-1.4
		c0,0,0-0.1,0.1-0.1l0,0l0,0c0,0,0.1,0,0.1,0.1c0,0,0,0,0,0L501.5,162.2C501.6,162.2,501.5,162.2,501.5,162.2
		C501.5,162.2,501.5,162.2,501.5,162.2L501.5,162.2z M501.5,159.6L501.5,159.6C501.5,159.6,501.5,159.5,501.5,159.6l-0.1-1.3
		c0,0,0-0.1,0.1-0.1l0,0c0,0,0.1,0,0.1,0.1L501.5,159.6C501.6,159.5,501.6,159.6,501.5,159.6C501.5,159.6,501.5,159.6,501.5,159.6
		L501.5,159.6z M501.5,157C501.5,157,501.5,156.9,501.5,157l-0.1-1.4c0,0,0-0.1,0.1-0.1l0,0c0,0,0.1,0,0.1,0.1L501.5,157
		C501.6,156.9,501.6,157,501.5,157C501.5,157,501.5,157,501.5,157L501.5,157z M501.5,154.4C501.5,154.4,501.4,154.3,501.5,154.4
		C501.4,154.3,501.4,154.3,501.5,154.4c-0.1-0.5-0.1-0.9-0.1-1.4c0,0,0-0.1,0-0.1c0,0,0,0,0,0l0,0c0,0,0.1,0,0.1,0.1
		C501.5,153.4,501.5,153.9,501.5,154.4C501.6,154.3,501.5,154.4,501.5,154.4L501.5,154.4z M501.4,151.8
		C501.4,151.8,501.4,151.7,501.4,151.8c-0.1-0.5-0.1-0.9-0.1-1.4c0,0,0-0.1,0-0.1l0,0c0,0,0.1,0,0.1,0.1l0,0
		C501.4,150.8,501.4,151.3,501.4,151.8C501.5,151.7,501.4,151.8,501.4,151.8C501.4,151.8,501.4,151.8,501.4,151.8L501.4,151.8z
		 M501.3,149.2C501.3,149.2,501.2,149.1,501.3,149.2c-0.1-0.5-0.1-0.9-0.1-1.3c0,0,0-0.1,0.1-0.1c0,0,0.1,0,0.1,0.1l0,0
		C501.3,148.2,501.3,148.7,501.3,149.2C501.3,149.1,501.3,149.1,501.3,149.2L501.3,149.2z M501.1,146.6
		C501.1,146.6,501,146.5,501.1,146.6c-0.1-0.5-0.1-0.9-0.2-1.3c0,0,0-0.1,0-0.1c0,0,0.1,0,0.1,0.1
		C501.1,145.7,501.1,146.1,501.1,146.6C501.2,146.5,501.1,146.6,501.1,146.6C501.1,146.6,501.1,146.6,501.1,146.6L501.1,146.6
		L501.1,146.6z M500.8,144C500.8,144,500.8,144,500.8,144c-0.1-0.5-0.2-0.9-0.2-1.3c0,0,0-0.1,0.1-0.1c0,0,0.1,0,0.1,0.1l0,0
		C500.8,143.1,500.9,143.5,500.8,144C500.9,144,500.9,144,500.8,144C500.9,144,500.9,144,500.8,144L500.8,144z M500.5,141.4
		C500.5,141.4,500.5,141.4,500.5,141.4c-0.1-0.5-0.2-0.9-0.2-1.3c0,0,0-0.1,0-0.1c0,0,0,0,0,0l0,0c0,0,0.1,0,0.1,0c0,0,0,0,0,0l0,0
		C500.5,140.5,500.5,140.9,500.5,141.4C500.6,141.4,500.6,141.4,500.5,141.4C500.5,141.4,500.5,141.4,500.5,141.4L500.5,141.4
		L500.5,141.4z M500.1,138.8C500.1,138.8,500.1,138.8,500.1,138.8C500.1,138.8,500.1,138.8,500.1,138.8c-0.1-0.5-0.2-0.9-0.3-1.3
		c0,0,0-0.1,0-0.1c0,0,0.1,0,0.1,0v0C500,137.9,500.1,138.3,500.1,138.8C500.2,138.8,500.2,138.8,500.1,138.8
		C500.1,138.8,500.1,138.8,500.1,138.8L500.1,138.8z M499.6,136.3C499.6,136.3,499.5,136.3,499.6,136.3c-0.1-0.5-0.3-0.9-0.4-1.3
		c0,0,0-0.1,0-0.1c0,0,0,0,0.1,0l0,0c0.1,0.4,0.2,0.8,0.3,1.3C499.7,136.2,499.6,136.2,499.6,136.3L499.6,136.3L499.6,136.3z
		 M498.9,133.8C498.9,133.8,498.9,133.7,498.9,133.8c-0.2-0.5-0.3-0.9-0.4-1.3c0,0,0-0.1,0-0.1c0,0,0.1,0,0.1,0l0,0
		C498.7,132.8,498.9,133.3,498.9,133.8C499,133.7,499,133.7,498.9,133.8C499,133.8,499,133.8,498.9,133.8L498.9,133.8L498.9,133.8z
		 M477.4,132.8L477.4,132.8C477.4,132.8,477.4,132.8,477.4,132.8c0.2-0.4,0.5-0.8,0.8-1.1c0,0,0.1,0,0.1,0c0,0,0,0,0,0l0,0
		c0,0,0,0.1,0,0.1c0,0,0,0,0,0l0,0C478,132.1,477.7,132.5,477.4,132.8L477.4,132.8z M498.1,131.3
		C498.1,131.3,498.1,131.3,498.1,131.3c-0.2-0.5-0.4-0.9-0.6-1.2c0,0,0-0.1,0-0.1c0,0,0,0,0.1,0C497.8,130.4,498,130.8,498.1,131.3
		C498.2,131.2,498.2,131.2,498.1,131.3L498.1,131.3z M479,130.8L479,130.8C479,130.7,479,130.7,479,130.8c0.2-0.4,0.5-0.7,0.8-1.1
		c0,0,0.1,0,0.1,0c0,0,0,0,0,0c0,0,0,0.1,0,0.1l0,0C479.6,130.1,479.3,130.4,479,130.8C479,130.8,479,130.8,479,130.8z M497,128.9
		C497,128.9,497,128.9,497,128.9c-0.3-0.4-0.5-0.7-0.7-1.1c0,0,0-0.1,0-0.1l0,0c0,0,0.1,0,0.1,0C496.6,128.1,496.8,128.5,497,128.9
		C497.1,128.9,497.1,128.9,497,128.9C497,129,497,129,497,128.9L497,128.9z M480.8,128.9C480.8,128.9,480.7,128.9,480.8,128.9
		C480.7,128.8,480.7,128.8,480.8,128.9c0.3-0.4,0.6-0.7,0.9-1c0,0,0.1,0,0.1,0c0,0,0,0.1,0,0.1l0,0
		C481.4,128.3,481.1,128.5,480.8,128.9L480.8,128.9z M482.7,127.1L482.7,127.1C482.6,127.1,482.6,127,482.7,127.1
		c0.3-0.4,0.7-0.6,1-0.9c0,0,0.1,0,0.1,0c0,0,0,0,0,0c0,0,0,0.1,0,0.1c0,0,0,0,0,0l0,0C483.4,126.6,483.1,126.8,482.7,127.1
		L482.7,127.1z M495.5,126.8C495.5,126.8,495.5,126.8,495.5,126.8c-0.3-0.3-0.6-0.6-1-0.9c0,0,0-0.1,0-0.1l0,0c0,0,0.1,0,0.1,0
		C495,126.1,495.3,126.4,495.5,126.8C495.6,126.8,495.6,126.8,495.5,126.8L495.5,126.8C495.6,126.8,495.6,126.8,495.5,126.8
		L495.5,126.8z M484.8,125.6C484.8,125.6,484.8,125.6,484.8,125.6C484.8,125.6,484.8,125.6,484.8,125.6L484.8,125.6
		c0.3-0.3,0.7-0.5,1.1-0.6c0,0,0,0,0.1,0c0,0,0,0.1,0,0.1c0,0,0,0,0,0l0,0C485.6,125.2,485.2,125.4,484.8,125.6L484.8,125.6z
		 M493.5,125.2L493.5,125.2c-0.1-0.1-0.2-0.1-0.3-0.1c-0.3-0.1-0.6-0.3-0.9-0.4c0,0,0,0,0-0.1c0,0,0,0,0,0l0,0c0,0,0,0,0.1,0
		c0,0,0,0,0,0l0,0c0.3,0.1,0.6,0.2,0.9,0.4L493.5,125.2C493.6,125.1,493.6,125.1,493.5,125.2C493.6,125.2,493.6,125.2,493.5,125.2
		L493.5,125.2L493.5,125.2z M487.2,124.6C487.2,124.6,487.2,124.6,487.2,124.6c-0.1-0.1,0-0.1,0-0.1c0,0,0,0,0,0l0,0
		c0.4-0.1,0.8-0.2,1.3-0.3c0,0,0.1,0,0.1,0c0,0,0,0,0,0c0,0,0,0,0,0.1c0,0,0,0,0,0l0,0C488.1,124.4,487.7,124.5,487.2,124.6
		L487.2,124.6z M491.1,124.3L491.1,124.3c-0.4-0.1-0.9-0.1-1.3-0.1c0,0-0.1,0-0.1-0.1l0,0c0,0,0-0.1,0.1-0.1l0,0
		c0.4,0,0.9,0,1.3,0.1C491.1,124.2,491.2,124.3,491.1,124.3L491.1,124.3C491.2,124.3,491.2,124.4,491.1,124.3
		C491.1,124.4,491.1,124.4,491.1,124.3L491.1,124.3L491.1,124.3z"/>
	<path class="st4" d="M498.7,176.9L498.7,176.9C498.7,176.9,498.7,176.9,498.7,176.9C498.7,176.9,498.7,176.8,498.7,176.9
		L498.7,176.9c0-0.4,0.1-0.7,0.1-1.1c0,0,0,0,0,0c0,0,0,0,0,0l0,0c0,0,0,0,0,0.1c0,0,0,0,0,0l0,0
		C498.9,176.2,498.8,176.5,498.7,176.9C498.8,176.9,498.7,176.9,498.7,176.9z M499,174.6L499,174.6C499,174.6,499,174.6,499,174.6
		L499,174.6c0-0.5,0.1-0.9,0.1-1.4c0,0,0,0,0.1,0c0,0,0,0,0,0c0,0,0,0,0,0c0,0,0,0,0,0l0,0C499.2,173.7,499.1,174.1,499,174.6
		C499.1,174.6,499,174.6,499,174.6L499,174.6z M499.3,172L499.3,172C499.3,172,499.2,172,499.3,172C499.2,172,499.2,172,499.3,172
		L499.3,172c0-0.5,0-0.9,0.1-1.4c0,0,0-0.1,0.1-0.1l0,0c0,0,0,0,0,0.1l0,0C499.4,171.1,499.4,171.6,499.3,172
		C499.4,172,499.3,172,499.3,172L499.3,172L499.3,172z M499.5,169.4L499.5,169.4C499.5,169.4,499.5,169.4,499.5,169.4L499.5,169.4
		c0-0.5,0-0.9,0.1-1.4c0,0,0,0,0.1,0c0,0,0,0,0,0l0,0L499.5,169.4C499.6,169.4,499.6,169.4,499.5,169.4L499.5,169.4z M499.7,166.8
		L499.7,166.8C499.7,166.8,499.7,166.8,499.7,166.8L499.7,166.8c-0.1-0.5,0-0.9,0-1.3c0,0,0,0,0.1,0c0,0,0,0,0,0l0,0
		c0,0,0.1,0,0.1,0.1l0,0C499.9,165.9,499.8,166.4,499.7,166.8C499.8,166.8,499.8,166.8,499.7,166.8L499.7,166.8z M499.9,164.2
		L499.9,164.2C499.9,164.2,499.8,164.2,499.9,164.2l0-1.4c0,0,0-0.1,0.1-0.1c0,0,0,0,0,0c0,0,0.1,0,0.1,0.1l0,0
		C500,163.3,500,163.8,499.9,164.2C499.9,164.2,499.9,164.2,499.9,164.2C499.9,164.2,499.9,164.2,499.9,164.2L499.9,164.2
		L499.9,164.2z M500,161.6L500,161.6C500,161.6,499.9,161.6,500,161.6C499.9,161.6,499.9,161.6,500,161.6L500,161.6
		c0-0.5,0-0.9,0-1.4c0,0,0-0.1,0.1-0.1c0,0,0.1,0,0.1,0.1c0,0,0,0,0,0l0,0C500.1,160.7,500.1,161.2,500,161.6
		C500,161.6,500,161.6,500,161.6L500,161.6z M500.1,159L500.1,159C500,159,500,159,500.1,159l-0.1-1.4c0,0,0,0,0-0.1c0,0,0,0,0,0
		l0,0c0,0,0.1,0,0.1,0.1C500.1,158.1,500.1,158.6,500.1,159C500.1,159,500.1,159,500.1,159L500.1,159z M500.1,156.4L500.1,156.4
		C500.1,156.4,500.1,156.4,500.1,156.4l-0.1-1.4c0,0,0-0.1,0-0.1c0,0,0,0,0,0l0,0c0,0,0.1,0,0.1,0.1l0,0L500.1,156.4
		C500.2,156.4,500.1,156.4,500.1,156.4z M500.1,153.8C500.1,153.8,500.1,153.8,500.1,153.8l-0.1-1.4c0,0,0,0,0-0.1c0,0,0,0,0,0l0,0
		c0,0,0.1,0,0.1,0c0,0,0,0,0,0L500.1,153.8C500.2,153.8,500.1,153.8,500.1,153.8L500.1,153.8z M500.1,151.2
		C500,151.2,500,151.2,500.1,151.2l-0.1-1.4c0,0,0-0.1,0.1-0.1l0,0c0,0,0.1,0,0.1,0.1l0,0C500.1,150.3,500.1,150.8,500.1,151.2
		C500.1,151.2,500.1,151.2,500.1,151.2C500.1,151.2,500.1,151.2,500.1,151.2L500.1,151.2z M500,148.6
		C499.9,148.6,499.9,148.6,500,148.6C499.9,148.6,499.9,148.6,500,148.6c-0.1-0.5-0.1-0.9-0.1-1.4c0,0,0-0.1,0.1-0.1l0,0
		c0,0,0.1,0,0.1,0c0,0,0,0,0,0C499.9,147.7,500,148.1,500,148.6C500,148.6,500,148.6,500,148.6C500,148.6,500,148.6,500,148.6
		L500,148.6L500,148.6z M499.8,146C499.8,146,499.8,146,499.8,146c-0.1-0.5-0.1-0.9-0.2-1.3c0,0,0-0.1,0-0.1l0,0c0,0,0,0,0.1,0
		c0,0,0,0,0,0l0,0L499.8,146C499.9,146,499.8,146.1,499.8,146C499.8,146.1,499.8,146.1,499.8,146L499.8,146L499.8,146z M499.6,143.4
		C499.6,143.4,499.5,143.4,499.6,143.4c-0.1-0.5-0.1-0.9-0.2-1.3c0,0,0-0.1,0-0.1c0,0,0,0,0,0c0,0,0.1,0,0.1,0
		C499.6,142.5,499.6,142.9,499.6,143.4C499.6,143.4,499.6,143.4,499.6,143.4L499.6,143.4z M499.3,140.9
		C499.3,140.9,499.2,140.8,499.3,140.9c-0.1-0.5-0.2-0.9-0.2-1.3c0,0,0-0.1,0-0.1c0,0,0,0,0,0l0,0c0,0,0.1,0,0.1,0c0,0,0,0,0,0
		C499.2,139.9,499.3,140.4,499.3,140.9C499.3,140.8,499.3,140.9,499.3,140.9L499.3,140.9z M498.9,138.3
		C498.9,138.3,498.8,138.3,498.9,138.3C498.8,138.2,498.8,138.2,498.9,138.3c-0.1-0.5-0.2-0.9-0.3-1.3c0,0,0-0.1,0-0.1c0,0,0,0,0,0
		c0,0,0.1,0,0.1,0c0,0,0,0,0,0l0,0C498.8,137.4,498.9,137.8,498.9,138.3C499,138.2,498.9,138.3,498.9,138.3
		C498.9,138.3,498.9,138.3,498.9,138.3L498.9,138.3L498.9,138.3z M498.4,135.7C498.4,135.7,498.3,135.7,498.4,135.7
		c-0.1-0.5-0.3-0.9-0.4-1.3c0,0,0-0.1,0-0.1c0,0,0,0,0,0c0,0,0,0,0.1,0c0,0,0,0,0,0l0,0C498.2,134.8,498.3,135.2,498.4,135.7
		C498.4,135.7,498.4,135.7,498.4,135.7L498.4,135.7L498.4,135.7z M477.8,133.4L477.8,133.4L477.8,133.4c0.2-0.4,0.4-0.7,0.7-1.1
		c0,0,0.1,0,0.1,0c0,0,0,0,0,0c0,0,0,0.1,0,0.1c0,0,0,0,0,0L477.8,133.4z M497.7,133.2C497.7,133.2,497.7,133.2,497.7,133.2
		c-0.2-0.5-0.3-0.9-0.5-1.3c0,0,0-0.1,0-0.1c0,0,0,0,0.1,0l0,0c0.1,0.4,0.3,0.8,0.4,1.2C497.8,133.1,497.7,133.2,497.7,133.2
		C497.7,133.2,497.7,133.2,497.7,133.2L497.7,133.2z M479.4,131.4L479.4,131.4C479.3,131.4,479.3,131.4,479.4,131.4L479.4,131.4
		c0.3-0.4,0.5-0.7,0.8-1.1c0,0,0.1,0,0.1,0c0,0,0,0,0,0.1C480,130.8,479.7,131.1,479.4,131.4C479.4,131.5,479.4,131.5,479.4,131.4
		L479.4,131.4z M496.8,130.8C496.8,130.8,496.8,130.8,496.8,130.8c-0.2-0.4-0.4-0.8-0.6-1.2c0,0,0-0.1,0-0.1c0,0,0.1,0,0.1,0
		c0.2,0.4,0.4,0.8,0.6,1.2C496.8,130.7,496.8,130.7,496.8,130.8L496.8,130.8z M481.1,129.5C481.1,129.5,481.1,129.5,481.1,129.5
		C481.1,129.5,481.1,129.5,481.1,129.5C481.1,129.5,481.1,129.5,481.1,129.5L481.1,129.5c0.3-0.4,0.6-0.7,0.9-0.9c0,0,0.1,0,0.1,0
		c0,0,0,0,0,0l0,0c0,0,0,0,0,0.1c0,0,0,0,0,0l0,0C481.8,128.9,481.5,129.2,481.1,129.5C481.2,129.5,481.2,129.5,481.1,129.5
		L481.1,129.5z M495.6,128.5C495.6,128.5,495.6,128.5,495.6,128.5c-0.3-0.4-0.5-0.7-0.8-1.1c0,0,0-0.1,0-0.1c0,0,0,0,0,0l0,0
		c0,0,0.1,0,0.1,0C495.1,127.7,495.4,128,495.6,128.5C495.7,128.4,495.7,128.5,495.6,128.5L495.6,128.5
		C495.6,128.5,495.6,128.5,495.6,128.5L495.6,128.5L495.6,128.5z M483.1,127.8L483.1,127.8C483,127.8,483,127.7,483.1,127.8
		c0.3-0.4,0.7-0.6,1-0.8c0,0,0.1,0,0.1,0c0,0,0,0,0,0c0,0,0,0,0,0.1C483.8,127.3,483.5,127.5,483.1,127.8L483.1,127.8z M493.9,126.6
		L493.9,126.6c-0.3-0.2-0.7-0.4-1-0.6l-0.1-0.1c0,0,0-0.1,0-0.1c0,0,0,0,0.1,0c0,0,0,0,0,0l0,0l0.1,0.1
		C493.3,126,493.6,126.2,493.9,126.6C494,126.5,494,126.5,493.9,126.6C493.9,126.6,493.9,126.6,493.9,126.6L493.9,126.6L493.9,126.6
		L493.9,126.6z M485.3,126.4C485.3,126.4,485.2,126.3,485.3,126.4c-0.1-0.1-0.1-0.1-0.1-0.1c0.4-0.2,0.8-0.4,1.2-0.6
		c0,0,0.1,0,0.1,0c0,0,0,0,0,0l0,0c0,0,0,0,0,0.1C486.1,125.9,485.7,126.1,485.3,126.4L485.3,126.4z M491.5,125.5L491.5,125.5
		c-0.4-0.1-0.8-0.2-1.3-0.2c0,0-0.1,0-0.1-0.1l0,0c0,0,0,0,0.1-0.1l0,0C490.7,125.2,491.1,125.3,491.5,125.5
		C491.6,125.4,491.6,125.4,491.5,125.5L491.5,125.5C491.6,125.4,491.5,125.4,491.5,125.5L491.5,125.5z M487.7,125.4
		C487.6,125.4,487.6,125.4,487.7,125.4c-0.1-0.1,0-0.1,0-0.1l0,0c0.4-0.1,0.9-0.2,1.3-0.2c0,0,0.1,0,0.1,0c0,0,0,0.1,0,0.1
		c0,0,0,0,0,0l0,0C488.5,125.3,488.1,125.3,487.7,125.4L487.7,125.4z"/>
	<path class="st4" d="M497,176.6L497,176.6C496.9,176.6,496.9,176.6,497,176.6c0-0.5,0.1-0.9,0.2-1.3c0,0,0,0,0.1,0c0,0,0,0,0,0l0,0
		c0,0,0,0,0,0.1l0,0C497.2,175.7,497.1,176.1,497,176.6C497,176.6,497,176.6,497,176.6C497,176.6,497,176.6,497,176.6L497,176.6z
		 M497.4,174L497.4,174C497.3,174,497.3,174,497.4,174C497.3,174,497.3,174,497.4,174L497.4,174c0-0.5,0.1-0.9,0.1-1.3
		c0,0,0,0,0.1,0l0,0c0,0,0,0,0.1,0.1C497.5,173.1,497.5,173.6,497.4,174C497.4,174,497.4,174,497.4,174L497.4,174z M497.7,171.4
		L497.7,171.4C497.7,171.4,497.6,171.4,497.7,171.4C497.6,171.4,497.6,171.4,497.7,171.4L497.7,171.4c0-0.5,0-0.9,0.1-1.4
		c0,0,0,0,0,0l0,0c0,0,0,0,0,0c0,0,0,0,0,0l0,0C497.8,170.5,497.8,171,497.7,171.4C497.7,171.4,497.7,171.4,497.7,171.4L497.7,171.4
		L497.7,171.4z M498,168.9L498,168.9C497.9,168.9,497.9,168.8,498,168.9C497.9,168.8,497.9,168.8,498,168.9L498,168.9
		c0-0.5,0-0.9,0.1-1.4c0,0,0-0.1,0.1-0.1c0,0,0.1,0,0.1,0.1l0,0C498.1,167.9,498.1,168.4,498,168.9C498,168.8,498,168.9,498,168.9
		L498,168.9z M498.2,166.3L498.2,166.3C498.2,166.3,498.1,166.2,498.2,166.3C498.1,166.2,498.1,166.2,498.2,166.3L498.2,166.3
		l0.1-1.4c0,0,0-0.1,0.1-0.1c0,0,0.1,0,0.1,0.1C498.3,165.4,498.3,165.8,498.2,166.3C498.3,166.2,498.2,166.3,498.2,166.3
		L498.2,166.3z M498.4,163.7L498.4,163.7C498.4,163.7,498.3,163.6,498.4,163.7L498.4,163.7l0-1.4c0,0,0,0,0.1,0c0,0,0.1,0,0.1,0.1
		l0,0C498.5,162.8,498.5,163.2,498.4,163.7C498.4,163.6,498.4,163.7,498.4,163.7L498.4,163.7z M498.5,161.1L498.5,161.1
		C498.5,161.1,498.5,161,498.5,161.1C498.5,161,498.5,161,498.5,161.1L498.5,161.1c-0.1-0.5,0-0.9,0-1.4c0,0,0,0,0.1-0.1l0,0
		c0,0,0.1,0,0.1,0.1l0,0L498.5,161.1C498.6,161,498.6,161.1,498.5,161.1L498.5,161.1L498.5,161.1z M498.7,158.5L498.7,158.5
		C498.6,158.5,498.6,158.4,498.7,158.5L498.7,158.5c-0.1-0.5,0-0.9,0-1.4c0,0,0-0.1,0.1-0.1c0,0,0.1,0,0.1,0.1l0,0L498.7,158.5
		C498.7,158.5,498.7,158.5,498.7,158.5z M498.7,155.9L498.7,155.9C498.7,155.9,498.7,155.8,498.7,155.9c-0.1-0.5-0.1-0.9-0.1-1.4
		c0,0,0,0,0.1-0.1l0,0c0,0,0.1,0,0.1,0.1l0,0l0,0C498.8,154.9,498.8,155.4,498.7,155.9C498.8,155.8,498.8,155.9,498.7,155.9
		C498.8,155.9,498.8,155.9,498.7,155.9L498.7,155.9z M498.8,153.3L498.8,153.3C498.7,153.3,498.7,153.2,498.8,153.3L498.8,153.3
		l-0.1-1.4c0,0,0-0.1,0.1-0.1l0,0c0,0,0.1,0,0.1,0c0,0,0,0,0,0l0,0L498.8,153.3C498.8,153.3,498.8,153.3,498.8,153.3L498.8,153.3z
		 M498.8,150.7C498.7,150.7,498.7,150.6,498.8,150.7c-0.1-0.5-0.1-0.9-0.1-1.4c0,0,0-0.1,0.1-0.1l0,0c0,0,0.1,0,0.1,0l0,0
		L498.8,150.7C498.8,150.6,498.8,150.7,498.8,150.7L498.8,150.7z M498.7,148.1C498.7,148.1,498.7,148,498.7,148.1
		c-0.1-0.5-0.1-0.9-0.1-1.4c0,0,0-0.1,0-0.1c0,0,0,0,0,0l0,0c0,0,0.1,0,0.1,0.1l0,0C498.7,147.1,498.7,147.6,498.7,148.1
		C498.8,148,498.7,148.1,498.7,148.1L498.7,148.1z M498.6,145.5C498.6,145.5,498.5,145.5,498.6,145.5c-0.1-0.5-0.1-0.9-0.1-1.3
		c0,0,0-0.1,0.1-0.1c0,0,0.1,0,0.1,0.1C498.6,144.6,498.6,145,498.6,145.5C498.6,145.5,498.6,145.5,498.6,145.5L498.6,145.5z
		 M498.4,142.9C498.4,142.9,498.3,142.9,498.4,142.9c-0.1-0.5-0.1-0.9-0.2-1.3c0,0,0-0.1,0.1-0.1c0,0,0,0,0.1,0c0,0,0,0,0,0l0,0
		C498.4,142,498.4,142.4,498.4,142.9C498.4,142.8,498.4,142.9,498.4,142.9L498.4,142.9z M498.1,140.3
		C498.1,140.3,498.1,140.3,498.1,140.3C498.1,140.2,498.1,140.2,498.1,140.3L498.1,140.3c-0.1-0.5-0.2-0.9-0.2-1.3c0,0,0-0.1,0-0.1
		c0,0,0,0,0,0l0,0c0,0,0.1,0,0.1,0l0,0C498.1,139.4,498.1,139.8,498.1,140.3C498.2,140.2,498.2,140.3,498.1,140.3
		C498.1,140.3,498.1,140.3,498.1,140.3L498.1,140.3L498.1,140.3z M497.7,137.7C497.7,137.7,497.7,137.7,497.7,137.7
		c-0.1-0.5-0.2-0.9-0.3-1.3c0,0,0-0.1,0.1-0.1c0,0,0.1,0,0.1,0.1l0,0C497.6,136.8,497.7,137.2,497.7,137.7
		C497.8,137.7,497.8,137.7,497.7,137.7C497.7,137.7,497.7,137.7,497.7,137.7L497.7,137.7z M497.2,135.2
		C497.2,135.2,497.2,135.1,497.2,135.2c-0.2-0.5-0.3-0.9-0.4-1.3c0,0,0-0.1,0-0.1l0,0c0,0,0.1,0,0.1,0
		C497.1,134.2,497.2,134.7,497.2,135.2C497.3,135.1,497.3,135.2,497.2,135.2L497.2,135.2z M478.1,134.1
		C478.1,134.1,478.1,134.1,478.1,134.1C478.1,134.1,478.1,134,478.1,134.1l0.6-0.8l0.2-0.3c0,0,0.1,0,0.1,0c0,0,0,0.1,0,0.1
		c0,0,0,0,0,0l0,0l-0.2,0.3C478.6,133.6,478.4,133.9,478.1,134.1C478.2,134.1,478.1,134.1,478.1,134.1L478.1,134.1z M496.5,132.7
		C496.5,132.7,496.5,132.6,496.5,132.7c-0.2-0.5-0.3-0.9-0.5-1.3c0,0,0-0.1,0-0.1c0,0,0,0,0.1,0l0,0c0.2,0.4,0.3,0.8,0.4,1.2
		C496.6,132.6,496.6,132.6,496.5,132.7L496.5,132.7z M479.8,132.1L479.8,132.1C479.8,132.1,479.8,132,479.8,132.1
		c0.3-0.4,0.5-0.7,0.8-1.1c0,0,0.1,0,0.1,0c0,0,0,0.1,0,0.1l0,0C480.5,131.4,480.2,131.7,479.8,132.1
		C479.9,132.1,479.8,132.1,479.8,132.1L479.8,132.1z M495.5,130.3C495.5,130.3,495.5,130.3,495.5,130.3c-0.2-0.4-0.5-0.8-0.7-1.2
		c0,0,0-0.1,0-0.1c0,0,0.1,0,0.1,0c0,0,0,0,0,0c0.2,0.4,0.5,0.7,0.6,1.1C495.6,130.2,495.6,130.2,495.5,130.3
		C495.6,130.2,495.6,130.2,495.5,130.3L495.5,130.3z M481.6,130.2L481.6,130.2C481.5,130.2,481.5,130.2,481.6,130.2
		c0.3-0.4,0.6-0.7,0.9-1c0,0,0.1,0,0.1,0c0,0,0,0,0,0c0,0,0,0.1,0,0.1l0,0C482.2,129.6,481.9,129.9,481.6,130.2L481.6,130.2z
		 M483.5,128.5C483.5,128.5,483.5,128.5,483.5,128.5C483.4,128.5,483.4,128.5,483.5,128.5C483.5,128.4,483.5,128.4,483.5,128.5
		L483.5,128.5c0.3-0.4,0.7-0.6,1-0.8c0,0,0.1,0,0.1,0c0,0,0,0.1,0,0.1c0,0,0,0,0,0l0,0C484.3,128,483.9,128.2,483.5,128.5
		L483.5,128.5L483.5,128.5z M494.1,128.2L494.1,128.2c-0.3-0.3-0.6-0.6-1-0.9c0,0,0-0.1,0-0.1c0,0,0.1,0,0.1,0
		C493.5,127.5,493.8,127.8,494.1,128.2C494.2,128.1,494.2,128.2,494.1,128.2L494.1,128.2C494.1,128.2,494.1,128.2,494.1,128.2
		L494.1,128.2L494.1,128.2L494.1,128.2z M485.7,127.1C485.7,127.1,485.6,127.1,485.7,127.1c-0.1-0.1-0.1-0.1-0.1-0.1
		c0.4-0.2,0.8-0.4,1.2-0.5c0,0,0,0,0.1,0l0,0c0,0,0,0.1,0,0.1C486.5,126.7,486.1,126.9,485.7,127.1L485.7,127.1z M492,126.7
		L492,126.7c-0.4-0.2-0.8-0.3-1.3-0.4c0,0,0,0,0-0.1c0,0,0,0,0.1,0c0.4,0.1,0.8,0.2,1.2,0.4C492,126.6,492,126.6,492,126.7
		C492,126.7,492,126.7,492,126.7L492,126.7L492,126.7z M488.1,126.3C488.1,126.3,488.1,126.3,488.1,126.3
		C488.1,126.2,488.1,126.2,488.1,126.3c-0.1-0.1,0-0.1,0-0.1c0,0,0,0,0,0c0.4-0.1,0.8-0.1,1.2-0.1h0.1c0,0,0.1,0,0.1,0.1
		c0,0,0,0.1-0.1,0.1h-0.1C488.9,126.2,488.5,126.2,488.1,126.3L488.1,126.3z"/>
</g>
<polygon class="st26" points="364.4,250 0,250 0,0 282.4,0 "/>
<polygon class="st25" points="418.3,250 336.3,0 310.6,0 392.6,250 "/>
</svg>
